/* XPM */
static char *b7ca551704de46629626264a4017dd9d9WxRa60M15BEHVtG[] = {
/* columns rows colors chars-per-pixel */
"64 64 205 2 ",
"   c #151514",
".  c #171716",
"X  c #1A1916",
"o  c #171819",
"O  c #1A1B1D",
"+  c #2D1E0F",
"@  c #241D16",
"#  c #3E240E",
"$  c #23221D",
"%  c #2C241B",
"&  c #362312",
"*  c #1B1E21",
"=  c #1D2123",
"-  c #1E2329",
";  c #252421",
":  c #2A2627",
">  c #2D2B25",
",  c #20262C",
"<  c #222A2D",
"1  c #2C2D2B",
"2  c #312A24",
"3  c #3D2F20",
"4  c #322E2A",
"5  c #393229",
"6  c #242B33",
"7  c #262B33",
"8  c #262D39",
"9  c #332F30",
"0  c #283235",
"q  c #27313B",
"w  c #29333C",
"e  c #2D3A3E",
"r  c #3E3B34",
"t  c #353639",
"y  c #43260D",
"u  c #47280D",
"i  c #4D2B0F",
"p  c #422A15",
"a  c #4A2D14",
"s  c #512E10",
"d  c #4C331C",
"f  c #593619",
"g  c #603715",
"h  c #453727",
"j  c #523925",
"k  c #443C35",
"l  c #413F38",
"z  c #503C32",
"x  c #633F21",
"c  c #3D403D",
"v  c #6E4019",
"b  c #59412B",
"n  c #454035",
"m  c #4F4437",
"M  c #45433B",
"N  c #4A453B",
"B  c #4D493D",
"V  c #574636",
"C  c #654123",
"Z  c #69472E",
"A  c #794C27",
"S  c #6B4A32",
"D  c #704C33",
"F  c #7D5838",
"G  c #2A3541",
"H  c #2C3A44",
"J  c #2E3C49",
"K  c #343D46",
"L  c #2F4048",
"P  c #3F4445",
"I  c #32424D",
"U  c #344653",
"Y  c #364A55",
"T  c #3A4D55",
"R  c #364B59",
"E  c #384E5A",
"W  c #3B535E",
"Q  c #3C5462",
"!  c #3E5B68",
"~  c #464645",
"^  c #4D4A43",
"/  c #494947",
"(  c #534E43",
")  c #555145",
"_  c #5A564B",
"`  c #5C5649",
"'  c #4D5050",
"]  c #495557",
"[  c #545452",
"{  c #595954",
"}  c #675746",
"|  c #635C4C",
" . c #775F47",
".. c #645E53",
"X. c #6C6554",
"o. c #66625A",
"O. c #6B665A",
"+. c #6D695C",
"@. c #716755",
"#. c #746A56",
"$. c #7B6E56",
"%. c #706758",
"&. c #746C5C",
"*. c #796F5A",
"=. c #7E7057",
"-. c #77705F",
";. c #7C725D",
":. c #455C66",
">. c #425C6A",
",. c #465F70",
"<. c #44606C",
"1. c #516369",
"2. c #446473",
"3. c #486774",
"4. c #46677A",
"5. c #476979",
"6. c #4A6D7C",
"7. c #506E7F",
"8. c #6D6D63",
"9. c #736E61",
"0. c #767163",
"q. c #7B7464",
"w. c #7F7867",
"e. c #767469",
"r. c #7B7669",
"t. c #7E796B",
"y. c #647377",
"u. c #7E7C71",
"i. c #8A5528",
"p. c #935725",
"a. c #9B5F2C",
"s. c #885C37",
"d. c #A05F2A",
"f. c #8F663F",
"g. c #9A673A",
"h. c #A3612B",
"j. c #A26737",
"k. c #B46C31",
"l. c #866343",
"z. c #9E6C40",
"x. c #81755D",
"c. c #85785E",
"v. c #A06E40",
"b. c #817661",
"n. c #847A64",
"m. c #8A7D65",
"M. c #837C6B",
"N. c #857E6E",
"B. c #897E6A",
"V. c #837E71",
"C. c #847F71",
"Z. c #7D8179",
"A. c #8E8067",
"S. c #87806E",
"D. c #8B816D",
"F. c #918167",
"G. c #91846B",
"H. c #868071",
"J. c #868173",
"K. c #868276",
"L. c #8A8474",
"P. c #8F8876",
"I. c #878478",
"U. c #8B8679",
"Y. c #8E897C",
"T. c #928671",
"R. c #938974",
"E. c #9A8D76",
"W. c #918B7B",
"Q. c #4D6E81",
"!. c #4D7284",
"~. c #4E7689",
"^. c #527585",
"/. c #53798B",
"(. c #577B8C",
"). c #547E92",
"_. c #5A7E91",
"`. c #588397",
"'. c #5C8394",
"]. c #57849A",
"[. c #5B899E",
"{. c #63899A",
"}. c #5B8DA3",
"|. c #5F91A9",
" X c #658EA3",
".X c #6696AB",
"XX c #6599B0",
"oX c #6A9EB5",
"OX c #709FB5",
"+X c #6DA3BB",
"@X c #71A0B5",
"#X c #73A6BD",
"$X c #76A9BF",
"%X c #74A9C1",
"&X c #79ADC4",
"*X c #7AB0C7",
"=X c #7EB5CD",
"-X c #7FB8D1",
";X c #928E81",
":X c #959084",
">X c #81BBD4",
",X c #84BFD9",
"<X c #86C2DB",
"1X c #89C5DF",
"2X c #8AC6E0",
/* pixels */
"U.I.V.t.t.C.K.K.L.K.U.Y.U.H.N.N.N.H.V.M.M.N.M.M.C.L.H.M.M.C.N.M.M.t.V.H.V.U.P.U.H.U.Y.P.U.P.P.P.R.W.K.K.K.I.U.Y.U.K.I.U.U.U.I.K.",
"N.M.M.M.n.M.B.B.B.B.B.D.B.n.n.n.n.n.N.N.x.x.x.x.c.n.m.n.n.n.x.x.x.x.t.t.B.D.D.D.D.F.D.F.G.F.G.G.G.G.T.U.H.N.H.H.M.M.N.H.H.C.N.M.",
"M.w.r.q.;.b.n.n.n.n.B.B.n.b.b.b.b.b.b.q.=.$.=.=.x.x.c.x.x.x.x.=.=.=.q.r.m.m.B.A.A.B.A.D.D.D.D.D.D.D.D.C.M.M.M.M.M.M.M.M.M.M.M.w.",
"M.w.q.0.b.n.B.B.B.B.B.B.B.n.x.b.n.n.q.q.=.$.x.x.x.x.x.x.x.x.x.x.x.=.w.M.m.B.A.F.F.A.D.D.F.F.A.D.F.F.B.t.M.M.N.M.M.M.M.M.M.M.M.r.",
"r.q.0.9.q.w.b.w.M.B.B.B.M.b.-.;.;.q.q.9.&.*.*.*.;.;.;.;.;.;.;.-.;.-.t.t.b.n.n.n.m.B.m.n.n.n.n.n.m.B.w.r.r.w.r.0.w.q.w.w.w.w.r.r.",
"H.H.L.L.H.H.C.u.M.M.C.M.M.r.0.0.q.r.t.M.q.q.r.r.w.M.N.M.M.M.M.M.M.M.M.M.N.N.C.V.V.H.M.M.M.M.M.M.M.C.H.K.C.C.V.t.H.H.H.H.H.U.H.C.",
"D.D.D.D.D.D.L.C.q.-.*.&.&.%.O.&.&.&.&.&.&.&.q.M.;.x.n.x.b.b.b.b.b.b.b.b.b.b.N.K.w.b.-.*.-.-.-.-.-.q.q.-.q.q.M.U.D.D.D.D.D.D.D.D.",
"D.m.m.m.B.B.B.w.&.*.&.&.&.X.X.%.&.&.%.%.%.&.9.w.;.x.x.x.;.x.x.x.x.x.;.;.x.x.n.M.-.;.-.;.-.*.&.-.*.*.&.&.*.-.q.M.D.D.D.D.D.D.D.B.",
"D.B.m.B.B.m.B.w.-.*.&.&.&.&.%.&.&.&.&.&.&.&.9.n.b.b.x.x.x.b.b.b.b.b.x.x.m.c.n.M.q.;.-.;.-.-.&.-.-.-.-.&.&.-.q.M.D.D.D.D.D.D.D.D.",
"n.n.B.B.B.B.M.0.&.&.&.&.&.X.X.%.&.&.&.&.&.&.9.w.b.b.b.x.x.b.b.b.b.b.b.b.n.n.w.r.-.-.*.-.-.-.&.&.-.&.&.&.&.&.&.r.B.D.B.D.D.D.D.B.",
"n.w.M.M.N.N.V.V.r.r.w.0.q.9.9.9.r.r.r.w.w.r.C.K.N.N.M.M.M.w.0.r.w.M.M.M.M.M.V.V.r.w.r.r.r.0.0.0.w.q.w.0.0.0.r.u.M.M.M.C.H.H.L.M.",
"n.n.m.n.m.B.D.D.B.m.m.m.m.w.M.N.T.T.T.T.G.T.E.E.L.O.{ { [ [ [ [ [ [ [ [ ^ ^ ^ ^ _ w.N.N.N.M.V.V.D.D.D.B.B.B.D.H.D.D.D.B.D.L.P.D.",
"x.x.c.x.x.x.x.x.x.x.x.x.c.q.w.m.F.F.F.F.F.F.F.n.&.K q J I U U U I G G G - O o . > | &.q.q.w.u.M.n.n.n.n.n.b.n.n.m.n.n.n.m.B.D.n.",
"x.x.c.c.c.c.c.x.x.c.x.x.c.;.w.m.F.F.G.G.F.F.A...t 8 R /.XX%X%X%X.X>.2.!.Q H , O X ; ) q.w.w.t.M.m.m.m.m.n.b.m.m.n.m.m.m.m.m.D.n.",
"x.x.x.x.x.x.x.=.=.x.x.=.x.;.N.m.F.F.F.F.B.x...~ G ,.[.#X>X2X2X2X*X3.6.].2.I 8 - O . 4 ( &.0.t.n.m.m.m.m.n.n.m.m.m.m.m.n.m.m.B.x.",
"0.q.q.q.0.0.0.0.0.&.q.q.w.M.C.N.B.B.B.B.w.o.t w R OX<X1X1X2X2X2X*X3.6.].2.I 8 6 , o . $ _ 0.V.w.n.B.B.n.n.n.n.B.n.n.n.n.n.M.q.0.",
"I.I.U.U.U.K.K.V.V.t.q.w.M.N.M.N.M.M.M.r.{ K 8 E ).*X2X2X2X2X2X2X*X3.6.].2.I 8 6 6 , O X > _ N.H.S.D.D.H.D.N.D.H.V.u.t.t.t.t.t.u.",
"w.w.w.w.w.q.q.q.u.q.&.&.;.;.;.-.&.-.-.&./ w R Q.|.%X-X,X@X X X X_.W Q 2.E G , - - - O . . n n.A.m.m.m.A.m.m.m.D.U.V.q.0.0.0.q.q.",
"q.w.w.q.q.0.0.0.r.0.&.&.;.;.;.*.&.-.-.&./ J /.}.}.}.oX%X3.J I U I J J J J w , = = - = O . n c.A.m.m.m.m.m.c.n.n.S.w.0.0.&.0.0.0.",
"q.w.w.q.q.q.0.0.r.0.&.&.x.b.;.*.-.q.q.&./ I ).}.].>.Q >.E >.{. X X X X X X X'.!.6.`.^.Q - n c.m.m.m.m.m.m.m.m.n.M.w.q.0.0.0.0.q.",
"0.0.0.0.q.q.0.0.e.9.&.&.b.b.q.&.&.&.q.&./ J !.~.4.J 8 H Q '.>X2X2X2X2X2X2X2X<X+XoX,X%X/.< k q.n.b.q.n.m.m.m.b.n.t.r.0.0.0.0.0.0.",
"V.u.C.C.D.S.S.S.U.H.M.N.T.L.D.N.t.M.N.M.' G W U G q J Q !.XX,X2X2X2X2X2X2X2X<X+XoX,X%X/.6 M H.U.H.u.H.H.H.S.M.C.U.K.M.M.M.M.M.M.",
"B.U.D.m.A.D.D.m.B.B.B.B.F.F.F.D.H.C.B.n.^ w R J w Q 5.~.].oX,X2X2X2X2X2X2X2X<X+XoX,X%X/.6 N D.T.P.H.b.b.b.b.q.;.b.b.;.;.;.;.;.;.",
"q.S.m.m.m.m.m.m.m.m.m.m.m.B.B.m.N.M.m.c.^ w R P ~ y.{.}.].[.oX@X@X@X@X@X@X@XoX`.).XX[.2.- N B.G.L.M.;.x.;.;.;.;.;.;.=.;.;.=.;.*.",
"q.N.D.B.D.m.m.m.m.m.m.m.m.B.B.m.N.M.n.x.^ w T } g.j.B.[.6.E 0 6 6 6 6 6 6 6 6 < < 6 < - . N D.G.L.M.;.;.;.;.;.;.;.;.;.=.;.;.=.;.",
"q.M.B.m.m.n.m.m.m.m.m.m.m.m.m.m.M.M.n.b.^ w T  .k.k.l.:.I 6 = o . * X . O O . O O .   . . N D.G.D.w.;.=.=.=.;.;.;.;.;.;.;.=.;.;.",
"V.K.C.N.B.q.w.M.B.M.B.M.M.w.M.N.V.V.N.M./ q I } g.h.D 6 O O 6 = O 6 - O 6 , O , 6 . . . $ ^ M.H.K.V.r.w.w.q.w.M.M.M.w.M.w.q.q.w.",
"U.Y.U.U.U.K.H.D.D.D.D.G.D.H.L.P.R.P.W.U.' 6 - 1 k k t 6 O = I w 8 I G 6 J H 6 H H X . $ _ t.K.M.V.M.t.M.H.U.U.H.H.U.L.H.U.Y.U.U.",
"H.U.H.H.D.H.D.D.F.A.A.F.D.D.H.D.L.L.L.P.o.P O O - 6 q H q I ^.^.Q._./.6.(./.7././.<.0 $ X.H.t.q.q.q.q.w.w.K.H.B.N.D.D.N.S.U.U.H.",
"P.P.L.H.S.C.D.G.D.D.D.D.D.N.B.L.D.D.L.P.H.O.1 X o - G Y E 6.$X=X-X>X-X-X>X>X-X>X=X&X:.$ X.M.r.q.q.q.q.w.M.H.S.B.D.D.L.D.H.U.U.U.",
"P.P.H.H.N.V.D.G.F.D.D.D.D.M.M.N.N.B.H.P.H.t...r . o , G Y >.^. XoXoXoXoXoXoXoX+X.X/.I $ X.M.r.w.q.q.q.w.M.V.N.B.B.D.D.D.S.K.U.P.",
"U.U.L.C.V.K.T.T.D.D.G.D.B.t.M.N.N.N.H.L.L.u.8.{ T T E R U I L W 3.3.3.2.3.3.3.3.! I , O B 9.V.M.M.t.t.M.H.U.K.M.H.L.U.H.V.I.U.L.",
"L.D.D.B.B.B.B.m.m.n.n.n.w.V.H.D.D.D.D.L.H.e.1.{.=X=X#X`.E 6 = = = = = = * = = = = O o . O ^ r.N.S.M.M.H.K.U.H.M.H.U.U.U.Y.Y.L.D.",
"n.b.b.x.b.x.n.n.n.x.x.x.M.M.n.m.m.m.m.n.| ' {.&X1X2X,X#X5.I H H w , - * o o = - < w 6 - - 1 n X.n.n.n.w.n.w.w.n.n.M.M.M.U.D.n.n.",
"b.b.b.b.b.n.n.n.n.x.x.x.M.M.m.m.n.n.m.b.n e &X2X2X2X2X>X/.W W W R H J I w G I H H E J 6 6 = $ ` n.n.n.n.w.w.M.n.M.M.M.M.H.B.n.b.",
"x.x.x.b.x.n.n.n.b.x.;.;.M.M.n.m.n.n.n.;.k e $X1X2X2X1X>X/.W W Q W W 3.`.`.`.).2.W W J 6 6 = $ ` M.M.n.n.n.w.n.n.M.M.M.w.M.B.n.x.",
"b.q.b.n.n.b.n.b.b.;.&.&.M.M.q.-.-.-.-.&.r 0  X-X1X2X&X`.E I 5.!./.{.oX%X%X%X%XXX[.!.R 6 6 = $ ` M.M.M.w.M.M.w.w.M.M.w.r.V.M.n.q.",
"H.H.H.U.H.H.L.H.H.M.w.t.K.K.V.t.t.V.K.t.^ e 6. X$X$X`.U - q ~.].}.%X=X>X,X,X>X=X#X[.Q 6 6 , 9 8.U.U.U.U.U.U.U.U.Y.Y.U.U.:XW.P.H.",
"n.n.M.B.M.n.M.M.n.M.V.t.r.r.w.r.r.t.V.t.9.{ 0 0 0 0 < = . < Q >.<.3.).XXXXXXXX/.3.>.e o o r &.B.D.D.L.D.D.L.L.L.R.W.W.P.L.D.B.n.",
"b.b.n.n.b.b.b.n.b.M.M.0.&.&.&.&.&.&.0.&.&.o.M > . . o * * 6 R W W W 6.}.}.}.[.5.W W 0 X r ..B.D.D.D.D.D.B.D.L.L.R.R.U.H.B.M.n.q.",
"q.b.n.n.b.q.b.b.b.r.t.9.&.&.&.&.&.&.q.&.&.&.&.^ @ . O 6 6 G E W W W 6.}.}.}.[.5.W R 6 ; +.B.B.D.D.D.D.D.D.D.D.D.L.R.U.D.B.n.n.q.",
"-.q.b.q.w.;.q.b.q.q.M.&.O.&.&.&.&.&.&.&.&.&.0.O.( ; * 6 6 G E W W W 6.}.}.}.[.5.Y H - ; O.B.N.N.B.N.B.D.D.D.D.D.L.L.K.M.B.n.q.-.",
"w.M.M.M.M.r.w.w.M.V.V.e.9.9.r.r.r.r.r.q.r.r.t.t.9.1 X = : 9 c P ~ | 9.Z.Z.Z.u.&.( 1 9 M 9.w.H.H.H.H.H.H.H.H.H.K.L.U.;XK.r.w.w.w.",
"n.B.B.D.D.B.M.n.B.H.B.M.M.w.M.n.n.n.n.b.b.b.n.B.&.4 . X & p p p f i.j.j.j.j.j.j.A % ^ r.V.w.B.B.B.B.B.B.B.B.B.B.B.T.R.Y.U.N.B.n.",
"x.b.n.B.n.b.x.x.b.b.n.n.M.q.x.x.x.x.;.*.*.=.;.x.%.> . . ; 2 2 2 4 z V b C C b C f @ B w.V.q.;.b.b.b.b.;.;.q.b.b.b.B.B.S.H.m.n.;.",
"x.b.n.B.m.b.x.x.b.b.n.n.r.-.x.x.x.x.x.=.*.=.=.=.@.> X - q G G 8 8 w G t j j t j d $ r o.r.q.;.q.b.b.b.;.b.b.b.b.m.B.B.B.N.B.n.b.",
"x.n.n.m.n.b.x.x.b.n.n.M.M.q.;.;.;.;.;.=.$.*.$.#.| > < U R E Y H w U E ] s.s.' F i.9 ; 1 8.q.q.b.b.b.b.;.;.;.b.n.m.m.n.n.M.m.m.b.",
"w.n.n.n.n.w.q.q.n.n.B.N.K.V.N.N.N.N.N.M.w.w.q._ r e I W W R J w w Y W ] f.f.] l.s.9 * ; O.r.w.w.M.M.w.q.q.q.q.q.w.M.n.w.t.M.M.b.",
"w.M.M.M.w.M.M.r.w.b.n.b.n.B.N.D.D.D.N.B.n.M.M.^ O H Y Y U H 6 , 8 Y W ] l. .]  .F 4 O $ _ q.H.L.L.U.L.H.S.N.C.V.V.N.C.L.U.C.N.M.",
"*.-.;.-.&.*.-.M.q.;.;.;.*.;.b.b.b.b.x.;.*.;.;.B X 6 w 8 - O o . = U W W ] ] W ] P = . . $ B b.m.m.m.m.m.n.n.n.H.M.q.q.q.-.-.;.-.",
"&.*.=.*.#.&.&.0.-.*.;.;.;.;.b.n.n.b.;.*.*.%.B b C Z S S C d X . = U W W W W W W ' b x f @ n x.m.m.m.m.n.c.c.n.n.w.;.-.-.&.-.-.*.",
"#.&.&.&.#.*.$.&.&.*.*.;.=.;.;.b.n.b.;.*.%.) % f d.h.h.h.a.A @ . O L U U U Y T T ) a.a.i.3 B x.m.m.m.m.n.x.x.x.q.q.;.*.&.&.*.-.;.",
"&.&.&.&.&.&.&.9.&.&.&.&.&.&.-.q.n.b.q.&.N % & i f g g f a % . . . * = = = > h h d f a 3 ) X.b.n.n.m.b.b.;.;.q.q.0.&.&.&.+.&.&.-.",
"M.M.M.M.M.M.M.C.M.M.M.t.M.t.M.C.H.H.0._ 5 + y u u u # & 5 r l l l l n r @ @ y u u u + ; +.t.M.N.N.N.M.M.M.M.M.C.M.M.M.t.t.t.N.N.",
"x.x.;.x.x.x.x.=.=.x.c.M.K.r.q.q.w.q.` 2 p s s i u y & > ..0.;.-.&.*.;.X.> + i s s s & 2 O.0.;.x.;.;.-.*.*.*.*.;.-.;.;.;.V.n.x.c.",
"x.x.=.x.x.x.x.x.x.x.x.b.V.0.-.-.&.B j A i.p.p.v y + 5 _ e.q.;.b.-.;.x.X.> p i.p.p.p.i.A h ( *.;.;.;.;.$.$.*.*.*.;.;.;.-.w.b.x.x.",
"c.c.x.x.x.x.=.x.x.x.c.n.M.0.q.-.&.B V g.z.z.z.F b k ) 0.u.w.;.;.;.;.;.%.N V g.g.v.v.v.f.m ) ;.;.;.;.;.*.*.*.;.;.-.=.;.;.M.b.x.c.",
"x.x.x.=.=.=.=.=.=.x.x.q.M.0.*.*.&.-.q.-.&.&.&.*.&.-.q.q.K.q.-.-.-.-.-.*.&.%.&.*.;.-.;.q.V.q.;.;.*.;.;.$.$.*.*.*.;.;.;.-.q.-.=.x.",
"M.M.n.w.q.q.w.n.M.n.M.M.V.r.r.r.w.M.M.r.&.&.0.q.0.0.q.r.H.t.t.M.M.w.t.r.9.0.0.r.w.w.w.t.V.t.t.M.w.M.M.q.0.0.w.w.w.w.w.t.t.r.w.M.",
"D.D.D.D.L.H.D.D.D.D.D.H.V.M.M.M.w.M.M.M.V.M.b.b.b.b.b.n.V.K.H.H.H.H.H.L.H.t.q.q.w.w.w.M.V.H.M.B.M.M.n.w.u.t.t.w.w.w.w.V.I.L.D.D.",
"m.n.n.n.N.B.n.n.n.n.n.m.N.q.-.&.&.*.-.-.w.;.$.$.=.=.x.x.N.N.M.M.B.B.M.M.M.0.&.&.-.0.-.0.M.w.-.;.;.;.;.$.r.0.9.0.0.&.9.q.V.B.n.n.",
"m.m.n.n.M.B.m.m.m.m.m.B.M.q.*.&.&.-.-.-.q.*.$.$.x.x.x.=.M.M.M.M.B.B.M.M.r.0.&.&.0.q.q.q.r.w.-.;.x.-.;.*.0.0.0.0.0.0.0.r.M.M.n.n.",
"b.;.=.=.0.q.;.b.b.b.b.b.w.q.&.&.*.-.-.-.9.&.#.#.$.$.$.$.0.w.M.M.B.B.N.M.r.&.&.&.&.&.9.&.0.q.;.;.x.-.;.-.0.9.&.9.&.+.&.9.r.w.;.;.",
"0.9.+.&.t.r.9.0.0.0.0.0.t.9.&.&.&.&.&.&.0.9.X.+.9.0.0.0.t.e.w.w.n.w.0.0.e.0.+.8.9.9.9.0.r.0.-.q.q.q.&.&.r.r.9.9.0.9.0.r.K.r.0.&."
};
