/* XPM */
static char *result[] = {
/* columns rows colors chars-per-pixel */
"64 64 243 2 ",
"   c #100B0B",
".  c #171212",
"X  c #1D1313",
"o  c #230709",
"O  c #25090A",
"+  c #2C0A0C",
"@  c #330B0E",
"#  c #3B0B0D",
"$  c #2F0F11",
"%  c #340E10",
"&  c #3C0E12",
"*  c #241B1A",
"=  c #281818",
"-  c #3C1214",
";  c #381718",
":  c #2A201F",
">  c #381C20",
",  c #2D2426",
"<  c #37292A",
"1  c #3D302E",
"2  c #352B32",
"3  c #3B3236",
"4  c #51110D",
"5  c #400F12",
"6  c #431114",
"7  c #4B1216",
"8  c #4D1419",
"9  c #46191B",
"0  c #571715",
"q  c #52151A",
"w  c #541B1C",
"e  c #591A1E",
"r  c #67140F",
"t  c #691B13",
"y  c #761B13",
"u  c #72261C",
"i  c #4C1F23",
"p  c #531D21",
"a  c #5C1C22",
"s  c #442629",
"d  c #5F2022",
"f  c #5A2525",
"g  c #473739",
"h  c #533235",
"j  c #642626",
"k  c #66382A",
"l  c #79342A",
"z  c #6F3430",
"x  c #544138",
"c  c #704E3A",
"v  c #3B3842",
"b  c #463C47",
"n  c #543D44",
"m  c #6B3E42",
"M  c #49424B",
"N  c #554443",
"B  c #59494A",
"V  c #4A4755",
"C  c #4C4C5C",
"Z  c #544C58",
"A  c #4F505F",
"S  c #585458",
"D  c #664C4B",
"F  c #795943",
"G  c #6B4E50",
"H  c #655252",
"J  c #6A5454",
"K  c #69585A",
"L  c #6D5A5A",
"P  c #735C5D",
"I  c #766159",
"U  c #535364",
"Y  c #585767",
"T  c #565769",
"R  c #5A5B6C",
"E  c #655B66",
"W  c #755F63",
"Q  c #5F6072",
"!  c #686568",
"~  c #796466",
"^  c #626375",
"/  c #676878",
"(  c #696B7E",
")  c #707077",
"_  c #78757C",
"`  c #8E1C12",
"'  c #A91E12",
"]  c #8A291A",
"[  c #982718",
"{  c #99301E",
"}  c #A92616",
"|  c #B72816",
" . c #A4321C",
".. c #B9341B",
"X. c #863726",
"o. c #8B362E",
"O. c #963A26",
"+. c #A93C23",
"@. c #B33C23",
"#. c #C92714",
"$. c #C8371C",
"%. c #D5341A",
"&. c #C43C20",
"*. c #9A4530",
"=. c #B9462A",
"-. c #AF4D32",
";. c #C94A26",
":. c #D34724",
">. c #CF5833",
",. c #D66237",
"<. c #8C534F",
"1. c #8C704E",
"2. c #8A7959",
"3. c #AC6553",
"4. c #AD6A5D",
"5. c #836C6C",
"6. c #837768",
"7. c #936E73",
"8. c #897576",
"9. c #967677",
"0. c #937A7A",
"q. c #C76A50",
"w. c #F1B31D",
"e. c #D6A83B",
"r. c #E7AD2F",
"t. c #ECB82B",
"y. c #F1BB25",
"u. c #E8B939",
"i. c #F5C31E",
"p. c #F5CD2D",
"a. c #F1C433",
"s. c #978559",
"d. c #A3885A",
"f. c #AC925B",
"g. c #998A6E",
"h. c #8C837A",
"j. c #B69966",
"k. c #B18870",
"l. c #A89876",
"z. c #B9A777",
"x. c #D2B255",
"c. c #E5B551",
"v. c #CE9A65",
"b. c #C6A76B",
"n. c #CDAB71",
"m. c #E9C74E",
"M. c #DEC377",
"N. c #E5CA70",
"B. c #6C6E83",
"V. c #6E7185",
"C. c #73768A",
"Z. c #757888",
"A. c #777C90",
"S. c #7A7D91",
"D. c #8A7F83",
"F. c #77838B",
"G. c #7C8295",
"H. c #7D859A",
"J. c #7694A9",
"K. c #8A878A",
"L. c #9B8688",
"P. c #84889C",
"I. c #939394",
"U. c #979698",
"Y. c #AD9490",
"T. c #B4A98B",
"R. c #8A8DA1",
"E. c #8D92A3",
"W. c #959AA4",
"Q. c #AA99A0",
"!. c #9BA2AA",
"~. c #97A4B1",
"^. c #A7A7AA",
"/. c #A2A5AC",
"(. c #B4ABAB",
"). c #B4AFAE",
"_. c #A5ACB6",
"`. c #ABADB2",
"'. c #AEB2B7",
"]. c #B5B7B9",
"[. c #CC9D91",
"{. c #CAB68E",
"}. c #C4B6B5",
"|. c #BEC1BF",
" X c #DBC686",
".X c #D3C896",
"XX c #E4D78D",
"oX c #D1C8B1",
"OX c #D8D6B7",
"+X c #E1D8A7",
"@X c #E2E4B8",
"#X c #98BACF",
"$X c #ABBBC6",
"%X c #B9BDC3",
"&X c #BCC2C8",
"*X c #B7C8D4",
"=X c #B6CDDA",
"-X c #8CD0F9",
";X c #98D8FA",
":X c #BBD7E7",
">X c #AED9F1",
",X c #A7DCF9",
"<X c #AADDFA",
"1X c #A5E1FC",
"2X c #ACE2FB",
"3X c #BCE2F6",
"4X c #B4E4FB",
"5X c #BBE6FC",
"6X c #BEE8FC",
"7X c #C6C8CA",
"8X c #D4CBCC",
"9X c #D8DAC9",
"0X c #C7CDD3",
"qX c #C9D3DA",
"wX c #D2D3D5",
"eX c #D7D9D8",
"rX c #DBDDDD",
"tX c #DDE4CC",
"yX c #D8E3D9",
"uX c #E1E1DE",
"iX c #C6DAE6",
"pX c #D7DDE3",
"aX c #CDE3EA",
"sX c #D8E3E8",
"dX c #C9E6F7",
"fX c #C4E9FC",
"gX c #CCECFD",
"hX c #D7E9F3",
"jX c #D3EEFD",
"kX c #D9EFFD",
"lX c #DEF0F6",
"zX c #D6F0FD",
"xX c #DCF1FE",
"cX c #E3E4E5",
"vX c #E7E8E6",
"bX c #EBECEC",
"nX c #F0F0EF",
"mX c #E5ECF2",
"MX c #E3F3FE",
"NX c #EEF5F9",
"BX c #EAF6FD",
"VX c #F3F3F3",
"CX c #F7F9FA",
/* pixels */
"MXMXBXBXCXBXBXBXBXBXMXMXMXMXxXxXxXxXMXzXzXzX6XgXzXxXBXxXxXoXyXhXjXjXlXzXzXzXzXgX6X5XzXjXjXjXzXxXzXjXxXxXxXxXzXzXxXxXjX6X5XzXzXBX",
"BXMXMXMXMXBXBXMXxXzXBXMXBXMXMXMXMXBXBXxXzXjXzXzXMXMXkX+Xn.x.n.dX2XfXjXgXfX5X6XfXgX5X6XjXzX6X5X2XfXzXMXjXxXgXzXxXxXxXgXBXBXMXBXBX",
"6X5XfXMXMXxXxXMXMXxXzXzXzXMXBXBXBXMXxXzXxXzXjXxXxXxXxXc.w.i.i.XXfX6XlXtXxXzXzXgXgXxXxXgXgXfXfXfX4XjXBXxXzXzXxXxXfXzXMXMXxXMXlXMX",
"jXzXzX4XxX6X;X,XMXMXMXMXzXgXxXBXxXxXxXzXzXjXjXzXgXgX=XT.x.t.p.N.1XzX+Xa.yXOXaXgXjXgXgXgXgXxXxXjXfXfX6XgXxXzXxXxXMXMXlXxXMXlXMX6X",
"zXjXgXfX;X4XfX6X;X<XgXgXjXgXgXzXzXzXzXzXvXXXN.N.sX0X_.~.!.x.a..X2XsXn.w.m.t.eXzXgXfXfX4XgXgXjXzXxXzX4XjXjXzXzXxXxXMXMXxXxXxXgX6X",
"gXgXdX6X5X5X5X6X5X,X5XfXfXgXjXjXgXzXzXzXtXm.p.i.@X0XJ.E.H.h.{.oX:X.Xp.r.r.t.OXgXgXgXjXfX4XgXjXgXzXzX2XgXgXjXzXzXxXxXxXMXMXxX2XjX",
"gXfXfXfX5X5X6X4X4X4X1XdXfXgXjXgXgXfXgX6XtXXXp.u.oXQ.%XnX|.! U.|.eXn.w.u.c.OXaXgXgXgXzXgXfX3XgXjXjXzX;XgXjXjXzXzXzXxXMXMXMXfXgXgX",
"gXjXgXgXgX4X4X#X(.Y.q.>.[.jXjXjXgXfXgXgXtXN. XvXvXh.I.~ F I g./.wX9Xm.a.M.yXwXOXgXjXgXjXjX5X6XjXzX4X4XzXgXjXjXjXzXzXxXxXzXzXgXgX",
"jXjXgXgX6X5X*X=.@.y } | q.*XkXkXxXjXgXjX+Xm.).cXyXU.2.f.f.1.c I.vXvX{.t.c.m.N..X6XjXjXzXzXjX5X-X;XfXjXjXgXgXjXjXzXzXzXzXjXjXgXfX",
"fXfXgXgX6X5X[.[ +.| &.;.@.$.v.kXlXzXgXzXzX.XwX7XU.1.F c s x d.oXCXnX|.c.y.w.u. XgXgXjXzXzXzX2X;XgXxXMXxXxXzXgXjXzXzXzXfXxXgXfXjX",
"fXfXgXgX6X5Xq.$.} [ $.| ;.| q.kXzX1XfXzXzX.XyX].L F d.s.F F 6.(.7XvX|.d.e.e.u. XgXzX9XyXhX4X,XlXzXzXjXxXxXzXjXjXzXzXzXgXzXzXjXfX",
"jXfXgXfXfX5Xq.| ;.=.;.;.@.+.q.hXfX2XgXzXjXI.].h.m c j.n.n.s.~ ~ ^.'.'.f.b.f.e.N.zXxX9XoXgXdXzXlXjXzXjXxXjXjXzXgXgXgXzXjX6X5XgXfX",
"jX6X6XgXfXiX*. . .] .. .y X.-.kX1XfXgXdXT.g.s.I.c 2.l.b.b.l.G z (.!.'.s.f.j.f.z.lXMXlXdXzXxXxX9X9XkXgXkXzXzXjXzXjXgX2X6XzXzX6XgX",
"zXfX6XgXfXqXO.] =...;.] a ] >.dX1XgXjX'.g.l.(.Q.j 3.b.s.d.G l l g.'.^.U.1. XXXj.g.qXgXzXzXzXxX+X XkXjXjXgXgXjXjXjX1XfXxXzXzXgXzX",
"zXzXgXfXfX0X .=.] ..@.0 O.;.[.2XfXgXzXaXh.h.&X0.*.*.j.j.j.l l ; U.7X!.U.g.s.b.b.s.l.).aXzXzXzXlXtXzXjXgX4XfXgXzX4X4XjXjXzXxXzXzX",
"zXzXzXgXfX0X=.'  ...$.+. ...Y.<XjXjXjX:X|.W.].2 i l 2.j.o.l k f ].vX`.!.l.z.s.d.s.l.).zXzXlXlXzX4XfXsXjXgXzX2X2X-XdXjXjXjXkXzXzX",
"zXzXjXjXgXgXY.[ ] ] t { y | $.[.gXgXgX*X'.^.^.8 8 z c j 9 ~ 8.) x nX7XI.s.l.T.{.T.l.g.dXOXaX;X4XsXsX.XzXxXzXxX6XgXgXjXjXjXjXkXjX",
"xXjXgXjXjXjXgX4.' ] j ] ' $.| ..[.dXqXsXwX).W & 7 j j d J K.h.Y.g Q.yX!.h.2.g.2.s.g.~.dXt..XxXzX@Xm.c.xXxXMXxX4XgXgXjXjXjXjXjXxX",
"MXxXjXjXjXgXjXpX*.+.O.+.` ..$.%.%.q.U.Q.).K.i k & 6 8 q J 8.~ K.h D vX'.~.I.6.2.6.K.'.=X.XM.zXzX@Xy.N.MXxXxXxX<X,XjXjXjXkXkXxXBX",
"MXMXjXjXjXfXgXfX&X3.o.X.[ =.} | $.$.-.p # O 9 k 8 @ 7 # 6 5.~ G 0 9 8XwXW.7XW.I./.W._.7XdXXXyXzX@Xt.N.mXxXxXxX<XMX3XjXjXxXxXMXBX",
"BXMXjXjXMXxX2X4XjXpXk.=.j y ] ` ;...[ p $ M h 8 & % 7 q 4 q e e e q ~ bX`.].uX!.&X7X^.!.|.m.N.sXm.r.m.hXMXxXxXfXxXfXjXjXjXxXBXMX",
"MXMXjXMXxXgXgXxXkXMXMX7Xk.l O.O.u y y l b A b 6 & 5 & & & f f a d e 7 |.uX^.rXrX_.0XyX`.K.x.p.a.p.a.t.sXkXkXxXdXjXgXjXzXkXMXMXMX",
"MXMXMXxXgXgXjXjXjXkXkXkXkXiX}.L.F -.-.A C C n f k 7 z w 7 k f a f a 8 h cXsXwXbXbX].].eX7X].{.r.p.i.a.9XjXjXjXxXfXkXzXxXxXxXMXMX",
"MXxXxXgXjXxXxXjXjXkXMXgXgXjXfX4XfXW.V C C V C 9 @ @ 7 q 7 q a a a a 8 & N rXbXVXCXnXwX^./.}.cXvX+Xn. XzXjXjXkXxXjXjXjXjXxXxXxXMX",
"xXxXjXjXxXjXjXzXjXxXzXfXgXjXgXgX3X$XC T U V C s 8 & & % & 6 8 e q 8 @ O O s ].VXCXCXCXcX%XU.E.^.}.rXrXqX%XhXkXgXgXjXzXkXkXxXxXMX",
"MXxXjXxXjXgXjXjXgXgXgXgXgXgXgXjXiX0XY T Q C V v 6 5 p j j w 8 & @ @ O o O @ Z Z.7XVXCXCXbX8X/.R.!./.%X%XD.D.%XhXgXkXjXxXkXxXxXMX",
"zXjXzXxXjXzXjXfXgXjXjXgXjXjXkXkXpXeX/ R Q U b C 8 8 & + + + @ & 6 @ O o O > A R T ^ 7XCXCXVXcX'.W.W.%X%X%X7.<.Q.4XgX6XzXkXkXxXMX",
"MXxXxXjXkXgXfXjXjXjXjXzXkXkXkXkXqXvXV.^ B.Q V C i z p a p f k @ O o o o O 9 E ^ B.b + 5.vXVXVXcX0X!.`.rX%X`.Q.G iXzXgXzXxXkXxXMX",
"xXxXkXfX4XjXjXjXjXzXzXxXxXkXMXqX_.wX_ ( V.B.A C i ; @ - & + $ + o + + + O $ E B.B.E 7 @ n eXbXVXnXeX`.`.7Xg J ~ *XjXjXjXxXxXBXMX",
"MXMXfX5XjXjXjXjXjXjXjXxXxXkX`.'.`.%XZ.C.A.V.R V i 8 % & d 5 & & & @ + o O h B.C.C.E 7 + 2 U ].nXVXVXpX/.) - @ ; W.gXgXzXxXMXMXMX",
"xXMX6XjXgXgXgXgXgXjXzXxXkX).<.R.S S ) G.G.C.^ C ; e a & @ + + + O + @ & $ s / V.V.Z 7 @ 2 A Q `.cXVXCXwXF.; @ - ~.6XgXjXzXBXMXMX",
"MXfXkXjXgXfX,XgXgXgXxXkX0Xm = * * < , A.G.C.^ i 6 @ + % 6 8 8 7 p 6 & @ o + U B.^ Z q @ b A b R./.uXVXnX&XK.9 n iX4XjXjXMXxXxXMX",
"MXfXxXxXMXgXgXgXfXgXMXkXD.z X X 2 5.E V.S.G p 7 - 8 9 $ + $ + $ @ & 5 # + o s T T n j @ b C C T _./.cXnXbX'.$XgXjXgX5XjXMXMXMXMX",
"xXgXxXxXxXkXgXgXgXgXgXgXD.9 X = > L W n f 7 q 8 @ + + & & & - 8 p p 5 5 & # $ b A b s > v C C A U./.%XvXbXyX_.gXgXjXfXfXxXxXMXxX",
"MXgXgXjXkXxXjXgXfXfXfXgX%Xi X * X < m q q q 7 7 5 + + o @ & 6 8 8 q q q a a p - b 2 .   v C C C ^ 7X'.cXbXbXwX*XjXjXjXfXjXkXxXMX",
"MXxXgXjXxXkXjXjXgXfXfXfX$X= , K n p q q q q 5 @ $ o + , 3 > % O @ 7 p a a d a p , , * * v U C C U W.7XrXbXbXvXqXkXkXkXMXfXjXxXxX",
"xXxXjXjXxXjXjX6XkXjXfXfXW.g N s a a q q q 8 5 ; 2 b C C C C C g 6 & 8 e d j j j * * * * v B.U C R R I.].U.I.rXbXsXxXMXxXkXfXzXxX",
"xXxXjXjXkXjX6XgXfXfXgXiX0XB G f a a a a 5 o 2 C C C C C C C C C C b % 8 a j j j 2 . . . b C.^ C M * X * * = h.VXsXxXMXMXMXjXfXMX",
"xXxXjXxXjX5XjXjXfXfXiXnXuXJ a e a a 8 & g = , U C C C C V A U A C C b i 6 a j a 8 $ $ T A.S.C.B.* X X H 5.J K CXVXhXMXMXxXMXgXjX",
"xXjXMXxX5XkXkXkXjXiXVXCX8Xd q e a 7 s n 2 . 2 v v v v U C T ^ Q T C C C b 5 e a q p 8 n D.J.D.Y . X X 1 8.J K.VXCXpXxXMXMXxXmXfX",
"jXjXMXdXgXxXzXlXjXpXCXnX(.6 7 5 & g 0.0.5.n , 1 g H 1 3 A / V.B.B.U V U T b $ 5 q q 8 8 B.R.R.^ * g 1 B L F.7XvXCXbXkXMXMXMXkXMX",
"MXMXMXjXMXxXfXMXpXVXbXeX].j 5 o o < L P B J J P 7.L.~ , T C.A.A.B.B.C T R B.T > & q q 8 f R.R.S.g = L 8.N B N I.vXcXhXMXMXMXMXMX",
"MXMXMXjXMXjXkXhXnXCXvX7XW.W l ` 4 $ v N D g g W 0.L.S g Q H.P.P.A.B.T T B.B.V.B.> & q 8 7 E A., , x D I L 6.D < 0XwXsXMXMXBXBXMX",
"jXNXMXjXjXzXMXsXCXCXcX'.W.U 0 | ] 4 2 , H 8.6.~ 5.8.H , / P.E.E.S.V.B.T V.S.S.S.C.> 5 a q 9 ^ 1 ~ N : , I ~ g S 7X7XaXMXMXMXMXMX",
"xXBXBXMXdXMXMXpXnXnX0X/.E.T s #.' >.; * , N L ~ 7.8.8.g V.R.E.E.R.S.B.T B.A.R.R.D.W # u a 4 R 3 ~ 5.L ~ 8.H I.7XwX7XsXxXMXMXBXxX",
"zXzXMXfXxXzXzXqXcXrX]./.3X$XV r #.;.w b * * 1 I 9.D.9.M C.R.W.~.E.S.B.U B.S.R.R.D.D.r a [ r Z W L.8.~ N ~ x `.vXvXwXhXxXMXBXMXjX",
"zXgXgXfXMXgXjX0XrX7X'.$XfXfXG.= ' | u b B L J N H B Z T C.R.W.W.E.D.C.B.B.B.S.R.D.B.7 r } | 3 5.0.5.L D x ! wXbXbXpXMXMXMXkXjXjX",
"NXzXgXxXzXzXzXqX7X&X'.:XfXdXC.s r y { g 0.L.5., 2 2 2 A B.R.E.E.R.S.V.B.U B.A.S.R.S.> y #.:.> n L L g F.Z.7XcXbXbXpXBXBXMXkXkXBX",
"MXxX5XjXxXjXxXhX&X%X_.fXjXgXA.Z t } 4 < P ~ P J S 1 X 2 B.D.R.R.H.A.B.^ A R / C.A.C.s ] | :.f X = g g F.zX&XyXbXcXNXBXBXMXzXMXMX",
"MXMX4XxXkXjXxXjXiX].%XjXjXjX=X( # | 4 s ! * g 8.B * 2 V / C.S.S.S.C.B.Q A U T B.V.B.n ` ` :.<.) N B x , U.S ^.bXmXNX5XBXxXxXMXMX",
"MXMX<XxXkXjXkXkXgX:X=XjXjXkXxXhXK O...h ) B W 5.J B B ~.Q V.C.C.C.C./ Q Q qXhXpX_.V.S t ' ,.4.lXaX! L N h 5.8.0XMXBXfXxXxXxXMXMX",
"BXxX4XzXjXjXkXjXzXjXjXkXkXkXjXkX!.` ;.0 _ 5.~ I , ! V ~.R B.V.C.V.B.B.Q Q mXCXNXBX$XS s &.t -.iXzX) B B P L.L.%XBXCXBXxXkXxXMXMX",
"MXMX2XkXkXjXkXkXjXjXjXxXxXxXjXxXqX{ ;.y h.h._ L M 3XhX*XT ( B.B.B.B.B.Q ^ mXBXNXBXkXQ.5...' =.^.hX_ H N L h.0.&XBXBXBXBXMXxXMXBX",
"BXMX5XkXjXjXjXjXgXjXjXkXxXzXxXxX&X*.>.| J L B / J.lXxXzXF.V.B.B.B.B.B.^ B.NXNXBXdXMXkXhX3.%.$.4.! L < , 1 g R hXMXMXBXBXBXxXMXMX",
"MXBX5XMXjXjXjXjXgXjXjXjXjXjXjXxX*Xf ;.$.j '.) #XfXzXlXzXdXW.C.B.B.B.B.B.0XBXBXgXBXkXkXMX9.:.| =.g H N ) iX~.aXjXjXkXBXMXBXMXMXBX",
"BXkX5XkXjXjXgXjXgXgXjXjXxXxXkXxXeXj ,...0 H.) 6.=XlXxXxXkXxXiX*X$X~.$XpXNXBXkXkXMXMXMXkX).:.} ,.D g N K.jXjXjXjXjXjXxXMXxXMXBXMX",
"MXgX5XMXjXjXgXgXgXjXjXxXxXxXxXxXoX-.[ :.y h B ~ hXkXxXxXxXxXMXxXkXMXMXBXBXMXfXjXxXxXxXMX0X>.} *.l x g _ _ :XgXzXgXjXjXMXgXMXMXMX",
"fXkXjXMXjXgXjXjXgXjXxXkXjXxXxXpXq.#.$.| { $ F.qXMXMXMXxXMXxXxXMXMXkXMXMXBXjXjXgXMXxXxXkXqX-.$.t ,.D ~ H 1 P.;XjXjXjXkXdX4XMXMXgX",
"5XMXkXgXjXjXjXgXjXjXjXjXkXwX[.>.| | t 4 *.K lXMXMXMXMXMXxXxXMXxXMXMXMXMXBXfXjXMXMXxXMXzX*X*.$.{ ;.] g.5.B , F.fXkXMXMXMX4XMXjX1X",
"MXBXgXgXgXjXjXgXjXjXjXxXhX*.| ..u ; S s <.wXxXMXBXMXMXMXxXMXxXxXMXkXMXMXMXgX3XkXMXjXMXxXkX<.} } ` +.9.B < ) $XxX6XMXMXMX,XfX4XNX",
"MXMXjXgXgXjXjXkXjXjXkXkXkXQ.5._ J.>XlXxXMXxXxXMXMXMXMXMXMXxXxXMXMXxXMXMXjXfXjXMXBXxXMXzXxX! t [ $.` -.z , %XMXfX;X5XzX2X-X-XlXxX",
"MXBXkX4XkXgXjXgXjXjXkXfXjXMXhXdX5XMXMXxXxXxXxXxXxXMXMXxXMXxXMXxXxXMXMXMXMXkXfXkXxXNXzXxXMX!.X.$ 4 @.@.[ X.F >X;X-X,X2XlXlXgXBXMX",
"MXBXMX;XkXkXjXjXjXdX>X4XkXjXgXfXMXMXMXxXMXxXxXxXxXMXMXxXMXMXxXxXxXxXMXMXMX6X4X2XgXgXMXBXMXsXk.<.~ ; 0 | ` o.=XxXxXMXgXMXxXfXMXMX",
"BXMXMX5X;X-X,X<X<XfXBXkXjXgX5XBXBXBXBXMXMXxXxXkXkXxXxXMXxXxXMXjXzXkXzXMX4XMXNXMXgXfXjXBXMXMXMXhXMX7XU h o.0.mXMXMXMXxXxXgXjXCXMX"
};
