/* XPM */
static char *result[] = {
/* columns rows colors chars-per-pixel */
"64 64 248 2 ",
"   c #37231A",
".  c #1B192D",
"X  c #0F1538",
"o  c #141535",
"O  c #1B1C32",
"+  c #11153A",
"@  c #171A39",
"#  c #231D2D",
"$  c #241D33",
"%  c #1E2136",
"&  c #27212C",
"*  c #36272A",
"=  c #292633",
"-  c #352C35",
";  c #3B3339",
":  c #4D2E1C",
">  c #61391F",
",  c #4B332C",
"<  c #573627",
"1  c #463634",
"2  c #4B3733",
"3  c #643E2A",
"4  c #594438",
"5  c #764A2F",
"6  c #684937",
"7  c #764D36",
"8  c #78523B",
"9  c #0F1B48",
"0  c #141A44",
"q  c #141948",
"w  c #181D55",
"e  c #221E56",
"r  c #152349",
"t  c #172358",
"y  c #13235C",
"u  c #2D2E4E",
"i  c #38364B",
"p  c #23265A",
"a  c #121E63",
"s  c #231F61",
"d  c #0E2064",
"f  c #132364",
"g  c #1A2365",
"h  c #13256B",
"j  c #1A2868",
"k  c #1B296D",
"l  c #172975",
"z  c #1A2C74",
"x  c #1B2D79",
"c  c #1E3176",
"v  c #1D317A",
"b  c #242365",
"n  c #292466",
"m  c #24256C",
"M  c #29246A",
"N  c #232A69",
"B  c #2D326B",
"V  c #252975",
"C  c #22347B",
"Z  c #263779",
"A  c #443D4B",
"S  c #483D5B",
"D  c #594747",
"F  c #514652",
"G  c #67524F",
"H  c #7C5946",
"J  c #6A595F",
"K  c #6E5A67",
"L  c #735C6B",
"P  c #7F646C",
"I  c #895032",
"U  c #86583A",
"Y  c #9D633D",
"T  c #875E47",
"R  c #915E40",
"E  c #8A634D",
"W  c #9A6849",
"Q  c #876756",
"!  c #966D56",
"~  c #9B735A",
"^  c #A56B45",
"/  c #AD724F",
"(  c #A97655",
")  c #B67C58",
"_  c #866868",
"`  c #896A6F",
"'  c #987764",
"]  c #A47B63",
"[  c #AB7E64",
"{  c #B8825F",
"}  c #AC836A",
"|  c #B88869",
" . c #AE8D78",
".. c #B68B73",
"X. c #B8947E",
"o. c #C98759",
"O. c #CC8B5C",
"+. c #D48B59",
"@. c #D58D5D",
"#. c #D6935E",
"$. c #D8935E",
"%. c #C98D64",
"&. c #D38F60",
"*. c #C79169",
"=. c #CC926B",
"-. c #D59363",
";. c #D5966A",
":. c #DB9A6C",
">. c #C89677",
",. c #D39975",
"<. c #DA9D73",
"1. c #DDA176",
"2. c #DDA37B",
"3. c #E2A67D",
"4. c #182E81",
"5. c #1C3286",
"6. c #172D95",
"7. c #193599",
"8. c #1A359B",
"9. c #1C399D",
"0. c #282E84",
"q. c #243A84",
"w. c #253A88",
"e. c #363589",
"r. c #232F92",
"t. c #223A94",
"y. c #263999",
"u. c #36399A",
"i. c #1A37A3",
"p. c #1B3AA4",
"a. c #263CA6",
"s. c #343DA7",
"d. c #3C3CA4",
"f. c #2E3FB1",
"g. c #413B99",
"h. c #413CA4",
"j. c #2E4389",
"k. c #31448B",
"l. c #29429A",
"z. c #32439A",
"x. c #2942A3",
"c. c #2442AD",
"v. c #2C42AD",
"b. c #2D49A9",
"n. c #3446A9",
"m. c #2A44B3",
"M. c #2845B5",
"N. c #2D4AB5",
"B. c #2E4CBA",
"V. c #3546B3",
"C. c #334CB3",
"Z. c #324DBB",
"A. c #2F50BC",
"S. c #3452BD",
"D. c #3B57BB",
"F. c #3E60BE",
"G. c #4453AE",
"H. c #4057BC",
"J. c #384FC1",
"K. c #3353C2",
"L. c #3B54C3",
"P. c #365AC4",
"I. c #3C5BC4",
"U. c #3D55C9",
"Y. c #3E5AC9",
"T. c #425BC6",
"R. c #435CCB",
"E. c #4462CD",
"W. c #4867CB",
"Q. c #4866D2",
"!. c #516ED5",
"~. c #BC9C89",
"^. c #C59C84",
"/. c #D29F80",
"(. c #CCA388",
"). c #D8A687",
"_. c #CDAA94",
"`. c #D7AD94",
"'. c #C8B19E",
"]. c #DAB49C",
"[. c #E1A680",
"{. c #E3AB85",
"}. c #E4AD8B",
"|. c #E8B18E",
" X c #E5B394",
".X c #ECB494",
"XX c #E4B69B",
"oX c #ECB599",
"OX c #ECBA9D",
"+X c #F1B499",
"@X c #C9B7AB",
"#X c #D9BCA8",
"$X c #E7BCA6",
"%X c #EDBDA3",
"&X c #F0BDA3",
"*X c #C9C2BC",
"=X c #D7C4B8",
"-X c #EBC1A8",
";X c #ECC2AB",
":X c #F2C5AC",
">X c #F3C8AE",
",X c #E9C9B6",
"<X c #F5CAB4",
"1X c #F9CCB6",
"2X c #F5CDB9",
"3X c #FACDBB",
"4X c #EED0BE",
"5X c #F2D1BD",
"6X c #FCD1BE",
"7X c #8BCFF9",
"8X c #97D8FA",
"9X c #A6DCFA",
"0X c #AADDFB",
"qX c #B6DCF0",
"wX c #A7E0FB",
"eX c #ACE2FB",
"rX c #B9E2F6",
"tX c #B4E4FC",
"yX c #BBE6FC",
"uX c #BEE8FC",
"iX c #CCCAC8",
"pX c #D7CCC5",
"aX c #DBD1CA",
"sX c #CAD3D7",
"dX c #D7D9D9",
"fX c #EAD5C9",
"gX c #F5D5C2",
"hX c #F2D1C4",
"jX c #F7D5C4",
"kX c #E6DCD6",
"lX c #F1E3D7",
"zX c #CEDCE3",
"xX c #CFE3EC",
"cX c #D7E4EA",
"vX c #C8E7F9",
"bX c #C3E9FC",
"nX c #CCECFD",
"mX c #D6E9F3",
"MX c #D3EEFD",
"NX c #D9EFFD",
"BX c #D6F0FD",
"VX c #DCF1FE",
"CX c #E5E8E9",
"ZX c #F1EDE9",
"AX c #E3F3FE",
"SX c #EAF6FE",
"DX c #EDF5FC",
"FX c #EEF7FC",
/* pixels */
"AXAXSXFXFXFXFXSXSXSXAXAXAXAXVXAXVXVXAXNXNXNXbXnXBXAXDXZXZXZXZXZXZXZXZXCXBXBXBXnXuXyXBXMXBXMXBXBXBXMXVXAXVXVXBXBXBXVXnXbXyXVXBXFX",
"SXAXAXAXAXSXSXAXVXBXSXSXAXAXAXAXSXSXAXVXBXnXMXNXAXAXZXjX6X6XgXgXgX4X5X,XzXtXuXbXnXyXyXMXBXuXyXeXnXMXVXMXVXMXBXVXBXVXnXSXSXAXSXAX",
"uXyXbXAXAXVXAXAXSXBXMXBXBXAXSXSXAXAXAXNXNXMXBXVXVXAXZXgX1X>X>X:X>X>X-X$XcXVXBXMXnXVXVXnXnXbXbXbXyXMXSXVXVXMXBXNXnXBXAXAXAXAXVXSX",
"MXVXBXeXVXyX8X0XAXAXAXAXNXnXVXSXNXAXNXNXNXMXMXBXmXcXlXjX1X>X>X:X>X-X-X].iXxXnXnXBXnXnXnXnXBXVXBXbXbXuXnXBXBXAXAXAXAXVXVXVXVXAXrX",
"BXMXnXbX8XrXbXuX8XtXnXMXMXnXnXNXNXNXNXMXMXMXmXCXlX'. .6X5X>X:X:X;X:X%X..} 4XfXkXmXnXbXeXnXMXnXMXBXBXtXMXBXBXBXBXBXSXVXVXVXVXnXbX",
"nXnXvXuXyXyXyXuXyX0XyXbXbXnXMXnXnXMXMXMXmXkXlXjXgX;X! ,X>X:X:X:X:X%XXX^ | <X>X,XfXdXxXnXtXnXMXMXBXBXeXnXnXMXBXBXVXVXVXAXSXBXeXnX",
"nXbXbXbXyXyXyXtXeXyXeXbXbXbXMXnXnXvXvXCXfXjX3X3X6X1X~ _.<X-X-X&X%XOX).E (.>X>X>X:X>X,XdXxXrXvXMXMXMX8XnXnXBXBXBXBXVXAXAXSXbXnXnX",
"nXMXnXnXbXyXtX8XyXyXuXnXnXNXBXMXnXcXkXjXjXjX3XhX6X6X..X.5X-X-X&XOXOX>.Y XX>X>X>X:X:X%X$X,XqXvXNXBXtXtXBXMXnXBXMXBXBXVXVXBXBXnXnX",
"BXBXnXnXbXyXtX9XtXtXuXnXVXuXBXBXCXfXjXjX3XhXjXhX2X1X^.' ,X$X&X&XOX X| E XX$X&X<X&X&X&X+X+X$XsX7X8XbXMXMXnXnXnXMXBXBXBXBXMXMXnXbX",
"bXbXnXbXuXtXtX0XeXyXbXBXnXBXMXCXjXjXjXhXhX3XhX$X`.} H 3 ~.^.........T > T [ `.$X&X&X+X+X+XoX#XqXMXVXAXVXBXBXMXMXBXBXBXbXVXnXbXnX",
"bXbXnXnXuXyXtXtXwXuXMXnXMXMXCXfXjX3XhXhX1X<X`.] H : : : , 3 < < < < : : : > 8 [ /. X+X+X+X+XoX$XdXBXNXBXBXBXMXMXBXBXBXnXBXBXBXnX",
"MXbXnXnXbXyXtXyX8XbXnXnXMXmXjXjXjX3X3X3X&X^.T < < , , * * 1 , , , * * * , < < < T >. X+X.XoXoXoX,XcXMXNXVXMXBXnXnXnXBXMXuXtXnXbX",
"MXuXuXnXbXbXbXyXtXtXnXMXmXlX6X3XjXhX3X$X| 3 < < , * $ o O O $ . O . . O $ - , < : 3 >. X.X+XoX%X%X,XxXMXBXBXBXBXMXnXeXuXBXBXuXnX",
"BXbXbXbXbXbXnXnXnXeXbXvXkXjX3X<X&XhX$X[ 3 , , - O o + + o o o o o + o o o o $ * 2 3 3 [  X+X&X%XOX$XaXMXnXnXnXBXMXwXbXBXBXBXnXBX",
"BXBXnXbXbXnXnXnXnXtX9XmX=X,X6X1X2X$X[ 3 < 1 $ O + + + q q e e e e e e q + o o o $ < < 6 ^.%XoX%X X^.#XxXyXbXbXBXtXrXMXMXBXBXVXBX",
"BXBXBXnXnXnXnXnXnXnXqXpXX.] `.>X&X(.6 , 1 $ o + + q e s n n n n M n s s e 0 + + o $ 1 < H /.oX/.W W _.=XxXBXeXwX7XnXMXMXNXNXNXBX",
"MXBXMXnXMXnXMXnXnXBXCX4X`.~ T ..`.T , 1 . o o q w p M M M n M n n n n n n n w 0 + o & 1 < ~ | U ! ).OXXXdXBXVXyXnXnXMXMXMXMXBXMX",
"VXMXMXMXMXnXMXMXBXmXfX3X3X:X^.E 7 : , # o + q w b M M n M n M M M M M V e.e.e.m w q @ * , : I .. XoX.XoX,XAXVXrXnXnXMXMXMXMXBXVX",
"SXBXMXMXMXnXMXMXnXdXhX3X3X1X<X^.<   & o 0 q e s M n b b n M n M M M 0.g.u.g.h.g.Z n w e 1 3 ^ }..X.X.X.X$XdXNX0X0XMXMXBXBXBXVXSX",
"AXAXMXMXMXbXnXnXqXkX2X3X3X1X:X[ < - . 0 q w b M M j g g s b b M 0.e.y.y.u.u.d.h.g.V s g i H W ,..XoX.X.X.XpXAXeXAXrXMXMXVXBXAXSX",
"SXAXMXMXAXMXtXyXcXgX2X<X<X1XXX8 , & X 9 w s b m g C Z c a M M V g.r.H.Z.r.r.u.d.h.e.M g u D E [ |.oX X.X X,XmXvXBXbXMXNXNXVXSXSX",
"AXAXMXAXVXMXbXMXCX5X1X1X<X:X^.6 1 . X 9 w b b g C j.j.k a M V e.h.u.T.!.I.a.6.u.h.d.0.s r i E ^ 2. X X|. X#XkXdXmXnXMXVXNXAXAXAX",
"AXAXAXVXnXMXNXCXlXgX3X2X1X$X} 2 = o 9 w b m b V z.w.0.h s V 0.h.d.s.D.!.Q.U.i.r.s.s.u.V p u G W >. XOX-X:X<X>X,XzXNXMXBXNXVXAXAX",
"VXVXVXnXMXNXCX4X4X2X2X2X<X%X! , # X w w N m V w.w.w.q.a s V u.d.g.u.D.Q.Q.R.m.6.y.s.d.0.n e G ' _.,X4X5X>X&X%X].sXMXMXNXBXVXAXVX",
"AXAXMXMXNXNXkX,X;X:X&X;X$X%XX.< # 0 9 g m g C j.q.q.v d a e.d.d.h.u.D.Q.Y.Y.K.8.6.s.s.u.m u G ^.2X:X-X-X%XOXOX].iXBXNXNXNXVXVXAX",
"AXBXMXBXNXnXdX>X-X-X%X%X$XOX..4 ; 0 y b m h e.w.q.5.z d h e.d.d.d.a.K.E.P.P.S.c.6.a.s.y.V F Q X.>X-X-XOXOX.XOX`.iXVXBXBXNXBXVXAX",
"VXMXNXBXMXNXfX$X%XOXOXOXoXXX] 3 ; q w m m k w.q.q.4.z d l u.d.s.d.a.V.Y.K.K.A.c.6.i.f.s.V S Q ..-X-XOXOX|.|.|.}.@XnXyXVXNXBXVXAX",
"AXBXBXNXNXMXpX%XOX%XoXoXoX`.' 4 i w g m m N Z l k h d d 0.s.d.d.d.u.V.B.c.c.c.p.6.a.v.v.0.S Q ] XXoXOX.X|.|.}.2.@XMXnXBXVXNXBXAX",
"AXVXNXbXyXmX,X$XXXOXoX X X).Q 2 u 9 g m m j f a d d a h 0.s.s.s.d.s.a.y.7.6.7.7.8.a.m.a.0.B J ~ _.).2.>.>.>.*...'.nXMXMXAXVXSXAX",
"AXVXbXyXnXmXiX@X_.^.| ( / ( <   0 y h N m Z Z q.C x x 4.u.s.n.s.s.f.D.H.D.D.Z.Z.C.m.m.m.y.N ; 4 I 8 8 U } X.'.iXqXMXnXMXNXAXAXAX",
"AXAXbXMXnXMXnXxX=X_.| [ ( ! < * @ y g m m V V V V z V 0.s.f.n.s.s.s.V.f.v.v.m.f.v.c.v.m.t.j i H | >.*.*.>._.iXmXvXbXnXMXBXSXAXAX",
"VXbXNXMXnXbX9XxXaX;X&X&X&X`.6 ; @ f h m m m m m m m z 0.s.s.s.y.x.s.s.f.f.x.s.v.v.v.m.m.t.j F Q >.2.2.).).).iXnXnXyXBXMXVXAXVXAX",
"AXbXVXVXVXnXnXmXfX-X&X%XOX`.7 ; 0 f a V m t y g w y g x y.v.f.a.f.y.t.t.t.w.9.t.i.c.m.M.l.f i ! =.1.1.1.).).sXnXMXnXuXMXVXVXAXAX",
"AXnXVXBXVXNXnXvXpXOX.XoXOX).8 ; @ w h l m t N Z Z Z C w.y.a.f.f.s.y.b.D.H.D.D.b.i.c.m.N.l.j F ! =.1.1.1.2.).dXMXMXMXbXbXAXVXVXAX",
"AXnXnXMXVXNXBXnXpX+X+X.X.X{.8 1 @ y h V k f k.Z q.C 5.t.8.f.c.M.v.9.F.Q.Q.I.F.c.7.M.B.A.t.j D ! -.1.1.1.2.).sXBXMXMXMXvXnXVXVXAX",
"AXNXMXMXVXBXBXmXaX+X.XOX.X}.H 4 O f a z m f q.z l x l 6.i.m.f.M.v.9.D.P.K.A.A.9.p.M.A.A.t.p D ~ =.1.1.1.2.(.dXBXBXVXVXVXnXBXVXAX",
"VXNXMXMXNXNXNXrXfX+X.X.X X}.E * O y d z k a q.v x l 4.7.i.f.M.M.b.9.P.P.K.K.M.i.p.M.K.A.l.p D ~ =.:.<.<.<.(.dXBXVXAXSXVXMXbXVXVX",
"AXVXMXMXMXNXyXnXsX+X.X|. X|.! 4 O y d k k f Z C x x 4.7.i.f.M.f.c.9.P.P.K.A.M.i.p.A.K.A.7.p G ( %.#.O.-.;.>.zXVXVXVXVXAXVXMXbXAX",
"AXBXMXBXNXyXMXNXsX$X|..X|.}.E 4 & y f k z f q.v x x 5.7.i.f.M.f.m.9.P.A.A.A.M.i.c.K.K.A.5.p G ( o.O.#.O.#.>.xXVXAXSXVXAXAXAXnXnX",
"AXMXAXVXrXNXNXNXcX$XoX/.1.>.E 4 % 9 f l z f v v l x 5.7.i.M.f.M.m.9.A.K.A.A.c.i.c.K.K.A.j.p D U ^ ^ Y { ..'.mXVXVXVXAXAXVXAXVXvX",
"nXNXAXvXnXVXBXNXcX=X} 5 5 5 >   . t y z z f c v x x 7.9.i.c.f.M.m.9.S.A.B.B.c.7.M.K.K.N.t.p D 7 5 I 5 U } pXNXNXVXVXVXAXAXVXVXVX",
"AXAXAXnXAXVXvXDXCX'.{ *.#.O.W 4 = r f z k f k z h l x 6.p.c.M.M.N.9.p.9.7.i.8.i.M.P.I.C.5.u Q >.;.,.,.;.;.@XNXNXVXVXAXAXAXSXAXSX",
"VXSXAXNXAXmXBXAXCX].1.<.;.:.{ 4 = 9 y N p f v v v x t.c.M.M.M.M.B.c.N.M.M.M.B.M.Z.U.L.C.5.i Q >.-.-.-.#.-.@XBXVXVXAXAXVXVXSXSXVX",
"NXAXAXNXnXBXAXNXmX'.1.:.;.;.( 4 - 9 t S F u c v v v l.N.M.M.M.B.M.M.N.A.B.S.K.K.L.L.I.N.r.u Q >.-.+.+.#.#.=XVXBXVXAXVXAXSXSXSXVX",
"BXFXSXVXnXAXVXMXmX#X<.<.:.;.{ 6 - r t u - u z h z x y.N.M.B.M.B.M.N.b.C.Z.K.D.L.L.L.U.N.v i Q =.@.+.@.$.=.=XVXAXVXAXAXVXVXSXSXVX",
"BXmXAXbXVXVXMXMXmX#X1.1.:.-.{ 6 - @ y y f h h h h h 7.l.a.f.M.N.N.x.b.b.b.b.b.C.Z.L.Y.C.x A ! *.@.@.$.@.,.pXBXVXAXVXAXVXVXFXVXMX",
"BXnXnXnXVXMXMXBXnX=X2.1.1.;.{ 8 ; % f z c y d z j z l.y.i.m.N.N.b.9.l.b.b.n.b.l.C.L.Y.b.C A ' =.o.+.@.@.,.iXBXBXVXVXAXAXVXBXBXBX",
"SXVXnXVXVXMXMXBXnX=X3.1.1.<.| G ; X f h c f c j.j.z.W.C.p.N.B.B.N.y.W.!.!.!.W.b.C.Y.Y.v.z F ~ =.+.+.@.@.,.dXVXSXSXFXSXFXSXVXBXSX",
"AXVXyXVXBXMXVXNXMX=X{.3.1.1.| 8 ; % y h c h q.q.v 7.F.c.i.B.B.B.N.l.Q.!.Q.Q.K.a.Z.Y.Y.v.j F ~ *.+.&.@.@.,.cXAXSXSXFXSXSXAXNXAXSX",
"AXVXrXVXNXMXAXMXnXaX|.{.[.[.>.H ; % y h v h v q.v l.F.c.i.M.B.B.A.x.W.!.Q.Q.K.p.L.R.Y.x.f F } =.-.-.;.-.(.mXAXSXFXSXyXFXNXNXAXAX",
"AXVXeXBXNXMXNXNXMXaXOX X|.|.,.H A % y h v h v q.q.c.P.c.p.K.Z.Z.A.l.W.Q.E.R.B.a.L.R.R.x.p G } *.:.:.:.:.`.mXAXAXSXDXbXAXNXNXAXAX",
"SXAXeXBXMXMXNXMXMXdX#X|.|.|.).H 4 % t h v h v q.5.b.F.c.p.V.Z.K.S.l.E.Q.Q.R.M.a.L.R.F.l.t J } ,.:.:.:.:.].mXVXAXSXDXSXNXNXNXAXAX",
"AXAXeXNXNXMXNXNXMXcX_.) ( ^ ^ 6 ; % r h c z v q.5.b.P.c.p.A.J.L.S.x.W.Q.R.R.M.f.L.E.R.y.p 4 6 Y ^ ^ ^ { pXmXNXAXSXSXAXSXAXVXAXSX",
"AXSXtXAXMXMXNXMXnXmX .R Y W W 6 1 % r h v c v w.q.C.E.c.c.S.J.J.D.x.E.Q.R.R.M.M.R.R.T.l.u G H Y ^ ^ Y ^ @XNXNXNXSXAXSXSXSXAXAXAX",
"SXAXyXAXMXMXMXMXnXxX].{.{.{.{.~ D % y h v l c w.q.A.F.c.c.K.J.L.K.l.E.E.R.R.m.M.R.R.T.w.u J } ,.-.:.:.;.#XNXNXMXMXNXSXSXSXAXAXSX",
"AXAXyXNXMXMXnXnXnXcX].|.{.|.).~ 4 % r d v l c j.t.D.E.c.c.K.U.L.L.l.E.E.R.Y.a.V.R.W.E.w.u P { ;.$.:.-.-.*XNXMXMXMXMXNXAXVXAXSXAX",
"AXnXyXAXMXMXnXnXnXmX$X}.{.}.{.( 4 = r y v c c v q.b.K.c.a.J.U.U.L.b.D.S.S.Z.a.B.Q.Q.H.e.i _ { O.+.+.+.o.*XBXMXMXnXnXMXAXnXAXAXAX",
"bXMXMXAXMXMXMXnXnXmX#X}.{.{.|.} D = r j c c z z x a.a.p.m.L.U.U.U.b.C.m.v.v.c.J.R.Q.H.q.i Q { O.o.+.o.o.pXmXwXMXMXMXNXvXtXAXAXnX",
"uXAXBXnXMXMXnXMXMXMX#X}.{.{.{.} 6 - r y v v v q.y.I.Y.P.K.U.U.U.R.T.W.!.Q.Q.W.R.W.!.D.Z i ` | -.+.$.$.=.dXNXbXnXNXAXAXAXtXVXMXwX",
"AXAXnXnXnXMXMXMXMXMX#X}.{.{.{.| 6 ; r j q.q.q.q.l.L.U.U.Y.Y.T.T.T.T.R.R.T.Q.Q.Q.W.!.H.Z i ' | :.$.$.#.*.dXAXBXVXbXAXAXAX9XbXrXDX",
"SXAXMXnXMXMXnXMXBXBX=X{.{.{.{.| 6 ; r c w.k.w.t.x.D.L.L.S.C.Z.S.Z.M.V.m.V.n.V.G.G.G.u.B i } | #.$.#.#.>.dXSXAXnX8XrXNXeX7X7XNXAX",
"AXSXBXrXMXMXMXMXBXBX=X{.{.3.3...D ; % B Z Z Z Z z.G.G.n.G.g.n.z.n.z.z.y.u.u.u.u.g.k.e.B A } | :.$.$.#.>.cXnXyX8X7X9XeXAXVXMXFXAX",
"AXAXVX8XNXMXMXMXMXvX*X{.{.3.3.,.8 4 2 A F D G J K L L L L K L L P L ` ` L _ ` ` _ _ Q P H } | #.#.-.#.>.qXrXuXVXAXAXnXVXVXvXAXVX",
"SXSXAXuX8X7X9X0X0XuXaX{.3.3.2.*.7 6 7 U T ^ / / / ) ) ) ) ) ) o.o.O.o.o.%.o.%.%.*.*.#.O.O.{ O.#.#.#.-.(.xXVXFXAXAXAXVXVXnXMXFXFX"
};
