/* XPM */
static char *result[] = {
/* columns rows colors chars-per-pixel */
"64 64 228 2 ",
"   c #14191F",
".  c #291E1A",
"X  c #33251D",
"o  c #071725",
"O  c #0B1723",
"+  c #071927",
"@  c #091926",
"#  c #071A29",
"$  c #081A29",
"%  c #131A23",
"&  c #1B1D23",
"*  c #0B1F33",
"=  c #161D34",
"-  c #231E21",
";  c #1B212A",
":  c #0D2235",
">  c #0C243A",
",  c #152333",
"<  c #282428",
"1  c #352A2A",
"2  c #3F312D",
"3  c #373234",
"4  c #44281A",
"5  c #55311E",
"6  c #412F29",
"7  c #4B342A",
"8  c #533425",
"9  c #54372A",
"0  c #483A36",
"q  c #5A3F31",
"w  c #633E29",
"e  c #4E413E",
"r  c #584339",
"t  c #67432F",
"y  c #674737",
"u  c #774B31",
"i  c #7A523B",
"p  c #0B1B43",
"a  c #0E2246",
"s  c #0E2348",
"d  c #11264B",
"f  c #152A56",
"g  c #2D3459",
"h  c #1B3068",
"j  c #1A2E73",
"k  c #1C2F78",
"l  c #1D3177",
"z  c #21356C",
"x  c #233679",
"c  c #413646",
"v  c #384A7F",
"b  c #6B4F40",
"n  c #715342",
"m  c #7B5948",
"M  c #705F70",
"N  c #895738",
"B  c #94603F",
"V  c #865B43",
"C  c #88634C",
"Z  c #9B6848",
"A  c #936B55",
"S  c #9A7158",
"D  c #B8774D",
"F  c #A77251",
"G  c #99776C",
"H  c #A67C64",
"J  c #B58668",
"K  c #B28971",
"L  c #B88B74",
"P  c #C7875B",
"I  c #C88D64",
"U  c #C8916A",
"Y  c #D7996B",
"T  c #C6967A",
"R  c #DA9D75",
"E  c #DEA076",
"W  c #DCA27B",
"Q  c #E1A77D",
"!  c #1E3483",
"~  c #1D368E",
"^  c #1C3691",
"/  c #213683",
"(  c #253887",
")  c #21398C",
"_  c #243D98",
"`  c #1D3EA8",
"'  c #203EA2",
"]  c #2D4189",
"[  c #374886",
"{  c #3B4D8C",
"}  c #3C5287",
"|  c #29449A",
" . c #394F97",
".. c #1F41AC",
"X. c #2542A4",
"o. c #2C47A6",
"O. c #2444AB",
"+. c #2A46AC",
"@. c #2C49AC",
"#. c #314BA9",
"$. c #2C50AF",
"%. c #3A55AA",
"&. c #2546B3",
"*. c #2748B6",
"=. c #2B4CB5",
"-. c #2D4DBA",
";. c #304EB5",
":. c #324EBB",
">. c #2C53B7",
",. c #2E51BC",
"<. c #3954B6",
"1. c #3253BD",
"2. c #3B59BE",
"3. c #47558A",
"4. c #485A95",
"5. c #546896",
"6. c #6C7294",
"7. c #445CA8",
"8. c #445BB7",
"9. c #4762AD",
"0. c #4B63B3",
"q. c #6677A5",
"w. c #3050C2",
"e. c #3455C2",
"r. c #3A55C2",
"t. c #365AC4",
"y. c #3B5BC5",
"u. c #3E5DC9",
"i. c #3E62CA",
"p. c #445EC6",
"a. c #425ECB",
"s. c #4865C6",
"d. c #4364CC",
"f. c #4A64CD",
"g. c #5169CF",
"h. c #4663D1",
"j. c #4B64D2",
"k. c #456BD1",
"l. c #4B6CD4",
"z. c #526BD3",
"x. c #4D72D8",
"c. c #5175DA",
"v. c #577ADD",
"b. c #5A7EE2",
"n. c #758BB0",
"m. c #5C82E4",
"M. c #BF9A83",
"N. c #8A94B0",
"B. c #8FA3BE",
"V. c #C69C84",
"C. c #D09F85",
"Z. c #CAA38C",
"A. c #D8A788",
"S. c #CCA898",
"D. c #DAAD93",
"F. c #DDB199",
"G. c #E4AB84",
"H. c #E3AD89",
"J. c #E9AF89",
"K. c #EBB28E",
"L. c #E2AE90",
"P. c #ECB295",
"I. c #E4B499",
"U. c #ECB59A",
"Y. c #ECBA9D",
"T. c #F1B89C",
"R. c #C8B4AC",
"E. c #DABCA8",
"W. c #E6BDA6",
"Q. c #EDBDA4",
"!. c #F1BEA5",
"~. c #CEC2BA",
"^. c #D9C6B9",
"/. c #EAC0A7",
"(. c #EDC2AB",
"). c #F4C2A6",
"_. c #F2C5AC",
"`. c #EDC8B4",
"'. c #F4CAB4",
"]. c #F8CBB6",
"[. c #F5CEB9",
"{. c #EDD0BE",
"}. c #F5D1BC",
"|. c #FBD1BC",
" X c #89A5C4",
".X c #98ABC6",
"XX c #9DB3CD",
"oX c #A4B7CD",
"OX c #A8BBD1",
"+X c #B1C8DA",
"@X c #8CCFF9",
"#X c #98D8FA",
"$X c #B5D4E8",
"%X c #A5DDFA",
"&X c #AADDFB",
"*X c #A7E0FB",
"=X c #ACE2FB",
"-X c #B8E1F7",
";X c #B4E4FC",
":X c #BBE6FC",
">X c #BEE8FC",
",X c #DAD1CA",
"<X c #CACED1",
"1X c #D9DAD8",
"2X c #E7D5CA",
"3X c #F3D7C7",
"4X c #FAD3C1",
"5X c #E8DCD8",
"6X c #EEE2D8",
"7X c #F7E4D6",
"8X c #C7DBE9",
"9X c #D3DDE2",
"0X c #CBE2EE",
"qX c #D8E4E9",
"wX c #C7E5F8",
"eX c #C4E9FD",
"rX c #CCECFD",
"tX c #D6E6F2",
"yX c #D5EAF6",
"uX c #D3EEFD",
"iX c #D9EFFD",
"pX c #D6F0FD",
"aX c #DCF1FE",
"sX c #E4E6E8",
"dX c #EAF2F6",
"fX c #E3F3FE",
"gX c #EBF4F9",
"hX c #EAF6FD",
/* pixels */
"fXfXhXhXhXhXhXhXhXhXfXfXfXfXaXaXaXfXaXaXaXiXeXrXaXaXdX7X7X7X7X7X7X7X7X7X1XyXpXrXeX:XuXuXiXiXpXaXpXpXaXaXaXaXpXpXpXaXrXeX:XaXaXgX",
"hXfXfXfXhXfXhXhXaXaXhXfXhXfXhXfXhXhXfXaXaXrXpXyXfXfXdX7X}.[.'.'.'.'.`.(.~.-X>XrXrX:X:XiXuX:X>X=XeXpXfXuXaXrXaXaXaXaXrXhXhXfXhXfX",
">X:XeXfXfXfXfXfXfXaXuXiXpXfXfXhXfXfXaXaXiXpXuXaXaXaXdX7X[.'.'._.)._._./.^.aXpXrXrXiXaXrXrXeXeXeX;XuXfXaXaXuXaXiXeXpXfXfXfXfXaXgX",
"uXpXpX;XiX:X#X%XfXfXfXfXuXrXfXhXaXaXaXiXiXrXuXpXyX1XE.}.'.'._._._._.).I.Z.R.qXqXyXrXrXrXrXaXaXrXeXeX>XuXaXpXaXaXfXfXaXaXaXaXaX>X",
"pXuXuXeX#X:XeX>X#X=XrXuXuXrXrXiXiXiXiXiXuXiXsX5X3X3XH M.{._._.(.(._.Q.A.B Z.[.`.2X9XeX;XrXuXuXuXaXpX:XrXpXpXaXaXpXhXaXaXaXaXrXeX",
"rXrXeX>X:X;X:XeX;X&X:XeXeXrXuXrXuXrXuXrXtX5X3X4X|.4XM.J }.`._./.(.W.Q.U Z Y.`._._.{.2X8X-XrXuXuXpXpX=XeXrXpXpXpXaXaXaXfXhXpX=XrX",
"rXwXeX>X>X:X:X;X;X:X=XeXeXrXuXrXrXrXrX5X3X4X].|.|.|.F.S `.`././.Q.Q.U.J F _.'._._._.(.W.<X8XwXuXuXpX#XpXrXrXpXpXaXaXfXfXhXeXrXrX",
"rXuXrXrXrX;X;X#X:X:X>XrXrXuXuXiXrXqX5X3X|.4X4X|.|.}.(.S /.(./.Y.Y.!.H.F L _._._._._.Q.Y.W.`.9XiXiX=X:XrXrXpXpXpXpXaXaXaXpXpXrXrX",
"pXrXrXrXeX:X=X%X;X;XeXrXaX>XpXaXsX3X4X|.|.4X4X|.[.W.S.V Z.W.W.I.I.L.C.i S Z.Q.!.!.!.Y.T.T.T.W.OX#XeXuXrXrXrXrXpXuXpXpXpXuXuXrXrX",
"eXrXrXeX:X:X;X=X;X;XeXpXrXpXpXsX3X4X4X].|.4X[.W.V.A t 8 b C V V V V i 5 8 y A V.I.Y.T.U.T.P.P.E.<X8X0XwXrXpXpXrXuXuXpXeXpXuXeXrX",
"eXeXrXrX>X:X;X;X=X>XrXrXrXiXqX3X4X4X4X|.|.!.S.A t 8 8 8 X 7 8 8 8 8 6 X 9 9 8 t A T P.U.P.T.F.N.q.q.n.q.q.oXwXpXuXpXpXrXpXpXrXrX",
"rXeXrXrXeX>X:X;X#XeXrXrXuXqX7X4X|.4X|.].Q.M.i 5 8 8 6 < . < 1 1 < 1 - . < 6 9 8 5 u L L.P.R.6.4.7.0.9.9.4.v B.eXrXrXpXuX>X:XrXeX",
"pX>XeXrXeXeXeXeX;X;XrXuXyX5X4X|.4X4X].Q.K y 8 9 6 . % $ @ O O O O o $ @ o % < 2 9 8 w J S.q.7.8.g.g.s.8.0.9.v oXrXrX=X>XrXpX>XrX",
"pXeXeXeXeXrXrXeXrX=XeXrX1X3X|.].W.`.!.K w 9 7 < % O @ @ + + $ @ # $ o $ o o o % 1 0 9 q 6.0.p.j.j.l.g.s.<.9.4.6.8X*XwXpXpXaXrXpX",
"pXpXrXeXeXeXrXrXrX;X*XqX^.S._.|.[.W.V.y 9 6 & O # # @ @ + $ + $ @ @ # o $ # # # O - 0 c v 8.j.f.j.g.g.z.s.%.9.v  X=XuXpXpXpXpXpX",
"pXpXpXrXrXrXrXrXrXrX*X1XS.A Z D.!.D.i 8 6 & $ # # o $ $ # # $ # $ $ o $ @ $ o # o o ; g 3.p.j.j.j.z.z.z.l.2.7.} 5.wXpXpXpXpXpXpX",
"pXuXuXuXrXrXuXrXrXpXqX}.[.F.H N K A 8 6 & O $ @ # + + # + # + + + # # # # # # # # * = z %.h.d.a.j.j.p.g.z.s.%.7.} +XuXpXpXuXpXuX",
"aXpXrXuXiXrXrXiXpXpX1X}.[.[.(.T i 4 6 - O $ o $ @ # + $ $ $ + + # + # # : > > > > * f x <.a.e.r.j.h.r.y.f.g.8.9.{ n.uXpXpXuXpXpX",
"fXaXuXuXpXrXiXuXrX0X2X].].].].(.V X .   o @ # o + + # # + + + + + # : : : : > > > a h ( <.:.,.u.j.h.a.c.u.z.8.9. .q.rXpXaXpXpXgX",
"hXaXuXuXiX>XrXrX;X1X}.].].].].Z.y 0 & O # @ # $ # $ @ + + + + + + : > > > > > > , a h _ :.*.x.i.h.j.r.m.k.f.f.7. .5.$XpXpXaXfXhX",
"fXfXuXiXaXpX=X;XyX3X}.'.].].(.S 9 1 O # $ @ o # $ @ + $ # # # # * : > > > > > > > d z _ =.i.m.i.h.h.e.c.v.a.f.%.%.3.+XiXpXaXhXfX",
"fXfXiXfXaXuXrXfXdX3X}.'.'.'.F.m 7 & o # o # # # # + + + + # # $ : : > > > > > > a f z _ +.c.m.y.h.a.:.z.m.j.j.8.9.} OXpXaXfXfXfX",
"fXfXfXaXrXiXyX6X3X3X3X}.'._.M.t 3 % # # o # # $ $ @ + + + # $ > > > > > > > > > a f x ) >.c.v.u.h.a.w.j.b.l.f.<.%.} XXuXaXaXfXfX",
"aXaXiXrXuXiXaX2X_.`.'.'.'._.Z.y 1 O # o $ o o @ # + + + + # * > > > > > > > > > > h x ~ e.x.c.y.h.a.*.j.c.x.s.<.%.} .XiXaXaXfXaX",
"fXaXiXiXiXiXtX{.!.!.W.W.Y./.F.m 2 % # o # $ o o # # $ o # # : > > > > > > > > > a h / ~ y.k.l.u.h.u.*.a.l.x.p.2.7.}  XpXiXfXaXfX",
"fXiXuXpXiXrXsX'.!.Q.!.Q.Y.Y.A.u 0 < o + # # # $ # # # # # * > > > > > > > > > > s h / ^ y.k.l.y.h.y.*.y.f.l.s.2.%.{  XaXiXaXiXfX",
"aXuXiXpXuXiXsX!.Y.Q.Y.U.Y.Y.T y 0 ; o + # o # o $ # # # $ : : > > > > > > > > > a z / ^ <.t.k.r.a.y.&.,.e.k.d.2.%.{  XpXiXiXaXfX",
"aXpXpXiXuXrX1XQ.Y.Y.Y.Y.U.Y.L r 0 % o @ @ @ + $ @ # $ o $ , : > : : > > > > > > d j ! ^ ` ..*.y.a.r...` ` -.d.2.%.{ B.rXaXiXaXfX",
"fXaXiXeX;XrX,XE.I.D.H.H.H.A.J q 3 % + @ + @ + + $ # @ # $ > : > > > > > > > > > d z ! o.y.i.a.y.a.y.r.u.u.u.d.2.%.{ .XuXaXfXhXfX",
"fXaXeX:XrXiXqX<X^.Z.J B N N w X & $ + + # o + # @ # $ # : : > > > > > > > > a > s x ! @.p.p.y.a.u.a.h.j.l.z.j.r.#. .XXpXiXfXfXfX",
"fXfX:XuXuXrXrXyX,XE.Z.T U L V 7 & o + + # + + @ $ + $ + * : > > > > > > > > > > s k ! +.r.r.y.r.r.a.h.h.j.j.j.2.%.} oXrXiXhXfXaX",
"aXeXaXaXrXeX%XrX1X`.).).!.Q.G 9 & @ o + # + + @ $ + + $ * : > > > > > > > > > > s j / o.<.1.e.r.w.u.a.p.p.d.f.1.#.{ +XiXaXaXfXfX",
"fXeXaXaXaXrXrXrX1X!.!.T.P.U.H 9 - @ + + # + + O $ + $ $ : > > > > > > > > > > > s l ! | @.O.O.1.y.:.+.#.o.%.s.<.| 3.+XrXaXaXaXhX",
"aXrXaXpXaXaXrXrX1XQ.T.U.P.I.H 9 ; @ + # # + + $ $ + $ $ : > > > > > > > > > > > s z / #.v.m.i.1.u.1.s.s.s.%.y.<. .4.$XeXhXaXaXaX",
"fXrXrXpXaXaXpXrX8XW.U.U.P.P.J q < O + # # + + $ $ + + # > > > > > > > > > > > > a l ! X.i.x.i.,.t.-.k.x.m.p.p.;.| 5.yXeXpXpXaXhX",
"fXaXrXuXaXaXyXrX9XW.T.P.P.P.J r < O # + + # $ # + $ O * > > > > > > > > > > > > d l ) X.i.k.i.>.t.=.=.1.f.y.a.;.| 5.yXaXeXpXaXaX",
"aXaXuXuXaXpXuX>XqXW.U.P.P.P.L r < O + + + + + + + + + $ > > : > > > > > > > > > s l ^ X.i.k.t.1.y.*.-.e.k.1.u.@.( n.aXfXpXeXpXaX",
"aXfXuXuXpXpX:XrX8XW.P.P.K.K.T y 1 O + + + + + + + $ + $ : > : > > > > > > > > > s l | O.t.k.t.e.t.&.-.e.d.y.u.#.] n.fXaXaXpXeXfX",
"aXaXuXaXpX:XuXiX0XE.P.I.K.K.T y 1 O # + $ + + @ + $ + : > > > > > > > > > > > > a k | O.t.i.1.e.r.*.w.e.i.2.y.#.] N.fXfXaXfXrXrX",
"fXuXaXaX-XuXaXiXtX2X(.C.I J J r < O + + + + + $ + + @ * > : > > > > > > > > > > a j | ..t.i.,.e.t.&.w.e.i.2.y.@.] B.aXfXfXfXfXeX",
"rXuXaXeXuXaXuXpXpX,XK N u N u 4 X @ + + + + + + + + # : > > > > > > > > > > > > d j X...e.i.,.1.e.&.,.e.y.1.r.o.] .XfXfXfXfXiXaX",
"fXfXgXrXfXaXeXgXaX~.Z.R R U I y 3   + + + + + + + + $ > > > > > > a > > > > > > a j | ....&.*.>.,.&.1.e.t.r.:.#.] +XiXfXfXfXfXfX",
"fXfXgXuXfXuXyXhXaX^.W Y Y Y P i e   # + + + + + + + + : > > > > > > > > > > > > a j $.>.-.*.-.e.w.&...O.=.r.r._ v $XgXfXfXhXhXfX",
"pXhXfXuXuXpXfXaXpX~.W E Y Y P i 2   + + + + + + + # $ : > > > > a > > > > > > > a h o.t.t.t.w.w.e.t.i.a.t.2.2._ [ 8XiXfXfXfXhXaX",
"aXhXhXfXeXfXfXuXrX,XW E Y Y I i 0 % o @ + + + + + + $ > > > > > > > > > > > a > a j #.e.e.1.,.w.e.e.r.8.5.0.;.' 4.0XaXfXfXhXhXaX",
"rXpXfXeXfXyXuXuXrX,XA.W Y Y Y m 0 % + @ + + + @ + + : : > > > > > > a > > > > > * j o.$.=.;.-.w.w.e.1.4.6.6.' _ 5.yXfXaXiXhXfXuX",
"pXuXeXrXaXuXuXpXrX,XH.E E Y Y N r ; + + @ + + + + + > > > > > > > > > > > > > > p j O.X.X._ O.w.:.;.;.7.3.7.+._ q.tXfXfXfXiXuXiX",
"gXpXrXaXaXuXuXpXuX9XA.E E E I C e < + + + + + @ + + : > > > > > > > > > > > > > p k O.t.v.s.O.e.=.' ' _ ' <.+._ q.dXhXhXfXaXiXfX",
"hXaX:XaXaXuXaXiXrX9XD.Q W E Y C e ; + + + + + $ # + : > > > > > > > > > > = > > p j X.1.v.c.=.,.=.y.c.s.@.<.O.) n.dXhXhXfXiXfXhX",
"fXaX;XaXiXuXaXpXrXqXF.J.J.Q W S r < + + + + + + + + : > > > > > > > > > > > > > p j @.1.c.x.=.-.*.1.k.f.1.:.X./ N.dX:XgXiXiXiXfX",
"gXfX&XaXiXrXiXiXuXtXW.P.K.H.H.J r 3 + + + # + + + + : : > > > > > > > > > > > * p l @.,.c.x.=.1.=.1.i.i.-.1.o.( .XgXrXfXiXiXfXhX",
"fXaX;XuXuXiXiXiXuXyX^.L.L.H.W H r 1 @ + + # + # + + : : > > > > > > > > > > > > p l +.,.x.k.-.-.*.e.d.i.>.,.| x OXhXhXfXiXiXfXfX",
"fXfX=XiXuXuXiXiXuXuX^.J F F Z N 7 ; + + + + + + $ $ > > > > > > > > > > > : > : p k &.,.l.k.=.1.&.e.i.i.,.=._ ( +XhXfXhXfXaXfXhX",
"hXfX;XfXiXuXiXuXrX0XR.Z Z Z Z C 7 3 @ + + + + + + : , > > > > > > > a > > > , > p k +.,.l.d.-.,.&.t.d.d.>.=.^ v <XgXhXhXhXfXfXfX",
"fXhX:XfXuXuXuXuXrXyX^.H.H.G.G.T b 3 + $ $ + + + + $ > > > > > > > > > > > > p * * ! +.>.j.d.*.w.&.t.k.u.=.=._ } $XuXfXhXhXfXhXfX",
"hXiX:XiXuXuXrXrXrXrX^.H.H.G.G.T n 0 + + + $ + + + $ > > > > > > > > > > > > > * p ! =.=.j.p.*.w.&.u.k.i.;.=.~ 3.$XuXiXfXfXfXhXfX",
"aXrX>XfXpXuXrXrXrXyX^.H.J.J.G.W n 0 + + + + + + @ $ , > > > > > > > > > > > > > p ! ` p.j.a.w.w.&.t.k.i.>.@./ 5.$XuXyXfXrXfXfXfX",
"eXpXuXfXuXuXrXuXrXrX,XH.H.G.Q Z.n e   + + + + $ @ : > > > > > > > > > > > > > : p ( ` ` w.:.` :.&.y.d.i.,.O./ 5.8XyXiXwX;XfXfXrX",
">XfXpXrXuXuXuXrXuXuX,XJ.H.G.G.A.m e   + + + + + + : > > > > > > > > > > : > > : p ( p.` ` ` ` :.&.e.i.t.=.X.! q.0XaXfXfX=XfXuX&X",
"fXhXrXrXrXuXuXrXuXuX1XA.G.H.G.W m e   O + + $ + @ : > : > : > : > > > > > : : * p _ :.p.a.r.a.:.&.O.O.&.-.' ~ n.-XfXfXfX&XeX;XgX",
"fXfXuXrXuXuXrXuXpXpX9XH.G.G.G.A.C e ; @ + + o o + : : : : : : > > > > > > : > : p ( 8.p.r.w.r.:.,.e.t.,.-.' / n.#X-XaX=X@X@XiXfX",
"fXhXaX;XuXuXpXuXpXpX9XH.Q G.G.W C e ; O O O o o @ ; , , , , , , , , , : , , , , = x ' ` =.w.r.r.e.e.1.e.-._ ( n.@X&X&XaXaXuXgXaX",
"fXfXaX#XyXiXuXuXrXwX$XD.G.Q W W C r 2 2 2 7 r t r t y y t y y r i n n i n b i m V M 6.4. .' ;.w.t.p.d.i.y._ x .XaXdXrXaXpXrXfXfX",
"hXhXfX>X#X@X%X=X*XeXsXF.G.Q Q W Z t y u N B Z F F F D P D D P P P P P P P P P I P P P L G M [  .<.r.d.f.g.| v oXfXaXfXaXrXpXhXgX"
};
