/* XPM */
static char *result[] = {
/* columns rows colors chars-per-pixel */
"64 64 236 2 ",
"   c #070506",
".  c #110D0B",
"X  c #191516",
"o  c #3A0C0D",
"O  c #231914",
"+  c #292117",
"@  c #372518",
"#  c #2B2828",
"$  c #372A22",
"%  c #3C312E",
"&  c #490A09",
"*  c #580505",
"=  c #4F130E",
"-  c #491914",
";  c #680404",
":  c #750706",
">  c #6A1919",
",  c #422F17",
"<  c #582519",
"1  c #6E2915",
"2  c #721F20",
"3  c #493128",
"4  c #563937",
"5  c #722F27",
"6  c #6A3825",
"7  c #783C28",
"8  c #5B421B",
"9  c #6D511E",
"0  c #4A4338",
"q  c #6F4926",
"w  c #775923",
"e  c #654937",
"r  c #784B36",
"t  c #785439",
"y  c #7D6027",
"u  c #7A6337",
"i  c #3C404A",
"p  c #494645",
"a  c #5E5446",
"s  c #6C5646",
"d  c #7B5447",
"f  c #695955",
"g  c #77634D",
"h  c #766653",
"j  c #766B50",
"k  c #716E6C",
"l  c #787676",
"z  c #850A06",
"x  c #99170E",
"c  c #A31E14",
"v  c #8A280A",
"b  c #982908",
"n  c #972F12",
"m  c #87371A",
"M  c #973B16",
"N  c #A82B06",
"B  c #AA2F10",
"V  c #833A25",
"C  c #90332D",
"Z  c #AE282F",
"A  c #A64E1C",
"S  c #B74714",
"D  c #BB591A",
"F  c #8E4F2C",
"G  c #88573B",
"H  c #A44E3E",
"J  c #A65B31",
"K  c #866425",
"L  c #9A7528",
"P  c #AC6F30",
"I  c #C24C14",
"U  c #CB5A1B",
"Y  c #D15C18",
"T  c #D9691D",
"R  c #D06A25",
"E  c #D66B25",
"W  c #B83D46",
"Q  c #C43E49",
"!  c #845C44",
"~  c #B44145",
"^  c #AB5241",
"/  c #85674D",
"(  c #976449",
")  c #886957",
"_  c #8C7353",
"`  c #987558",
"'  c #A36B4C",
"]  c #A96A49",
"[  c #B07246",
"{  c #B8724A",
"}  c #AD7353",
"|  c #A8785B",
" . c #B67957",
".. c #8B7662",
"X. c #977B62",
"o. c #917E72",
"O. c #AC7D63",
"+. c #CB414D",
"@. c #CA7851",
"#. c #C87C57",
"$. c #A9832D",
"%. c #AB8A3A",
"&. c #B28B38",
"*. c #BA9337",
"=. c #998D59",
"-. c #AD864E",
";. c #8B866E",
":. c #988869",
">. c #968679",
",. c #9B9475",
"<. c #A98667",
"1. c #BB8363",
"2. c #A1956D",
"3. c #A5997C",
"4. c #B29171",
"5. c #C59E4A",
"6. c #CA845D",
"7. c #D4835A",
"8. c #CBAC53",
"9. c #D5B956",
"0. c #E4BD55",
"q. c #C88863",
"w. c #D38B64",
"e. c #DD8E64",
"r. c #D49067",
"t. c #DE9166",
"y. c #DE9269",
"u. c #C69672",
"i. c #D59B74",
"p. c #E08E63",
"a. c #E2956A",
"s. c #E1976C",
"d. c #E29D73",
"f. c #D7A37C",
"g. c #E3A176",
"h. c #E6A77B",
"j. c #EBCA5F",
"k. c #F4CC5D",
"l. c #FACD5F",
"z. c #ECCE61",
"x. c #FACD60",
"c. c #F4D161",
"v. c #F9D262",
"b. c #737D85",
"n. c #7F8E98",
"m. c #72BAE4",
"M. c #7CC9FA",
"N. c #898786",
"B. c #938886",
"V. c #95968A",
"C. c #988E92",
"Z. c #8D9497",
"A. c #959997",
"S. c #A89A86",
"D. c #A39998",
"F. c #B29D91",
"G. c #9BA09B",
"H. c #ABA38B",
"J. c #B8AB88",
"K. c #AFA894",
"L. c #859EAF",
"P. c #959CA3",
"I. c #99A4AA",
"U. c #86A9B9",
"Y. c #98A9B2",
"T. c #9BB2B9",
"R. c #ABAFAD",
"E. c #A7B2B8",
"W. c #B4B8BB",
"Q. c #D2B088",
"!. c #C7BE98",
"~. c #E9B78A",
"^. c #EBB78A",
"/. c #C6BCAF",
"(. c #CCC39D",
"). c #D7C49A",
"_. c #E7C497",
"`. c #EDC395",
"'. c #F1CB9D",
"]. c #D8CDA8",
"[. c #E8D2A4",
"{. c #E8D9AC",
"}. c #F4D4A5",
"|. c #F4DCAC",
" X c #F8E0AF",
".X c #EEE0B2",
"XX c #F7E1B1",
"oX c #F8E2B2",
"OX c #FAEAB9",
"+X c #9EBAC8",
"@X c #90BDD3",
"#X c #AABBC6",
"$X c #B4BDC5",
"%X c #ADC2CE",
"&X c #B8C3C9",
"*X c #BACAD4",
"=X c #B7CEDA",
"-X c #88CEF8",
";X c #94CFF8",
":X c #8CD4FA",
">X c #95D7FA",
",X c #9CDCFB",
"<X c #A8D3E9",
"1X c #B7D6E6",
"2X c #A4DDFB",
"3X c #AADDFA",
"4X c #B6DEF7",
"5X c #A5E0FC",
"6X c #ACE1FB",
"7X c #BAE1F2",
"8X c #B4E4FC",
"9X c #BBE6FC",
"0X c #BEE8FC",
"qX c #C3C7CA",
"wX c #C3CED5",
"eX c #C7D3DA",
"rX c #D2D6D8",
"tX c #C7DBE6",
"yX c #D2DDE4",
"uX c #CAE1ED",
"iX c #D5E3EC",
"pX c #C5E5F6",
"aX c #CDE5F3",
"sX c #C3E6FB",
"dX c #C4EAFD",
"fX c #CCECFD",
"gX c #D6E9F4",
"hX c #D3EEFD",
"jX c #D9EFFD",
"kX c #D6F0FD",
"lX c #DCF1FE",
"zX c #E4ECF2",
"xX c #E3F3FE",
"cX c #EEF5F9",
"vX c #EAF6FD",
"bX c #F3F7FB",
/* pixels */
"xXxXvXbXbXvXvXvXvXxXxXxXxXxXxXlXxXlXxXlXkXkXdXfXlXxXxXxXjXkXkXkXhXkXlXlXkXkXkXfXdX9XhXhXhXjXkXlXkXjXlXlXlXlXkXkXkXlXhX0X9XlXkXcX",
"vXxXxXxXvXxXvXxXlXlXvXvXxXxXxXxXxXvXvXlXlXfXkXhXlXxXxXlXkXfX8X0X6XsXkXfX0X0X0XdXfX0X0XhXhX0X9X6XdXhXxXhXkXhXlXlXkXlXfXvXvXxXvXxX",
"0X9XdXlXxXxXxXxXvXlXhXhXkXxXvXvXxXxXlXlXkXhXkXlXlXlXkXjXhX7XpXgXdX0XlXlXlXkXkXhXfXjXlXfXfXdXdXdX8XhXxXxXkXhXlXlXfXkXxXxXlXvXlXvX",
"hXkXkX8XjX9X,X2XxXxXxXxXjXfXlXvXlXlXlXlXhXkXhXhXfX1XT.V.,.2.,.A.U.uXlXfXfXfXfXfXfXhXfXfXfXlXlXhXdXdX0XfXlXkXlXlXxXxXlXlXlXlXlX0X",
"kXhXfXdX>X0XdX9X>X6XfXfXhXfXfXhXkXkXkXkXkXhXhXaXG.=.9.z.c.v.c.j.8.2.E.gXkXlXkXkXfXdXdX8XdXhXhXkXlXkX8XkXkXhXlXlXlXxXxXlXxXlXfXdX",
"fXfXdX0X9X9X9X0X9X3X9XdXdXfXhXhXhXhXkXfXfXkX*X..5.c.l.l.l.v.l.l.c.c.8.V.aXkXhXfXfXfXfXdX8XfXfXhXkXkX6XdXfXkXkXlXlXlXlXxXxXkX6XfX",
"fXsXdXsX9X0X9X8X8X8X6XfXdXfXhXfXdXfXfXdXgX*X_ *.k.l.l.l.x.l.l.l.c.c.v.8.>.gXfXdXfXfXfXkXsX0XpXkXhXhX,XkXfXhXkXhXkXlXxXxXvXdXfXfX",
"fXhXfXfXfX8X8X,X0X9X0XfXfXhXhXhXfXfXdXfXuX..L 9.k.k.l.l.v.x.v.v.c.c.v.k.=.Z.I.Y.fXfXkXfXkX9X0XkXkX8X8XfXfXhXkXhXkXkXlXlXkXkXfXfX",
"hXhXfXfXdX9X8X2X8X8X0XfXlXdXkXkXlXfXfXfXA.y L 0.l.c.z.9.8.{ [ { [ [ -.L / ,.Q.F.%XkXkXkXkXkX9X;X>XdXhXhXfXfXfXhXkXkXkXkXhXkXfXdX",
"dXfXfXdX9X8X8X6X8X8XdXkXfXkXhXkXlXkXfXtXj K L 9.8.' ^ W Q Q Q Q +.W h ;.4.u.} i.Z.aXkXkXkXkX6X>XhXlXxXlXlXkXhXhXkXkXkXdXlXfXdXfX",
"dXdXfXfXdX9X8X8X6X0XfXfXfXhXhXlXlX6XdX&Xu K w ^ W Q +.+.Q ~ H ^ J G ` ( } ' G y.3.%XfXlXgX6X3XlXkXkXhXlXlXkXhXhXkXkXkXfXkXkXkXfX",
"hXdXfXdXdX9X8X9X2X0XfXfXhXhXhXlXdX6XfXY.w 5 Z Z Q ~ ^ J &.*.*.*.*.$.t ( ] G ] q.f.g V.1XhXpXjXlXhXkXhXlXhXhXhXhXdXhXkXhX0X9XdXdX",
"hX0X0XfXdXdXdXdX8X8XfXhXfXhXhXhX5XsXfXA.5 Z c A P &.*.$.L K 9 w e @ $ <.} 6. .t.y.=.%.:.uXlXxXlXlXhXdXhXkXkXhXkXhXfX8X0XkXkX0XfX",
"kXdXdXdXdXdXfXfXfX6XdXfXhXhXkXfX6XfXfXP.C G P $.&.K 8 , 3 3 f._.Q.X @ % @ O e e.e.i.u ..uXkXlXlXlXhXkXhXfXfXhXhXhX5XsXkXkXkXfXjX",
"kXkXfXdXdXdXhXfXfX8X5XfXhXhXhX6XdXfXtX;.&.&.L 9 @     @ e j OXXX.Xa % 4 .   + q.t.y.S.T.lXlXkXlXlXgXkXhX8X0XfXkX8X8XhXkXkXlXjXkX",
"kXkXkXfXdXfXfXfXfXfX5XdXfXhX,X6XgXI.=.&.L 9 @       . e d <.oXXXXXJ., t X X X t a.t.~.A.aXlXlXhX8XfXhXhXhXhX6X6X-XfXhXhXkXkXkXgX",
"hXkXhXhXfXdXhXfXfXhXfX:X6X:X0XuXV.-.$.w 9 +   + .   $ ) ` :.XXXXXX{.e ( O # i $ @.7.a.J.tXhX,X8XkXhXhXhXhXlXlX0XfXdXhXhXhXhXhXjX",
"lXhXhXhXhXhXhXhXkXkX3Xm.5XkXhX#XK K w w w O # :.t + t 3.D.Z.>.].XX{.) } O # k F #.e.d.3.m.2XjXjXlXkXlXlXlXxXlX4XfXfXhXhXjXhXhXlX",
"vXlXhXhXhXfXhXhXfX8X;X9XkXkXlXtXj u w w 9 8 0 G F }  .!.zX].C._.XX(.k t a | r @.y.e.<.m.uXgXjXjXlXlXlXxXxXlXlX3X3XhXhXhXhXlXlXvX",
"xXxXfXhXhXdXfXfX6XpXkXhXkXhXkXhX1XE.A.N.3 j ].(.) ` ].{.].R.{..X.XK.B.H..Xi.' } q.o.+XgXhXkXhXjXkXlXlXlXlXlXlX3XxX9XhXhXlXlXxXvX",
"xXxXhXhXxXjX6X8XhXkXkXjXhXhXhXhXhXhXfXB.q Q.oXoX.X,.!.OXoX).J..X.Xg J.XX~.(  ./ A.1XfXhXhXhXdXhXhXjXxXlXlXlXxXsXlXdXhXhXhXlXvXxX",
"vXxXhXxXxXfXdXlXlXlXlXjXhXfXfXhXhX#X..D / g.`. X X{.3.3.{.^.` ;.,.!..Xd.' } u.a +XsXxXxXxXjXdXhXhXhXlXlXlXlXlXdXhXfXkXkXjXxXxXvX",
"xXxXxXlXdXhXjXhXkXlXlXkXfXfXkXdX1X) U D ! a.p.s.s.~.{.(.X.X.J.{.XX|.Q.] r ` ! < ` I.lXxXxXxXxXhXkXhXlXkXhXhXhXlXdXhXhXlXlXlXxXxX",
"lXlXlXhXhXlXlXhXhXlXlXfXfXfXpX6XT.G Y P ! r.G ( w.a.g.`.{.OX|.`.~.| 7 F } 6 v V a.1.R.xXxXxXxXjXhXfXfXhXkXkXkXhXfXjXhXhXlXlXxXlX",
"xXlXhXhXkXjXhXhXhXlXjXfXfXfXfX%XK.:.I R J M b b m } e.t.y.g.y.[ 5 b S D J D v -.a.a.| qXxXxXxXxXkXhXhXhXfXfXkXfXfXjXkXhXkXlXlXxX",
"xXlXhXlXhXfXhXhXhXdXpXfXhXhXtXA.XX(.F Y E E U I B b V ( #.@.6 1 q V m M S M J g.t.t.y.>.gXxXxXjXhXkXhXkXkXkXhXkXfXjXkXlXjXlXlXxX",
"lXhXhXlXhXlXhXsXdXhXkXhXhXaXT.].oXXX2.D T E E E R R I v 1 1 N m ~.`.~.u. .' ~.|.g.y.t.q.W.xXxXhXhXlXkXfXhXhXhXdX7XfX9XkXjXjXlXxX",
"lXlXlXhXlXdXdXhXhXhXhXkXhXtXH.XXoXoX{.=.A E E I B B S U S N v <.|.oXXXXXoX}.oXoX'.e.t.a.>.jXxX9XvXlXlXfXhXfXhX5XhXhXfXlXlXhXlXxX",
"xXlXhXdX9XfXhXhXkXkXhXlXlXE.].XXoXoXXX.XJ.G A Y E E E S B b ( |.oX|.XXXXoXoXoXXXoXg.t.y.| iX0XhXxXxXlXlXhXfXfX6XhXfXhXhXlXlXvXxX",
"xXlXdX0XhXhXhXhXhXhXkXkXkXG.OXXX XoXoX|.XX{.J./ F n N N v ' |. XoXXXXXoXoXoXoXXXoX~.t.y.1.T.6XxXxXxXcXxXhXkXfXfX0XhXfXkXlXxXxXxX",
"xXxX0XhXfXfXfXfXfXkXkXlXgXH.oXXXoXoXoXoXXX|.XXXX{.J.-.G 4. X XoXoXoXoXoXoXoXoXoX X}.t.t.q.L.8XkXlXvXcXvXfXfXkXfXdXdXfXhXkXvXxXxX",
"lXdXlXhXhXdX2XfXfXfXlXkXeXJ.XXXXoXoXoXoXoXXXXXXX XXXOXoX X X XoXoXoXXXoXoXoXoXoXoX|.t.t.r.Z.dXvXkXlXlXlXkXhXfXfXfX9XhXhXxXlXxXxX",
"xXdXlXlXxXfXfXfXdXfXxXjX#XQ.oXXX XoXoXoXoXoXoXoXoXXXoXXXXXXXXXoXoXoXoXoXoXXXoXXXoX|.a.t.w.n.hXvXxXlXlXxXjXhXhXfXhXfX0XkXxXxXlXxX",
"xXdXlXlXlXjXfXfXfXfXfXfXY.i.oXXX XoXoXoXoXoXoXoXoXoXoXoXoXoXoXoXoXoXXXoXoXoXXXXXoX}.t.t.q.I.jXvXxXxXxXlXlXhXhXhXhXhXsXdXlXlXxXxX",
"xXfXhXhXjXkXhXfXdXdXdXfXE.q.XXXXoXoXoXoXoX XoXoXoXoXoXoXoXoXoXoXoXoXXXoXoXoXXXXXoX'.e.a.q.U.hXvXvXxXxXxXxXjXhXhXhXhXhXsXfXlXlXxX",
"xXlXfXhXjXlXhXhXfXdX9XdX#Xq.`.XX XoXoXoXoXoXoXoXoXoXoXoXoXoXXXoXoXoXoXoXoXXXXXXXoX~.e.a.| +XhXxXvXvXvXxXxXlXjXhXkXlXlXlXdXkXlXlX",
"lXlXhXhXjXjXjX9XjXfXdXfX=X| d.OX XoXoXoXoXoXoXoXoXoXoXoXoXoXXXoXoXoXoXoXoXoXoXXX|.d.t.y...<XjXxXxXxXvXxXxXjXjXjXlXlXxXlXkXsXkXxX",
"lXlXhXhXjXhX0XfXdXdXfXhXpXo.s.~.oXoX X XoXoXoXoXoXoXoXoXoXoXoXoXoXoXoXoXoXXXXXoX~.y.y.6.C.4XjXxXxXxXxXvXxXxXjXxXxXlXxXxXxXkXsXxX",
"lXlXhXlXhX9XhXjXdXdXdXdXdXY.q.a.'.oXoXoXoXoXoXoXoXoXoXoXoXoXoXoXoXoXoXoXXXoXXX}.y.y.e.( *X9XxXxXxXxXxXxXxXxXjXjXxXxXxXxXlXxXfXfX",
"xXhXxXlX9XhXjXjXhXdXdXdXdX<Xo.y.s.}.oX XoXoXoXoXoXoXoX|.oXoXoXoXoXoXXXoXXXoX|.d.e.y.#.B.dXfXjXjXxXxXxXvXxXxXjXxXxXlXlXxXxXxXxXpX",
"fXhXxXdXhXkXgXkXkXdXfXdXdX2X#X| a.d.}.oXoXoXoXoXoXoXoXoXoXoXoXoX|.oXoX|.oX|.d.t.t.7.) tX8XjXjXhXlXxXxXxXxXlXjXhXlXlXlXxXxXlXlXlX",
"xXxXxXfXxXxXdXcXlXfXfXdXdX0XdXY.O.a.d.'.oXoX XoXXXoXXXXXXXoXoXoXoXoXoXoX`.a.t.a.#.G $XjX2XjXjXxXxXxXxXlXlXjXhXjXlXlXxXxXxXvXxXvX",
"xXxXvXhXxXhXkXxXlXdXdXdXdXdXdXdXI.O.a.a.^.'. XoXOXoXXXoXXXoXoXoXoX|.^.i.t.a.e.@.5 4 iXfX3XdXjXxXxXxXxXxXxXlXlXjXlXxXxXlXvXxXvXlX",
"hXvXxXgXhXhXxXxXkXdXdXdXfXdXdXfXsXE.) #.p.y.s.^.^.'.}.}.}.'.`.^.h.w.] e.#.' 5 = ; 2 N.I.aX4XjXjXlXlXxXxXxXxXlXlXlXxXlXxXxXxXvXxX",
"lXcXvXlXpXxXxXhXfXdXdXdXdXdXdXfXfXjXT.4 G #.p.p.p.p.p.a.p.a.y.e.} 6 6 < o = * : : : /.qX$X3XjXjXlXlXlXxXxXlXlXlXlXxXlXxXxXvXvXlX",
"fXkXxXdXlXkXhXhXhXfXdXfXdXdX9XdXhXhXjX$X4 = 7 ^ @.@.7.7.#.#.{ 7 & & o & * & * ; : 7 zXqX#X3XhXhXhXkXhXlXlXlXlXlXxXxXxXlXlXvXlXhX",
"lXfXfXfXlXhXhXkXhXdXfXdXdXdXdX0XhXhXjXjXeXf * = = < 6 < 5 5 - o & * & - o & * ; d qXyXZ.<X4XjXhXhXhXhXhXkXhXlXkXlXlXvXlXxXkXkXkX",
"vXkXfXlXlXhXhXkXhXhXdXfXdXhXdX4XfXjXjXjXjXgXB.2 z : ; ; * * * * * 4 N.$X&Xl f D.yXwXP.@XsXjXjXhXhXhXhXhXkXlXlXvXvXvXvXcXxXkXkXvX",
"vXlX9XkXlXhXlXlXhXfXfXfXhXhXhX0XdXkXlXlXlXlXlX&XV c x z z : ; * < eXxXxXcXgXA.) _ l *X;XhXjXhXjXlXfXhXhXlXlXxXxXvXbXvXvXxXkXxXxX",
"xXlX9XlXjXhXlXhXhXfXhXhXhXhXhXlX9XlXkXlXlXxXxXlXE.V c c c x z > b.xXxXvXvXzXD.1.O.*X8XfXhXlXlXhXlXhXhXhXjXxXxXvXvXvX9XcXlXlXxXxX",
"xXxX3XkXhXhXjXjXhXhXhXhXhXjXlXlX9XdXlXlXlXxXxXxXiXb.H x c z 2 C.I.zXvXxXvXR.1.w.| b.8XhXjXjXxXlXlXjXjXjXlXlXxXxXvXvXdXlXlXlXxXxX",
"vXxX3XjXhXhXlXhXfXhXhXhXlXlXhXlXkX8XkXlXlXlXlXlXfXU.E.qXF.D.rXyXP.vXxXvXxXS.t.t # % l aXjXvXvXxXhXjXjXjXjXjXlXxXvXbXvXxXjXlXxXxX",
"xXxX3XlXhXhXjXjXhXhXhXlXkXkXlXlXlXdXdXlXlXlXlXxX9X4XP.rXcXcXeXZ.eXxXvXvXW.l 0 O !  .s Z.gXvXvXxXjXjXjXjXjXhXjXxXvXbXvXvXxXlXxXvX",
"xXvX9XjXhXhXjXhXfXhXhXkXjXlXlXjXkX0XhXlXxXxXlXfX3XjXyXR.P.l S...yXlXxXvXW.C.N.l f f ) f $XxXvXxXlXjXjXhXlXjXhXlXxXxXxXvXvXlXvXxX",
"xXxX9XxXhXhXhXhXfXhXhXhXhXhXhXlXkXhX9XkXxXxXdX5XsXjXjXjXyX*XK.[.D.eXgXvXvXvXxXuXgXiX*X#XiXlXxXxXxXlXjXjXjXhXlXhXhXjXxXvXvXxXxXxX",
"vXxX9XlXhXhXhXfXdXhXhXhXlXlXjXlXkXlXpX5XdX0X6XpXjXjXjXjXhXgXV.(.;.4 b.iXbXvXjXxXxXxXlXxXlXlXjXjXlXxXxXlXlXhXkXhXhXhXlXxXxXxXxXvX",
"xXfX0XxXhXhXfXfXfXhXhXlXlXlXlXlXkXxXxX,XM.,XhXlXxXlXlXlXjXgXl i p ` e A.xXxXfXfXxXlXlXlXlXlXlXlXlXlXlXxXjXkXhXhXfXhXhXxXfXxXxXvX",
"dXhXhXxXhXhXhXfXhXhXlXjXjXlXlXlXlXlXlX>X5XhXxXxXxXxXxXlXlXgXn.f h g e h wXhXkXfXxXlXjXlXjXxXlXjXlXkXlXxXlXhX5XhXhXhXgXfX8XxXxXfX",
"9XxXjXfXhXhXfXhXhXhXhXhXlXxXxXxXlXxX6X:XjXxXxXxXxXxXxXxXlXxXyXk g t e f wXpXhXxXlXlXxXlXjXxXlXjXlXlXlXlXxXlXdXhXjXxXxXxX8XxXfX6X",
"xXxXfXdXhXhXhXhXhXhXhXhXlXlXlXlXlXdX6XvXxXlXxXxXvXxXxXlXxXlXlXtXI.N.Y.yXxXfX0XkXxXjXxXlXlXxXxXjXlXjXkXlXlXxXlXlX0XxXxXxX5XsX9XxX",
"vXxXhXfXhXhXfXhXkXhXkXhXlXvXvXkX0X9XlXlXxXlXlXlXxXxXxXxXxXlXxXxXlXxXlXxXkXfXfXxXvXlXxXkXlXxXxXlXlXlXlXlXlXxXxXdX>X7XlX8X;X-XgXvX",
"xXvXjX8XhXhXhXhXhXkXlXpXhXlXkXfX9XxXlXlXlXxXlXlXlXxXlXxXxXlXlXlXxXxXxXlXlXkXpXlXxXxXkXkXxXlXlXlXjXhXjXlXvXdX8X,X:X5X6XlXlXfXcXlX",
"xXxXxX>XhXhXhXhXfXfX4X9XhXfXfX9XxXxXxXxXlXlXlXlXlXxXxXlXlXxXlXkXlXlXlXvXvX0X9X6XfXfXxXxXxXxXlXlXlXkXxXhX8X9XsXlXlXxXfXlXlXdXvXlX",
"vXvXxX0X>X;X2X3X3XsXxXlXkXkX0XxXvXvXvXlXxXxXlXlXlXlXlXxXxXlXxXkXkXkXlXlX8XxXvXxXhXsXjXvXxXxXxXkXxXlX9XdXhXvXxXxXxXxXlXlXhXfXbXvX"
};
