/* XPM */
static char *dolr1712254751[] = {
/* columns rows colors chars-per-pixel */
"64 64 217 2 ",
"   c #543D0B",
".  c #533D11",
"X  c #5B440D",
"o  c #5D4513",
"O  c #64470D",
"+  c #654A0E",
"@  c #6F5405",
"#  c #6E520E",
"$  c #715605",
"%  c #755907",
"&  c #73550A",
"*  c #765A0B",
"=  c #7A5D0B",
"-  c #694913",
";  c #6B4D12",
":  c #6E5314",
">  c #6B541C",
",  c #735413",
"<  c #795616",
"1  c #775B13",
"2  c #7A5D15",
"3  c #735118",
"4  c #795718",
"5  c #745A1C",
"6  c #7C5B1A",
"7  c #7E610D",
"8  c #7D6215",
"9  c #7D631C",
"0  c #6F5923",
"q  c #745B21",
"w  c #7B6325",
"e  c #7C6934",
"r  c #6E6656",
"t  c #6F6759",
"y  c #6D685B",
"u  c #716756",
"i  c #756B57",
"p  c #7B6E56",
"a  c #706758",
"s  c #746C5B",
"d  c #796F5B",
"f  c #7E7056",
"g  c #77705F",
"h  c #7C725D",
"j  c #6F6C60",
"k  c #736E61",
"l  c #767163",
"z  c #7C7464",
"x  c #7F7867",
"c  c #777469",
"v  c #7B7669",
"b  c #7E796B",
"n  c #7F7C70",
"m  c #815F18",
"M  c #84640E",
"N  c #8A6A0F",
"B  c #826514",
"V  c #886710",
"C  c #866915",
"Z  c #8C6B13",
"A  c #83651B",
"S  c #8A661D",
"D  c #86691C",
"F  c #8C6C1B",
"G  c #916F14",
"H  c #926D1C",
"J  c #8F7017",
"K  c #937215",
"L  c #997717",
"P  c #95741B",
"I  c #98751A",
"U  c #9C7B1B",
"Y  c #A17F1D",
"T  c #846A22",
"R  c #8A6B22",
"E  c #8B6E2B",
"W  c #916D21",
"Q  c #8D7222",
"!  c #947524",
"~  c #947827",
"^  c #9D7C24",
"/  c #9B7C2C",
"(  c #887232",
")  c #967B33",
"_  c #987835",
"`  c #A27D23",
"'  c #A37C2A",
"]  c #A37F35",
"[  c #806E41",
"{  c #88784B",
"}  c #8E7D4A",
"|  c #917E46",
" . c #827655",
".. c #867852",
"X. c #81755C",
"o. c #85795E",
"O. c #8A7C5E",
"+. c #817761",
"@. c #847A64",
"#. c #8A7D64",
"$. c #837C6B",
"%. c #897E6A",
"&. c #837E71",
"*. c #A5821E",
"=. c #A8851F",
"-. c #AB891F",
";. c #9A8223",
":. c #9A832B",
">. c #9B8739",
",. c #A48323",
"<. c #AA8622",
"1. c #A58B27",
"2. c #AC8A23",
"3. c #A5852B",
"4. c #AB852B",
"5. c #A48B29",
"6. c #AC8B2D",
"7. c #B28D23",
"8. c #B28E29",
"9. c #AF902D",
"0. c #B69125",
"q. c #B99426",
"w. c #BE9827",
"e. c #B4932B",
"r. c #BB9629",
"t. c #BD992A",
"y. c #A48433",
"u. c #A98C30",
"i. c #B68E32",
"p. c #AB9435",
"a. c #B59432",
"s. c #BA9633",
"d. c #BD9C32",
"f. c #B79739",
"g. c #B49B3C",
"h. c #B7A43E",
"j. c #BBA33C",
"k. c #C39C2C",
"l. c #C89F2E",
"z. c #C39F31",
"x. c #C19E39",
"c. c #C7A02E",
"v. c #C9A22E",
"b. c #C5A133",
"n. c #CBA433",
"m. c #C7A937",
"M. c #C5A43B",
"N. c #CBA539",
"B. c #CEA839",
"V. c #D3AA34",
"C. c #D8AE36",
"Z. c #D4AD3C",
"A. c #D9B339",
"S. c #DBB23B",
"D. c #9B8A44",
"F. c #8E815C",
"G. c #988758",
"H. c #A38C47",
"J. c #AA9843",
"K. c #B99C42",
"L. c #A79758",
"P. c #B19C53",
"I. c #BFAB43",
"U. c #B9A64A",
"Y. c #BEB14B",
"T. c #B9A756",
"R. c #BAA85A",
"E. c #8D8166",
"W. c #86806E",
"Q. c #8C826C",
"!. c #918166",
"~. c #988C66",
"^. c #91836A",
"/. c #938B6B",
"(. c #9F9B6F",
"). c #868173",
"_. c #8A8374",
"`. c #8F8876",
"'. c #878478",
"]. c #8A8679",
"[. c #8E897C",
"{. c #918671",
"}. c #938A74",
"|. c #998D76",
" X c #918B7B",
".X c #A99F66",
"XX c #A09D78",
"oX c #AFA66C",
"OX c #B3AD76",
"+X c #C5AC45",
"@X c #C9B54A",
"#X c #D6BC4C",
"$X c #C2AE56",
"%X c #C9B758",
"&X c #D0BC5D",
"*X c #C4B562",
"=X c #CAB963",
"-X c #D3BF63",
";X c #C3BD77",
":X c #D6CA4B",
">X c #DBC95B",
",X c #E2C84A",
"<X c #E6E05F",
"1X c #D6C466",
"2X c #DBCA73",
"3X c #E2D06E",
"4X c #E4D573",
"5X c #E0D47C",
"6X c #928E81",
"7X c #959084",
"8X c #B0AB84",
"9X c #B5AE84",
"0X c #CBC884",
"qX c #D5D196",
"wX c #ECE589",
"eX c #E9E49C",
"rX c #F8F69E",
/* pixels */
"].'.&.n $.&.&.&.&.[.&.7X&.%.&.&.&.&.&.$.&.&.+.$.&.n &.&.$.&.$.$.$.$.n n n '.]._._.].[.[._._.[._.}. X'.).'.'.]. X'.'.'.'.].]._.'.",
"$.$.&.$.+.$.&.%.%.%.%.%.%.%.@.#.+.$.%.&.X.X.X.X.+.+.+.+.+.+.X.X.X.+.c $.&.%.%.%.Q.E.^.Q.^.^.^.^.^.^.{.].&.$.&.&.&.$.&.&.&.&.&.$.",
"$.z c z +.+.$.@.%.@.%.%.%.+.+.@.+.+.+.+.X.X.[ X.X.X.+.X.X.X.X.X.X.X.+.c #.#.%.%.E.E.E.E.E.Q.!.Q.Q.^.W.).$.$.$.$.$.+.$.$.&.$.$.z ",
"$.x v k +.+.%.%.%.%.%.%.%.#.X.+.+.$.k +.X.X.X.X.X.X.X.X.X.X.X.X.X.X.+.$.#.#.%.%.^.E.!.^.E.!.E.!.!.!.%.b $.$.$.$.$.$.v $.$.$.$.+.",
"c z c k z +.+.v @.%.$.$.@.+.k +.+.k k k a a X.a X.X.X.+.X.+.+.a X.+.$.$.#.#.#.#.#.W.@.@.@.E.@.@.%.$.b v v b v c z v v x c $.v v ",
"&.&._._.&.&.&.&.$.&.&.$.$.+.k c +.$.$.&.$.+.c c +.+.$.$.+.$.$.+.+.$.&.$.%.%.&.&.).W.$.b b b $.W.$.).).).&.&.&.n &.&.&._.&._.&.&.",
"%.^.%.%.%.%.}.&.+.k X.s a a a a a a a +.t a +.&.+.X.+.+.+.+.+.+.+.+.+.+.+.+.%._.z z h g g h h g h z z h h z b _.Q.^.Q._.^._.{.%.",
"^.#.%.%.#.%.%.$.+.s k s a a a a a a a a a a k +.X.X.X.X.+.+.X.X.+.+.X.X.X.+.+.$.h h g g f g d g h d s s h h z $.Q.Q.Q.^.Q.{.^.%.",
"%.#.#.%.%.%.&.$.s s s s a a a a a X.a a a +.a $.o.@.@.X.X.+.o.+.+.+.+.+.#.o.@.$.z z d h h g g g h h g s s g h W.Q.Q.Q.Q.{._.Q.E.",
"#.+.%.%.%.%.$.+.k s k t a a a a a X.a a a a +.$.z +.X.o.X.+.+.@.+.+.+.X.@.#.+.c d d d h h h g i g g i s i g g c %.W.#.W.W.^.Q.%.",
"@.+.$.$.$.$.%.&.$.+.c +.+.a k s %.$.%.#.+.&.&.].$.W.$.$.$.b v x $.&.$.$.$.$.).&.x b v x c c l l z z z l l l v n &.$.$.).)._._.$.",
"%.@.@.%.@.%.%.#.%.%.%.@.$.$.&.&.|.%.%..X&.%.|.|.|.|.}.{.{.{._.).&.&.).&._._._._.&.$.$.&.W.n &.W.W.Q.Q.W.#.W.Q._._.Q.W.%.W._.}.Q.",
"X.X.X.X.X.X.X.X.X.X.X.X.X.+.+.$.|.#.#.#.#.~.!.E.!.^.^.!.#.!.!.F.X.[ X. .o.@.@.@.z +.z z h x n $.@.@.@.o.o.o.@.o.@.@.@.@.#.Q.Q.o.",
"X.X.X.X.X.X.o.X.X.X.X.X.X.+.$.@.%.%.|.#.~.!.#.%.E.!.~.H.9.` ` ! H S m m m T [ X.+.+.@.z x x n x #.#.#.#.@.o.@.W.#.E.@.E.#.$.E.o.",
"X.+.X.o.+.+.X.X.[ X.X.X.X.+.$.$.%.#.#.#.#.#.#.#.L.f.0.^ S < 4 < m m m m m m m 6 w f z g h l n x @.E.$.#.@.@.@.W.#.#.@.@.#.#.W.X.",
"k +.+.+.k k t +.k a +.+.+.$.&.&.%.%.%.%.%.#./.#Xb.H 4 W ! u.R / S W m _ m R 4 m 9 9 e i l v &.b @.$.$.@.@.@.#.@.x b x $.+.b z l ",
"'.'.&.].].&.&.'.&.$.k $.$.$.$.&.$.$.$.$.$.oX,Xi.3 ! _ u./ 8.7.7.2.2.6.I L E I ~ C 6 2 5 o.).).).W.W.W.).W.W.W.&.n n n n v &.n n ",
"$.$.$.$.$.c c $.&.k t t X.X.+.a +.a +.+.;X#Xm W y.` f.r.7.8.7.7.2.2.*.*.` Y I F ^ S F A 1 { E.E.E.E.#.E.E.E.E.E._.n v l g l c l ",
"k $.c c l k k k $.k a s X.+.a X.a +.k 2X1X< ] ] n.v.t.q.7.7.7.-.2.=.-.*.*.Y ,.L G I ` R ;.T F.F.#.@.@.#.@.h o.@.W.b l l g g g l ",
"+.c +.k l +.l k c +.s s X.+.+.a +.k 9X0X< _ i.l.l.k.q.0.7.7.8.7.2.=.-.=.*.6.,.Y U I F K ~ ^ D G.#.#.#.#.E.@.F.F.$.b z l g g l c ",
"l l +.$.c c c k $.+.a s %.%.@.@.s {.wXm ' x.l.l.k.k.q.0.0.0.s.7.1X1.2.7.7.2.,.*.Y Y Y ` F e.5.:.F.z @.$.E.@.x x n c l l l l l c ",
"&.&.&.%.%.%.&.%.|.%.$.%.%.%.%.%.$.eXH.' ] V.Z.B.k.w.q.0.7.x.8.=.7.2.Y U *.=.=.<.*.,.Y L U ^ J.1.L.b W._.W.W.&.&.'.'.&.&.n n b W.",
"&.&.%.%.#.%.%.%.#.#.#.#.%.%.#.#.9X2X3 ] S.#XZ.l.w.w.q.q.@Xk.8.H i.,.8.q.2.2.7.2.2.9.*.U L U 2.J.p.(.@.@.x  .x  . .x  .g z  . .g ",
"$.%.%.#.#.#.#.%.#.#.#.#.#.#.#.#.eX_ k.i.C.C.l.k.w.k.k.+Xm.=.- S =Xy.' +Xq.e.8.q.s.7.7.-.=.` 3.Y.a.D. .x h h h h z  .h f h h d h ",
"+.&.%.%.%.%.#.o.#.O.#.#.#.#.#.9X5Xm ] Z.C.V.v.c.k.t.d.>X0.H P z.2Xi.l.&Xb.r.M.q.0.7.7.7.-.2.2.9.U.Y./. .h h h h  .z  .g  . .g d ",
"z +.%.%.%.@.#.#.#.o.#.O.@.%.#.qXP.8.Z.S.C.V.v.v.l.M.k.3Xw.=.w.n.2X0.k.+X4.I 0.t.q.q.q.0.s.2.2.^ Y.5.L.h h h @. .h h g  .z h h d ",
"&.&.%.&.&.+.$.%.&.%.@.%.%.$.&.rXW i.x.C.V.V.V.v.n.k.t.4Xw.2.r.n.2Xd.b.l.z.M.l.t.k.k.r.s.7.7.2.2.J.Y.D.b x v v b $.x $.x x v c x ",
"[.[.'.{.[.&.&.{.%.%.%.%.%.&.8XwXR K.C.n.V.v.v.k.k.k.k.3Xk.s.,.B.2Xm.l.n.N.l.k.l.k.t.t.r.q.7.7.2.p.>XY.W.W.].'._._._._._.'.[.]._.",
"_._.&.%.`.&.{.%.%.%.#.#.#.|.9X-XR E V.n.n.l.k.w.w.r.w.#X#Xl.<.3.-XM.l.n.v.l.l.k.l.k.t.q.0.7.2.e.g.R.@Xb b ).W.$.Q.W._.$.W.].]._.",
"`.`.`.&.%.&.%.{.%.%.#.#.%.%.0X*XW i.n.l.k.N.k.w.q.0.q.k.S.t.k.k.l.q.,.8.k.l.k.k.b.r.w.q.0.7.e.a.,.$X+XXXb ).W.W./.W.W././.'.]._.",
"_.`.&.{.&.&.%.%.|.%.|.|.#.%.0X$XT W l.r.x.0.8.7.7.7.8.q.0.0.7.,.x.w.k.k.,.r.k.x.l.k.k.q.0.7.2.<.t.R.U./.b &.&.E.n W.W.W.W.)._.`.",
"]._.&.&.&.[.}.{.%.%.#.%.%.%.2X$XT ! r.0.0.8.7.7.7.-.-.7.0.0.r.+X2X` ,.t.t.t.d.q.q.q.0.0.7.-.=.1.,.R.h.8X&.'.).n W.).'._.n '.'._.",
"%.%.%.%.%.%.#.#.%.@.@.@.$.$.;XY.5 T -.2.*.*.*.*.6.<.=.-.2.2.2.+X1X3.2.e.b.0.m.e.0.0.8.0.7.2.=.,.e.*XY.]._._._.$.W._._.].[.[._.W.",
"%.@.@.X.+.X.@.@.#.X.X.+.$.$.OX#X5 E 2.,.*.*.U ,.,.*.*.*.<.*.<.j.&X6.0.e.%X2.d.0.0.0.0.e.*.,.U *.3.T.I.{.x $.x x $.$.$.$.`.W.E.E.",
"@.@.@.X.@.@.@.@.X.X.X.d b $.oX:X> T U U L U L U L L a.*.` Y *.g.@Xe.<.9.1X-.e.*.=.,.2.Y Y U L ,.p.%X>.$.x x W.x @.$.@.@.&.W.x h ",
"X.X.X.@.X.X.@.#.+.X.X.z $.b /.<X# w 1 K K J K L P K j.U U U L p.U.0.6.6.=X*.1.*.*.*.Y Y L L P U R.:.>.x @.x x x b $.$.x $.$.F.h ",
"+.$.+.+.%.+.+.$.@.+.a s &.&.+.>X~ : B K L K J N Z Z 1.j.J K J u.U.^ U $Xg.L ;.L U U L K Z J 5.5.=X;.oXv v b b $.b n x b &.&.$.g ",
"&.%.%.&.&.&.&.%.&.$.b $.&.&.&..Xm.X 0 Q L N N V V V P d.N N ; ~ p.T 3.U.J 8 D ^ K K Z N Z ! Z >.J.) }._._.[._.].`.[.].[.7X[.`.W.",
"+.$.%.&.$.$.$.$.+.$.&.b $.+.$.%.,X: 9 A N M M M 7 7 M N J 7 C D Z J K V = 9 ! K Z Z Z Z V P J R.1 D.).W.Q._._.{.`. X X`.Q.W.W.@.",
"+.$.@.@.+.+.+.+.+.$.&.k s a k a P.t.. > N M M 7 7 7 7 7 7 7 9 7 M = * * 2 J M M M M M M B M >.>.> Q.W.Q.W.Q.Q.{.`.}.`._.W.$.$.z ",
"+.+.+.$.+.X.+.+.+.v v j s a a k s M.8 + 5 1 M D 7 7 % % % 8 7 >.;.~ 7 7 M M M M M M C = C ~ T.o e Q.Q.W.Q._._.Q.`.}._.W.W.@.z h ",
"z z $.+.+.l k +.+.z &.j a j j j s G.0.X X 2 9 7 7 % % % $ 7 7 5.~ ;.7 7 7 7 M M M F 7 P J 1X8 0 W.W.W.W.Q.Q.Q.Q.Q.`.'.$.W.x z h ",
"v $.$.&.&.+.+.$.$.&.&.c k k c +.z v D.U   > + * = = % $ $ $ $ 7 & 8 7 % 7 = = = B B 8 V P.9 : W.).).W.).).).W.W._.].6X'.v v b x ",
"$.+.$.%.%.$.$.$.%.&.&.&.&.$.@.$.z #.@.>.Z X & q * * 9 $ $ @ $ $ * 8 % 7 = % % % C 8 I $XD 9 ..W.$.$.W.@.W.W.W.W.W./.`.[._.W.W.+.",
"X.+.$.@.@.+.+.X.+.+.@.+.$.z o.X.X.h h f ( J + - A q 1 @ & @ $ $ $ 7 = 7 = = Z = ;.1.U.8 5  .o.x o.z o.h h z @.x @.E.W.W.'.$.@.h ",
"X.X.@.%.$.+.X.X.X.@.@.@.b z h X.o.o.o.f f ( C 8 o , A O 1 # * $ & $ 8 % Q B ! I s.:.1 w W.z h h @.o.@.h o.@.o.@.@.@.#.$.W.#.#.o.",
"+.@.+.%.$.+.X.X.@.@.@.$.$.z X.z h X.h h f d { w A 2 X ; : < ! # Q # P D / 3.6.^ B 1 e v &.c h @.@.z h h h o.z @.W.@.#.x b #.@.+.",
"+.+.$.+.+.+.+.+.@.@.%.$.&.n $.W.$.&.$.$.v x z h ( w B B 9 5 ; 6 9 D D F I F 8 9 e @.b v n c x x @.@.x x z h z h z @.b b b b $.x ",
"$.$.$.$.$.+.$.c +.+.+.+.+.$.$.%.&.%.%.$.@.$.+.$.&.&.#.( E C C B 8 8 B D 9 e D.$.n $.).).&.).W.W._._._.Q.$.$.W.&.&.$.W._._.&.$.$.",
"s +.+.k a X.+.$.k +.X.X.k +.+.+.+.+.+.X.a X.+.c &.%.%.%.#.O.O.| } D.F.F.E.#.x W.E.x E.F.@.@.E.E.W.E.E.W.#.@.#._.$.z z h z h z g ",
"a a X.a u a a +.k a X.X.X.X.+.@.+.+.X.s X.X.X.$.%.#.%.#.O.#.#.o.@.E.E.E.E.o.@.W.b F.o.@.@.F.@.E.#.@.o.o.X.o.@.x +.h h h i s h s ",
"X.X.a a u X.s k s X.a X.s X.X.+.+.+.X.X.s X.k $.%.#.#.#.#.#.o.#.O.#.E.E.E.o.F.x x x @.@.@.@.x F.#.E.E.@.X.o.X.v v h s h g h h h ",
"a s a a k a a k a a a a a a k +.$.@.+.+.X.+.c $.&.@.@.+.z +.@.+.@.+.W.#.E.h h x z x h h g x o.@.@.#.o.h h z h l l g g s u s g g ",
"$.$.$.+.$.$.+.$.$.$.$.$.$.$.$.&.&.&.&.&.&.&.&.&.&.&.&.&.&.v $.$.$.$.).W.b $.n ).$.$.W.n &.n b W.$.W.W.x $.@.x W.$.b b b v b W.W.",
"X.X.X.X.+.X.X.X.X.+.+.$.&.$.+.+.+.+.+.+.+.+.+.+.$.+.+.&.&.v +.+.h z @.h g f g h g h h x '.v g x h h h d g g d g g h h h ).#.h @.",
"+.X.X.X.X.X.X.X.X.X.+.+.&.+.s k z +.c +.k k l d d +.c v &.l d @.h h o.g d d d d h h g z ).l  . .h h h d i f f d h h h h v h X.o.",
"X.X.X.X.X.X.X.X.X.X.X.@.$.+.k +.z z z z d d l d g z z v n z z h h h h h f g i g h  .h c n h  .g h h f d d d h f h h h h b z o.o.",
"X.X.X.X.u X.X.X.X.X.+.+.$.c s k d d X.d s a s d g l h c '.z h h h h h g i i i d h g g g &.g g  .d f g d i d d g d d f g z h f h ",
"%.@.&.$.X.s $.+.+.+.+.&.&.c +.$.v x x c j s l z l z z b ).b b $.b b b v j l l v b x x n &.n n $.x $.b v g l b v x b b b b v $.@.",
"%.%.%.%.&.&.%.%.$.$.&.%.&.$.$.+.z $.$.$.&.$.+.+.@.h @.x n '.)._.'.)._.).'.b v z b b b n &.&.$.x $.$.x v &.b b b v v v ).'._.W.W.",
"%.#.+.#.&.$.+.+.@.+.+.%.&.+.k a s d k h v f p f f f  .o.$.$.$.$.$.$.@.$.b l g s g g g g n x h h d h f d v l l l g g g z ).$.o.#.",
"%.#.o.+.$.$.%.%.#.#.%.&.$.k +.s d d h z z p p f X.X.h f $.&.$.$.$.$.$.$.v l g g g g c g v v h @.h h d g z l l l l l l v b $.@.@.",
"+.+.X.X.k +.X.+.+.+.+.+.$.+.s s d z h l d u u u i f f i l b x $.#.$.W.$.c j y y j l g j l v h h h h d f c j j j g y y l v v h X.",
"k k a a &.c j +.k +.k k c k s a d l s s l k r y g l g l b l v x x x c l c l y y j l j l b g g x h h g j c c l k l k l c '.c l g "
};
