/* XPM */
static char *_6965a0e75da409edf5dbd1cb7459142mBWBpUd024t0w8PX[] = {
/* columns rows colors chars-per-pixel */
"64 64 142 2 ",
"   c #141412",
".  c #171817",
"X  c #171919",
"o  c #191B1D",
"O  c #211F1B",
"+  c #22211C",
"@  c #1C1F21",
"#  c #1D2124",
"$  c #1F2328",
"%  c #202427",
"&  c #2D2A23",
"*  c #22262B",
"=  c #24292E",
"-  c #252B31",
";  c #292E35",
":  c #2B3036",
">  c #2C333B",
",  c #313538",
"<  c #4E483D",
"1  c #2F3843",
"2  c #323A44",
"3  c #343E49",
"4  c #36414E",
"5  c #394554",
"6  c #3C4956",
"7  c #3E4B5B",
"8  c #4F4E45",
"9  c #4A4B48",
"0  c #504E42",
"q  c #4B504E",
"w  c #535047",
"e  c #5B5344",
"r  c #55544E",
"t  c #5A564C",
"y  c #5D594E",
"u  c #414B55",
"i  c #414C5A",
"p  c #4E5452",
"a  c #505553",
"s  c #595750",
"d  c #5C5B55",
"f  c #5D5D59",
"g  c #625B4D",
"h  c #665F52",
"j  c #67604F",
"k  c #6A6455",
"l  c #63635D",
"z  c #6B6559",
"x  c #6E6A5D",
"c  c #736955",
"v  c #7B6E56",
"b  c #746D5D",
"n  c #7A6F59",
"m  c #7F7057",
"M  c #76705E",
"N  c #7D725C",
"B  c #424F61",
"V  c #445263",
"C  c #46566A",
"Z  c #47586D",
"A  c #49596C",
"S  c #4D5E73",
"D  c #4F6075",
"F  c #4F6179",
"G  c #516276",
"H  c #51647D",
"J  c #56687E",
"K  c #58697F",
"L  c #636461",
"P  c #666867",
"I  c #6D6A61",
"U  c #6A6C6A",
"Y  c #726E62",
"T  c #767163",
"R  c #7B7465",
"E  c #7E7867",
"W  c #737268",
"Q  c #7C7669",
"!  c #7E796B",
"~  c #7E7C72",
"^  c #74797A",
"/  c #83755C",
"(  c #85795E",
")  c #88795F",
"_  c #827661",
"`  c #857A64",
"'  c #8A7D64",
"]  c #807969",
"[  c #867B68",
"{  c #837C6B",
"}  c #867C68",
"|  c #817B6C",
" . c #837C6C",
".. c #827D6F",
"X. c #867D6D",
"o. c #887D68",
"O. c #897D69",
"+. c #8A7F6A",
"@. c #837E70",
"#. c #847F72",
"$. c #8D8166",
"%. c #87806F",
"&. c #8B806B",
"*. c #8C816B",
"=. c #88806F",
"-. c #92856C",
";. c #95886E",
":. c #848073",
">. c #878173",
",. c #858174",
"<. c #878274",
"1. c #878476",
"2. c #8A8373",
"3. c #8D8573",
"4. c #888376",
"5. c #8B8677",
"6. c #8C8677",
"7. c #8F8877",
"8. c #878479",
"9. c #8B8678",
"0. c #8A8679",
"q. c #8D897C",
"w. c #908773",
"e. c #938A74",
"r. c #998C72",
"t. c #928C7B",
"y. c #908B7C",
"u. c #918C7D",
"i. c #536781",
"p. c #546882",
"a. c #596E8A",
"s. c #5C728F",
"d. c #5E7593",
"f. c #607896",
"g. c #637B9B",
"h. c #6780A1",
"j. c #6A85A6",
"k. c #6E8AAD",
"l. c #728EB3",
"z. c #7491B6",
"x. c #7694BA",
"c. c #918D81",
/* pixels */
"5.<.>...! ! <.@.>.>.4.q.5.#.@.@.....@.<.>.>.....#.<.>.@.@.>.>.>.<.>.1.<.<.<.>.#.>.4.6.5.5.9.5.4.y.u.y.6.5.2.6.q.4.>.4.5.5.5.>.#.",
"` _ / N N Q @.@.>.2.2.5.2.X.} X.X.X.=.X.X.X.X.X.>.2.3.2.>.2.2.2.#.>.2.2.2.@...` ` ` ` ` ` o.o.o.o.o.o.o.' ` o.o.` ` ` o.o.o.` / ",
"/ N N v v Q >.] ` ` o.o.o._ _ _ _ _ ` ` _ _ _ _ ` o.o.` ` [ ` _ _ ] ` ` ` X.{ ( ( / ( ( ( ( ( ( ` ` ( ( ( / / ( / / / ( ` / / N ",
"/ N N v n Q >.] [ o.o.o.o.` / _ _ ` _ _ _ _ _ _ ` ` ` ` ` [ ` _ ] ` ` [ o.{ ] ` ` ( ( ` ( ( ( ( ` ` ( ( ( / ( / / / / / ( / / N ",
"/ / N N N ! >.] o.*.&.o.o.` / / _ _ _ _ _ _ _ ` ` ` [ ` ` [ ` ` ` ` } [ o.} ] ` ` ` ( / / / / / ( ( / ( ( ( ` / / / / / / ( / / ",
"/ / / / / E <.] o.o.&.o.o._ N / _ _ _ ` _ _ ` ` ` ` o.` ` } ` ` ` ` ` ` ` X.{ ` ` ` / / / / / / ( ( / ( ` ( ` ( / / / ( ` ` ( / ",
"/ / / / / | <.] o.o.o.o.` / / / _ _ _ ` _ _ ` ` _ ` o.` [ } [ ` } ` ` ` } X.} ` ` ` / / / / / / / ( / / ( ` ` ` ` ( ( ` ` ` ` / ",
"( / / / / ! >.{ o.o.} [ ` / e + + + + + + + + + + + + + + + + + + + + + + + + + + + + + + + + + & c / / / ( ` ` ` ` ` o.` ` ` ( ",
") ( / ( / ! >.] &.&.o.o.` ` e                       @ - ; ; ; ; ; ; ; ; = X                     O c ( / / ( ` ` ` ` ` ' ' o.' ` ",
"c c b b b ! <.E R R R b b b <                   % - C j.l.l.l.l.l.l.l.l.f.2 = o                 o j b c c b b b M N b N N N N b ",
"Q Q ! ! | <.<.#.@.@.@.! ! E w             . # % a.k.l.l.k.k.k.k.k.k.k.l.l.k.k.6 % o             + I ~ ! Q ! ~ ~ @.@.! ~ <.<.<.@.",
"3.2.6.2.3.6.6.6.6.6.6.3.3.2.t           . % s.j.z.z.h.F 6 3 3 3 3 3 4 B a.k.x.k.j.V X           + R 7.6.6.2.2.6.6.7.6.6.7.y.t.y.",
"o.o.*.o.o.o.o.o.o.o.o.o.' o.t           % d.x.x.h.S 5 2 > ; ; ; ; ; : > 2 i a.k.x.l.C .         + n o.o.o.o.o.o.o.o.o.&.&.*.*.*.",
"o.o.o.&.&.&.o.o.o.o.o.o.o.o.t X X X o * F l.x.H 5 2 > ; ; = # # # # ; ; ; > 3 i g.x.h.7 o X X X + N &.&.o.o.o.=.o.&.o.&.&.&.*.&.",
"&.*.*.*.*.*.o.o.o.o.[ ` o.o.y o o o = S d.g.S 3 > : * @ X X . . . . X o # ; : > 7 a.g.a.7 o o o + N *.&.o.o.o.*.&.&.o.o.&.&.*.&.",
"&.*.*.*.*.*.&.o.o.[ ` [ ' ' y o o - S d.d.Z 3 > % @ X .                 . o # - > 6 H f.a.7 @ o + N *.&.o.o.&.*.*.*.o.&.&.o.&.o.",
"&.*.*.*.*.&.o.o.o.o.` o.*.*.y o # 5 d.d.Z 3 > % X                           . @ - > 6 H f.p.> o + N *.*.*.&.*.*.*.*.o.o.o.o.o.o.",
"*.*.*.*.*.o.o.o.o.o.o.o.-.*.y . ; H d.a.3 : % X                               . o = > B f.d.V o + N &.*.*.o.&.*.*.*.o.o.o.o.o.o.",
"*.*.*.*.&.o.o.o.o.o.o.o.-.-.I 4 V f.s.V > % .                                     o - 3 D d.a.6 u E &.*.*.o.o.*.*.*.&.o.o.o.o.&.",
"} } } ` ` ` ` ` _ ` _ ` *.*.^ f.f.f.p.> * X                                       . @ - 5 d.f.f.f.| } } } ` ` ` } } ` ` ` ` ` ` ",
"R T T T T T T Y b b b b Q } ^ p.p.p.S > o                                           . # 4 i.p.p.K W T R T T Y Y Q R T T b T T T ",
"q.q.9.<.5.9.9.<.#.>...#.w.q.U 6 6 6 4 = .                                             o > 5 6 6 i ~ q.u.q.9.<.5.9.9.9.<.@.<.<.1.",
"3.2.=.} o.=.=.} o.o.` ` o.*.x 4 4 4 2 o                                               . % 4 4 4 u ..w.t.w.w.w.3.w.w.w.2.<.@.{ } ",
"' ' ` ( ( ( ( / / ( ( / / ) g ; ; ; = .                                                 o - ; ; , N -.;.-.-.-.*.-.-.-.*.>.@./ ( ",
"` ' ( ( ( ( / / / / / / / ( e o X . .                                                     . X o o 0 -.-.-.-.-.-.-.-.-.-.#...` ( ",
"' ' ( ( ( ( ( / / / / / / / h , ; o X                                                   . o # > > 8 -.-.-.-.;.;.-.-.-.-.>.@.` ( ",
"' ' ( ( ( / ( / / / / / / / k 2 > o X                                                   . o # 2 2 r -.-.-.-.-.-.-.-.-.-.>.>.` ( ",
"' ' ( ( ( ( ( / / / / / / / k 5 1 o X                                                   . o # 4 4 s -.-.-.-.-.-.-.;.;.-.>.<.o.( ",
"' o.' ( ) ( ( ( / / / / / / Y S 7 o X                                                   . o = Z Z d -.-.-.;.;.-.;.r.r.;.5.4.o.' ",
"$.$.' ' ( ( ( ( / / / / / / W J V o X                                                   . o - G G f -.-.-.;.r.;.r.r.r.r.q.5.*.' ",
"o.o.` ( ( ( ( / / N / N m / Y J V o X                                                   . o - G S r *.*.-.-.;.-.-.;.;.-.4.<.o.o.",
"! ! E R T Q Q R T T T T Y T U J V o X                                                   . o - G S 9 R ! ....| ! ] ..@.@.q.q.| ! ",
"9.9.9.<.4.4.5.5.5.4.#.#.<.4.^ J V o o                                                   . o - G S r <.8.9.9.8.8.9.q.c.c.c.c.q.q.",
"] ! E Q Q Q ] ] ` Q R Q Q Q U J V o X                                                   . o - G S a >.! ..| ] ! ] ....X.%.X...] ",
"Q R Q R R Q Q Q Q R R R R T U J V o X                                                   . o - G S a >.E ! ! ! ! ] ] ] ! ..] Q R ",
"R R R Q Q Q Q Q Q R T R R R U S 7 o X                                                   . o = Z A p @.E ! ! ! ! ] ] ] ! ] ] Q R ",
"T T Q ! Q Q Q Q Q R T R R R L 7 3 o X                                                   . o % 7 6 q @.E ! ! ! ! ] { ..] ] ] ! R ",
"R T R Q Q R Q R R R M R R R U D 7 o X                                                   . o = Z A p ~ R Q ! E ! ] ....X.X...] T ",
"R R R Q R R R R R R R R R R L 7 3 o X                                                   . o % 7 6 p ! R R R Q ! ] ..X.X.X.] E R ",
"R R Q Q R R R R R R R R M T U D 7 o X                                                   . o = Z A a @.T R Q Q ! ......X.] Q Q R ",
"T R R T R R R R R R R T Y b l 7 3 o o                                                   . o % 6 6 p ! T R Q Q R ] ......! R R T ",
"x x b b b b b Y b b b b x b f 6 1 o X                                                   . o $ 4 6 W @.Y Y T T T T Q ! E R T x z ",
"E ! ! @.@.| ! ! @.@.@.! ! @.P 6 1 o X                                                   . o $ 4 u ~ 9.<.<.<.<.<.<.9.q.9.<.@.! ! ",
"[ #.>.6.3.*.=.o.*.3.*.*.*.3.U 6 1 o X                                                   . o $ 4 u ! =.=.=.*.*.*.3.e.w.w.*.o.} ` ",
"/ ! ..*.' ' ) ) ' ' ' ' ' $.I 6 1 o X                                                   . o $ 4 u N ( ( ( ( ( ' ' $.$.$.' ( / m ",
"N ! ..*.$.' ) ) ' ' ' ' ' ' I 6 1 o X                                                   . o $ 4 u N ( ( ) ) ` ' o.$.$.o.' ) ( / ",
"/ ! | $.' ' ) ) ' ' ' ' ' ' I 6 1 o X                                                   . o $ 4 u N ( ( ( ( ( ' $.$.o.' ) ( ( / ",
"/ ] ..o.' ' ' ) ' ' ' ' ' ' I 6 1 o X                                                   . o $ 4 u N ` ( ( ( ( ` ' ' ' ' ) ( ( / ",
"/ ] X.o.' ' ' ' ' ' ' ' ' ' x 5 1 o X                                                   . o $ 4 u R ' ( ( / ( ( ' ' ' ' ' ' ' ( ",
"/ { X.o.' ' o.o.' ' ' ' ' ' I 6 1 o X                                                   . o $ 4 u R ' ( ( / ( ( ` ` ' ' ( ( ( ( ",
"/ ] X.o.' ' ' ' ) ' ' ' ' ' I 6 1 o X                                                   . o $ 4 u N ' ( ( ( ( ( ' ' ' ( ( ( ( ( ",
"n Q ! / / / / m v N N / ( ( z 6 1 o X                                                   . o $ 4 u b / N v v v v / N N N v N / N ",
"Q ..@.R b b b b b b b M R R l 6 1 o X                                                   . o $ 4 u W T b b b M b T T T T b T T T ",
"4.>.@.@.>.>.@...! ! ..>.2.<.U 6 1 o X                                                   . o $ 4 i ~ 9.<.9.>.>.>.>.<.<.>.>.@.<.<.",
"4.>.#.<.4.<.>.>...| >.q.6.3.U 6 1 o X                                                   . o $ 4 i ~ 4.>.>.>.>.#.<.>.<.<.#.<.5.5.",
"X.X.] ] ] ] ] | ] ] ..#.X.-.I 5 1 o X                                                   . o $ 4 u Q } ] ] ] ] ] ] } ..@.@.X.X.X.",
"%.X...X.| | ] ..X...@.4.} -.h * $ o X                                                   . o @ % : T X.] ] ] X.{ } } ..@.@.X.X.X.",
"%.>.X.X.| ] | | X.....5.} *.o._ _ _ ` / N N N N N N R T R Q E Q R R Q R T T T R Q T T W Y T R R T { X.] ] ] ..[ X.X...<.@.X.X.X.",
"2.2.X.X.X.X.X.X.X.| ..#.[ *.-.-.*.-.-.*.o.' *.*.o.o.=.#.2.2.2.2.2.2.2.X.X.X.X.X.2.#.@.@.! X.X.X.] X.X.] ] ] ] ] | } ! #.@.X.X.X.",
"%.>.X.X.X.X.X.X.X...| >.} *.-.-.' -.-.-.*.*.o.o.*.&.=.@.#.2.>.=.2.2.2.2.X.X.X.X.X.X.! ! ! X.X.X.{ ] ] Q Q ] ] ] ] ] | <...X...X.",
"#.X.X.X.X.X.X.X.X.....4.} *.*.' ' *.-.-.o.o.o.o.*.*.*.>.>.2.X.X.2.%.X.X.X.} ] ..X...@.@.E { { } } ] ] Q Q ] ] [ { ] | <.......X.",
">.X.X.X.X.2.X.%.X.X.! >.} *.*.*.*.*.-.-.*.' ' ' *.-.=.@.2.2.%.%.2.2.=.X.X.X.X.X.X...@.@.Q } ..X.X.] ] ] ` ] } X.X.] | @...X.X.X.",
"| E Q Q Q Q R Q Q E @.<.] ` _ / _ ` ` ` _ / / / _ ` E Q ! E Q Q Q Q E Q Q Q Q Q ! E ! @.T Q Q ] ` Q Q R R Q Q ] Q R R <.E ! ! E ",
"T Y Y Y T Y Y Y T ! >.4.! Y b b b b Y b b z k c T Q ! ! Q T Y x x Y Y Y Y x x Y T W @.<.Q Y T Q T T T T W T T T W W ! 9.@.T T Y "
};
