/* XPM */
static char *_10730ade8dd47d79efb19321de4a776alxMAYWiiV4tYiJ5[] = {
/* columns rows colors chars-per-pixel */
"64 64 159 2 ",
"   c #151513",
".  c #1B1614",
"X  c #171817",
"o  c #1D1816",
"O  c #171818",
"+  c #1A1B1D",
"@  c #211716",
"#  c #221917",
"$  c #261A19",
"%  c #2B1C1A",
"&  c #22201C",
"*  c #2E211D",
"=  c #32241E",
"-  c #36291F",
";  c #1B1E20",
":  c #1F2226",
">  c #1E2328",
",  c #202427",
"<  c #25292E",
"1  c #292A29",
"2  c #332520",
"3  c #362920",
"4  c #3A2C21",
"5  c #3D3122",
"6  c #262B31",
"7  c #292D34",
"8  c #2B3037",
"9  c #2B323A",
"0  c #402F24",
"q  c #433224",
"w  c #493626",
"e  c #4B3827",
"r  c #4D3A28",
"t  c #523D2A",
"y  c #433F35",
"u  c #454136",
"i  c #4B463B",
"p  c #514A3C",
"a  c #2E3741",
"s  c #2F3843",
"d  c #303741",
"f  c #313A45",
"g  c #343E4A",
"h  c #36404D",
"j  c #38434F",
"k  c #374251",
"l  c #394553",
"z  c #3E4B5A",
"x  c #494740",
"c  c #4F4C44",
"v  c #514D44",
"b  c #555043",
"n  c #585348",
"m  c #5E5A4F",
"M  c #414E5D",
"N  c #5E5C54",
"B  c #555859",
"V  c #5C5E5C",
"C  c #605F5A",
"Z  c #5E615F",
"A  c #6C6556",
"S  c #63625D",
"D  c #6D675A",
"F  c #6E6A5D",
"G  c #726A57",
"H  c #7B6E56",
"J  c #746D5D",
"K  c #7B6F58",
"L  c #7F7057",
"P  c #76705E",
"I  c #7E725B",
"U  c #414F61",
"Y  c #445364",
"T  c #4A5663",
"R  c #455468",
"E  c #49596D",
"W  c #505E6F",
"Q  c #4B5C72",
"!  c #5E6162",
"~  c #4F6075",
"^  c #4E6179",
"/  c #52657D",
"(  c #56687E",
")  c #5A6A7D",
"_  c #626564",
"`  c #696965",
"'  c #626769",
"]  c #64696B",
"[  c #6D6E6C",
"{  c #736E62",
"}  c #767163",
"|  c #7B7465",
" . c #7E7867",
".. c #777468",
"X. c #7C7669",
"o. c #7E796B",
"O. c #676C70",
"+. c #686E72",
"@. c #6B7276",
"#. c #6F757B",
"$. c #727473",
"%. c #7F7C70",
"&. c #71787C",
"*. c #83755C",
"=. c #85795E",
"-. c #88795F",
";. c #827662",
":. c #857A64",
">. c #8A7D64",
",. c #807768",
"<. c #837C6C",
"1. c #857D6D",
"2. c #887D69",
"3. c #897E68",
"4. c #8A7E69",
"5. c #837E70",
"6. c #847F71",
"7. c #8D8166",
"8. c #87806F",
"9. c #8B806B",
"0. c #8C816B",
"q. c #92856C",
"w. c #95886E",
"e. c #848073",
"r. c #868173",
"t. c #858174",
"y. c #878274",
"u. c #8A8373",
"i. c #888376",
"p. c #8A8576",
"a. c #8C8677",
"s. c #8F8877",
"d. c #878479",
"f. c #8A8679",
"g. c #8E897B",
"h. c #8D897C",
"j. c #908773",
"k. c #938A74",
"l. c #998C72",
"z. c #928C7B",
"x. c #908B7C",
"c. c #566B86",
"v. c #5D6E81",
"b. c #596E89",
"n. c #5B718E",
"m. c #5E7594",
"M. c #767D83",
"N. c #607795",
"B. c #607897",
"V. c #637C9B",
"C. c #6983A4",
"Z. c #6C87A9",
"A. c #6E8AAD",
"S. c #718EB2",
"D. c #7390B5",
"F. c #7694BA",
"G. c #7897BE",
"H. c #7998BF",
"J. c #918D81",
/* pixels */
"p.y.r.<.o.o.y.5.r.r.i.h.p.6.5.5.<.<.5.y.r.r.<.<.6.y.r.5.5.r.r.r.y.r.i.y.y.y.r.6.r.i.a.p.p.p.p.i.x.x.x.a.p.u.a.g.i.r.i.p.p.p.y.6.",
":.;.*.I I X.5.5.r.u.u.p.u.1.2.1.1.1.8.1.1.1.1.1.r.u.u.u.r.u.u.u.1.r.u.u.u.5.<.:.:.:.:.:.:.2.2.2.2.2.2.2.>.:.2.2.:.:.:.2.2.2.:.*.",
"*.I I H H X.r.,.:.:.2.2.2.;.;.;.;.;.:.:.;.;.;.;.:.2.2.:.:.2.:.;.;.,.:.:.:.1.<.=.=.*.=.=.=.=.=.=.:.:.=.=.=.*.*.=.*.*.*.=.:.*.*.I ",
"*.I I K K X.r.,.2.2.2.2.2.:.*.;.;.:.;.;.;.;.;.;.:.:.:.:.:.2.:.;.,.:.:.2.2.<.,.:.:.=.=.:.=.=.=.=.:.:.=.=.=.*.=.*.*.*.*.*.=.*.*.I ",
"*.*.I I I o.r.,.2.0.9.2.2.:.*.*.;.;.;.;.;.;.;.:.:.:.2.:.:.2.:.:.:.:.2.2.2.2.,.:.:.:.=.*.*.*.*.*.=.=.*.=.=.=.:.*.*.*.*.*.*.=.*.*.",
"*.*.*.*.*. .y.,.2.2.9.2.2.;.I *.;.;.;.:.;.;.:.:.:.:.2.:.:.2.:.:.:.:.:.:.:.1.<.:.:.:.*.*.*.*.*.*.=.=.*.=.:.=.:.=.*.*.*.=.=.:.=.*.",
"*.*.*.*.*.<.y.,.2.2.2.2.:.*.*.*.;.;.;.:.;.;.:.:.;.:.2.:.2.2.2.:.2.:.:.:.2.1.2.:.:.:.*.*.*.*.*.*.*.=.*.*.=.:.:.:.:.=.=.:.:.:.:.*.",
"=.*.*.*.*.o.r.<.2.2.2.2.:.*.p & & & & & & & & & & & 1 T ) v.v.v.v.v.v.v.v.W 8 & & & & & & & & & & p *.*.*.=.:.:.:.:.:.2.:.:.:.=.",
"-.=.*.=.*.o.r.,.9.9.2.2.:.:.i                   6 E ~ C.F.H.H.H.H.H.H.H.G.A./ E d                 i =.*.*.=.:.:.:.:.:.>.>.2.>.:.",
"G G J J J o.y. .| | | J J J y               8 z / G.F.A.B.n.b.b.b.b.b.b.m.Z.F.H.n.z g             u J G G J J J P P J P P P P J ",
"X.X.o.o.<.y.y.6.5.5.5.o.o. .i             6 b.H.F.A.V./ l 9 8 8 8 8 8 9 g Q N.Z.F.H.C.d X         x %.X.X.X.%.%.5.5.o.%.y.y.y.5.",
"u.u.a.u.u.a.a.a.a.a.a.u.u.u.c           , n.G.D.V.^ k 9 8 8 7 6 6 6 7 7 8 9 g E B.S.G.C.8 O       v s.a.a.u.u.a.a.s.a.a.s.x.z.x.",
"2.2.0.2.2.2.2.2.2.2.2.2.2.2.v + + + + 6 ^ Z.S.b.k 9 8 7 7 7 : + + + ; 6 7 7 8 9 g ~ S.S.c.9 ; + + v 2.2.2.2.2.2.2.2.2.2.9.0.0.0.",
"2.2.2.9.9.9.2.2.2.2.2.2.2.2.v + + + 6 ^ m.B.^ k 9 7 6 ; O X             O + < 7 8 g E m.m.c.9 ; + v 9.9.2.2.2.8.2.9.2.9.9.9.0.9.",
"9.0.0.0.0.0.2.2.2.2.>.:.2.2.v + + 6 ^ m.m.Q g 9 6 ; O                       O + , 8 f Y n.m.c.a + v 0.9.2.2.2.0.9.9.2.2.9.9.0.2.",
"9.0.0.0.0.0.9.2.2.>.:.>.2.2.v + > k n.m.Q h 9 < ;       o @ @ .   . @ @ @       + , 8 f R n.B.U 6 v 0.9.2.2.9.0.0.0.2.9.2.2.9.2.",
"9.0.0.0.0.9.2.2.2.2.:.2.0.0.c   6 / m.m.l 9 , +     o @ $ % % $ @ # % % $ @ o .   O , 8 g b.B.c.f v 0.0.0.9.0.0.0.0.2.2.2.2.2.2.",
"0.0.0.0.0.2.2.2.2.2.2.2.q.0.S k Y m.m.E d < +     @ % % $ = 2 % $ $ 2 = $ % % $ .   X , 9 Y n.B.Q S 9.0.0.2.9.0.0.0.2.2.2.2.2.2.",
"0.0.0.0.9.2.2.2.2.2.2.2.q.q.M.B.B.B.b.f < ;     @ % = = $ = 2 % $ $ 2 = $ = 3 * $ .   + < 9 / B.B.M.9.0.0.2.2.0.0.0.9.2.2.2.2.9.",
"2.2.2.:.:.:.:.:.;.:.;.:.0.0.#.c.c.c./ d ;     o % 2 2 = $ = 3 % $ % 3 = % = 2 2 % @     + 7 Q c.c.#.2.2.2.:.:.:.2.2.:.:.:.:.:.:.",
"..} } } } } } { J J J J X.2._ l l l l 7 O   @ $ % 3 3 = $ - 5 = $ * 4 4 % = 3 3 * $ @     < h l l V } ..} } { { X.} } { J } } } ",
"h.h.p.y.p.p.p.y.6.r.<.6.k.s._ k k k g :   @ $ $ % 4 4 4 % 4 5 4 = 3 5 4 % 3 4 4 = $ $ #   + f k k _ g.x.h.p.y.p.p.p.p.y.5.y.y.i.",
"u.8.8.2.2.8.8.2.2.2.:.:.2.0.N 9 9 9 7 O   % = % % 3 3 = % w r 0 2 4 r w % = 3 3 * $ = * .   6 9 9 N k.z.k.k.k.a.k.k.j.u.y.5.<.2.",
">.>.:.=.=.=.=.*.*.=.=.*.*.-.p O O O O   @ * 2 % % 4 4 4 % w t q 2 4 t r % - 4 4 = % 2 = #   O O O b q.w.q.q.q.0.q.q.q.0.r.5.*.=.",
":.>.=.=.=.=.*.*.*.*.*.*.*.=.n 7 < O O   % = 2 % * 5 5 4 % w t q 2 4 t r % 4 5 5 = % 2 = % . O O , m q.q.q.q.q.q.q.q.q.q.6.<.:.=.",
">.>.=.=.=.=.=.*.*.*.*.*.*.*.N f 9 + +   * 2 2 % = w w q = w t q 2 4 t r = q w w - % 2 2 * . O + 6 S q.q.q.q.w.w.q.q.q.q.r.5.:.=.",
">.>.=.=.=.*.=.*.*.*.*.*.*.*.C h 9 + + o = 3 3 = = t t r 4 w t q 2 4 t r 4 e t t 4 % 3 3 = # O + 7 S q.q.q.q.q.q.q.q.q.q.r.r.:.=.",
">.>.=.=.=.=.=.*.*.*.*.*.*.*.S M h ; + $ 4 5 5 = = t t r 4 w t q 2 4 t r 4 e t t 4 % 4 4 4 $ + + a ` q.q.q.q.q.q.q.w.w.q.r.y.2.=.",
">.>.>.=.-.=.=.=.*.*.*.*.*.*.[ ( Y ; + $ 4 q q = = t t r 4 w t q 2 4 t r 4 e t t 4 % 4 4 3 $ + + j $.q.q.q.w.w.q.w.l.l.w.p.i.2.>.",
"7.7.>.-.=.=.=.=.*.*.*.*.*.*.[ ( Y ; + $ w t t 4 = t t r 4 w t q 2 4 t r 4 e t t 4 = r r w % + + k $.q.q.q.w.k.w.k.l.l.k.g.p.0.>.",
"2.2.:.=.=.=.=.*.*.I *.I L *.[ ( Y ; + $ w t t q 4 t t r 4 w t q 2 4 t r 4 e t t w 4 t t r % + + k $.0.0.q.q.w.q.q.w.k.q.i.y.2.2.",
"o.o. ...} X.X...} } } } { } O.( Y ; + $ w t t w 4 t t r 4 w t q 2 4 t r 4 e t t w 4 t t r % + + k +...o.<.<.<.o.<.<.5.5.h.h.<.o.",
"p.p.p.y.i.i.p.p.p.i.y.y.y.i.#.( Y ; + $ w t t w 4 t t r 4 w t q 2 4 t r 4 e t t w 4 t t r % + + k #.y.p.f.f.d.d.p.h.J.J.J.J.h.h.",
",.o.o.X.X.X.,.,.:.X.} X.X.X.+.( Y ; + $ w t t w 4 t t r 4 w t q 2 4 t r 4 e t t w 4 t t r % + + k #.r.o.<.<.,.o.,.<.<.1.r.1.<.,.",
"X...X...| X.X.X.X.| | | | } +.( Y ; + $ w t t w 4 t t r 4 w t q 2 4 t r 4 e t t w 4 t t r % + + k &.r. .o.o.o.o.,.,.,.o.<.,. ...",
"..| ..X.X.X.X.X.X.| } | | | ' E z ; + $ w t t w 4 t t r 4 w t q 2 4 t r 4 e t t w 4 t t r % + + g @.5. .o.o.o.o.,.<.,.o.<.,. .| ",
"} } X.:.X.X.X.X.X.| } | | | ! M h ; + $ w t t w 4 r r e 4 w t q 2 4 t r 4 q r r q 4 t t r % + + 9 ] 5. .o.o.o.o.,.<.<.<.<.<.o.| ",
"..} | X.X.| X.| | | } | | | ] ~ M ; + $ w t t w 4 q q q 3 w t q 2 4 t r 4 5 q q 4 4 t t r % + + g @.%...X.o. .o.,.<.<.1.1.<.,.} ",
"| | | X.| | | | | | | | | | V z g ; + $ q r r q 4 r r e 4 w r q 2 4 r e 4 w r r q 4 t r w % + + 9 ] o.| ....X.o.,.<.1.8.1.,. .| ",
"| | X.X.| | | | | | | | P P ' ~ M ; + $ 4 q q 4 3 q q 5 3 4 q 4 2 3 q 5 3 5 q q 4 3 q q 5 % + + g @.5.} | X.X.o.<.<.<.8.,.X...} ",
"} | ..} | | | | | | | } { J V z g ; + $ w r r q 3 5 5 5 3 q r 4 2 4 r w 3 4 5 5 4 4 r r w % + + 9 ' o.} ..X.X...,.<.<.<.o.....} ",
"F F J J J J J { J J J J F J B l f ; + $ 4 q q 4 3 5 5 5 3 5 q 4 2 3 q q 3 4 5 5 4 4 q q q % + + 8 _ 5.{ { } } } } X.o. ...} F D ",
" .o.o.5.5.<.o.o.5.5.5.o.o.5.! l f ; + $ 4 5 5 4 3 5 5 5 3 4 5 4 2 3 5 4 3 4 5 5 4 3 5 5 4 % + + 8 _ p.y.y.y.y.y.y.p.h.p.y.5.o.X.",
"2.6.r.a.u.0.0.2.0.u.0.0.0.u._ l f ; + $ 4 5 5 4 3 5 5 5 3 4 5 4 2 3 5 4 3 4 5 5 4 3 5 5 4 % + + 8 _ 8.8.8.0.0.0.u.k.k.k.0.2.2.:.",
"*.o.<.0.>.>.-.-.>.>.>.>.>.7.S l f ; + $ 4 5 5 4 3 5 5 5 3 4 5 3 2 3 5 4 3 4 5 5 4 3 5 5 4 % + + 8 V =.=.=.=.=.>.>.7.7.7.>.=.*.L ",
"I o.<.0.7.>.-.-.>.>.>.>.>.>.S l f ; + $ 4 5 5 4 3 5 5 5 3 4 5 4 2 3 5 4 3 4 5 5 4 3 5 5 4 % + + 8 C =.=.-.-.:.>.2.7.7.2.>.-.=.*.",
"*.o.<.7.>.>.-.-.>.>.>.>.>.>.S l f ; + $ 4 5 5 4 3 5 5 5 3 4 5 4 2 3 5 4 3 4 5 5 4 3 5 5 4 % + + 8 C =.=.=.=.=.>.7.7.2.>.-.=.=.*.",
"*.,.<.2.>.>.>.-.>.>.>.>.>.>.S l f ; + $ 4 5 5 4 3 5 5 5 3 4 5 4 2 3 5 4 3 4 5 5 4 3 5 5 4 % + + 8 S :.=.=.=.=.:.>.>.>.>.>.=.=.*.",
"*.<.1.2.>.>.>.>.>.>.>.>.>.>.S l f ; + $ 4 5 5 4 3 5 5 5 3 4 5 4 2 3 5 4 3 4 5 5 4 3 5 5 4 % + + 8 S >.=.=.*.=.=.>.>.>.>.>.>.>.=.",
"*.<.1.2.>.>.2.2.>.>.>.>.>.>.S l f ; + $ 4 5 5 4 3 5 5 5 3 4 5 4 2 3 5 4 3 4 5 5 4 3 5 5 4 % + + 8 S >.=.=.*.*.=.:.:.>.>.=.=.=.=.",
"*.,.1.2.>.>.>.>.-.>.>.>.>.>.S l f ; + $ 4 5 5 4 3 5 5 5 3 4 5 4 2 3 5 4 3 4 5 5 4 3 5 5 4 % + + 8 S >.=.=.=.=.=.>.>.>.=.=.=.=.=.",
"K X.o.*.*.*.*.L H I I *.*.=.C l f ; + $ 4 5 5 - = 5 5 4 = 4 5 4 2 3 5 4 = 4 5 5 - = 5 5 4 % + + 8 V *.I H H H H *.I I I H I *.I ",
"X.<.5...J J J J J J J P | | V l f ; + $ - 4 4 = * 5 5 4 % - 5 4 2 3 5 4 % 4 5 5 = % 4 4 3 $ + + 8 V } J J J P J } } } } J } } | ",
"p.r.5.5.r.r.5.<.o.o.<.r.u.y._ l f ; + $ = 2 2 % % 4 4 4 % - 5 - * = 5 4 % - 4 4 = % 2 2 = $ + + 8 _ p.y.p.r.y.r.r.y.y.r.r.5.y.y.",
"p.r.6.y.i.y.r.r.<.<.y.g.a.u._ l f ; + $ = 2 2 % % 2 2 = % - 4 = $ % 4 4 % = 2 2 % % 2 2 = $ + + 8 _ i.r.r.r.r.6.y.r.y.y.6.y.p.p.",
"8.1.,.,.,.,.,.<.,.<.5.6.1.q.S l f ; + $ = 2 2 % % 2 2 = + * = % $ % 2 = $ * 2 2 % % 2 2 = $ + + 8 ! 2.,.,.,.,.,.,.2.<.5.5.1.1.1.",
"8.1.<.1.<.<.,.<.1.<.5.i.2.q.S k s + + $ = 3 3 % % 2 2 2 + * 2 $ + $ 2 * + * 2 2 % % 2 2 = $ + + 8 Z 1.,.,.<.1.1.2.2.<.r.5.6.1.1.",
"8.r.1.1.<.,.,.<.1.<.<.p.2.0.2.;.;.;.:.*.*.*.*.;.I ;.X.X.X. .,. . .X. .X.| | | X.,.X.X.X.{ | | | } o.1.,.,.<.<.1.1.1.<.y.5.1.1.1.",
"u.u.1.1.1.1.1.1.1.<.<.6.2.0.q.q.0.q.q.0.2.>.0.0.2.2.1.6.u.u.u.u.u.u.u.1.1.1.1.1.u.6.5.5.o.1.1.1.,.1.1.,.,.,.,.,.,.<.o.6.5.1.1.1.",
"8.r.1.1.1.1.1.1.1.<.<.r.2.0.q.q.>.q.q.q.0.0.2.2.0.9.1.5.6.u.r.8.u.u.u.u.1.1.1.1.1.1.o.o.o.1.1.1.<.,.,.X.X.,.,.,.,.,.<.y.<.1.<.1.",
"6.1.1.1.1.1.1.1.1.<.<.i.2.0.0.>.>.0.q.q.2.2.2.2.0.0.0.r.r.u.1.1.u.8.1.1.1.1.,.<.1.<.5.5. .<.<.2.2.,.,.X.X.,.,.,.<.,.<.y.<.<.<.6.",
"r.1.1.1.1.u.1.8.1.1.o.r.2.0.0.0.0.0.q.q.0.>.>.>.0.q.8.5.u.u.8.8.u.u.8.1.1.1.1.1.1.<.5.5.X.2.<.1.8.<.,.,.:.,.2.1.<.,.<.5.<.1.<.<.",
"<. .X.X.X.X...X.X. .5.y.,.:.;.*.;.:.:.:.;.*.*.*.;.:.o.X.o. .X.X.X. .X.X.X.X.X.X.o. .o.5.} X.X.o.:. .X.....X.X.,.X.....y. .o.o. .",
"} { { { } { { { } o.r.i.o.{ J J J J { J J D A G } X.o.o.X.} { F F { { { { F F { } ..5.y.X.{ } X.} ..} } ..} } ....} o.p.5.} } { "
};
