/* XPM */
static char *result[] = {
/* columns rows colors chars-per-pixel */
"64 64 215 2 ",
"   c #110D0F",
".  c #120F10",
"X  c #151314",
"o  c #191617",
"O  c #1A1817",
"+  c #191618",
"@  c #171A1F",
"#  c #1C1A1A",
"$  c #211C1D",
"%  c #2A1A1D",
"&  c #1F1E20",
"*  c #231E22",
"=  c #321E26",
"-  c #252224",
";  c #2A2325",
":  c #2B252A",
">  c #292829",
",  c #2E292C",
"<  c #362928",
"1  c #322A2E",
"2  c #322C31",
"3  c #3D2D32",
"4  c #363130",
"5  c #353134",
"6  c #3A3236",
"7  c #3B353B",
"8  c #35383B",
"9  c #3C3A3C",
"0  c #433031",
"q  c #433534",
"w  c #4A3532",
"e  c #463935",
"r  c #473939",
"t  c #443A3A",
"y  c #513B36",
"u  c #533D39",
"i  c #4E413C",
"p  c #52433D",
"a  c #5D423D",
"s  c #3D3C41",
"d  c #423D42",
"f  c #4E3E40",
"g  c #3E494F",
"h  c #464245",
"j  c #45464A",
"k  c #4B454A",
"l  c #4D494C",
"z  c #584745",
"x  c #544C4D",
"c  c #474B52",
"v  c #4C4D53",
"b  c #514D53",
"n  c #4B5157",
"m  c #4C535C",
"M  c #535254",
"N  c #54555B",
"B  c #585558",
"V  c #5A545A",
"C  c #5D5A5E",
"Z  c #634A44",
"A  c #674D47",
"S  c #65544D",
"D  c #6C524A",
"F  c #77534B",
"G  c #655B5A",
"H  c #785D56",
"J  c #756159",
"K  c #7B645B",
"L  c #465A63",
"P  c #5B5962",
"I  c #625E62",
"U  c #635B69",
"Y  c #5E6266",
"T  c #5E646A",
"R  c #576B78",
"E  c #656165",
"W  c #676669",
"Q  c #65666A",
"!  c #6B656A",
"~  c #6D6A6D",
"^  c #736C6E",
"/  c #676C73",
"(  c #726D73",
")  c #786F72",
"_  c #6B747B",
"`  c #7B7476",
"'  c #7A757A",
"]  c #74787C",
"[  c #7E797D",
"{  c #846158",
"}  c #836D64",
"|  c #9F6E61",
" . c #8A7166",
".. c #937469",
"X. c #837B7D",
"o. c #9B7D73",
"O. c #A57568",
"+. c #A48779",
"@. c #597281",
"#. c #747584",
"$. c #747C83",
"%. c #827D82",
"&. c #81788D",
"*. c #77828A",
"=. c #7B848B",
"-. c #6C8695",
";. c #7E8A93",
":. c #6093B0",
">. c #7FB0CB",
",. c #7BC8F9",
"<. c #858386",
"1. c #868589",
"2. c #8B858B",
"3. c #8D898C",
"4. c #918A8E",
"5. c #878993",
"6. c #938C92",
"7. c #90879D",
"8. c #879299",
"9. c #979397",
"0. c #9A959A",
"q. c #9D9A9D",
"w. c #A88C80",
"e. c #AF9081",
"r. c #B69585",
"t. c #BE9E8D",
"y. c #A19A9F",
"u. c #9186A2",
"i. c #8C9BA4",
"p. c #969CA3",
"a. c #9E92B1",
"s. c #A49DA3",
"d. c #95A4AC",
"f. c #9BA2A9",
"g. c #9CAAB3",
"h. c #9FB1BD",
"j. c #A5A1A4",
"k. c #A9A3A6",
"l. c #ADA5AC",
"z. c #ABAAAE",
"x. c #B1A9AF",
"c. c #A6ABB1",
"v. c #B2ABB1",
"b. c #A3B0BA",
"n. c #B5B2B5",
"m. c #B8B2B6",
"M. c #BAB6B9",
"N. c #BEB9BD",
"B. c #C09F8E",
"V. c #C3A18F",
"C. c #C3A391",
"Z. c #C7A696",
"A. c #C1BABD",
"S. c #97B7C8",
"D. c #A7BAC5",
"F. c #B2BEC7",
"G. c #C5BEC3",
"H. c #97C4DA",
"J. c #ACC1CC",
"K. c #B3C2CC",
"L. c #AAC5D4",
"P. c #BBCBD6",
"I. c #BDD1DD",
"U. c #93CDEF",
"Y. c #88CEF8",
"T. c #8AD5FA",
"R. c #99D8FA",
"E. c #A6CFE3",
"W. c #B9D7E7",
"Q. c #AADAF4",
"!. c #A4DDFB",
"~. c #AADEFB",
"^. c #B5DFF8",
"/. c #A5E0FB",
"(. c #ACE2FC",
"). c #B4E4FC",
"_. c #BBE6FC",
"`. c #BEE8FC",
"'. c #C5C3C5",
"]. c #C9C2C7",
"[. c #CBC5C9",
"{. c #CDCACD",
"}. c #D0CBCF",
"|. c #C9CED3",
" X c #D1CCD1",
".X c #C2D2DC",
"XX c #D9D7D8",
"oX c #C3D9E6",
"OX c #C6DAE6",
"+X c #D0DFE8",
"@X c #E0DEE0",
"#X c #CCE1ED",
"$X c #D6E5EE",
"%X c #CBE4F3",
"&X c #CAE6F5",
"*X c #C3E6FC",
"=X c #C4EAFD",
"-X c #CCECFD",
";X c #D2E5F2",
":X c #D4E9F5",
">X c #DCEBF4",
",X c #D4EEFD",
"<X c #D9EFFD",
"1X c #D6F0FD",
"2X c #DCF1FE",
"3X c #E5E3E5",
"4X c #E8E7E8",
"5X c #ECECEC",
"6X c #E1EEF6",
"7X c #E3F3FE",
"8X c #EAF6FD",
"9X c #EEF8FE",
"0X c #F5F5F5",
"qX c #F3F8FD",
"wX c #FDFCFC",
/* pixels */
"7X7X8X9X9X9X9X8X8X7X7X7X7X7X7X2X2X7X2X2X1X<X=X,X1X2X7X7X2X,X,X,X,X,X1X1X1X1X1X-X=X_.-X,X1X,X1X1X1X,X1X7X2X2X1X1X1X2X,X`.`.2X2X8X",
"8X7X7X7X8X7X8X7X2X<X8X8X7X7X7X7X8X8X7X2X1X-X,X1X7X7X7X2X1X-X_.`.(.=X1X,X=X_.`.=X-XE.W.&X:X`.`.(.-X1X2X,X1X,X1X2X2X2X-X8X8X2X8X7X",
"*X_.=X7X7X7X7X7X7X2X,X<X,X7X8X9X7X7X7X2X2X,X,X2X2X1X1X2X,X=X-X,X=X`.2X1X$X.XD.h.*.s j n m S.=X=X).1X8X2X2X1X2X2X=X1X7X7X2X8X2X8X",
"1X1X1X(.2X_.R.!.7X7X7X7X<X-X2X8X2X2X2X<X<X,X,X1X,X-X`.-X1X,X1X-X(.,X2X&X;.~ j.3.1 q O ; 1 c #X1X=X=X`.-X2X1X2X2X7X7X2X2X2X2X2X`.",
"1X,X-X=XR._.=X`.R.(.-X,X,X-X-X<X,X1X<X,X,X,X,X<X,X,X,X).-X-X=X`./.1X2XI.+.' {.~ w < D ~ y.x Q g.:X1X).,X1X1X1X2X2X7X2X2X6X2X-X`.",
"-X-X=X`._._._.`.).~._.=X=X-X,X-X,X-X,X,X-X<X<X<X<X<X-X_.`.=X=X_.(.:X,Xi.f.]. Xb h p  .y.M.M E P J.1X(.=X-X,X1X1X2X2X7X7X7X2X(.1X",
"-X=X=X=X_._._.).)._.(.=X=X-X,X-X=X-X-X=X,X<X2X<X1X<X,X,X(._.`.(.=X-XW.[ [.G.M.k e H K A.}.x.` ~ i.1XR.,X,X,X1X1X1X2X7X7X7X=X-X=X",
"&X,X-X-X=X_.).R.`.).`.-X-X,X,X<X-X-X-X-X<X2X2X1X2X2X<X2X-X-X-X!.-XW.5.y.}.0.[.E < r E ].[.[.<.( 5.(.).,X-X,X,X,X1X1X2X2X1X1X1X-X",
"1X,X-X-X=X_.).!.).).=X-X1X=X1X1X2X-X-X,X<X1X2X7X2X2X2X:X#X_._.R.W.;.k.[. X` M.M.h t j.k.m.x.+.( -.=X,X,X-X-X-X,X1X1X1X2X,X1X-X=X",
"=X-X-X=X_.).)./.).).=X1X-X1X,X1X2X,X,X,X,X1X<X2X2X2X;XT 8 8.g L _ 9.M.z.A.n.}.}.n.m.}.j.S 4.#./ $.<X7X<X1X1X1X,X1X1X1X=X1X-X=X-X",
"=X=X-X-X=X).).).(._.-X-X,X,X1X1X<X/.-X1X1X2X7X7Xh._ =.4 # $ O # # $ > M ] 3.9.j.G ^ M.A.` ! <.~ ' oX,X2X1X1X,X,X1X1X,X-X1X1X1X-X",
",X`.-X-X=X`._.).!.`.-X-X-X,X<X1X=X(.-X1X1X2X<X%XM > - & O O O O O O O X . X X O O O x 1.2.y.2.n ( J.,X<X<X,X1X,X=X,X1X,X`.`.=X=X",
"1X`.`.-X=X=X=X=X).).-X-X,X,X,X<X!.*X-X,X1X1X>X*., O & & & O O O O O O O O O O O # # O Z i ~ ^ E 2 _ -X1X1X1X1X1X,X-X).`.:X1X`.-X",
"1X=X=X=X=X-X=X-X-X(.=X-X-X,X,X-X~.W.W.OXJ.8.T > - - O > , O O O # O O O O O O O O O D r.} 4.M p 9 N d.,X-X-X,X-X:X!.=X1X1X2X-X1X",
"1X,X-X=X=X=X-X-X-X)./.-X-X1X,X(.S.b V n > - & O . > & O + O O O O O O O O O O O $ D +.V.Z.+...B.} d.K.,X).`.-X1X).).,X,X1X1X1X1X",
"1X1X1X-X-X-X-X,X-X-X!.=X,X:XE.:.b s 7 ; O O O & # & > # O O O O O O O O O O O - ; +.+.V.Z.B.t.r.+.S.,X,X,X1X(.(.Y.-X<X,X1X1X1X1X",
",X1X,X,X-X-X-X,X,X-X-X,.E.-.m d s 2 2 : X X $ 1 * - & > & + O O O O O O * 4 $ > D r.t.t.t.B.V. .Y L.1X1X,X1X2X*X-X-X,X,X,X,X,X1X",
"2X,X,X,X,X,X,X,X,X,XQ.:.m s 6 2 2 2 : = r ! Z = 2 - * @ > + O O O O O O $ 4 > ; ..e.r.t.e...H Z M #X1X2X2X7X2X^.-X-X,X,X,X,X,X2X",
"8X1X,X,X,X,X,X,X*XH.@.d 2 2 2 2 2 * D A ..Z ; , 2 2 2 * - - 2 * # - O 1 > - % D e.} C.+.+.r.r.{ ; n P.1X2X7X2X(.~.,X<X,X2X1X2X8X",
"8X2X,X,X,X*X-X=XS.m 2 * & @ 2 2 : r K w.% $ - 1 2 2 2 , - + # > > > > ; e 0 p w D H e.B.C.+.K u o : j F.<X2X2X~.2X_.,X,X1X1X7X8X",
"7X7X,X,X2X<X).Q.m 7 , 2 d + + ; D V.a < ; < w : 2 1 2 2 2 2 : - O . o O Z y { F u e K B.t.t.V.o.% o 2 k K.<X1X*X1X*X,X<X<X2X9X7X",
"8X7X,X7X7X-X-XOX7 2 2 2 2 6 : o  .y w u u A y : 2 2 2 2 1 2 2 2 4 # + : * x z 3 < < w z +.t.t.r.a X + 6 b oX1X-X,X,X,X1X<X7X7X8X",
"7X7X7X2X-X,X,XoX: 2 2 2 2 2 6 ; J D y w y A ; 1 2 2 2 2 2 2 2 , s 6 ; # k @Xk.0.E o O X X a +.B.Z X o * 7 / #X1X*X<X1X1X<X2X7X7X",
"2X2X2X,X,X1X1X&Xj 2 2 2 2 2 1 <  .a F | | u * 2 1 2 2 1 1 2 2 2 2 7 : 2 9 <.' M.M . .   X o # ; o o o # 2 s a.1X-X<X,X,X2X<X7X2X",
"7X7X,X,X2X<X<X,XD.9 - ; > > * 6 | { O.O.F = 1 1 2 2 2 2 2 2 2 2 d 2 2 * b ].x.j.$ X X o o o + o + + X + : 2 P &X-X<X<X1X1X7X2X7X",
"7X<X,X1X1X=X,X,X-XE.8.T c > . 6 ..o.| a * * 2 2 2 2 2 2 2 2 2 : d ! 6.s.q.<.( ' :   o o o o + X X + + + * : b L.-X1X1X1X<X1X<X7X",
"2X,X,X1X,X1X,X=X-X-X-X=X%XI.$.5 ^ H % X X : 2 2 2 2 2 2 2 , d s.@X0X@X@XwX Xv.z.l.%.d + o o o + + + X + + * l S._.-X`.<X<X<X2X7X",
"7X2X1X1X<X-X=X,X1X,X<X1X<X1X,XF.n * o X X : 2 2 2 2 1 2 2 ! XXwXwXwX5Xv.M.G.N.p.&.s.l.` $ + X + + X + + * * M U.<X-X-X1X2X<X2X7X",
"7X2X<X*X_.-X,X,X1X,X,X1X2X2X<X<X(.*.@ . + - 2 2 2 1 2 1 V 5XwXwXwX Xp.' m.' ' ' s.x.l.x.2.# + + + + X + X , ;.(.,X,X-X,X2X7X9X7X",
"7X2X=X_.,X,X,X,X,X,X<X2X2X2X2X<XR.:X@.6 - # 2 2 2 1 1 9 XXwXwX4X%.6 1 2 3.s.m.! 2 #.l.l.v.! X + + + + + * T W.-X_.-X,X,X1X7X7X7X",
"7X7X_.,X-X-X-X-X-X1X1X2X1X2X2X1X`.:XH.E 6.( b 2 , 2 1 3.wXwX5XG 1 2 2 , : : > + + X ( l.l.s.- + + + + X 8 L.-X-X=X=X,X,X,X8X7X7X",
"7X*X1X1X,X=X!.-X-X-X1X1X1X2X<X7X=X-X%X_ 2.x.XX X0.E j  XwX0X$.1 2 2 , 2 6 * + X + X * 9.l.l.l X + + + + n ;.J.-X-X`.,X,X7X2X7X2X",
"7X=X2X2X7X-X-X-X-X-X7X<X,X,X,X2X&X-X,XD.! l.M.0XwX0X4XwXwX4XI 6 2 2 2 , 2 , * + + o . ! x.x.! . + + X , ! ' V D.-X-X_.,X7X2X7X7X",
"7X-X2X2X2X1X-X-X-X-X-X-X-X-X,X,X=X_.-X&X/ 6.x.4XwXwXwXwXwXwX0XG 1 1 2 2 3 2 * + o o X k v.x.)   X $ * &.#.U b D.,X,X=X=X7X2X2X7X",
"7X-X-X,X1X2X1X-X=X=X=X-X-X,X,X=X=X-X,X,Xg.1 P j.5XwXwXwXwXwXqXk , 2 2 1 6 : : + + X V 7.l.l.s.&.6.! 1 P #.u.c J.,X,X,X*X-X1X2X7X",
"7X1X-X<X1X<X,X,X-X=X=X-X-X-X-X-X).,X,X,X%Xn O $ k [ {.wXwXwX3X6 2 2 2 2 2 2 * + + . %.v.l.l.l.l.&.d 1.0 = t : *.1X1X2X7X=X<X2X7X",
"2X1X,X,X1X<X<X_.<X-X=X-X-X-X-X!.,X,X,X,X<Xh.* O * : ' wXwX'.3., 2 2 2 2 2 2 * + + . 6.x.l.l.v.s.I b d ^ * 3 1 ;.2X7X7X2X1X=X1X7X",
"7X2X,X,X1X<X_.-X=X=X,X-X-X-X).-X,X*X,X,X<X;XQ @ # : ! wXwXz.: 1 2 2 2 2 2 2 @ + + X ! s.l.s.' d < %.%.f * d 6 D.2X2X7X7X7X,X=X7X",
"7X1X,X<X,X_.,X,X=X=X=X=X-X`._.-X_.-X<X,X,X<XOX8 + * h 3XwX3Xh 2 2 2 2 2 2 : + + + + 2 s.l.#.# P U k 0 % 7 2 v :X7X7X7X7X2X7X-X-X",
"7X,X7X2X_.,X2X1X,X=X=X=X=X).-X-X-X,X1X<X,X7X<Xb.- + ; M.wXwXA.5 : 2 : 2 : = + + + + 2.l.s.6 T 7.a.a.&.b 3 * d.2X7X2X2X7X7X7X2X&X",
"-X<X7X=X-X2X1X1X1X=X-X-X`.!.-X-X-X,X1X1X8X1X7X>X8.# O b 5XwXwX{.( d U %.~ h X + 9 &.v.0.m p.%XP.p.&.u.&.Q D.;X<X2X2X2X7X7X7X2X1X",
"7X7X7X,X6X7X=X8X2X-X-X=X=X`.-X=X-X,X1X2X7X=X7X7X>X1.- & 3.5XwXwXqXXX4XG.XXs.' 6.l.l.%./ >.>X,X7X7X:XK.p..X<X,X<X1X2X7X7X7X7X7X8X",
"2X8X7X:X7X:X<X7X1X=X=X=X=X=X=X-X-X-X,X7X<X<X7X7X7X6Xv I E <.'.qXwXwX0Xv.@Xl.v.l.6.V $.OXQ.=X2X2X7X2X7X7X<X7X2X<X2X2X7X2X7X8X7X7X",
"1X8X7X,X-X,X8X2X1X=X=X-X=X-X=X-X-X,X2X2X2X2X7X2X7X>Xh ` 3.t - V 4.{.@X{.].2.( h : # .X<X1X).1X1X7X7X<X7X7X7X2X1X7X7X7X7X7X7X8X7X",
"1X9X8X7X=X7X7X,X-X-X=X=X=X=X=X-X-X2X1X2X2X7X7X7X8X+X5 <.2.# * ; : 1.@X[.q.X X X X + |.<X,X!.1X<X1X2X2X7X7X7X2X2X7X2X7X2X7X8X7X2X",
":X1X7X=X7X1X,X,X,X=X=X=X=X=X_.-X,X1X1X2X2X2X2X7X7X>Xj g 5 + : - * 3.3X X<.X X   # - f.#X-X(.,X,X,X1X<X1X2X<X<X2X2X7X7X2X2X9X7X,X",
"1X-X-X-X2X,X,X,X,X-X-X=X=X-X=X_.,X,X1X2X2X7X2X7X>Xf.G 0.I s 5 , > ! y.9.C > 9 C ( [ 1.0.i.E.,X,X,X,X,X,X,X<X<X<X1X7X7X7X7X1X,X1X",
"8X2X-X2X1X,X1X,X1X-X=X-X=X-X-X).-X1X1X2X7X2X7X7Xg.q.v.].4.<.' X.%.~ M C k.'.{.G.0.]. Xx.6.5.I.1X,X1X-X,X,X<X7X8X7X9X9X9X7X1X<X8X",
"8X2X_.<X2X,X2X<X,X-X-X-X,X,X,X`.=X<X1X7X2X7X2XK.y.}.{.A.X.E 6.C 9.n.X.' m.M.[ x ) [.}.0.X.3.g.1X2X-X,X,X<X2X7X8X9X9X9X8X7X<X7X7X",
"7X2X_.1X,X,X2X1X-X,X,X,X,X,X,X2X).<X1X2X2X2X7Xf.j.y.{.{.s.` W ! 1.f.g.g.c.q.=.~ M <.0.v.k.` g.1X2X,X,X<X<X7X7X8X8X8X_.9X<X<X7X7X",
"7X7X~.1X<X,X2X1X,X-X,X,X1X<X1X2X_.-X1X2X2X2X7X8.k.<.].j.' 8.P.2X8X7X8X8X8X8X9X9X$X] 1 ` 9.~ P.2X<X<X<X,X1X7X7X8X8X9X*X2X2X<X7X7X",
"7X7X(.<X,X,X<X,X,X,X,X,X<X1X1X2X1X).<X1X2X7X<X9.x.k.[ Q OX>X7X7X7X8X7X8X8X9X9X9Xz.l ! ~ 9.] 6X7X1X<X<X<X<X<X<X7X8X9X9X<X<X<X7X7X",
"8X7X^.<X,X,X<X<X,X,X<X1X1X<X2X2X2X=X-X2X7X2X8.~ [.A.G =.2X2X7X7X2X8X8X8X9X9X9X9XW ; 8 l l C >X8X<X<X<X<X<X,X1X7X8X8X8X8X7X2X8X7X",
"8X7X_.<X,X,X<X,X-X,X,X<X2X1X<X2X2X`.-X7X2X#XC > B B , j 1X7X7X7X7X7X7X8X9X9X9X8XY - $ ; e W >X7X<X<X1X<X1X<X<X1X7X7X8X8X9X2X8X7X",
"7X8X_.7X,X,X,X,X-X,X,X,X<X<X1X1X1X-X_.1X7X>XY e w < $ T <X2X7X7X2X7X7X7X9X9X9XW.l O X ; ; B 8.~ ! 8.OX1X2X<X<X,X<X<X8X7X8X7X7X7X",
"8X<X_.<X,X,X-X-X-X,X,X,X1X2X<X2X1X1X&X!.&X).R < % O X ;.<X2X2X7X7X8X7X7X9X9X1X.Xp % $ < e < r i p i / ;X<X,X1X,X-X,X<X7X7X7X7X8X",
"7X-X_.7X,X-X-X-X-X-X,X2X2X1X2X2X1X7X6X!.,.U.n 4 < 1 $ *.2X2X7X2X7X7X7X8X9X7X=X#Xl % $ ; < e i i i i i P.1X<X1X1X,X-X,X2X-X7X7X8X",
"*X<X,X7X,X,X,X-X,X,X2X1X<X2X2X7X2X2X2XR./.*.x i q ; O 5.2X2X2X7X7X2X2X7X8X1X1X-XW ; $ # - e i p i p q F.2X1X/.-X,X,X2X-X).7X7X-X",
"_.7X,X-X,X,X,X,X,X,X,X,X1X7X7X7X2X7X).T.I.x Z i i q ; g.7X2X2X2X2X7X2X7X8X=X-X2XK._ Y T , - < 4 4 < d .X7X1X=X,X<X7X7X7X).7X,X(.",
"7X8X-X-X,X,X-X,X,X,X,X,X1X2X2X2X1X=X(.6XI.x p i i r 1 b.2X7X7X2X7X7X7X8X6X-X*X1X7X:X:X$X.Xc.=._ $.i.oX<X2X7X1X2X*X7X7X6X/.=X).6X",
"7X7X,X-X,X,X-X,X,X1X1X,X2X8X9X,X`.).2X2X$XC p i i 6 9 I.7X2X7X7X7X2X2X8X1X=X1X2X8X2X2X<X<X2X7X2X<X<X<X2X2X7X7X-XR._.1X(.U.Y.<X2X",
"7X8X2X).,X,X,X,X,X1X1X&X,X7X,X-X`.7X7X2X2XD.M t 5 t d.7X7X2X2X2X2X7X7X>X2X2X=X2X7X8X,X2X7X2X7X2X1X<X<X7X8X=X).R.Y.(.(.2X2X,X8X7X",
"7X7X2XR.,X,X,X-X,X-X^.).<X-X-X`.7X7X7X7X2X<X+X.X.XOX<X7X2X7X2X2X2X2X2X8X7X`.).).-X-X7X8X7X7X2X1X2X1X7X,X).`.`.2X2X6X,X2X1X=X8X2X",
"8X8X7X`.R.U.~.~.~.*X7X1X<X,X_.8X8X9X7X7X7X2X<X<X<X2X2X7X7X2X2X1X1X2X1X2X`.8X7X7X-X*X<X7X8X7X7X1X7X2X_.=X1X2X8X7X8X7X6X2X-X,XqX8X"
};
