/* XPM */
static char *result[] = {
/* columns rows colors chars-per-pixel */
"64 64 218 2 ",
"   c #0B0A0B",
".  c #100E0F",
"X  c #100F10",
"o  c #151314",
"O  c #191617",
"+  c #1A1817",
"@  c #191619",
"#  c #1C1A1B",
"$  c #221C1E",
"%  c #29201F",
"&  c #1E1E21",
"*  c #231E22",
"=  c #242224",
"-  c #2A2325",
";  c #272629",
":  c #2B252A",
">  c #2E2A2D",
",  c #352827",
"<  c #35292A",
"1  c #322A2D",
"2  c #3C302E",
"3  c #2D2E31",
"4  c #322C31",
"5  c #3E2A34",
"6  c #2F3133",
"7  c #343134",
"8  c #3B3335",
"9  c #3B343A",
"0  c #34383C",
"q  c #3D3A3D",
"w  c #442C38",
"e  c #433535",
"r  c #4C3835",
"t  c #473938",
"y  c #433C3C",
"u  c #47403F",
"i  c #4E413C",
"p  c #58433E",
"a  c #343740",
"s  c #3D3E42",
"d  c #433D43",
"f  c #4A3B45",
"g  c #523E47",
"h  c #3E4144",
"j  c #454244",
"k  c #4B4445",
"l  c #43464A",
"z  c #4B434B",
"x  c #4D494C",
"c  c #554545",
"v  c #524A4B",
"b  c #4C4C53",
"n  c #524651",
"m  c #534C54",
"M  c #544D59",
"N  c #4B5156",
"B  c #555255",
"V  c #555559",
"C  c #5A545B",
"Z  c #5C595D",
"A  c #634C45",
"S  c #6A4E48",
"D  c #72554D",
"F  c #625A5B",
"G  c #775650",
"H  c #7C5C54",
"J  c #6D625F",
"K  c #555C63",
"L  c #5B5C64",
"P  c #635E62",
"I  c #625E69",
"U  c #5D6369",
"Y  c #666266",
"T  c #6C6465",
"R  c #63646A",
"E  c #6B656B",
"W  c #62696F",
"Q  c #6E696C",
"!  c #736B6A",
"~  c #7C706E",
"^  c #686A74",
"/  c #726D71",
"(  c #746B78",
")  c #687278",
"_  c #6D747B",
"`  c #757275",
"'  c #7B7375",
"]  c #7A747A",
"[  c #73787D",
"{  c #7E797E",
"}  c #825D56",
"|  c #82655B",
" . c #8F715D",
".. c #846B60",
"X. c #89746D",
"o. c #97766B",
"O. c #9B7F72",
"+. c #A17F69",
"@. c #9F8174",
"#. c #A3806A",
"$. c #A48577",
"%. c #A98A7C",
"&. c #6C7983",
"*. c #777684",
"=. c #827D83",
"-. c #827D8F",
";. c #867C94",
":. c #758088",
">. c #7C848C",
",. c #778690",
"<. c #7D8B93",
"1. c #75909E",
"2. c #7595A8",
"3. c #7CC9FA",
"4. c #858286",
"5. c #8A8285",
"6. c #8B858B",
"7. c #89878C",
"8. c #938B8D",
"9. c #858D94",
"0. c #938E92",
"q. c #86959E",
"w. c #8B949B",
"e. c #969296",
"r. c #9A9698",
"t. c #9C959B",
"y. c #B39485",
"u. c #B79887",
"i. c #BC9C8B",
"p. c #A49B9E",
"a. c #9186A4",
"s. c #8699A5",
"d. c #8B9BA4",
"f. c #939DA4",
"g. c #9A9FA4",
"h. c #A39CA2",
"j. c #99A4AC",
"k. c #87A7BA",
"l. c #99ACB7",
"z. c #9DB2BE",
"x. c #A5A1A4",
"c. c #A7A4A9",
"v. c #ABA4AB",
"b. c #ADA9AD",
"n. c #B1AAAE",
"m. c #A3AEB6",
"M. c #B2ABB1",
"N. c #A2B2BC",
"B. c #A8B5BF",
"V. c #B6B3B7",
"C. c #BCB6BB",
"Z. c #BDBABD",
"A. c #C09F8E",
"S. c #C3A392",
"D. c #C0BABF",
"F. c #9CB5C3",
"G. c #ACBAC3",
"H. c #A9BDC9",
"J. c #B1BBC2",
"K. c #C3BDC3",
"L. c #B4C2CB",
"P. c #B8C2C9",
"I. c #ADC7D4",
"U. c #B8C9D5",
"Y. c #88CEF8",
"T. c #94CFF8",
"R. c #8CD5FB",
"E. c #95D7FA",
"W. c #9CDCFB",
"Q. c #B6D5E7",
"!. c #AADBF4",
"~. c #A4DDFB",
"^. c #AADDFA",
"/. c #B6DEF7",
"(. c #A5E0FC",
"). c #ACE2FB",
"_. c #BFE3F6",
"`. c #B4E4FC",
"'. c #BBE6FC",
"]. c #BEE8FC",
"[. c #C5C1C5",
"{. c #C5C4C9",
"}. c #CDC9CD",
"|. c #C3CDD5",
" X c #D0CBD0",
".X c #C4D2DC",
"XX c #CDD6DD",
"oX c #D8D5D7",
"OX c #C3D9E5",
"+X c #CADAE3",
"@X c #CADDE9",
"#X c #E0DEE0",
"$X c #C1E0EE",
"%X c #CDE1ED",
"&X c #D3E4EE",
"*X c #DAE4EB",
"=X c #CDE5F3",
"-X c #C8E6F6",
";X c #C3E6FB",
":X c #C4E9FC",
">X c #CCECFD",
",X c #D5E7F3",
"<X c #DAEAF4",
"1X c #D3EEFD",
"2X c #D9EFFD",
"3X c #D6F0FD",
"4X c #DCF1FE",
"5X c #E4E3E4",
"6X c #E8E7E8",
"7X c #ECEBEC",
"8X c #E6EDF4",
"9X c #F1EFF1",
"0X c #E3F3FE",
"qX c #EAF6FD",
"wX c #EEF8FE",
"eX c #F5F5F5",
"rX c #F3F9FE",
"tX c #FCFCFC",
/* pixels */
"0X0XqXwXwXrXqXqXqX0X0X0X0X0X4X4X4X4X4X3X3X3X:X1X1X4X<X+X%XI.f.w.>.[ 9.) x Z N.-X].].1X1X1X2X2X2X2X2X3X4X4X4X3X3X3X0X>X].].4X4XqX",
"qX0X0X0XqX0XqX0X2X2XqX0XqX0X0XqXqXqXqX4X4X>X1X2X<Xc.V x x Q :.` 7.! Y x ; e h I.>X].'.1X2X].].).:X2X0X1X4X>X3X4X3X4X>XqXqX0XqX0X",
"].'.:X0X0X0X0X0XqX4X1X2X1X0XqXqXqX0X4X4X3X3X1X2XG.k e t 2 k M.J x.c.J 2 u A > s.-X2X3X>X>X:X:X:X`.3X0X0X4X2X3X2X:X3XqX0X0X0X4XqX",
"1X4X3X).2X'.W.~.0X0X0X0X1X>X4XqX4X4X4X4X3X3X1X>X:.k t |  .i Z.p.8.V.0.Z V i - d.1X>X>X>X>X2X3X1X:X:X].>X3X3X0X0X0X0X4X4X4X0X4X'.",
"3X1X>X:XE.'.:X'.E.`.>X1X2X>X>X2X3X4X3X3X1X1X3X%X_ e p #.#.! K.}.[.{.r.` / j h U.>X;X:X`.>X1X1X1X3X3X`.>X3X3X3X3X4X0X4X4X4X4X>X:X",
">X>X:X].].'.'.].`.~.'.:X:X>X1X>X>X3X3X>X-X3X3X3X9.8 8 H D ' K.[.}.}.e.J R Q s.>X>X>X>X>X`.>X1X>X3X3X).:X>X3X3X3X4X4X0X0X0X4X).>X",
">X;X:X;X'.'.].`.`.'.).:X:X>X1X>X>X:X:X:X3X4X4X4X@XW = = x p.5.8.{.}.b.v Y E U I.>X1X>X1X'.'.>X1X1X2XW.3X1X1X3X2X3X4X0X0XqX:X>X>X",
">X1X>X>X>X`.`.W.].`.].>X>X1X1X2X>X:X>X1X3X4X3X3X,X*.> u 0.C.~ J D.}.[.5.! E j U Q.>X1X1X1X'.'.2X3X`.`.>X>X1X1X3X3X3X4X4X3X3X>X>X",
"1X>X>X>X:X'.).~.`.`.].>X3X:X3X3X3X3X>X3X3X3X%XL.w.3 = y t. XM.5.D.[.M.D.e.4.B 3 q.>X3X3X2X2X'.R.W.:X2X2X>X>X>X1X3X3X3X3X>X3X>X>X",
":X>X>X:X'.'.`.).`.'.:X2X>X3X2X3X3X3X>X3X3X&XW 6 = + o = ~ C.K.[.}.}.x.~ { E 8 + 0 z.1X3X3X1X).E.>X3X4X4X3X3X3X1X3X3X3X:X4X>X:X>X",
":X:X>X>X:X'.`.`.(.].>X>X>X1X2X3X3X).:X3X3X%XN + + + + o o > T 6.h.e.F , , B c . o N z.1X<X).^.3X3X3X3X3X3X3X3X1X1X3X3X1X3X3X>X>X",
"1X:X>X>X:X'.'.`.~.].>X>X1X1X2X3X:X).>XL.l.d.; + + + + + + $ S c ` ' c H S p G %   o ) -X1X-X3X4X2X2X1X2X2X2X3X>X>X>X3X>X].].>X:X",
"1X].].>X:X:X].].`.`.>X>X>X1X3X2X(.].Q.K 0 3 # + + + + + + 2 o.$.O.O.%.y.o.D } $   X ^ -X1X3X4X0X3X1X>X2X3X3X3X3X1X>X).].3X3X].>X",
"3X:X].>X>X:X>X>X>X).:X>X>X1X1X>X!._.q.6 % & + + + + + + $ 2 | u.S.S.A.u.@.H H $ X O 0 s.OX1X4X4X4X1X3X1X>X>X1X>X1X(.-X4X3X3X>X3X",
"3X3X>X:X:X:X>X>X1X`.).>X1X1X2X).].<.0 = + + + + + + + & $ r %.u.A.i.y.| o.H G 8   X + ; N N.3X4X4X4X3X>X`.;X>X3X`.`.1X1X3X3X4X3X",
"3X3X3X>X>X>X>X>X>X>XW.>X>X1XW.(.3X) & + & % + # & 3 = % r o.A.A.A.y.X.$.O.H D r X O @ # * d j.=X`.:X1X1X1X1X).).Y.>X1X1X1X4X1X3X",
"3X3X>X1X>X>X1X>X>X1X>X3.).E.].1X>X_ @ % & # = = * * * , A $.A.u.u.y.u.%.O.+.} e X O O O @ ; a k.=X1X1X1X2X3X4X].1X>X1X1X1X1X1X1X",
"3X3X1X1X2X>X1X2X1X3X^.3.W.3X4X3X=XK @ * # ; + o X o $ r A r | $.o.%.u.i.A.u. .p X X O O @ @ * b .X4X4X3X4X0X4X/.>X>X1X1X1X2X2X3X",
"0X3X2X1X3X>X1X1X>X`.R.'.2X3X2X&X) > ; = = ; ; ; & X o @ w A r r S ..y.A.A.i.o.p   X O O @ @ @ 9 >.1X4X0X4X4X2X).~.>X2X2X4X3X3XqX",
"qX4X1X1X2X].>X>X^.;X2X2X3X3X%X,.6 4 4 4 4 4 4 1 5 * o * $ $ , , < t A ..O...A 2 X o O O O @ @ * m .X4X4X4X0X4X^.4X;X1X1X3X3X0XqX",
"0X0X1X2X4X3X`.`.1X3X2X2X1X>Xs.7 4 4 4 4 1 4 4 4 4 4 : * * : : * $ * $ % - , t q : O O O O O O & d j.0X4X4X4X4X;X3X;X1X2X2X4XqXqX",
"0X0X1X0X4X>X>X3X2X0X4X2X1XF.d 4 4 4 4 4 4 4 4 4 > 4 4 4 * * * : > > : : ; ` Z.k # @ O O @ @ @ @ 4 ,.4X4X4X4X2X>X1X>X1X3X2X0X0X0X",
"0X0X0X4X>X1X2X1X1X3X2X2XQ.R 9 4 4 4 4 4 4 4 4 3 4 4 4 4 4 4 : & $ * * * 7 b.e.z * # O o @ o @ @ ; ,.2X2X1X1X1X3X:X2X2X3X3X4X0X0X",
"4X0X4X>X1X3X3X2X2X4X2X:Xd.f 4 4 4 4 4 4 4 4 4 4 4 4 4 4 4 4 9 w 1 * * * v c.5.5.-.6.( s @ @ o & * <.>X1X3X1X3X2X>X2X2X2X4X4X4X0X",
"4X0X2X3X4X2X2X1X1X4X4XQ.L d 4 4 4 4 4 3 4 4 4 4 4 4 4 4 4 4 4 5 w 9 7 P 0.M.6.6.v.v.v.h.x @ o @ - q.1X>X>X1X3X1X>X2X3X1X2X4X4X0X",
"0X3X1X3X3X:X1X1X>X:X:Xl.M a 4 4 4 4 4 4 4 4 4 4 4 4 4 4 4 > 9 a > 9 h.7X7XoXV.t.6.t.v.v.t.> o o : w.3X3X1X3X>X3X>X3X1X4X2X4X4X0X",
"3X2X3X3X1X2X1X].>X>X1X_ g f d 4 4 4 4 4 4 4 4 4 4 4 4 4 4 4 4 7 f g.C.C.[.}.C.=.P 5 =.h.M.M   @ 9 f.1X>X1X1X1X:X'.>X'.3X2X3X4X0X",
"0X3X3X2X2X>X:X1X1X1X1X) g 4 4 9 4 1 4 4 4 1 4 4 4 4 4 4 4 4 4 5 t.eXtX}.B F e.*.M o 4 g.M.]   - h L.2X1X>X>X>X(.1X>X1X3X4X2X4X0X",
"0X4X2X].`.1X1X1X3X3X=X^ m 4 > : = : 4 4 4 4 4 4 4 4 4 4 4 4 : Q 7XtX6X/ > z E > @ @ * =.M.6.* > V ,X4X4X1X3X>X).3X>X1X1X4X0XqX0X",
"0X4X:X'.1X1X1X1X1X1X-XI n 4 4 > : * : > 4 4 1 1 4 4 4 4 4 4 9 K.tXeX=.4 : - * o @ @ * ] n.6.: 4 >.0XqX0X>X3X>X>X'.1X>X1X3X0X0X0X",
"0X0X;X2X>X>X>X1X>X2XOXL n 4 4 4 4 * @ > 4 > 4 * : 4 4 4 4 4 ( 7XtXC.9 4 4 4 4 # @ # E h.M.E ; 4 L.qXwX0X>X>X3X>X:X:X>X1X3XqX0X0X",
"4X:X3X3X>X:X~.>X>X>X@XL g 4 4 4 4 : @ * 4 4 1 # : 4 4 4 4 4 n.rX9XE 4 4 4 4 4 * @ * t.v.h.s # N @X3X0X0X3X3X>X>X>X'.1X1X0X4X0X0X",
"0X:X4X4X4X>X>X>X>X>X@XL g 4 4 > 4 : @ O ; 4 7 f 7 4 4 1 4 d oXtX Xv 9 1 4 4 4 * o 4 t.n.] # @ d |.0X2X2X2X2X1X>X>X1X'.3X4X0X4X0X",
"0X>X4X3X4X4X>X>X;X>X@XL z 4 4 4 4 : @ @ O @ Z v.x.0.Q C m / 6XtX5XZ./ : 4 4 4 * O 4 6.h.s @ * a *.,XJ.,X2X2X1X1X>X1X:X:X0X4X4X0X",
"0X>X>X2X4X4X1X>X;X>X/.^ n 4 4 4 4 * @ @ o s =.v.oXtX7X6X#X6XtXtXtXtX` : 4 4 4 * o @ ] ] # # ; 3 d L V w.2X2X2X1X1X2X1X;X>X4X0X0X",
"0X3X>X2X3X3X1X1X:X:X'.&.n 4 4 4 4 # @ * # 4 E h.[.eXtXtXtXtXtXtXtXeX/ ; 4 4 > * @ q 6._ K * 4 z ( ( C L OX2X2X2X3X4X3X0X:X3X4X4X",
"4X3X2X1X3X2X2X].2X>X:X:.n 5 4 > * # ; s.>.3 = x =.K.7XtXtXtXtXtXoX5.d 4 4 4 > $ * ] I *.&.M n w M ;.C C g.4X2X2X4X0X0X4X4X;X4X4X",
"0X4X2X1X3X3X'.>X:X>X>Xs.n a 4 4 * * &.=X=Xz.h # $ 4 V / ` e.tXtXZ.9 4 4 4 9 f * C ] z ;.M w F g w *.I I ( @X2X0X4X4X0X0X0X1X;X0X",
"0X3X1X2X1X`.1X2X:X;X:XF.g a 4 > & 4 H.1X1X<XOXU = @ # : 4 m 5XtX6XY 1 4 *.v.x.E e.*.;.;.n g E R n M ;.C I U.2X2X0X0X4X0X0X0X>X>X",
"4X1X0X3X'.2X3X2X1X;X].Q.M f 4 > @ a %X2X1X0X0X,X9.3 # @ * 9 D.tXtXoX8./ }.K.C.g.I m..X*.*.n ^ / w < -.I z U.0X2X4X0X0X0X4X0X4X-X",
"1X1X0X;X1X4X3X4X3X>X:X/.^ f 4 > @ N 1X4XqX4X4XqX<Xj.u ; 8 x E oXtXtXeX7X Xb.r./ z L.&X9.a.n w 5 < 8 9 j N.,X2X2X4X4X4X0X0X0X4X4X",
"0X0X0X1X0X<X;XqX4X>X>X;Xs.z 7 > @ K 2X2X4X;X4X0XqXP.B 6 ` e.=.P b.oX#X#Xr.7.B = h XX3XH.;.( * 5 y 7 ; ) 2X2X2X2X4X4X0X0X0X0X0XqX",
"0X0XqX1X0X1X4X0X3X:X:X:XH.M 9 > & N 2X0X2X2X0X0XqXU.B = 7.}.r.8 7 d x 6.8.' # + [ 2X0XOX&.L ; 1 * s <.+X0X2X4X2X4X0X0X0X4XqX0X0X",
"2X0X0X1X>X3X0X4X1X:X:X:X/.^ s > @ a =X2X4X4X4X0X0X*X_ > Y r.Y 4 1 > 7 5.7.Z + 0 m.0X0X2XL.k.<.U f.OX<X0X0X0X4X3X4X0X4X0XqXqXqX4X",
"3XwXqX0X-X0X4X3X>X>X:X>X;Xs.n 4 $ = d.,X4X4X0X0X0X<X>.Q { Z y q x P E ` Y Q J x XXqXqX4X2X~.2X1X2X4X4X0X0X4X0X4X4X0X4X0X4XqXqX4X",
"1X3X0X;X0X4X3X>X>X>X:X:X:Xk.s 4 + o 0 I.2X0X4X0X0X*X<.8.[.8.v ~ ` ` / j 8 ' 7.` 8XqXqX0X>X).2X>X1X1X2X2X4X3X2X4X0X0X0X4X4XwX4X1X",
"3X>X>X>X4X1X1X3X1X>X>X:X;Xl.7 @ + = > q L.4X0X0X0X<X2.M.}.n.T F E R B Q ' X.*.g.8XqXwX2X].`.1X1X1X1X1X1X3X2X3X4X4X4X0X4X4X3X3X3X",
"qX4X>X4X3X1X1X3X>X>X>X>X:XF.B k y y k 8 *.0X4X0X0X>Xk.b.}. Xn./ R P.9.=.K.c.Q U.qXqXwX`.:X2X2X1X>X2X>X1X3X3X0X0XqXwXwXqXqX4X3XqX",
"qX4X'.1X3X1X3X2X>X>X>X>X1Xl.V c i k 8 3 [ 4X4X0X0X_.k.e.[.}.n.' >.<XB.Z r.x.Q XXqXqX3XE.1X2X2X2X4X1X1X1X2X4X0XqXqXqXqXwX0X2X0X0X",
"0X4X`.4X2X1X0X2X>X1X>X1X1XI.U v k u % ; U.4X0X0X0X).s.7.x.r.e.Y |.qXJ.R ! ~ [ #XqX0X'.>X1X2X2X2X4X1X2X1X2X0X0XqXqXqX'.qX4X3X0X0X",
"0X0X/.4X1X1X3X3X1X>X1X1X3X3XB.V x u 6 U %X4X0X0X4X!.f.V.b.F Y [ qX0Xj.J e.' >.*XqX>X;X3X2X3X2X0X2X2X2X1X4X0X0X0XqXwX;X4X3X2X0X0X",
"qX4X).1X1X2X4X1X1X1X1X2X3X4X3XU.L.1.w..X2X0X4X4X-X!.w.V.{.5.Z j.qX<XN 8 p.0.x |.wX>X2X4X3X0XqXqX1X2X2X2X3X3X4X0XqXrXqX0X2X2X0XqX",
"0X0X^.2X2X2X2X2X1X1X2X3X4X3X4X4X0X_.-X3X4X0X4XqX].Q.W 0.[.p.Z .X0X<Xq # 8 q > Z.qX<X0X3X4XqXqX0X2X2X2X2X2X1X2X4XqXqXqXqX0X4X0XqX",
"qX0X'.4X1X1X2X2X>X1X1X1X3X4X4X3X4X`.>X4X0X4X4X:X(.s.7 ' V.7.l .X4X*Xj + # , , B.>X0X0X4X2X0XqX0X4X2X2X2X3X2X2X3X0X0XqXqXqX0X0X0X",
"0X0X'.0X1X2X1X1X>X1X1X2X2X2X2X3X3X>X`.3X0X0X:X(.;Xw.> y J k 3 .X0X+Xy # % 1 2 U B.L.+X<X0X4X0X0X0X4X2X2X3X2X2X2X2X2XqX0XqX0XqX0X",
"qX0X'.2X1X>X>X>X>X>X1X2X3X4X2X4X3X4X>X(.:X].).-X2XN., 2 % o l @X0X.Xy $ = e 2 , e e x f.<X4X3X4X4X0X0X4X3X2X3X1X>X1X2X0X0X0X0XqX",
"4X>X].4X1X>X>X>X>X>X1X3X3X4X4X4X3X0X0XW.3.W.1X4X4Xj.> , - + :.<X4X,Xx - $ - 1 i i i i k U.4X4X3X4X4X4X0X3X3X3X3X1X>X1X4X>X0X0XqX",
";X2X1X0X1X1X1X>X>X2X3X2X3X4X4X0X0X4X4XE.(.1X4XqX0X9.e y , + ) &X4X4X9.q > % , t t i i u B.4X0X3X3X2X4X0X0X3X(.>X1X2X<X>X`.0X0X>X",
"].0X2X>X1X1X1X1X1X1X1X2X3X0X0X0X4X4X`.R.3X0X0X0X0Xw.t i 2 1 6 B.0X0X<X+XL._ 7 - 1 2 2 q U.4X0X4X2X4X4X4X0X4X-X>X3X0X0X0X`.0X>X).",
"0XqX>X>X1X1X>X1X1X2X1X3X4X4X4X4X4X:X).0X0X0X4X0X0Xg.p c i t > U 0X4X0X0X3X$XF.<.W W W l.<X0X4X3X4X3X2X2X4X0X4X4X'.qX0X0X(.;X`.qX",
"0XqX>X>X1X1X>X1X3X1X1X1X3XqXqX2X].`.4X4X0X0X4X4X0Xj.r p i t 1 Z 0X0X0X0X>X-X>X<X*X&X&X,X2X0X0X4X2X2X4X4X4X0X0X:XE.`.2X`.T.Y.<XqX",
"0XqX2X`.1X1X1X1X1X1X4X:X3X0X1X>X`.0X0X4X4X4X4X4X4XU.u e 2 2 % _ 4X4X0X4X0X2X:X4X4XqX1X4X0X4X0X4X4X2X2X0XqX:X`.W.R.!.).4X3X>XwX4X",
"0X0X0XE.1X1X1X1X1X=X/.`.2X>X>X].0XqX0X0X4X4X4X4X4X<Xj.l q q W U.3X4X0XqX0X].`.`.>X>X0XqX0X0X4X3X4X3X0X1X`.].].4X4X0X>X0X3X-XqX4X",
"qXqX0X].W.T.~.^.~.;XqX4X1X1X].0XqXqXqX0X0X4X4X4X4X4X2X&X%X%X,X3X4X3X4X4X`.qX0X0X>X;X2XqX0X0X0X1XqX4X'.].3X0X0X0XqX0X4X4X>X3XwXqX"
};
