/* XPM */
static char *result[] = {
/* columns rows colors chars-per-pixel */
"64 64 215 2 ",
"   c #0C0B0C",
".  c #100E0F",
"X  c #10100F",
"o  c #100F10",
"O  c #151214",
"+  c #181517",
"@  c #1A1817",
"#  c #171518",
"$  c #1A1619",
"%  c #1C1A1B",
"&  c #231C1E",
"*  c #21201F",
"=  c #1F1F21",
"-  c #221E21",
";  c #2F1C22",
":  c #371C27",
">  c #1F2120",
",  c #252224",
"<  c #2A2325",
"1  c #272429",
"2  c #2B252A",
"3  c #2E2A2D",
"4  c #332727",
"5  c #322B2D",
"6  c #3B2D2B",
"7  c #2B2E30",
"8  c #322C31",
"9  c #3A2F31",
"0  c #353131",
"q  c #353134",
"w  c #3D3434",
"e  c #3B343A",
"r  c #35383A",
"t  c #3D393C",
"y  c #473235",
"u  c #423534",
"i  c #453936",
"p  c #473838",
"a  c #433B3D",
"s  c #4A3C39",
"d  c #4E413C",
"f  c #53423D",
"g  c #5B443F",
"h  c #3A3C40",
"j  c #453942",
"k  c #433C43",
"l  c #493F49",
"z  c #3B4045",
"x  c #454245",
"c  c #4C4545",
"v  c #424449",
"b  c #4C444B",
"n  c #4C494D",
"m  c #584643",
"M  c #534B4C",
"N  c #5D504F",
"B  c #494951",
"V  c #4C4D52",
"C  c #524D53",
"Z  c #554C56",
"A  c #4D5257",
"S  c #535255",
"D  c #575459",
"F  c #5B555B",
"G  c #5D595D",
"H  c #654B45",
"J  c #6F524B",
"K  c #665D5E",
"L  c #765A52",
"P  c #7C6259",
"I  c #595C63",
"U  c #635D62",
"Y  c #635866",
"T  c #5C6268",
"R  c #5D6A72",
"E  c #636064",
"W  c #63656B",
"Q  c #686568",
"!  c #6B666B",
"~  c #6E696E",
"^  c #726A6B",
"/  c #696673",
"(  c #666C74",
")  c #736D72",
"_  c #6C7177",
"`  c #6C747B",
"'  c #7B7476",
"]  c #737478",
"[  c #7B757B",
"{  c #7E797D",
"}  c #855E57",
"|  c #886C62",
" . c #8D7167",
".. c #927265",
"X. c #827877",
"o. c #857C7D",
"O. c #9B7D72",
"+. c #9D8173",
"@. c #AC8977",
"#. c #A68678",
"$. c #5D7687",
"%. c #6C7B85",
"&. c #737C83",
"*. c #7B7B87",
"=. c #847D83",
"-. c #877C96",
";. c #7B8389",
":. c #688594",
">. c #7B8B95",
",. c #7B9AA9",
"<. c #6ABFF5",
"1. c #7CC9FA",
"2. c #858387",
"3. c #8B858B",
"4. c #8E898E",
"5. c #918C8F",
"6. c #828C95",
"7. c #89809B",
"8. c #958E93",
"9. c #8B9296",
"0. c #83929B",
"q. c #8A949C",
"w. c #969396",
"e. c #959498",
"r. c #9B959A",
"t. c #9F999E",
"y. c #AE9081",
"u. c #B59585",
"i. c #BC9C8B",
"p. c #A19A9E",
"a. c #9288A2",
"s. c #8999A5",
"d. c #969DA4",
"f. c #A49EA4",
"g. c #95A2AB",
"h. c #9AA3AA",
"j. c #89A6B6",
"k. c #94A5B1",
"l. c #99ABB5",
"z. c #9DAEB9",
"x. c #A6A1A5",
"c. c #A9A1A3",
"v. c #ACA5AB",
"b. c #ADAAAD",
"n. c #A0AEB8",
"m. c #B1ADB1",
"M. c #A1B2BC",
"N. c #B6B1B6",
"B. c #B9B7BB",
"V. c #BBB6BA",
"C. c #C2A291",
"Z. c #C1BABF",
"A. c #90BACD",
"S. c #A5BBC7",
"D. c #ACB8C1",
"F. c #B1BCC5",
"G. c #C2BEC2",
"H. c #ADC2CE",
"J. c #B4C2CB",
"K. c #B9C2C8",
"L. c #ACC9D9",
"P. c #BBCAD5",
"I. c #B8CDD9",
"U. c #BED1DD",
"Y. c #88CEF8",
"T. c #94CFF8",
"R. c #8CD5FB",
"E. c #95D7FA",
"W. c #9CDCFB",
"Q. c #BDD4E1",
"!. c #A8D8F3",
"~. c #A4DDFB",
"^. c #AADDFA",
"/. c #B5DFF8",
"(. c #A5E0FC",
"). c #ACE2FB",
"_. c #BFE3F4",
"`. c #B4E4FC",
"'. c #BBE6FC",
"]. c #BEE8FC",
"[. c #C6C2C6",
"{. c #CAC5CA",
"}. c #C4C8CE",
"|. c #CDC9CD",
" X c #C0CFD8",
".X c #D1CCD1",
"XX c #C3D3DD",
"oX c #C9D3DB",
"OX c #D7D5D7",
"+X c #CADAE3",
"@X c #C7DBE8",
"#X c #E0DEE0",
"$X c #CCE1EE",
"%X c #D6E4EE",
"&X c #C6E6F5",
"*X c #CBE6F4",
"=X c #C3E6FA",
"-X c #C4E9FC",
";X c #CCECFD",
":X c #D2E6F2",
">X c #D4E9F6",
",X c #DAE9F3",
"<X c #D3EEFD",
"1X c #D9EFFD",
"2X c #D6F0FD",
"3X c #DCF1FE",
"4X c #E4E3E4",
"5X c #EBEAEB",
"6X c #E3EFF6",
"7X c #E3F3FE",
"8X c #EAF6FD",
"9X c #EEF8FE",
"0X c #F4F4F4",
"qX c #F4F8FC",
"wX c #FCFBFC",
/* pixels */
"7X7X8X9X9X9X9X8X8X7X7X7X7X7X3X3X7X3X7X3X3X2X-X;X2X7X6X3X:XU.L.D.l.M.M._ W l.:X;X].].<X<X<X1X<X3X3X<X3X7X3X3X2X2X2X3X<X].].3X2X9X",
"8X7X7X7X8X7X8X7X1X1X8X8X8X7X7X8X7X8X7X3X3X;X2X<X7XP.{ _ _ 2.] ' ~ S E 3 5 0 j.-X;X].].<X<X].].).-X<X3X<X3X;X2X3X2X3X;X7X8X7X8X7X",
"].'.-X7X7X7X7X7X8X3X<X<X<X7X8X8X7X7X7X3X1X2X<X3XP.C w u 4 { r.' b.4.a a m i W $X;X1X3X;X;X-X-X-X`.2X8X3X3X<X3X<X;X2X7X7X7X7X3X8X",
"<X2X<X`.1X'.W.~.7X7X7X7X<X;X7X7X3X3X3X1X<X<X<X<X&.c s P J M [.X.c.b.^ x d i I _.;X<X;X;X;X1X3X<X-X-X].;X3X2X7X3X7X7X7X3X3X3X3X_.",
"2X<X;X-XE.'.-X'.E.).;X<X<X<X;X<X<X3X<X<X<X<X2X>XW a H +...X..XK.[.N.4.~ S 7 M.<X<X-X-X`.;X<X;X2X3X2X`.;X2X2X3X3X3X7X3X3X7X3X;X-X",
";X;X-X].'.'.'.].'.^.'.-X-X;X<X;X<X<X<X<X;X2X2X2X&.9 s ..L 5.[.[.|.N.' E ^ ` &X;X-X;X;X-X`.;X<X<X<X2X).;X;X2X2X3X3X3X7X7X7X2X).;X",
";X&X-X-X'.'.].`.`.`.).-X-X;X<X;X-X-X;X-X<X1X2X3XI.B < 2 K w.+.h.|.|.' M ~ E g.&X;X<X;X2X]._.-X<X<X2XW.<X<X2X2X<X2X3X7X7X8X-X;X;X",
";X<X;X;X;X`.`.W.].'.].;X;X1X<X<X;X;X;X;X1X3X3X3X>X_ 5 M p.c.E +.{.|.x.^ ~ A v H.;X;X2X;X<X'.].<X2X`.`.;X;X;X<X2X2X2X3X3X2X2X;X;X",
"2X;X;X;X-X'.`.(.`.`.-X;X3X-X2X3X2X2X;X2X>X2X>XJ.0.3 < c v.|.p.r.{.N.Z.v.5.Q 3 R -X2X2X2X<X1X'.T.W.-X<X<X;X;X;X<X2X2X3X3X;X2X;X-X",
"-X;X;X;X].`.`.(.`.`.-X2X;X;X2X2X3X2X;X2X2X2X` 7 > @ X 5 [ N.Z.[.{.G.o.^ ) n @ , >.;X2X2X1X<X^.W.;X3X3X1X2X<X2X<X2X2X2X-X3X;X;X;X",
"-X-X;X-X-X`.`.`.).'.;X;X;X<X2X3X2X(.;X2X<X:XT @ % @ % O . 5 Q =.4.{ u 4 i K &   r s.;X3X1X).!.3X2X2X3X3X3X2X<X<X2X2X2X;X2X2X;X;X",
";X-X;X;X-X].'.`.~.].;X;X<X<X<X2X-X).;XI.s.d.7 @ @ @ @ @ @ 6 J N ) K L L g L y   X V *X;X<X=X1X3X2X2X<X<X3X<X2X<X-X<X2X;X].].;X-X",
"2X-X].;X-X-X-X-X`.`.;X;X;X<X3X<X(.].&XR 3 * @ @ @ @ @ @ % f #.#.O.@.u.y.P } 6   X z I.=X<X3X3X3X3X<X;X<X2X2X2X2X<X;X`.].2X2X'.;X",
"2X-X-X-X-X;X-X;X;X).-X;X<X;X<X;X).&Xs.7 > > @ @ @ @ @ % % g  .i.C.i.i.+.} L y o O # h ;.$X<X3X7X3X<X<X<X;X;X<X;X<X(.=X3X2X2X;X2X",
"2X2X;X-X-X-X;X;X<X`.).;X<X;X<X).-XH.r * > * @ @ > * % , < L i.i.C.u. . . .J H O X O % 3 W XX<X3X7X2X2X<X`.].&X1X`.`.<X<X2X2X2X2X",
"2X2X2X;X;X;X;X;X;X;XW.;X;X<X~.).;XM.> @ @ * * * * 3 , < H y.i.i.i.O.#.+.| J m + O # # % , I +X<X`.-X<X<X2X2X).).Y.;X<X<X1X2X2X2X",
"<X2X<X<X;X;X;X;X<X<X;XY.`.E.-X<X;Xl.1 1 2 , 1 , % = # 6 l O.i.@.i.i.i.@.@...H O . # # # $ 2 $.!.1X>X<X<X3X3X1X].;X;X<X<X<X<X2X<X",
"3X<X<X<X<X<X<X<X<X<X^.<.W.2X3X2XQ.A % % % 1 > @ # o O - y g L |  .@.i.i.C.#.} + . # # # $ & j n.1X<X3X3X3X7X3X/.;X;X<X<X<X<X2X3X",
"8X3X<X<X<X;X<X<X;X`.E.'.2X2X3XXXD 7 8 3 3 3 3 8 3 - o - ; ; 4 4 d P @.i.i.O.H . . + $ $ $ $ 2 %.$X1X3X3X3X3X3X~.~.>X<X2X3X3X3X8X",
"7X7X;X<X<X-X;X;X^.=X<X<X2X;X$X( 7 8 8 8 8 5 8 8 8 8 ; - 4 2 - & & & 4 i f p w 3 # # # $ $ $ - b I.3X3X7X3X3X3X/.7X'.<X<X3X3X7X7X",
"7X7X<X<X7X3X).`.<X3X1X1X;X-X7.8 8 8 8 8 8 8 8 8 8 8 8 3 - - ; 8 3 2 , % e f.Q - + $ + + $ $ % 8 M.1X7X3X3X3X3X=X3X-X<X<X<X3X8X7X",
"8X7X1X7X7X;X;X1X1X7X3X<X<XS.l 8 8 8 8 8 8 8 8 8 8 8 8 3 3 3 - $ = - 2 2 2.{.C - $ + + + O $ % - >.<X7X3X3X3X1X;X<X;X<X2X1X7X8X7X",
"7X7X7X3X;X;X<X<X<X3X1X<X=X( h 5 8 8 8 8 8 8 8 8 8 8 8 8 8 8 h 9 - % % 2 8.e.=./ ) G 5 # # O $ # >.<X1X<X<X<X2X3X-X1X2X2X3X3X7X7X",
"3X3X3X;X<X3X3X<X<X3X3X;Xz.n 9 8 8 8 8 8 8 8 8 8 8 8 8 8 8 8 9 e j 3 e ! f.f.X.f.f.v.8.u # # $ $ 6.;X;X<X<X<X<X2X>X<X<X<X3X7X3X3X",
"7X3X<X2X3X<X<X<X<X3X2X&X$.l 8 8 8 8 8 8 8 8 8 8 8 8 8 8 5 8 e e 8 F |.5XOXG.r.r.d.v.v.-.; O O - 0.<X<X<X;X<X2X<X;X<X1X1X1X3X3X7X",
"7X3X<X3X3X-X<X<X;X;X-XI.A l j 9 7 8 8 8 8 8 8 8 8 8 8 8 8 8 8 q F m.B.|.OXOX8.~ e X.v.v.n o O 2 g.2X<X<X2X2X;X<X;X3X2X2X1X3X3X7X",
"3X<X2X2X<X2X<X=X-X<X;XH.Z j 2 e 8 8 8 3 8 5 8 8 8 8 8 8 8 8 8 b .XwX#X3.n p.[ Q # 2 r.m.^ . % q H.3X2X;X<X;X<X-X`.;X].2X<X3X3X7X",
"7X2X3X<X3X;X-X<X2X<X<XS.Z y 8 5 2 3 8 8 5 8 8 8 8 3 8 8 8 8 8 v.wXwXv.e e *.k % # - [ v.=.- 2 B oX3X2X<X;X<X<X(.<X<X;X2X3X1X3X7X",
"3X3X<X-X'.;X<X<X2X<X<Xn.Z 8 8 8 3 - 2 8 8 8 8 5 8 8 8 8 8 8 G 5XwX{.x 8 3 ; # # $ - ) v.3., 1 _ 6X3X3X3X<X2X-X).<X;X<X<X3X3X9X7X",
"7X7X-X'.<X<X<X<X<X<X;Xd.Z 8 8 8 8 - $ 8 8 8 8 - 2 8 8 8 8 8 f.wX5X! 8 8 8 e 2 # $ I r.v.) = q d.7X7X9X7X<X<X;X;X].<X;X2X3X7X7X7X",
"3X7X].<X<X;X;X;X<X<X>Xs.l 8 8 8 8 2 $ - 8 8 8 - 1 8 8 8 8 l #XwXG.e 8 8 8 q 2 # % 3.v.f.k % r H.1X8X8X8X;X;X;X2X-X-X;X<X2X8X7X7X",
"7X-X1X2X;X-X~.;X;X;X>X6.l 8 8 8 8 8 $ $ 2 5 e l 8 3 2 8 2 / wXwX3.q 8 8 8 8 2 # = 8.b.=.$ O , e.:X2X7X3X2X2X;X;X;X'.<X<X7X3X3X7X",
"7X-X3X3X3X;X;X;X;X;X>X7.l 8 8 8 8 2 $ # % $ G v.v.w.~ F S p.wXwX.Xv.e 8 8 8 3 $ & X.f.l $ - 8 B d.&.d.1X1X<X<X<X;X;X'.<X7X7X3X7X",
"7X;X3X3X3X3X;X;X-X;X&X>.l 8 8 8 8 - $ $ O h =.x.OX0X0X0X0XwXwXwXwXZ.e 8 8 q 2 $ O ! 3.v # $ 2 j W Z C U.1X<X<X<X<X<X-X-X3X3X7X7X",
"7X;X;X<X2X3X<X<X-X-X=Xs.l 8 3 8 8 $ $ 7 - 5 U f.[.wXwXwXwXwXwXwXwXV.w 8 8 8 2 # 5 -.%.F.B 1 B Z 7./ D ` 1X1X<X<X<X<X<X=X;X3X3X7X",
"3X3X;X<X3X1X<X;X;X-X=Xs.l 8 8 8 1 $ h S.z.k & a ) V.4X5X5X0XwXwXr.C 8 8 8 5 , & ! *.g.k.W Z j : Y 7.U U F.1X<X3X2X3X3X7X-X2X3X3X",
"3X3X<X<X3X<X1X].1X;X=Xl.l e 8 8 % 1 M.;X1XXXT @ + , b U K N.wXqX~ 3 8 8 j Z 2 C =.>.l.*.l y U K l -./ ) *.,X1X3X3X3X7X3X2X-X2X7X",
"7X3X<X<X1X<X'.;X-X;X;XS.Z e 8 2 $ I &X2X<X3X$X6.3 @ # 1 2 2.wXwX[.k 8 Q m.G.) 8./ H.h.a.Z Z K Y y Z -.I ( ,X1X1X7X3X7X7X7X<X-X7X",
"7X3X<X3X<X'.<X<X-X].-XL.I j 3 2 # >.>X<X<X2X7X<Xl.h 1 @ , M #XwXwX{.3.V.{.{.x./ s.-XXX-.-.l Y K ; 8 b Z P.7X1X7X7X7X7X7X7X3X;X;X",
"3X;X7X3X].<X3X1X<X-X=X'.( l 8 2 @ k.<X2X<X7X3X7X3Xz.S q D G 3.5XwXwXwX5Xf.t.! t d.1X7Xh.-.Y ; 2 e 9 8 &.7X7X1X1X7X3X3X7X7X7X7X&X",
"<X<X7X-X;X3X2X2X2X-X;X-X>.b q - % z.<X2X8X2X7X7X7XJ.S 0 3.c.[ G p.[.OXG.4.D * 7 K.7X3X$X*.-.h e 5 5 I  X7X3X1X<X3X3X3X7X7X3X3X3X",
"7X7X7X;X6X3X-X8X3X;X;X-XS.B e 1 # k.<X3X7X&X7X7X7XoXS * t..X' 5 8 q G b.2., @ D 6X7X2X>Xj./ A 7 S l.,X3X3X3X<X1X3X3X7X7X7X8X7X8X",
"7X8X7X>X7X>X1X7X3X].-X;X'.I k 2 # %.*X7X3X3X7X7X7X%XD x D ~ t 2 3 3 G w.Q 5 0 { 7X8X7X2X!.I.+XP.@X7X7X7X7X1X3X1X3X7X7X3X7X7X7X7X",
"2X7X8X1X;X2X7X7X2X-X-X-X=X%.j 1 O 1 S.2X3X3X3X7X8X,XW o.r.~ M G ] e.{ ' ) ' x h.8X7X7X2X<X`.<X3X3X7X7X7X7X7X3X3X3X7X3X7X7X7X8X7X",
"2X9X8X7X;X7X7X<X;X;X-X-X&X( & @ @ & z H.3X7X7X7X7X,X2.v.[.o.N ) Q F c 0 K p.E oX8X8X7X7X<X^.<X<X3X3X3X7X3X7X3X3X3X7X7X3X7X8X8X3X",
">X2X7X-X3X2X<X<X;X;X-X-X].%.x a a a t _ *X3X3X7X7X3X6.V.{.V.' ! W 2.Q 2.o.p.] %X8X8X8X7X;X).<X<X<X<X<X3X3X3X1X3X3X7X7X3X7X9X7X;X",
"3X;X;X-X3X<X<X2X<X;X;X-X=X` M c c a w V @X7X3X7X8X3X:.N.|.{.c.Q 9.,X_ r.G.3.t.7X8X8X9X1X'.`.<X<X<X<X<X<X<X3X3X3X3X7X7X7X7X2X2X2X",
"8X2X;X3X3X<X<X2X;X;X;X;X-X>.M c c 4 & g.3X3X7X7X7X;X$.p.Z.G.r.E +X7X;.^ p.] B.8X9X9X8X`.-X2X3X<X<X<X;X<X<X1X7X7X7X9X9X9X7X3X2X7X",
"7X3X'.2X3X<X3X2X<X;X;X;X<X@X%.b d q z U.3X7X7X7X3X].:.v.w.' ~ h.6X3X>.+.^ ~ K.9X9X8X<XE.<X1X1X1X3X;X<X<X3X3X7X7X9X9X8X9X7X1X7X8X",
"7X7X'.3X3X<X3X<X;X<X<X<X<X<X@XJ.,.9.I.2X3X3X7X7X7X^.;.V.N.^ E K.7XXXB 5.r.E B.8X9X7X'.;X<X1X1X<X3X<X<X1X1X7X7X8X9X9X'.8X1X1X1X7X",
"7X7X^.2X<X<X3X1X<X;X<X<X2X<X2X3X_.-X3X3X3X3X7X3X1X!.( v.{.w.~ oX7Xe., S 3.c ;.6X8X;X-X<X1X1X7X3X3X<X1X1X3X3X7X7X8X8X-X3X1X1X7X8X",
"8X3X`.2X<X<X1X<X<X<X<X<X<X3X2X3X2X`.3X2X3X7X3X7X;XA.x 2.V.2.T ,X7Xq.< & w 6 2.6X0X;X3X1X1X8X7X8X3X1X1X1X1X1X3X7X8X9X8X7X1X1X7X7X",
"7X7X/.1X<X<X1X1X<X<X<X3X3X<X3X3X3X&X;X2X3X7X3X7X].s.3 N 5.S A %X7Xh., @ , 4 M }.+X$X7X3X1X9X8X7X1X<X1X1X1X<X3X7X8X9X8X7X7X1X7X8X",
"8X7X`.7X<X<X1X<X;X<X<X3X3X3X<X3X3X'.;X3X7X3X3X;X(.M.5 6 < % S ,X7Xq.3 & u i 4 M S E h.>X1X7X8X7X3X1X1X1X3X1X<X3X7X7X8X8X9X7X7X7X",
"7X8X'.7X<X<X<X<X;X<X<X<X<X<X3X3X2X<X'.2X7X7X-X(.-Xg.* < & % q.3X7Xh.5 & 4 4 i d d d c F.7X7X7X7X7X3X1X<X2X3X<X<X1X<X8X8X9X7X8X7X",
"8X1X'.1X<X<X;X;X;X;X<X<X3X3X<X3X2X2X-X(.-X].).;X<X9.i w < , g.7X7XoXV & + 5 s d d d i h.1X3X<X3X3X7X7X3X1X<X2X<X<X<X1X7X3X7X7X8X",
"7X;X].7X<X<X;X;X;X<X<X3X3X3X3X3X2X7X6XW.1.W.;X3X,X>.i i 6 , T %X3X7XoXD.e.r 0 0 u w 0 M.7X3X3X2X3X3X7X7X3X2X;X2X<X;X<X7X;X7X7X7X",
"-X<X<X7X<X<X<X;X;X<X3X1X<X3X3X3X3X3X3XE.(.2X3X8X7Xd.m f f u 5 M.3X3X7X7X7XI.;.S v n ;.$X3X7X3X3X3X1X3X3X7X2X(.2X<X<X1X;X`.7X7X;X",
"].7X1X;X<X<X<X;X<X<X<X3X3X7X7X7X3X7X`.R.2X7X7X7X6Xh.s d d w < q.3X3X7X7X7X;X*X:XoX$X3X3X3X7X3X3X<X3X1X3X7X3X-X;X1X6X7X7X`.7X<X).",
"7X7X;X-X<X<X<X;X<X<X<X<X3X3X3X3X3X-X(.7X7X7X3X7X3XB.w i i 4 2 n.6X7X7X7X7X;X].2X3X<X6X3X3X3X3X3X1X3X3X3X3X7X2X3X].7X7X7X~.-X'.6X",
"8X7X<X;X<X<X<X<X<X<X<X<X3X7X9X<X].`.3X7X7X3X3X7X3X:X;.r q q ` :X7X7X3X8X;X;X>X3X7X7X3X2X3X7X3X3X3X3X<X3X3X7X7X;XE.'.,X`.T.Y.,X7X",
"7X8X1X`.<X<X<X<X<X<X1X;X2X3X2X;X`.8X7X3X3X3X3X3X7X7X,X+X+X+X:X3X3X3X7X3X7X2X-X3X7X8X2X3X7X3X7X3X3X<X<X7X7X;X`.W.R.(.).3X3X;X9X7X",
"7X7X7XE.<X<X<X<X<X*X/.`.<X;X;X].7X7X7X3X7X3X3X3X3X7X7X3X7X3X3X2X3X3X3X8X8X].'.).;X;X7X7X7X7X7X3X3X3X7X<X`.-X-X2X3X6X;X3X2X-X7X3X",
"8X8X7X'.E.T.~.^.^.=X8X3X<X2X].7X8X8X8X7X7X3X3X3X3X3X3X7X3X7X3X2X2X3X3X3X`.6X8X7X;X=X3X8X7X7X3X2X7X3X'.-X;X7X7X7X8X7X7X3X;X<XqX8X"
};
