/* XPM */
static char *result[] = {
/* columns rows colors chars-per-pixel */
"64 64 212 2 ",
"   c #0E0B0D",
".  c #120F11",
"X  c #151314",
"o  c #181517",
"O  c #1A1817",
"+  c #191619",
"@  c #1B191A",
"#  c #221C1E",
"$  c #1E1F23",
"%  c #231E21",
"&  c #242224",
"*  c #2A2425",
"=  c #262529",
"-  c #2B252A",
";  c #2D292C",
":  c #312627",
">  c #31272A",
",  c #312A2E",
"<  c #3A2E2D",
"1  c #292D31",
"2  c #322B31",
"3  c #392E33",
"4  c #2F3336",
"5  c #343437",
"6  c #3C3234",
"7  c #3C3439",
"8  c #3D3A3D",
"9  c #40302E",
"0  c #433434",
"q  c #443639",
"w  c #473938",
"e  c #4C3D3C",
"r  c #513D3C",
"t  c #4F403C",
"y  c #51413F",
"u  c #3C3D41",
"i  c #423D42",
"p  c #4B3D41",
"a  c #533F40",
"s  c #3A4349",
"d  c #364953",
"f  c #464245",
"g  c #43474B",
"h  c #494549",
"j  c #4D4A4C",
"k  c #554142",
"l  c #5B4544",
"z  c #584A4B",
"x  c #494E52",
"c  c #524E51",
"v  c #4D5054",
"b  c #545255",
"n  c #585255",
"m  c #53575B",
"M  c #5A555A",
"N  c #5F5B5D",
"B  c #644B48",
"V  c #644D4B",
"C  c #64544C",
"Z  c #6C514E",
"A  c #665B59",
"S  c #725652",
"D  c #775D57",
"F  c #7B5C56",
"G  c #66605F",
"H  c #776157",
"J  c #4F5D65",
"K  c #585C62",
"L  c #625E63",
"P  c #5C656B",
"I  c #666366",
"U  c #6C656B",
"Y  c #6D686C",
"T  c #706C6F",
"R  c #696C72",
"E  c #726D71",
"W  c #6C7176",
"Q  c #66747D",
"!  c #6D747A",
"~  c #737174",
"^  c #787477",
"/  c #7D7A7E",
"(  c #855F59",
")  c #85665D",
"_  c #8B665E",
"`  c #8C6760",
"'  c #8D6A62",
"]  c #926C63",
"[  c #967167",
"{  c #947269",
"}  c #95796A",
"|  c #9D796E",
" . c #897873",
".. c #9C7B72",
"X. c #A17D73",
"o. c #A07F78",
"O. c #9C857D",
"+. c #A58275",
"@. c #AB8779",
"#. c #A6897B",
"$. c #AC8A7C",
"%. c #B18E7E",
"&. c #547889",
"*. c #6F7A82",
"=. c #747D84",
"-. c #7C7D82",
";. c #827C81",
":. c #887E81",
">. c #7B838A",
",. c #688A9B",
"<. c #7A8E99",
"1. c #6094AF",
"2. c #57A0CE",
"3. c #77A4C1",
"4. c #7CC9FA",
"5. c #868387",
"6. c #8C858A",
"7. c #8D898D",
"8. c #948A8B",
"9. c #8A8D93",
"0. c #948E93",
"q. c #85939C",
"w. c #959195",
"e. c #989699",
"r. c #9B969A",
"t. c #A28B88",
"y. c #B28E81",
"u. c #A2908F",
"i. c #B59384",
"p. c #B99686",
"a. c #BA9987",
"s. c #BE9D8C",
"d. c #A49A9C",
"f. c #AB9A99",
"g. c #8899A3",
"h. c #949BA2",
"j. c #A39DA1",
"k. c #97A4AD",
"l. c #8CA6B4",
"z. c #9AABB6",
"x. c #AAA4A8",
"c. c #ACA6AB",
"v. c #B2A6A7",
"b. c #B3ABAD",
"n. c #A8AAB1",
"m. c #B3ACB1",
"M. c #A4B1BA",
"N. c #ABB2BC",
"B. c #B7B3B7",
"V. c #BCB6BA",
"C. c #BDB9BC",
"Z. c #C09F8F",
"A. c #C6A696",
"S. c #C1BBBE",
"D. c #93B3C6",
"F. c #A9BBC6",
"G. c #B6BAC1",
"H. c #C3BDC0",
"J. c #97C2D7",
"K. c #AEC4CF",
"L. c #B6C3CC",
"P. c #A8C5D5",
"I. c #B7CBD6",
"U. c #BAD0DD",
"Y. c #95CBEA",
"T. c #88CEF8",
"R. c #8CD5FA",
"E. c #97D7F9",
"W. c #9CDBFC",
"Q. c #A9D4E9",
"!. c #B9D6E7",
"~. c #A5DCF6",
"^. c #A4DCFB",
"/. c #A9DDFA",
"(. c #B4DEF7",
"). c #A7E1FB",
"_. c #ACE2FB",
"`. c #B8E2F6",
"'. c #B4E4FC",
"]. c #BBE6FC",
"[. c #BEE8FC",
"{. c #C6C1C5",
"}. c #CBC6CA",
"|. c #CEC9CD",
" X c #D0CACE",
".X c #C4CFD7",
"XX c #D2CED1",
"oX c #C7D3DD",
"OX c #DBDADB",
"+X c #C8DBE6",
"@X c #D3DEE9",
"#X c #CCE1EE",
"$X c #D8E2EA",
"%X c #C3E5F6",
"&X c #CCE5F4",
"*X c #C3E6FB",
"=X c #C4EAFD",
"-X c #CCECFD",
";X c #D2E6F3",
":X c #D8EAF6",
">X c #D4EEFD",
",X c #D9EFFD",
"<X c #D6F0FD",
"1X c #DCF1FE",
"2X c #EDEBED",
"3X c #E3F3FE",
"4X c #EAF6FE",
"5X c #EEF8FE",
"6X c #F3F2F3",
"7X c #F1F7FE",
"8X c #F1F8FE",
"9X c #FDFDFD",
/* pixels */
"3X3X4X8X5X7X5X4X4X3X3X3X3X3X1X1X1X3X1X1X1X<X=X-X<X1X3X3X1X>X>X>X>X>X<X1X<X<X<X-X=X].>X>X>X>X<X1X<X<X1X1X1X1X<X<X<X1X-X=X`.1X1X4X",
"4X3X3X3X4X3X3X3X1X1X4X3X4X3X3X4X4X4X3X1X1X-X<X>X3X3X3X1X,X-X].]._.=X-X>X[.].[.-X-X[.].>X>X[.]._.=X>X3X>X1X-X<X1X<X1X-X4X4X3X4X3X",
"[.].*X1X3X3X3X3X4X1X>X>X:X3X4X4X3X3X1X1X1X>X<X1X1X<X1X1X1X=X-X>X=X[.1X1X1X1X<X-X-X1X1X-X-X=X=X=X'.>X3X3X1X<X1X>X-X<X3X3X3X3X1X4X",
"<X<X<X'.,X].W.^.3X3X3X3X<X-X1X4X1X1X1X1X>X>X>X<X-X-X[.-X<X>X>X-X).<X1X>X-X-X-X-X-X>X-X-X>X,X1X>X=X=X[.-X1X<X1X3X3X3X3X<X1X1X3X`.",
"<X>X-X=XE.].=X].E._.-X>X>X-X-X<X<X<X<X<X<X<X<X<X<X<X>X'.-X-X%X(.W.%X.X#X&X<X<X<X-X=X=X'.-X>X>X<X1X<X].-X<X<X>X1X1X3X1X1X3X1X-X=X",
"-X-X=X[.].].].[.]./.].=X=X-X>X-X>X<X<X-X-X<X<X<X,X>X>X'.].l.! 9.W 8 ; 1 8 *.-X-X-X-X-X=X'.-X-X-X>X<X).-X-X<X<X1X<X1X3X3X3X<X_.-X",
"-X%X=X=X].].].'.'.]._.=X=X-X>X-X=X=X-X=X:X<X1X1X1X,X>X>XY. .^  XI w < & j ; F.=X-X>X>X>X*X[.-X>X>X<XW.>X-X>X<X<X1X1X3X3X3X-X-X-X",
"-X>X-X-X=X].'.W.].].[.-X-X>X<X<X-X-X-X-X1X<X1X1X1X1X,X,Xq.B.|.C.k 0 H D C.n K g.*X>X-X>X-X].%X>X<X'.'.-X-X>X<X>X<X<X1X1X<X<X-X-X",
">X-X-X-X=X]._.^._.].[.-X1X[.<X1X1X<X-X<X<X<X1X1X1X<X<XK./ |.C.r.q < } 8. X^ L L I.>X>X>X>X>X].R.E.=X>X>X-X-X-X>X<X<X<X<X>X>X-X=X",
"=X-X-X-X].].'.^.'.'.=X<X-X<X<X<X<X<X-X<X<X<X1X1X#X<XN.7.C.}.r.N.3 , H B.|.}./ L F.-X,X,X1X>X_.E.>X1X3X,X<X<X<X>X>X<X<X=X1X-X-X-X",
"=X=X-X-X[.].].'.).].-X-X-X>X<X1X<X~.!.>X<X#X:XM.8 ! e.H.S.b.O.}.T * T b.H.G.^ Y F.>X>X,X:X_.~.1X<X<X1X1X1X<X<X>X<X<X<X-X<X<X>X-X",
">X[.-X-X=X].].'.W.=X-X-X>X>X>X<X[.,.u z.F.x g.m O O 8 A B.V.XX XC.x.}.x. .j.T Y F.,X>X-X>X&X,X<X<X>X>X>X,X>X<X-X-X-X<X>X[.].-X[.",
">X[.[.-X=X=X=X[.'.'.-X>X-X>X1X>XE.J $ 4 O @ O @ O O @ O O 1 x T A G S.B.A O.Y T G.3X,X-X,X1X1X3X<X>X-X>X<X<X<X<X-X-X'.[.<X<X].-X",
"<X=X=X-X=X=X-X-X-X_.=X-X-X>X>X-XQ ; & O @ O O O O O O O @ O O O O X b w.5.e.Y U k.=X-X>X<X,X1X1X1X>X<X>X-X-X>X-X<X).*X,X<X<X-X<X",
"<X<X-X=X[.-X>X-X-X'.).-X>X-X>XJ.s * & ; 1 O O O O O O O O O O O O O # z N O.R j *.>X>X>X1X1X>X3X1X<X<X-X'.*X=X<X'.`.>X>X<X<X<X<X",
"<X<X<X-X-X-X-X-X-X-XW.-X-X-XJ.d = = O & @ O O O O @ O O O O O O O X H %./ I f 5 j I.>X>X,X,X1X>X'.-X>X>X>X<X_.'.T.=X>X>X1X<X<X<X",
"<X<X>X-X>X-X>X-X>X-X>XT.Q.&.1     1 @ + O O O + @ O O @ O O O O O O A A.#. .a.G =.k.-X1X1X-X^.'.>X>X>X>X,X,X1X[.-X-X>X>X>X>X>X<X",
"1X>X>X>X>X-X>X>X>X>X^.2.d + . + . @ & + O O O O + O + O O @ O O O # 5 } Z.Z.a.O.U.`.-X>XE.^.<X<X,X<X<X3X1X3X1X(.-X-X>X>X>X,X>X1X",
"3X1X-X>X<X-X>X>X>X(.1.= @ . + + X = $ ; @ O O O O + + + O O O O O @ = H s.a.H ~ +XE._.E.-X<X,X<X,X1X1X3X3X1X,X/./.>X>X>X<X1X1X4X",
"3X3X>X>X>X=X-X-X/.,.= 2 % X + + + X . X & & @ O O O O O O O O @ # 8 = C } ) w 3.'.].`.<X>X<X>X1X1X,X,X3X1X1X1X/.1X].>X>X1X1X3X4X",
"4X3X>X>X1X1X_.'.g.= 2 2 % o o o + @ % % O = = # @ + + O X # o + O O O = C #.B D.>X-X-X>X>X>X-X>X>X,X3X3X1X1X,X*X>X*X>X,X>X1X4X3X",
"3X3X>X3X3X-X-XF.- 2 2 2 . o o o $ 2 2 2 & @ X @ % + - * + # % # ; = ; # 2 q p +X%X%X3X3X3X:X%X>X>X>X,X3X:X@X+X+X+X.X+X.X;X3X4X3X",
"3X3X3X1X-X-X;Xx - 2 2 2 . + + o % 2 , , 6 q q 6 9 r w 0 w r 9 0 < : < 6 q p p w.r.u.O.t.u.f.f.x.v.x.b.b.m.d.u...' ' ' ` f.1X3X3X",
"1X1X1X-X<X<XM.= 2 2 2 % X + o + 2 2 , , 2 , * & 7 q r a B Z S ( ) ) ' [ { { | ..+.X.| | | | X.@.$.i.a.a.a.a.s.a.p.i.i.$.{ @X1X1X",
"3X1X>X>X,X:XQ & 2 , - X o % % 0 p e a a a a e l a a a a l a l r B B S F _ ] [ | X.@.%.i.s.Z.s.s.s.s.Z.s.s.s.s.Z.s.s.s.s.8.:X3X,X",
"3X1X>X1X>X=XR $ = % +   + + % 3 7 q p a l V D D ` { X.o.o.y.y.Z.Z.%.s.%.a.s.s.a.s.a.a.s.s.s.Z.s.Z.s.s.Z.Z.Z.s.s.s.Z.s.i.f.:X3X3X",
"1X>X<X<X<X>XI.1 + + + . + + $ 3 , 2 , , 2 2 5 1 > > 2 3 q p l Z F ' [ +.+.@.%.s.s.s.s.Z.s.Z.s.s.s.s.Z.s.s.s.Z.s.s.Z.s.y.m.,X,X3X",
"1X1X1X>X<X-X=XF.8 @ @ @ 2 . % 2 2 2 2 , 2 2 2 2 i a B Z S _ [ o.@.%.%.a.a.Z.Z.Z.Z.Z.Z.Z.Z.s.Z.s.s.s.s.Z.s.Z.s.s.s.Z.s.p.t.:X,X3X",
"3X1X>X=X].-X>X>XP.x $ @ -.K % 3 2 2 2 2 , 2 2 2 2 3 3 7 p p a B Z S F ) ] [ | +.+.@.%.i.a.a.s.Z.s.s.s.s.Z.s.Z.Z.s.s.s.s...@X4X3X",
"3X1X=X].-X>X>X>X-X+X>.4 ;.c.j.c , 2 2 2 2 2 2 2 2 3 0 p a a l V Z S F ) ' } | +.+.@.$.%.i.a.a.s.s.s.s.s.s.s.s.Z.s.s.s.s.t.1X3X3X",
"3X3X[.>X>X-X-X>X>X>X>Xk.;.j.XX6Xx.i - 2 2 2 2 2 2 2 2 - - - 2 > 2 2 3 : : 9 l Z F ( _ ] [ | +.$.%.%.s.Z.s.s.s.s.s.s.s.s.| $X3X3X",
"1X=X,X1X-X=X^.-X-X-X,XM.i j. X9X9X6Xm.M 2 - 2 2 2 2 2 2 2 2 2 2 2 2 , # # O : 0 q e r l Z S H _ } +.O.#.y.i.s.Z.Z.Z.s.i.[ @X3X3X",
"3X=X1X1X3X-X=X-X-X-X3XI.= , w.6X9X9X9X6XOXw.L 8 , ; , > 2 2 , 2 2 2 - + + . + % + # - 6 r y Z H ) ' } | o.o.X.+.@.#.i.{ v.1X3X3X",
"3X=X1X1X1X1X-X-X-X-X-X%Xu + # I {.6X9X9X9X9X6XOXV.7.U j 8 2 , , ; - + $ o . + + O # & ; , 5 g U 5.h.n.C.{.L.C.B.c.x.d.N.:X3X1X3X",
"3X-X-X>X1X1X<X-X=X=X=X-XQ + + - 3 I C.6X9X9X9X9X9X9X9X6X@X|.V.j.^ M h p 3 > 5 P <.z.F.K.U.Q.>X5X3X3X1X3X3X,X>X>X>X>X>X%X-X1X1X3X",
"1X1X-X<X1X<X:X>X-X=X=X-XD.$ + = 2 , - h 6.}.6X9X9X9X9X9X9X9X7X|.m.m.m.7.E *.&X>X<X>X<X-X-X].1X3X4X4X4X3X3X1X>X<X<X1X1X3X=X>X1X3X",
"1X1X>X>X1X<X>X[.1X-X=X-X%XJ O $ 2 2 2 2 , , u U 0.V.|.OX2X2XG.m.m.m.:.U *.@X,X1X<X>X>X<X>X].<X3X3X3X3X4X3X,X,X,X1X1X1X3X<X*X<X3X",
"3X1X>X>X<X>X].-X=X=X-X-X>XP.; + ; 2 2 2 , 2 2 ; 2 , 3 8 8 7 q f i p i -.@X3X1X3X>X>X-X>X-X'.1X1X3X3X4X3X3X3X1X1X3X3X3X1X3X>X*X3X",
"1X1X>X1X>X].>X>X-X=X=X=X=XJ.$ + % 2 2 , 2 2 2 2 , 2 2 % + o o X $ 1 e.:X3X3X3X3X:X>X1X>X>X].3X3X3X3X3X4X3X3X1X1X1X3X3X3X3X1X-X-X",
"3X-X3X1X].>X1X1X-X=X=X=X-XD.@ + - 2 2 2 , , 2 2 2 - + + + + + & W +X4X3X4X4X3X3X3X<X3X1X=X-X,X3X3X3X3X3X3X3X,X1X1X3X1X3X3X3X3X=X",
"-X>X3X=X>X<X:X<X<X=X-X=X=XY.5 M E 5 2 2 , 2 2 - @ @ + + + 8 -.oX3X3X4X4X4X3X4X3X4X3X3X,X'.1X>X>X1X3X3X3X3X1X,X,X1X1X3X1X3X3X1X1X",
"3X3X3X-X3X1X=X4X1X-X-X=X=X(.J N w.-.2 c M i % % f / n & 4 +X,X3X3X4X4X3X3X4X3X4X4X3X,X>X^.,X,X1X3X1X3X3X1X,X>X,X1X1X1X3X3X3X3X3X",
"3X3X4X>X3X-X:X4X1X=X=X=X=X!.s e. XE > M 0.;.i -  .N.I & F.3X3X3X3X4X4X4X3X4X4X4X4X3X3X>X/.-X1X1X3X3X3X3X3X1X,X,X1X3X3X3X3X3X4X3X",
"<X4X3X:X-X<X4X1X<X=X=X=X=X%XJ f :.i + i 0.e.2 % T w.h g ;X3X3X3X4X3X4X3X4X4X4X4X4X4X3X>X>X'.1X1X3X1X1X3X3X3X1X1X1X3X1X3X3X4X3X3X",
"<X5X4X3X-X3X3X>X-X=X=X-X%X!.>.^ 2 X . # Y c . . # b c v 9.M.+X3X3X3X4X4X3X4X7X4X4X4X3X3X>X/.>X,X1X1X1X1X3X1X1X1X3X1X3X1X3X3X4X1X",
"-X:X3X*X1X<X>X>X>X-X=X=X`.<.n e.;.T U K c u j -.7.r.w.b.8.b.7.-.G.4X4X4X4X4X4X4X5X4X4X3X-X_.>X>X>X<X>X1X1X1X1X1X1X3X3X1X3X5X3X-X",
"<X-X-X-X1X>X>X<X-X-X=X=Xg.0.8.{.m.;.b 6.r.E 6.;.5.r.}.|. X XS.:.6.n.1X3X4X4X4X4X4X4X5X,X[.].>X>X-X>X>X>X>X,X,X,X1X1X3X3X3X<X>X<X",
"4X1X-X1X<X>X>X>X>X-X%Xz.e.|.}.}.S.U i T ^ M j L c U e.C.c.x.H.{.}.7.,X3X4X4X4X5X5X4X4X'.=X>X>X>X>X<X>X>X>X,X3X4X3X5X5X5X3X1X<X4X",
"4X1X[.;XoX!.L.q.z.q.9.>.}.|.H. Xx.T j W z.k.W I j 8 8 h u < T e.^ 5.3X3X4X4X5X5X5X5X<XE.>X,X>X,X1X-X>X>X1X1X3X4X5X5X4X5X3X>X1X4X",
"3X1XJ.b : # ; 3 ^ 7.b.S. X6.d.r.N >.U.1X1X1X:X>.o # i Y N 7.e./ I .X3X4X4X4X5X5X5X3X'.-X,X,X,X>X1X>X>X,X,X3X3X4X4X4X].4X1X1X3X3X",
"3X3Xn C e # e M |.XX{.B.U b W e.Q.%X1X1X1X1XM.6 # t > c A f m e.+X3X3X4X4X4X5X5X4X-X*X<X,X,X1X3X1X>X1X>X1X,X3X3X4X5X%X1X,X1X3X3X",
"4X1Xh y r * t < G Y ^ >.k.I.&X<X<X`.1X<X1X3XW e < : 0 + X @ ; b .X3X4X3X4X5X5X5X8X-X<X,X,X4X4X3X,X,X,X,X,X,X1X3X4X7X5X1X,X,X3X3X",
"3X3Xx e t : # # $ g.!.:X<X<X<X1X1X=X=X<X1X1XW w t < # @ & # # # 5.3X3X5X5X5X5X5X4X<X3X1X1X5X4X3X,X>X,X,X,X>X1X3X4X5X3X4X3X1X3X4X",
"3X4Xl.t 0 # . X $ =.;X>X<X1X1X1X1X[.-X3X3X1XI.x - < t w 0 * # # W 3X3X4X5X8X8X4X-X3X3X1X1X3X4X3X1X1X>X,X1X,X>X1X3X3X4X4X5X1X3X3X",
"4X3X!.b e ; : * # * z.>X>X,X>X1X<X-X`.:X3X3X=X).P.h.8 w w : # & k.3X3X4X5X5X4X&X3X3X1X3X3X1X3X3X3X1X,X>X,X>X,X>X,X,X3X4X4X3X3X4X",
"3X3X].! t t 6 > # # q.>X1X>X1X1X1X<X=X).=X[._.=X1X>XI./ v v W M.:X3X3X3X5X4X1X1X3X1X3X1X1X1X,X,X1X3X3X1X1X>X<X>X>X>X,X3X3X3X4X3X",
"1X-X].K.j p 0 > # * z.,X1X1X1X1X:X3X3XW.4.W.<X1X3X1X1X,X;X:X1X3X4X3X3X4X5X3X=X>X3X1X1X1X1X1X1X1X1X1X3X1X1X<X-X<X-X-X>X1X-X3X3X3X",
"=X,X>X3XF.R f 5 u =.;X,X>X1X1X1X1X1X1XE.).<X1X4X3X3X3X1X1X1X1X1X3X3X3X3X4X<X<X-X3X1X,X1X,X3X1X,X,X,X1X3X1X1X~.<X>X>X,X-X'.3X3X-X",
"].3X1X-X>X>X-X-X>X>X>X>X1X3X3X3X1X3X'.R.<X3X3X3X3X3X3X3X3X1X3X1X1X1X3X3X3X-X>X1X3X<X3X1X,X3X1X1X1X1X1X1X1X1X=X-X,X3X3X3X'.1X-X`.",
"3X4X-X=X>X>X>X>X>X>X>X>X1X1X1X1X1X=X).3X1X3X1X3X4X3X3X1X3X1X1X3X3X3X1X4X3X-X[.<X3X>X3X1X1X3X1X,X1X>X1X1X1X3X<X1X%X3X3X3X).=X`.3X",
"3X5X>X-X>X>X-X>X>X<X<X<X1X4X5X>X[.'.1X1X3X3X1X1X3X3X3X3X3X1X1X1X3X1X3X3X>X-X-X3X4X1X3X<X1X3X1X1X1X1X>X1X1X3X3X-XE.`.:X_.R.T.:X3X",
"3X3X1X`.>X>X>X>X>X>X1X%X>X1X>X-X].3X3X1X1X1X1X1X1X3X3X1X3X3X3X1X1X3X3X1X1X<X=X1X3X3X<X<X1X1X3X1X,X,X1X1X3X-X'.W.R.)._.1X1X-X6X3X",
"3X3X1XE.,X>X>X-X>X-X(.'.>X-X-X[.3X3X3X3X1X1X1X1X1X3X3X1X3X1X3X<X1X1X3X4X4X[.`._.-X-X3X4X3X3X3X1X1X1X3X>X'.].[.1X3X3X-X3X<X-X4X1X",
"4X4X3X].E.R./././.%X4X1X>X<X[.3X4X5X3X3X3X1X1X,X1X1X1X3X1X1X3X<X<X<X<X1X'.3X4X3X>X*X>X4X3X3X1X>X3X1X].=X<X3X3X3X3X3X1X3X-X-X8X4X"
};
