/* XPM */
static char *result[] = {
/* columns rows colors chars-per-pixel */
"64 64 215 2 ",
"   c #0E0C0B",
".  c #110F0F",
"X  c #12110F",
"o  c #110F11",
"O  c #151314",
"+  c #181517",
"@  c #191817",
"#  c #191618",
"$  c #1C191B",
"%  c #211B1D",
"&  c #2A1A1E",
"*  c #221D21",
"=  c #252123",
"-  c #2A2325",
";  c #252628",
":  c #2C262B",
">  c #2E292C",
",  c #312625",
"<  c #322A2D",
"1  c #382829",
"2  c #3B2C2A",
"3  c #3B312F",
"4  c #322C31",
"5  c #3A2D32",
"6  c #2E3032",
"7  c #343234",
"8  c #3A3234",
"9  c #36373B",
"0  c #3B343A",
"q  c #3D393C",
"w  c #433534",
"e  c #463737",
"r  c #483431",
"t  c #423B3D",
"y  c #4A3D3B",
"u  c #4F413C",
"i  c #54423E",
"p  c #5D443E",
"a  c #3D3C42",
"s  c #423741",
"d  c #433B43",
"f  c #513E45",
"g  c #3E4245",
"h  c #444144",
"j  c #4C4443",
"k  c #444449",
"l  c #494449",
"z  c #444A4F",
"x  c #4D4A4D",
"c  c #574847",
"v  c #4C4B53",
"b  c #534E53",
"n  c #4B5359",
"m  c #555255",
"M  c #5B5255",
"N  c #535459",
"B  c #5B545C",
"V  c #5E595D",
"C  c #674D46",
"Z  c #68514B",
"A  c #73534D",
"S  c #63585D",
"D  c #7C5A53",
"F  c #7B655B",
"G  c #4E5B62",
"H  c #5A5C60",
"J  c #645E64",
"K  c #5A6269",
"L  c #656165",
"P  c #636369",
"I  c #6B656A",
"U  c #69666A",
"Y  c #6D6A6D",
"T  c #736B6D",
"R  c #646B74",
"E  c #6B6C73",
"W  c #736D73",
"Q  c #706878",
"!  c #6A747A",
"~  c #757174",
"^  c #777579",
"/  c #797479",
"(  c #7E797D",
")  c #825F56",
"_  c #86665D",
"`  c #9A6B5F",
"'  c #896C62",
"]  c #916E63",
"[  c #8C7369",
"{  c #957769",
"}  c #827979",
"|  c #997D71",
" . c #A37265",
".. c #9F8073",
"X. c #AA856E",
"o. c #A58577",
"O. c #AC8B7D",
"+. c #6C7882",
"@. c #737C84",
"#. c #7B7A88",
"$. c #837D82",
"%. c #857C8B",
"&. c #867C96",
"*. c #7C8389",
"=. c #7A848B",
"-. c #7B8794",
";. c #7B909C",
":. c #6C97AA",
">. c #7F99A8",
",. c #6ABFF5",
"<. c #7CC9FA",
"1. c #858285",
"2. c #8B8387",
"3. c #84878C",
"4. c #8B858A",
"5. c #8D898D",
"6. c #918C8F",
"7. c #8B8A93",
"8. c #938D93",
"9. c #879299",
"0. c #969295",
"q. c #959397",
"w. c #9B959B",
"e. c #9C989C",
"r. c #AD8F81",
"t. c #B69686",
"y. c #BC9C8B",
"u. c #A39A9C",
"i. c #BFA08F",
"p. c #8C9AA4",
"a. c #869BA8",
"s. c #989DA5",
"d. c #9D91B1",
"f. c #A29BA2",
"g. c #A39AA7",
"h. c #A094B6",
"j. c #95A3AB",
"k. c #91A8B5",
"l. c #98A9B5",
"z. c #A6A2A5",
"x. c #A8A7AA",
"c. c #ACA5AC",
"v. c #B0AAAF",
"b. c #AFA8B1",
"n. c #B5AEB3",
"m. c #A2B3BE",
"M. c #ADB6BC",
"N. c #B6B1B4",
"B. c #BAB6BA",
"V. c #BDB9BB",
"C. c #C0A08F",
"Z. c #C4A392",
"A. c #C1BBBF",
"S. c #90B7CB",
"D. c #A8BAC5",
"F. c #B3BEC4",
"G. c #C2BEC1",
"H. c #98C2D6",
"J. c #B2C5CF",
"K. c #B8CAD5",
"L. c #BDD1DD",
"P. c #95CCED",
"I. c #89CEF7",
"U. c #8CD5FB",
"Y. c #96D7F9",
"T. c #9CDBFC",
"R. c #A8D3E8",
"E. c #B9D6E6",
"W. c #A3DDFB",
"Q. c #AADDFA",
"!. c #B6DFF7",
"~. c #A6E0FC",
"^. c #ACE2FC",
"/. c #B8E1F2",
"(. c #B4E4FC",
"). c #BBE6FC",
"_. c #BEE8FC",
"`. c #C5C2C5",
"'. c #C8C2C8",
"]. c #CBC5CA",
"[. c #CEC9CD",
"{. c #D1CBCF",
"}. c #C0CDD6",
"|. c #D0CBD0",
" X c #C6D4DD",
".X c #D5D3D5",
"XX c #DEDDDE",
"oX c #C4D9E5",
"OX c #C9DAE5",
"+X c #C5DEED",
"@X c #D2DCE4",
"#X c #CEE1EC",
"$X c #D2E2EC",
"%X c #C4E1F2",
"&X c #CBE4F3",
"*X c #C3E6FB",
"=X c #C4EAFD",
"-X c #CCECFD",
";X c #D2E6F3",
":X c #D3E9F6",
">X c #DAEAF5",
",X c #D3EEFD",
"<X c #D9EFFD",
"1X c #D6F0FD",
"2X c #DCF1FE",
"3X c #E5E3E5",
"4X c #EBEBEB",
"5X c #E4EDF6",
"6X c #E3F3FE",
"7X c #EAF6FD",
"8X c #EEF8FE",
"9X c #F4F4F5",
"0X c #F5F7FB",
"qX c #F1F8FE",
"wX c #FDFCFD",
/* pixels */
"6X6X7XqXqXqX8X8X7X6X6X6X6X2X6X2X2X2X6X2X2X1X=X-X1X6X6X6X<X,X,X,X,X,X1X2X1X1X1X-X_.).,X,X,X<X1X2X<X1X2X2X2X2X1X1X1X6X,X_.(.2X2X7X",
"7X6X6X6X6X7X6X6X2X2X7X7X6X7X6X6X7X7X6X2X2X-X,X2X6X6X2X2X<X-X)._.Q.*X-X,X=X).=X=X-X_._.,X,X_.).^.=X,X6X,X2X-X1X2X1X2X-X7X7X6X7X6X",
"*X).=X2X6X2X6X6X6X2X,X<X1X6X7X8X6X6X6X2X<X,X,X2X1X,XL.F.l.;.9.p.k l =.$X1X1X1X-X-X2X2X-X-X=X=X=X(.,X7X2X2X,X2X,X-X1X6X6X6X6X6X6X",
"1X1X1X(.2X).T.W.6X6X6X6X,X-X6X6X2X2X2X2X,X&Xl.R R ^ 7.1.4.( U Y < 8 3 ;.-X-X-X-X-X,X-X-X-X2X2X,X=X=X_.-X2X1X2X6X6X6X2X2X2X6X6X/.",
"1X,X,X=XY.).=X).Y.^.-X,X,X-X-X,X2X2X1X,X1Xp.q 3 3 3 z.6.} N.0.> x Z i N #X1X2X,X,X=X=X(.-X,X-X,X2X1X(.-X1X1X2X2X2X6X6X2X2X2X-X_.",
"-X-X*X_.).).)._.).Q.).*X=X-X,X,X-X,X,X-X*Xm i u { c U ].I u.v.} m j w n &X,X,X-X=X-X-X=X/.-X,X,X,X1X^.-X-X1X1X2X2X2X2X6X7X1X^.1X",
"-X*X=X=X).).).(.(.).^.-X=X-X,X-X-X=X=X=XoXu 3 F X.] e.[.].[.A.4.Y L 7 m.2X<X-X-X-X,X,X-X_.).-X,X,X1XT.-X,X1X1X,X1X2X6X6X7X=X=X-X",
"=X,X-X-X=X).(.T.).)._.-X-X,X,X,X-X=X-X-X:Xz u p X.F z.].].].A.} V W ! &X,X,X-X=X-X-X,X,X,X).).,X1X(.(.,X-X-X,X1X1X1X2X2X1X1X-X-X",
"1X1X-X-X=X).(.W.^.(._.-X2X=X1X1X2X,X-X,X1Xl.6 % % T u.6.u.[.}...b Y J #.%X-X=X=X-X-X1X1X,X,X).Y.Y.=X,X,X-X-X-X,X1X1X1X1X-X1X-X-X",
"=X=X-X-X).).(.~.(.(.=X1X-X1X1X1X2X1X-X1X1X#X@.; L v.u.M ~ ].].G.} W J h a.-X-X-X-X1X,X2X<X,XQ.Y.-X2X6X2X1X1X1X,X1X1X1X=X2X-X=X-X",
"=X=X-X=X_.).(.(.~.).-X-X-X,X1X2X2X~.-X%XL.=.g 7 j n.[.u.2.[.A.A.c.q.W q a l.-X-X-X,X,X2X,X(.Q.2X1X1X<X2X2X1X,X,X1X1X1X-X1X1X-X-X",
"-X_.-X-X=X_.(.).W.=X-X-X,X,X,X1X=X^.E.G 7 @ X X h u.].A.{.{.].2.T ^ V * O z k.-X,X2X,X=X,X%X<X2X1X1X1X,X<X,X1X,X-X-X1X1X_.).-X=X",
"1X=X_.-X=X=X_._.(.(.-X,X-X,X2X,X~._.E.g % @ @ @ X + q T 4.1.~ 0 2 < Y r   O > 9.@X6X<X-X<X2X2X6X2X,X-X,X1X1X,X1X,X-X^.=X1X1X_.-X",
"1X=X=X=X=X-X-X-X-X^.=X-X,X-X,X-XP.J.p.$ @ @ @ @ @ @ 2 D j $.( Z ' C A )   . O : q a.%X-X2X,X2X2X2X,X,X,X-X-X,X-X:X~.*X<X1X1X-X1X",
"1X,X-X=X=X=X-X-X-X(.~.-X,X-X,XR.G q 6 @ @ @ @ @ @ % y O.r.o.r.t.t.[ D A O O O @ % 4 R oX2X2X,X6X2X<X1X,X(._.-X1X(.).,X1X1X1X1X<X",
",X2X,X-X-X-X-X-X-X-XW.=X,X,XT.:.6 % @ @ @ @ @ @ @ = p _ C.Z.y.y.t.{ D D   . O O + # 4 R oX2X2X,X/.=X,X,X1X1X^.^.I.=X,X,X,X<X<X1X",
"1X,X,X,X-X-X-X,X,X-X,XI.^.Y.>.9 = $ @ @ @ @ $ @ * * p y.t.y.C.o._ | ) ) , O # + + + O a =.*XT.!.1X,X,X,X<X<X2X_.-X-X,X,X,X,X,X<X",
"2X1X-X,X,X,X,X,X,X,XQ.,.T.1X=.= @ % ; @ @ $ 6 ; * C o.y.C.C.O.| t.] A A 2 o + # # + + * v S.<X,X2X1X2X2X2X6X2X!.-X-X,X,X,X<X,X2X",
"7X2X,X,X,X,X,X,X-X^.Y.).1X1Xj.$ $ = @ = ; = = @ 2 C r.C.t.y.t.C.O.y.O._ , X + # # # # + 0 #.:X<X2X<X2X2X6X2X<X^.Q.,X,X,X2X1X2X7X",
"6X6X,X,X,X_.-X-X!.*X,X,X1X-X=.$ ; = > = O X X @ & * , F r.{ o.y.y.y.y._ i O + + # + + # ; 6 oX<X2X2X2X6X2X2X2XQ.2X).,X,X,X2X6X7X",
"7X6X,X,X2X<X^.(.,X<X<X<X,XD.* * * - * : 6 < % X > * * # = c [ i.Z.Z.Z.] r $ @ # + + O # * * a.:X,X,X6X6X2X2X2X*X2X*X,X,X<X2X7X6X",
"6X6X<X6X6X-X-X<X<X6X2X,XE.d 4 4 4 4 4 4 < 6 < > * * : 4 4 4 : 5 c F } x 4 & = % O + O O * * R *X,X,X2X2X2X2X<X-X,X-X,X1X<X6X6X7X",
"6X6X6X2X-X-X<X,X<X2X<X*X+.4 4 4 4 < 4 4 4 4 4 < 4 > * $ # # % # # < 1.~ 2.0.s.w.Q * + O # # v +X,X,X2X,X,X,X,X2X=X,X1X2X2X2X6X6X",
"2X2X2X-X,X2X<X,X,X<X<XD.0 4 4 4 4 4 4 4 4 4 4 4 4 4 5 s 0 > * * * L A.6.%.g.g.c.b.4.$ o o * w oX1X-X-X,X1X,X1X,X-X<X,X,X2X6X2X2X",
"6X2X,X1X<X,X,X1X,X6X;XK a 5 : * : 4 4 4 4 4 4 < 4 4 > 4 5 s s > 5.`.G.`.q.1./ s.c.b.J o o * > K.,X,X,X,X-X-X1X-X-X<X1X1X,X2X6X2X",
"6X2X,X2X2X=X,X,X-X=XD.m a 4 4 4 : * 4 4 < : : 4 4 4 4 4 q 5 : $.XX4X4X3X4.~ + * 5.c.w.o o * * D.,X,X2X1X,X1X1X,X-X1X1X2X1X2X2X6X",
"2X,X,X2X,X1X,X_.=X,X! d 4 4 4 4 4 = * : 3 p 2 : 4 4 4 4 4 7 L .XB.e.x w.$.I + + s c.b.d + * > D.-X6X,X-X,X,X,X=X).-X_.>X<X<X2X6X",
"6X1X2X,X2X-X=X,X,XE.b 0 4 4 4 4 4 4 # Z o.D * 4 4 4 4 4 4 8 [.wX9X~ 4 ( b o + + * f.b.I + * > k.5X2X1X,X-X,X,X~.,X,X-X1X2X<X2X6X",
"2X2X,X*X).-X,X,X,Xp.v 4 4 4 4 4 4 4 , [ ' r : 4 4 4 4 4 : W 0XwXc.4 4 * * O + + f g.b.N O # * @.>X>X2X2X,X-X-X^.,X1X-X,X2X2X8X6X",
"6X2X=X).,X,X,X,X-X#.d < 4 4 4 4 4 : F | r * < < 4 4 4 4 : V.wX9Xx 4 4 4 0 % + + 8.c.c.0 O O o 7 7.#X3.*.+X,X-X-X).-X,X,X2X6X6X6X",
"6X6X_.,X,X-X-X-X&XE a < : > 4 5 4 : ' { ] 1 > < > 4 4 4 q 3XwXV.> 4 < < s * + O 7.c.s.* # # * 4 q H l B ! *X-X-X_.=X,X,X1X7X6X6X",
"6X=X<X1X-X=XQ.-X%XK 0 : 4 5 4 * * # [ T r r % - - 4 4 4 B 4XwX1.> < 4 < 0 * + O $.c.W j.a # # : d 7.7.b L ! -X,X-X).,X,X6X2X2X6X",
"2X=X2X2X2X-X-X-X!.R a 4 4 4 5 9 0 * ' Z  .` C A 2 > 4 < ~ 0X9XL b 5 4 4 0 : # # > g.E :X}.n # a H s &.&.B E #.*X-X-X).,X6X2X6X6X",
"6X-X2X2X2X2X-X-X*X+.5 4 4 4 > 4 4 + | ]  .C * % : 4 < > 1.wX0XXX.Xa 4 < 5 : # # d 8.j.1X2XH.N B e e e %.#.E v K.,X1X=X=X6X2X2X6X",
"6X-X-X,X2X2X1X-X*Xk.a 4 4 4 7 4 4 * | ] C S w.f.e.6.e.N.XXwXwXwX4Xf 4 < a : $ O W ^ oX,XoX#.V 1 $.Q M e %.Q R &X,X,X,X=X-X2X2X6X",
"2X2X-X1X2X1X>X-X=X*X;.n a 7 6 > # * j c c 8.c.{.wXwXwXwXwXwXwXwX@Xx 4 < 5 : # : 8.-.,X,Xk.g.B 5 $.J B & 0 % l.,X1X2X2X2X=X,X2X6X",
"2X2X,X,X2X<X<X_.<X-X*X%XE.K.R.H.p.H 9 a m #.z.B.9XwXwXwXwXwXwX].a 4 4 < a M $ %./ J.,X1XoX-.h.V e f % 0 8 < m.2X2X2X2X6X1X=X1X6X",
"6X2X1X,X1X,X).-X=X-X,X-X-X-X).=X,XE.a.k * = d L 8.`.'.B.0.4XwX4Xd 4 < M w.F.T w.! -X-X,X-XS.#.d.B * 0 5 < 9.:X6X6X6X6X6X6X,X*X6X",
"2X2X,X2X,X).,X,X=X*X*X*X-X).).-X).-X<X:Xm.v $ O O # : : : N.wXwX|.M 5 8.G.G.g.J R -X<X,X,X).}.#.h.d 5 : 9.>X2X2X2X6X6X2X6X6X-X-X",
"6X-X6X2X).,X2X<X,X=X=X=X=X(.-X-X-X,X,X<X,X>Xl.k # # # = > m 4XwXwX0X9X9Xn.g.J * E #X XoX*X=X2XK.#.#.3.D.6X6X2X2X2X6X6X2X6X6X6X*X",
"-X,X6X=X-X2X1X1X2X=X-X=X_.~.-X-X-X,X1X2X6X2X2X@Xs.h > $ > x ~ .X9XwX9X3X5.( @ O V w.x.5.+.%X1X,X#X>X2X6X6X2X<X<X2X2X2X6X6X6X2X2X",
"6X7X6X,X7X>X=X7X2X-X-X=X-X_.-X=X-X,X1X<X6X=X6X6X6XF.L $ W e.4.q J ~ L c.5.V . > N.{.[.].6.q.1X6X6X6X6X6X2X<X,X<X2X6X6X6X6X6X6X6X",
"2X6X7X,X6X:X1X6X2X_.=X=X=X=X=X-X-X,X,X6X2X2X6X6X6X XY ; ~ `.V.4 4 < : w.2.V t 1.A.u.1.`.].9.2X2X2X6X6X6X6X<X2X<X2X6X6X6X6X7X7X6X",
"1X7X6X:X1X,X6X6X1X=X=X-X=X=X=X-X-X-X2X2X2X2X2X6X6X5X9.@ q w.W = > 0 x Y ^ Y e.w.4.T z.N.z.*.1X2X2X6X6X6X6X6X<X2X2X2X2X6X6X6X7X2X",
"1X7X7X6X=X6X6X,X-X-X=X=X=X=X_.-X-X2X1X2X2X2X6X6X6X6X}.g ../ V j Y ( w.m m P ~ / 1.x T 1.I V m.,X2X2X2X6X6X6X2X2X2X6X6X6X6X6X7X2X",
":X1X6X=X2X1X,X,X-X-X=X=X-X=X).-X,X1X1X2X2X2X6X6X6X6XE.K l.G.T u / V 9.F.J.}. X5X7X3.V 5.M q n &X,X,X,X<X2X<X<X2X6X6X2X2X6X8X7X-X",
"2X-X-X-X6X,X,X,X-X-X-X=X=X=X=X_.-X1X1X2X2X6X2X6X7X>XI.3.[.].A.2.~ U OX5X7X7X7X7X7XM.- q > 3 3 m.+XD.p.D.;X<X,X2X2X2X6X2X6X1X-X1X",
"7X1X=X2X2X,X1X,X1X-X-X=X-X-X=X(.-X2X2X6X2X6X2X6X6X,X^.p.G.[.].N./ *.6X6X7X7X7X9X8X$Xt @ % - w t l j y j @.,X6X7X6X8X8X7X7X2X1X7X",
"7X2X).1X2X,X2X2X-X-X-X,X-X,X,X=X=X1X2X2X2X6X6X6X2X_._.K.6.G.[.N.Y F.6X6X7X7X8X8X8X7X^ % % w e 1 u u u u j oX6X6X8X8X7X7X7X,X6X7X",
"6X2X(.2X<X,X2X,X,X,X-X,X,X,X,X2X(.2X1X2X2X2X6X6X6X(.=XR.V A.T 0.N  X7X7X7X7X8X8X8X2Xa.< % = = r i u u e 0 }.6X7X7X7X).7X<X1X2X6X",
"6X6X!.1X<X,X<X<X-X,X,X,X,X,X2X2X/.-X2X2X2X2X6X2X2X^.2X;X1.[.0.L U @X6X7X7X7X8X8X8X-X/.x & % + , 3 2 : - ! <X6X6X7X7X*X6X<X2X6X6X",
"6X6X^.,X,X,X2X,X,X,X,X,X2X2X,X2X,X(.2X1X2X6X2X6X,X(.2X1X#.{.G.5.E $X7X6X7X8X8X8X8X-X1XJ.R ^ j.E H K ! m.;X<X2X6X7XqX7X2X<X<X6X7X",
"7X6XQ.<X<X,X<X,X,X,X,X2X2X2X1X2X2X=X-X2X2X6X2X6X_.=X2X>Xx z.'.7.P >X6X7X8X8X8X8X7X2X2X>X2X8X6X6X,X1X<X<X<X,X2X6X6X8X7X7X6X2X7X6X",
"7X6X(.6X,X,X<X,X-X,X,X1X,X2X<X2X2X(.-X6X6X2X2X-X~.1X>XK.3 / V.} ; L.6X7XqX8X8X7X-X6X2X6X<X6X7X6X2X2X,X<X2X<X,X2X6X6X7X7X7X2X7X6X",
"6X7X).6X,X,X,X,X-X,X,X,X<X,X1X2X1X,X(.1X6X6X=X~.=X<X<XJ.< 8 q - = K.6X7X8X8X8X-X7X2X6X2X6X2X6X6X2X2X<X<X,X<X,X,X<X<X7X6X8X6X6X6X",
"7X<X).<X,X,X,X-X-X-X,X,X2X<X2X<X2X2X=X~.=X_.^.=X2X2X1X#X7 3 , @ q @X6X7X8X7X1X2X6X6X2X6X6X2X,X2X2X6X6X2X2X,X2X,X,X,X<X6X6X6X6X7X",
"6X-X).6X,X,X-X-X-X,X,X2X2X2X2X2X1X7X6X~.<.Y.,X2X6X2X1X X< 2 % % N >X6X7X7X6X=X,X2X2X6X6X2X<X<X2X2X2X6X2X1X1X,X1X-X,X,X2X-X6X6X7X",
"*X,X,X6X,X,X,X-X,X,X2X<X,X2X2X2X2X2X<XU.~.1X6X6X6X6X6XK.3 y , @ g #X6X6X7X,X1X-X6X2X<X1X<X6X2X2X<X2X<X6X2X1X~.-X,X,X2X-X(.6X6X-X",
"_.6X<X-X,X,X-X,X,X,X,X,X2X6X6X6X2X6X(.I.2X6X6X7X7X6X6XL.3 i y r < *.2X6X7X-X,X2X6X2X6X2X<X6X2X<X2X<X2X2X6X2X*X,X<X6X6X6X(.2X,X~.",
"6X6X-X-X-X,X,X,X,X,X,X,X2X2X2X2X2X=X~.6X2X6X6X>X6X6X2X Xu c u u 1 k $X7X5X-X_.<X2X<X6X2X2X6X6X<X2X2X<X2X2X6X2X2X).6X6X5X~.=X/.7X",
"7X6X,X-X,X,X-X,X1X,X<X,X2X7X7X,X_.(.2X6X6X6X2X6X6X6X6X$Xt u u y 6 u #X7X,X=X,X>X7X2X2X1X2X2X6X2X<X2X<X2X2X6X6X-XY./.2X^.I.I.>X6X",
"6X7X<X(.,X,X,X,X,X1X1X*X1X2X1X-X).6X6X2X<X2X2X2X2X6X6X2XE 3 3 < ; ^ 2X2X2X1X=X6X2X7X1X2X6X6X2X2X2X,X2X2X6X-X(.T.U.~.^.6X6X-X8X6X",
"6X6X6XY.,X,X,X,X,X-X!.(.,X-X-X_.6X6X6X6X6X2X2X2X2X6X2X6X$X9.P K 9.#X2X7X7X_.(.^.-X-X6X7X6X6X2X2X2X2X6X,X(.)._.2X6X2X-X2X1X=X6X6X",
"7X7X6X_.Y.P.W.Q.Q.*X7X2X,X1X_.6X7X8X6X6X6X2X2X<X2X2X2X2X2X2X2X,X1X1X2X2X(.6X7X6X,X*X,X7X6X6X6X1X6X2X)._.1X2X7X6X7X6X6X>X-X,XqX7X"
};
