/* XPM */
static char *result[] = {
/* columns rows colors chars-per-pixel */
"64 64 219 2 ",
"   c #0D0C0D",
".  c #10100F",
"X  c #110E11",
"o  c #151214",
"O  c #191517",
"+  c #191817",
"@  c #191618",
"#  c #1C1A1B",
"$  c #221C1E",
"%  c #22201F",
"&  c #231E22",
"*  c #311D25",
"=  c #252224",
"-  c #2B2425",
";  c #2C262A",
":  c #272A2D",
">  c #2E292D",
",  c #362628",
"<  c #312A2D",
"1  c #3A2E2C",
"2  c #2D2D32",
"3  c #322C31",
"4  c #392E30",
"5  c #2E3133",
"6  c #343235",
"7  c #3A3234",
"8  c #353238",
"9  c #3B353A",
"0  c #35393C",
"q  c #3C3A3E",
"w  c #44322F",
"e  c #422F33",
"r  c #423434",
"t  c #463737",
"y  c #443B3D",
"u  c #4A3E3A",
"i  c #533E3B",
"p  c #4E413C",
"a  c #53423C",
"s  c #5A433E",
"d  c #3A3F41",
"f  c #433B42",
"g  c #483B45",
"h  c #3E4347",
"j  c #454347",
"k  c #4B4343",
"l  c #4A444A",
"z  c #4D4B4E",
"x  c #564747",
"c  c #4B4650",
"v  c #4D4D52",
"b  c #554A53",
"n  c #534E52",
"m  c #4E5358",
"M  c #545155",
"N  c #5A5355",
"B  c #55545B",
"V  c #5A555A",
"C  c #5D5A5D",
"Z  c #664C46",
"A  c #6D524B",
"S  c #70514C",
"D  c #645C5D",
"F  c #685B58",
"G  c #775B53",
"H  c #7A6256",
"J  c #535D63",
"K  c #5B5C63",
"L  c #625D63",
"P  c #635968",
"I  c #5D656A",
"U  c #656265",
"Y  c #65656A",
"T  c #6A6568",
"R  c #6B656B",
"E  c #6E6A6E",
"W  c #766D6E",
"Q  c #676974",
"!  c #736E73",
"~  c #6C7077",
"^  c #6C747C",
"/  c #737175",
"(  c #767679",
")  c #74757B",
"_  c #7B747A",
"`  c #7E797D",
"'  c #845E55",
"]  c #8E6E5F",
"[  c #8B6C62",
"{  c #94786C",
"}  c #807677",
"|  c #827B7C",
" . c #997D71",
".. c #A6836D",
"X. c #A68477",
"o. c #AC8C7E",
"O. c #6B7982",
"+. c #737C83",
"@. c #797B89",
"#. c #837D83",
"$. c #877D97",
"%. c #68818E",
"&. c #7A8186",
"*. c #7D868E",
"=. c #788791",
"-. c #7D8B94",
";. c #768C9A",
":. c #7D93A0",
">. c #6ABFF5",
",. c #7CC9FA",
"<. c #868185",
"1. c #868488",
"2. c #8A848A",
"3. c #8E898D",
"4. c #928A8E",
"5. c #848C93",
"6. c #89889A",
"7. c #938D92",
"8. c #889199",
"9. c #89959D",
"0. c #979195",
"q. c #9C969A",
"w. c #92999E",
"e. c #AF8F80",
"r. c #B39484",
"t. c #BD9D8C",
"y. c #A29A9E",
"u. c #9389A1",
"i. c #899AA4",
"p. c #939CA3",
"a. c #A39DA2",
"s. c #97A3AC",
"d. c #9CA5AD",
"f. c #8AA5B5",
"g. c #97AAB6",
"h. c #9CABB4",
"j. c #A6A2A5",
"k. c #ABA2A6",
"l. c #ACA5AC",
"z. c #AEA8AE",
"x. c #A3ADB5",
"c. c #A3AEB8",
"v. c #B2ABB0",
"b. c #A6B4BD",
"n. c #B7B2B6",
"m. c #BBB5BA",
"M. c #BDB8BD",
"N. c #C09F8E",
"B. c #C1A08F",
"V. c #C4A493",
"C. c #C0B9BE",
"Z. c #9EB4C2",
"A. c #98B7CB",
"S. c #A5BAC7",
"D. c #ACBBC4",
"F. c #B4BDC5",
"G. c #C3BDC2",
"H. c #9DC7DC",
"J. c #AEC0CC",
"K. c #B8C3CB",
"L. c #AAC8D8",
"P. c #B7CAD6",
"I. c #BAD1DD",
"U. c #88CEF8",
"Y. c #8CD5FB",
"T. c #96D0F2",
"R. c #95D7FA",
"E. c #9CDCFB",
"W. c #A6CDE1",
"Q. c #AFD4E5",
"!. c #B6D2E3",
"~. c #A9DAF2",
"^. c #A4DDFB",
"/. c #AADDFA",
"(. c #B7DEF5",
"). c #A5E0FC",
"_. c #ACE2FB",
"`. c #BDE4F7",
"'. c #B4E4FC",
"]. c #BBE6FC",
"[. c #BEE8FC",
"{. c #C6C1C6",
"}. c #C8C4C6",
"|. c #CBC6CB",
" X c #CDC9CD",
".X c #CBCDD1",
"XX c #D1CCD1",
"oX c #C2D2DD",
"OX c #C8D3DB",
"+X c #D8D5D7",
"@X c #C6DAE6",
"#X c #D3DDE5",
"$X c #C9E1EE",
"%X c #D2E2ED",
"&X c #D8E6EF",
"*X c #C4E4F4",
"=X c #CCE4F3",
"-X c #CEE8F6",
";X c #C3E6FB",
":X c #C4E9FC",
">X c #CCECFD",
",X c #D5E6F2",
"<X c #D4E9F5",
"1X c #DBEBF4",
"2X c #D4EEFD",
"3X c #D9EFFD",
"4X c #D6F0FD",
"5X c #DCF1FE",
"6X c #E7E6E7",
"7X c #ECEBEC",
"8X c #E3EDF4",
"9X c #F0EFF0",
"0X c #E9F2F7",
"qX c #E3F3FE",
"wX c #EAF6FD",
"eX c #EEF8FE",
"rX c #F4F4F5",
"tX c #F3F8FC",
"yX c #FCFCFC",
/* pixels */
"qXqXwXeXeXtXeXwXwXqXqXqXqXqX5X5X5XqX5X5X4X4X:X>X4XqXqXqX5X4X4X4X>X4X4X4X4X4X3X:X[.].2X2X2X3X2X4X5X2X4XqX5X5X4X4X4X5X>X:X[.4X4XeX",
"wXqXqXqXqXwXwXqX5X4XwXwXqXwXqXqXwXwXqX5X5X>X2X3XqXqX5X5X1X(.W.W.H.L.P.i.:.H.`.:X>X:X[.2X2X[.[._.>X2XqX2X4X2X5X5X4X5X>XwXwXqX0XqX",
"[.`.:XqXqX5XqXqXwX5X2X2X4XqXwXeXqXqXqX5X5X2X4X5X3XI.9.8.:.-.( _ E m J = ; p J.-X>X4X4X>X>X:X:X:X].2XqXqX5X2X4X3X>X4XqXqXqXqXqXwX",
"4X5X4X_.5X].E.^.qXqXqXqX3X>X5XwX5X5X5X3X2X2X2X4XI.B y r : X.4.} a.X.h j x r ^ *X>X2X>X>X>X4X5X2X:X:X[.>X4X4XqXqXqXqX5X5X5X5X5X[.",
"4X2X>X:XR.].:X].R._.>X2X2X>X>X4X4X4X3X2X2X2X4X4X*.k r A a N G.W v.n.N y p a I =X>X:X:X'.>X2X>X2X4X2X].>X4X4X4X5X5XqXqX5XqX5X>X:X",
">X>X:X;X].].].[.]./.].:X;X>X2X>X>X2X2X2X-X4X4X<XY y s ..] W XXm.M.M.7.T v - 9.:X>X>X>X>X'.>X2X2X4X4X_.>X>X4X4X4X5X5X5XqXqX4X_.>X",
">X;X;X[.].].[.'.'.]._.:X:X>X2X>X>X:X>X:X2X4X5X4X~ 7 u { ' 4. X}. XM.` T T I (.>X>X>X>X2X`.].>X2X2X2XE.>X>X2X4X2X4X5XqXqX0X:X>X>X",
">X2X>X>X>X'.'.E.].].[.>X>X2X2X4X>X:X>X>X5X5X5X5XP.l & , N 4.y.v.|. X| M E Y b.*X>X>X4X2X2X`.].3X4X'.'.2X>X2X2X4X4X4X5X5X4X4X>X>X",
"4X>X>X>X:X]._.).'.'.[.>X5X[.4X4X5X>X>X>X4X5X5X5X<X&.- j 0.y.F 4.|. Xy.D E n M L.:X3X2X2X3X3X].Y.R.:X2X2X>X>X>X2X4X4X5X5X>X4X>X:X",
":X>X>X:X[.'.'.).'.].:X4X>X4X4X4X5X4X4X4X4X4X4X%XD.d = p y.}.0.| |.C.}.k.2.U 6 J >X>X2X4X5X2X_.R.>X5XqX5X4X4X2X2X4X4X4X:X5X>X>X>X",
":X:X>X>X:X'.'.'.).].>X>X2X2X4X4X4X).-X2X4X3X5.h 5 + . 7 4.}.C.}. XM.q.3.<.M # ; -.=X2X3X3X/./.5X4X4X4X5X4X4X2X2X4X4X4X>X4X4X>X>X",
">X:X>X>X:X[.].].E.:X>X>X2X2X4X4X:X_.>X2X3X3XB + + + + . # z 2.y.a.0.p , k U # . d h.>X>X<X;X3X4X4X4X2X3X4X3X4X2X:X2X4X>X[.[.>X:X",
"4X:X[.>X:X:X:X:X'.'.>X2X>X2X3X2X).:X>X$XJ.J.0 + + + + + + , Z x ( L x A a A t   o v <X>X3X5XqX5X5X2X>X2X4X4X4X4X4X>X_.[.4X4X].>X",
"4X:X:X:X:X>X>X:X>X_.;X>X>X2X2X>X).>X-X%.0 0 + # + + + + # a  .{ {  .e.X.G ' 1   o h !.>X4X2X4XqX5X2X2X3X>X>X2X>X2X).;X3X4X4X>X4X",
"4X4X>X:X:X:X>X>X>X'._.>X2X>X2X'.:X>XD.0 % + + + + + + # = i { V.V.B.B.e.[ ' 1   . # m g.<X3X4X5X5X5X4X>X'.[.:X4X'.'.2X4X4X5X5X4X",
"4X4X4X>X>X>X>X>X>X>XE.:X2X2X^.).2XZ.d % + % + + + % + = & S r.r.t.t. .[ [ A s X   o % 8 &.$X5X3X'.:X2X3X4X4X_._.U.-X2X2X2X4X4X4X",
"4X4X2X2X>X>X>X2X>X2X>XU._.R.;X2X>Xi.% + % = + # & > = - x X.N.t.N. . .o.] S Z $ X @ O $ ; O.T./.3X2X2X2X3X4X4X:X>X>X2X2X2X2X2X4X",
"5X2X2X2X2X2X2X2X2X3X/.>.).4X5X4X2XS.= & = % : = & & # 1 A o.N.r.N.r.N. .o.] s o X o @ O $ 3 5.3X3X4X5X5X5XqX5X(.>X>X2X2X2X3X2X5X",
"qX4X2X2X2X2X2X2X>X'.R.`.4X2X4X5X@XI # = # ; # + o X o , i Z ] {  .o.N.N.N.X.G O X O @ @ @ & g S.3X4X5X5XqX5X5X/./.2X2X2X5X4X5XwX",
"wX5X2X2X2X[.>X>X_.;X2X2X4X4X2X$X~ > 2 ; ; ; : > * # X # $ w w t Z  .N.V.V.o.G .   O O @ @ o > O.,X3X5XqX5X5X5X/.5X].2X2X4X5XqXqX",
"wXqX2X2X5X4X'.'.2X4X4X3X2X2X;X@.3 3 3 3 3 2 3 < 3 > & & ; & $ $ $ w i G H x r - X @ @ @ O O & b P.3XqX5X5X5X5X;X3X:X2X4X4X5XeXwX",
"qXqX2XqXqX>X>X2X5X5X5X3X2X;Xs.8 3 3 3 3 3 3 3 3 > 3 3 & # * ; ; - & @ X # T D ; @ @ o O @ @ & 3 b.>X5XqX5X5X3X>X2X>X3X4X3XqXqXqX",
"qXqXqX5X>X2X3X2X4X5X5X2X>XL.c 3 3 3 3 3 3 3 3 3 3 3 3 3 > & # & ; ; < ; ! +XC # o O @ @ @ O # & -.>X4X2X2X2X4X5X:X2X3X4X3X5XqXqX",
"qX5X5X>X2X4X3X2X2X5X5X>X*X@.9 8 3 3 3 3 3 3 3 3 3 > 3 3 3 9 8 ; $ @ @ & 2.a.! z l 9 $ O o o # # ^ *X>X2X4X2X2X4X2X3X2X2X5X5X5XqX",
"5XqX2X2X4X3X2X3X2XqX5X;XA.m 9 3 3 3 3 3 3 3 3 3 3 3 3 3 3 3 3 f 9 * $ k l.v.#.q.a.a.#.3 # o # # ^ -X2X2X>X>X4X>X>X3X4X3X3X4XqX5X",
"qX4X4X4X4X>X2X2X>X:X:X>X@.g 3 3 3 3 3 3 3 3 3 3 2 3 3 3 3 3 9 4 8 f q.|.M.j.2.a.a.l.v.#.& X @ & +.-X3X4X4X4X4X2X>X2X2X5X4X5X5XqX",
"5X2X3X4X2X4X2X[.:X2X>X!.K g 8 3 3 3 3 3 3 3 3 3 3 3 3 3 3 3 3 9 d 7.|.6XrX9Xa./ V 7.l.z.c X X & -.3X2X>X2X2X4X:X`.>X].4X3X3X5XqX",
"qX4X4X3X4X>X:X2X4X2X3XJ.g f 4 8 3 3 3 3 3 3 3 3 3 3 3 3 3 3 3 8 a.6XXXp.R p._ _ @ 9 y.v.! X @ > x.5X4X2X>X>X2X).2X>X2X4X5X3X5XqX",
"qX5X3X;X].>X2X2X2X4X2XD.K 9 > > 2 3 3 3 3 3 3 3 3 2 3 3 3 3 3 | rXyX+XK r a.E 8 O @ _ z.1.@ & 0 K.qX5X5X2X>X>X_.2X>X2X2X5XqXeXqX",
"qX5X:X].2X2X2X2X2X2X2Xc.b 8 3 3 ; & 3 3 > 3 > ; 3 3 3 3 3 3 l +XyX6XP ; ; 3 @ @ O + L z.7.= - v OXqXeXqX2X2X>X>X[.2X>X4X4XqXqXqX",
"qXqX[.2X>X2X>X>X2X2X2Xp.g 3 3 3 3 & & 3 3 > 3 * 3 3 3 3 3 3 #.rXrX7.3 3 2 3 & o @ 9 $.l.#.# > ~ <XwXwXwX>X>X4X>X:X:X>X2X4XwXqXqX",
"qX;X4X4X>X:X^.>X>X>X<X*.g 3 3 3 3 & @ ; 3 3 > & ; 3 3 3 3 9 {.yX+Xl 3 3 3 3 * @ @ | z.l.V @ < p.4X4XqX5X4X4X>X>X>X].2X2XqX5XqX5X",
"qX:XqX5XqX>X:X>X>X>X%X+.g 3 3 3 2 ; @ # > > y 3 ; 3 3 2 < M rXyXk.3 3 3 3 3 ; @ @ 2.z.7.; X & 6.3XqX3X3X3X2X2X2X>X>X[.4X5X5XqXqX",
"5X>X3X4X5X5X>X>X;X>X$XO.g 3 3 > 3 ; @ @ & * V p._ C f 9 3 _ yXyXl.#.9 3 3 3 ; @ & #.l.P @ @ > c P.K.F.3X3X2X2X2X2X2X;X:XqX5X5XqX",
"qX2X>X2X4X5X2X>X;X>X(.~ f > 3 3 > & @ @ o & _ l.+X6X+X X}.6XyXyXrX Xy 3 3 3 = @ o P 0.d @ @ 3 3 C B n K.qX3X2X2X2X4X2X;X2X4XqX5X",
"qX2X2X2X4X3X3X2X>X;X(.O.f 3 > 3 3 @ @ # o g _ l.XXyXyXyXyXyXyXyXyX|.q 3 3 3 = @ & #.) h.h @ > c $.P B ) 1X4X3X4X4X4X5XqX:X4X5XqX",
"5X4X2X2X4X3X2X[.3X>X(.O.f 3 3 3 & @ = ;.I # 6 U p.7XyXyXyXyXyXyX X` 8 3 3 3 & @ b #.=.$X6.g b g K $.V P c.3X2X3X5XqXqX5X4X;X5X5X",
"qX5X2X2X4X4X[.>X:X>X*X@.f 3 > > $ & -.-X$X8.5 + ; b <.y.a.XXyXyX! < < 3 9 9 & 3 #.^ P.i.Q g g g e $.Q R / %X3XqX5X5XqXqXqX2X;XqX",
"qX4X2X5X2X`.2X2X:X:X*X;.g 3 2 * @ J -X3X2X5Xb.h @ o # ; ; 2.yXyXl.3 3 l | a.z #.! h.F.u.P e R B b b $.P M oX3X5XqXqXqXqX5XqX>X>X",
"qX2XqX5X].2X5X3X2X;X;Xg.c 8 3 & # g.2X3X3XqX5XoXI = $ $ ; C 7XyX9X0.M 2.|. Xa.#.@.,X@X$.$.g ! P g * P B Q %X3X5XqX5X5XqXqXqXqX:X",
">X3XqX;X2X5X4X3X4X:X>XS.B 8 3 & 2 L.3X5XwX4XqXqX1X&.z = 6 j q.rXyXyX7X7XM.n.2.n w.qX5Xs.$.P 4 e ; 7 7 8 @X5X3X3X5X5XqXqX5X5X5X5X",
"qXqXqX2XqX5X-XqX5X>X>XQ.K f 2 & d P.2X3XqX;X5XqX0XK.U < ! <.! 7.+XrXrX X4._ 9 5 x.qX5X@X@.$.g ; 7 7 ; ^ 1X3X2X3X5X5X5XqXwXqXqXwX",
"5XqX0X2XqX<X4XqX4X:X:X;XO.g 3 & 0 P.2XqX3X2XqXqXqXK.U < 3.{.<.3 f V ( n.3.q o q #XqXqX>XA.O.n < < j d.,X3XqX5X3X5XqXqXqXwXqXqXqX",
"4XwXqX2X4X4XqX5X2X:X:X:X:.g 8 & 5 L.3X4X5X5XqXqX0X%XB % T l.T > ; = M l./ % : ~ wXwXqX4X-Xf.b.i.s.@X3XqXqXqX5X4X5XqX5XqXqXqXwXqX",
"4XeXwXqX;XqX5X4X>X:X:X:XL.c 9 % # 9.3X3X5X5XqXqXqX&XU U E D k l C R T ` W D u 7.0XwXwXqX2X/.2X<X<X4X5XqXqX5XqX5X5XqX5XqXqXwXwX5X",
">X4XqX:X5X5X2X4X4X:X:X>XL.6 ; + o > J.3X5XqXqXqXqX1X^ <.n.<.N _ <.j./ M D 0.N K.wXwXwXqX>X^.2X2X4X2X4X5XqX4X3X5XqXqXqX5X5XeXqX>X",
"5X>X>X>X5X2X2X4X4X>X:X:XL.0 < > ; 3 m I.5XqX5XqXqX1X%.m.}.y.D T C z M D T 0.R %XwXeXwX3X[.].2X2X>X4X>X4X2X3X4X5X4XqXqXqX5X4X4X4X",
"qX5X>X5X4X2X2X2X>X>X>X:XJ.v x k k k 9 x.5X5XqXqX5X-X;.n. XXXa.R ~ K.~ l.z.1.5.8XeXwXeX_.:X2X2X2X2X4X>X4X3X4XqXqXqXeXeXeXqX5X5XqX",
"wX5X`.4X4X2X5X3X2X>X>X>XZ.n x k p = 5 b.5X5X5XqXqX[.%.z.|.|.l.D F.5X/ 3.m.` x.wXeXeX5XY.2X3X2X3X5X<X>X4X3XqXqXwXeXeXeXwXqX3XqXqX",
"qXqX'.5X3X2XqX2X2X>X2X2X*X+.n x p % m <X5X5XqXqXqX_.O.d.l.a.<.+.&XqX) W ` E }.eXeX5X`.>X2X3X3X2X5X2X4X4X3XqXqXqXwXeX].eX3X3XqXqX",
"qXqX/.5X2X2X3X3X2X2X2X2X2XoX*.Y v m x.5X5XqXqXqX5X~.5.M.j.D D b.0X1XY 3._ E .XeXwX>X;X4X3X5XqX5X3X3X4X4X4XqXqXqXwXwX;X5X4X3XqXqX",
"wX5X_.3X2X2X5X2X>X2X2X2X4X3X=X@XI.W.<X5X5X5X5X5X-X~.&.M.D.X.E P.qXx.< | j.n w.0XeX>X5X3X3XwXwXqX4X5X4X3X4X3X5XqXwXtXeX3X3X3XqXwX",
"qXqX/.qX2X2X3X3X2X2X3X4X4X4X3X3X5X:X:X4X5X5X5XqX[.L.z 4.{.3.~ &XqXw.- = y < &.8XwX4XqX4X5XtXwXqX3X3X4X3X3X2X3XqXqXeXwXwXqX3XqXwX",
"qXwX'.5X2X2X2X2X>X2X2X4X4X5X5X5X5X`.>XqXqXqX5X>XE.9.p } z.E I 1XqXw.= + - - _ &X-XqX5XqX3XqXwXqX5X3X3X3X4X3X3X5XwXqXwXwXeXqXqXqX",
"wXqX].qX2X2X2X2X>X2X2X2X2X3X4X5X4X2X'.4XqXqX:X).:X9.- 9 n > v &XqXw.< # < r 7 *.d.D.@XqXqX5XqXqXqX5X3X3X4X3X2X2X2X3XwXqXwXqXwXqX",
"qXqX`.5X2X2X>X2X>X2X2X3X4X3X5X3X4X4X:X).>X[._.:X4Xs.% 1 % # *.5XqXw.< % 1 1 1 r t u U @XqX5X4X5X5XqXqX4X5X3X4X2X>X2X3XqXqXqXwXqX",
"qX>X[.qX2X2X>X>X>X>X2X5X5X4X5X5X5XqXqXE.,.E.2X5X5X8.< < $ = h.5X5Xx.7 % $ - u p p p u s.5X5X4X4X5X5X5XqX4X4X4X4X2X>X2X5X>XqXqXwX",
";X2X2XqX2X2X2X>X2X2X5X4X3X5X5XqX5X5X5XR.).2X5X0X5X1.t r - = *.4X5X%X5.K p = 7 t u p 7 s.3X5X5X5X3X5X3XqXqX4X).>X2X2X1X>X'.qXqX>X",
"[.qX2X>X2X>X>X2X2X2X2X2X4XqXqXqX5X5X'.Y.4XqXqXqXqX5.p p u 1 p K.5XqX1X&XOXO.0 3 7 7 j P.3XqX5X5X5X3X5X5X5X5X:X>X3XqXqXqX'.qX2X).",
"qXwX>X>X2X2X2X2X2X2X2X2X5X5X5X5X5X>X).qXqXqX5XqX0Xw.a a p r ; d.qX5XqXqXqX>XQ.h.d.d.P.5X5X5X5X5X5X4X5X3X5XqX5X5X].wXqXqX).;X`.qX",
"qXqX2X>X2X2X>X2X2X2X2X3X4XqXeX2X[.'.5X5XqX5XqX5X5Xd.r p p 7 ; h.5XqXqX0X>X:X>X1X0X5X5X3X3XqXqX5X5X4X5X5X5XqXqX>XR.`.4X_.T.U.4XqX",
"qXwX3X'.2X2X2X2X3X2X5X:X3XqX4X>X'.qXqX5X5X5X5X5X5XOXB 4 > - z I.5XqX5X5XqX5X>XqXqXqX3X5XqX5XqX5X3X3X3XqXwX:X'.E.Y.~._.qX5X>X0XqX",
"qXqXqXR.3X2X2X2X>X>X(.'.2X>X>X[.qXwXqX5XqX5X5X5X5X5XoXs.5.w.I.5X5X5X5XwXwX[.'._.>X>XqXwXqXqX5X4X5X4XqX2X'.].[.5X5XqX>X5X5X>XwX5X",
"wXwXqX[.R.U./././.;XqX5X3X2X[.wXwXeXwXqXqX5X5X5X5X5X5X1X5X5X5X4X4X5X5X5X'.qX0X5X2X;X2XwXqXqXqX2XwX5X].[.4XqXqXwXqXqX5X5X>X>XtXwX"
};
