/* XPM */
static char *result[] = {
/* columns rows colors chars-per-pixel */
"64 64 221 2 ",
"   c #0D0C0D",
".  c #100E0F",
"X  c #110F11",
"o  c #151314",
"O  c #181617",
"+  c #1A1817",
"@  c #191619",
"#  c #1C1A1B",
"$  c #221D1E",
"%  c #1E1D20",
"&  c #221D21",
"*  c #311B25",
"=  c #252224",
"-  c #2A2324",
";  c #2B252A",
":  c #262829",
">  c #2E292D",
",  c #332627",
"<  c #312A2D",
"1  c #3A2E2D",
"2  c #3A302F",
"3  c #2D2E33",
"4  c #322C31",
"5  c #3B2A32",
"6  c #2E3134",
"7  c #363135",
"8  c #3A3335",
"9  c #34373A",
"0  c #3C353A",
"q  c #36393E",
"w  c #3D393C",
"e  c #43322F",
"r  c #422B36",
"t  c #433534",
"y  c #463937",
"u  c #443839",
"i  c #4C3D39",
"p  c #533E3A",
"a  c #4E413C",
"s  c #53433E",
"d  c #59423D",
"f  c #3B3C41",
"g  c #443E44",
"h  c #4A3B46",
"j  c #454144",
"k  c #4B4344",
"l  c #45464A",
"z  c #4B454B",
"x  c #4D4A4C",
"c  c #5A4643",
"v  c #534B4C",
"b  c #4C4E52",
"n  c #534C53",
"m  c #544954",
"M  c #4B5257",
"N  c #555155",
"B  c #52535B",
"V  c #59555A",
"C  c #56585B",
"Z  c #5D595C",
"A  c #654C46",
"S  c #6C564E",
"D  c #72554E",
"F  c #62595B",
"G  c #775952",
"H  c #7A6154",
"J  c #4E5B65",
"K  c #555C63",
"L  c #5B5C62",
"P  c #635D62",
"I  c #655E6D",
"U  c #5C6166",
"Y  c #5D646B",
"T  c #5E6972",
"R  c #646166",
"E  c #6B6365",
"W  c #65656C",
"Q  c #6B656A",
"!  c #6E696E",
"~  c #736B6B",
"^  c #7B716F",
"/  c #6B6D72",
"(  c #686874",
")  c #726D72",
"_  c #746B7F",
"`  c #6A7179",
"'  c #747175",
"]  c #797475",
"[  c #73757B",
"{  c #7A747A",
"}  c #757A7E",
"|  c #7E797D",
" . c #82655B",
".. c #886E63",
"X. c #96776A",
"o. c #877975",
"O. c #9E8275",
"+. c #A5826B",
"@. c #A7887A",
"#. c #786D82",
"$. c #6B7A85",
"%. c #747B82",
"&. c #7A7883",
"*. c #837D82",
"=. c #897F81",
"-. c #867D96",
";. c #748188",
":. c #7B848C",
">. c #7B8994",
",. c #7B929E",
"<. c #7595A4",
"1. c #6ABFF5",
"2. c #7CC9FA",
"3. c #868185",
"4. c #88868A",
"5. c #8C868A",
"6. c #92898C",
"7. c #838C94",
"8. c #8C839D",
"9. c #928C92",
"0. c #988F92",
"q. c #82919A",
"w. c #8E959A",
"e. c #969296",
"r. c #9A959A",
"t. c #9D9A9D",
"y. c #AF8F80",
"u. c #B49484",
"i. c #B89787",
"p. c #BC9C8C",
"a. c #A29A9E",
"s. c #8E9AA3",
"d. c #899AA7",
"f. c #9E96A0",
"g. c #959DA4",
"h. c #A39DA2",
"j. c #9AA1A7",
"k. c #95A2AA",
"l. c #8FA5B2",
"z. c #98AAB4",
"x. c #A7A3A7",
"c. c #ACA5AC",
"v. c #AEA8AD",
"b. c #B2AAAE",
"n. c #A2ACB4",
"m. c #B2ADB2",
"M. c #A5B3BB",
"N. c #AEB6BE",
"B. c #B6B1B5",
"V. c #BEB7BC",
"C. c #C2A290",
"Z. c #C0B9BE",
"A. c #98B6C7",
"S. c #A2B8C5",
"D. c #ABBAC3",
"F. c #B2BEC6",
"G. c #C2BDC2",
"H. c #9CC0D5",
"J. c #A9C0CD",
"K. c #BAC4CC",
"L. c #AACBDC",
"P. c #B8CCD7",
"I. c #BFD1DC",
"U. c #98CFEF",
"Y. c #88CEF8",
"T. c #8CD5FB",
"R. c #95D7FA",
"E. c #9CDCFB",
"W. c #ACCEE1",
"Q. c #B3D3E5",
"!. c #BDD8E7",
"~. c #A4DDFB",
"^. c #AADDFA",
"/. c #B3DFF9",
"(. c #A6E0FB",
"). c #ACE2FB",
"_. c #B4E4FC",
"`. c #BBE6FC",
"'. c #BEE8FC",
"]. c #C5C0C5",
"[. c #C8C3C7",
"{. c #CBC5CB",
"}. c #CDCACD",
"|. c #D0CECF",
" X c #C1CED6",
".X c #D0CDD0",
"XX c #C4D4DE",
"oX c #CAD4DC",
"OX c #D4D2D4",
"+X c #DCDADC",
"@X c #C7D8E3",
"#X c #C4DCEA",
"$X c #CBDEEB",
"%X c #D1DDE7",
"&X c #CDE2ED",
"*X c #D4E3EE",
"=X c #D9E5EE",
"-X c #C4E3F3",
";X c #CBE5F3",
":X c #CFE9F7",
">X c #C2E6FB",
",X c #C4E9FC",
"<X c #CCECFD",
"1X c #D4E6F1",
"2X c #D5E9F5",
"3X c #DBEAF4",
"4X c #D3EEFD",
"5X c #D9EFFD",
"6X c #D6F0FD",
"7X c #DCF1FE",
"8X c #E4E3E4",
"9X c #E6E7EA",
"0X c #EDECED",
"qX c #E1EEF8",
"wX c #F0EFF0",
"eX c #E7F0F7",
"rX c #E3F3FD",
"tX c #EAF6FD",
"yX c #EEF8FE",
"uX c #F3F7F9",
"iX c #FCFCFC",
/* pixels */
"rXrXtXyXyXyXtXtXtXrXrXrXrXrXrX7X7X7X7X7X6X6X,X<X6X3X=X3XI.J.M.z.z.M.;./ k.;X<X<X>X`.4X4X4X5X4X6X7X4X6XrX7X7X6X6X6X7X<X,X`.7X7XtX",
"tXrXrXrXtXrXtXrX5X5XtXtXrXrXrXrXrXtXyX7X7X<X6X2XM.R Z U | ] ] ] L R 8 < 8 >.,X,X<X'.'.4X4X'.'.).<X4XrX4X6X4X7X7X6X7X<XtXtXrXtXrX",
">X`.,XrXrXrXrXrXtX7X4X5X4XrXtXyXyXrX7X7X7X6X6XJ.x y t , ~ t.Q c.9.w a a a b &X<X<X5X6X<X<X,X<X,X_.4XrXrX7X4X6X5X<X6XrXrXrXrX7XrX",
"6X6X4X_.5X`.E.~.rXrXrXrX5X<X7XtX7X7X7X6X6X<X:X;.k y  .H V Z.3.a.B.] b v y l !.,X<X4X<X<X<X6X6X4X,X,X'.<X5X6XrXrXrXrX7X7X7X7XrX'.",
"6X4X<X,XR.`.'.'.R.).<X4X4X<X<X4X6X6X6X6X4X4X&X/ t c +.X.O.K.].].V.6.! R > ;.6X6X<X,X,X_.<X<X4X4X6X6X`.<X6X4X6X7X7XrX7X7XrX7X<X,X",
"<X<X,X>X`.`.'.'.`.^.`.,X,X<X4X4X<X6X6X4X<X6X:X:.8 y  .S 6.G.].}.G.{ F ) U &X:X<X<X<X<X<X_.<X4X4X4X6X).<X<X6X6X6X7X7XrXrXrX6X).<X",
"<X,X,X>X`.'.'._._.`.).,X,X<X4X<X,X,X<X,X6X7X6X@XU $ - Z 0.O.t.}.}.*.N ~ R :.-X<X<X4X<X4X>X`.,X4X4X4XE.<X<X4X6X6X6X7XrXrXtX,X<X<X",
",X4X<X<X<X_._.E.`.`.'.<X<X4X4X4X<X<X<X<X3X6X6X6X` , x h.v.~ ^ ].{.B.] ~ Z l l.>X<X<X4X4X4X`.'.4X6X`._.4X<X4X6X4X6X6X7X7X6X6X<X<X",
"6X<X<X<X'.'.).~._._.,X<X7X,X6X6X7X4X<X4X6XXXF.:.- = k b..Xh.r.G.V.F.c.9.) w M Q.,X4X4X6X4X5X`.R.R.,X4X4X<X<X<X4X6X6X6X7X6X6X<X<X",
",X<X<X<X'._.`.(._.`.,X4X<X4X4X6X6X6X<X4X:XY : % + o : ) m.G.{.{.Z.O.E / V $ # T -X<X5X6X4X4X).R.<X7XrX7X6X6X6X4X6X6X6X,X6X<X,X<X",
",X,X<X,X,X_._._.(.'.<X<X4X4X6X6X6X).<X6X&XM + + + + o . , P *.r.&.u , 7 F ,   = $.#X4X5X5X/.^.7X6X6X6X7X6X6X6X4X6X6X6X<X6X6X<X<X",
"<X,X<X<X,X'.`.`.E.'.<X<X<X4X5X6X,X).S.q.,.= + + + + @ @ e G S ] E D  .A D d   . f I.<X<X4X-X5X6X6X6X4X5X5X4X6X<X,X4X6X<X`.'.<X,X",
"6X,X'.<X,X,X'.'._._.<X<X4X4X4X5X(.Q.K : = # + + + + + # i X.y.@.@.p.u.H  .p   . 9 K.5X<X5X7X7XrX7X4X<X4X6X6X6X6X4X<X).,X6X6X'.:X",
"6X,X,X,X,X<X<X<X<X).,X:X<X4X4X<XU.;.6 + + + + + + + + $ A X.p.C.C.C.O. .G d . X # b d.;X6X4X7XrX7X4X6X4X:X<X<X6X4X^.,X6X6X6X:X6X",
"6X6X<X,X,X,X<X<X4X_.).<X<X4X4X).,.9 = $ $ + + # $ + $ - G i.p.C.u...X.X.D A $ . O & 3 ` @X5X5X7X7X5X6X4X_.>X<X6X_._.4X6X6X6X6X6X",
"4X6X6X<X<X<X<X<X<X<XE.,X4X4X~.(.q.% + # : + $ = : = - S u.p.p.p.O.@.@...D A $ . O O # = U !.3X4X_.,X4X4X4X6X(.).Y.<X4X4X6X6X6X6X",
"6X4X4X4X<X<X<X<X4X<X2XY.).R.'.2X,.: = = & = # % % * t d X.p.@.p.i.p.@.i.X.D @ . @ O @ @ 3 ( U._.2X6X4X4X4X6X7X>X<X<X4X4X4X4X5X4X",
"7X6X4X4X4X4X4X4X4X4X^.1.~.6X6X@XC # % @ = # O o X o 1 d p D ....@.C.C.p.@. .$ . O O @ @ # 4 g.4X6X6X7XrX7XrX7X/.<X<X4X4X5X4X4X7X",
"tX6X4X4X4X4X4X4X<X_.R.`.6X6X&XU > 4 > 4 > < > ; @ o & & t y e p G @.p.C.@.D O   O O @ @ @ : m #X7X6X7X7XrX7X7X^.^.<X4X4X7X6X7XtX",
"rXrX4X4X4X>X<X<X^.>X5X4X6X-X` > 4 3 4 > 4 > 4 4 > % & * - $ $ , e e d A p e > o @ O @ @ @ # g z.5X5X7XrX7X7X7X^.rX'.4X4X6X6XrXtX",
"tXrX4X4X7X6X_._.4X5X5X5X;X,.7 4 4 4 4 4 4 4 4 4 > 4 & & & > > * = & $ & E R 4 # @ O O @ @ @ 4 $.4X5XrX7X7X7X7X>X6X,X4X5X5X7XyXrX",
"rXrX4XrXrX<X<X5X5XrX7X4XS.h 4 4 4 4 4 4 4 4 4 < 4 4 4 < * % % & - > < V }.{ $ O O O @ o @ @ ; T 4X4XrX7X7X7X5X<X4X<X4X7X5XrXrXtX",
"rXrXrX7X<X4X4X4X5X5X5X$XW f 4 4 4 4 4 4 4 4 4 4 4 4 4 4 7 0 > & # # # Q t.Q F n g : @ O o # & ( 4X4X6X4X4X4X6X7X,X5X4X6X5X7XrXrX",
"7XrX7X<X4X6X5X4X4X5X5Xl.h 4 4 4 4 4 4 4 4 4 > 4 4 4 4 4 4 3 0 0 < $ g e.x.{ f.c.x.e.l o o # % $.4X4X<X4X6X4X4X6X<X5X4X5X6X7XrX7X",
"7XrX4X5X6X5X5X4X4X7X&XW h 4 4 4 3 4 4 4 4 4 4 4 4 4 4 4 4 0 8 4 h t.OX[.B.5.a.a.c.c.r.4 o @ = &.6X4X4X4X<X4X6X4X<X5X6X5X5X7XrX7X",
"rX6X4X6X4X<X4X4X<X<XJ.B h f 7 4 4 4 > 4 4 4 4 4 4 4 4 4 4 4 8 g 9.{.+X9X9Xx.| n &.c.v.Q o o 3 &.4X4X6X6X4X6X<X6X<X5X6X6X4X7XrXrX",
"6X5X6X6X4X6X4X'.,X4XA.z 0 4 h 4 4 4 4 4 > 4 4 4 4 4 4 4 < 4 8 c.0X=Xa.V e.*.*.= * 4.v.9.@ # 9 d.4X7X6X<X4X4X4X,X`.<X`.6X5X5X7XrX",
"rX6X6X5X5X<X,X4X4X4XM.N f ; * < > 4 4 4 4 4 4 4 4 4 4 4 < 7 { wXiX+XF 8 9.! < @ o P v.h.> * f H.eXrX6X4X<X<X<X(.4X4X:X6X7X5X6XrX",
"rX7X5X>X`.<X4X4X4X4Xg.m 0 4 4 ; & ; 3 < < < ; 4 4 4 4 4 4 h OXiX9XI > - ; @ o @ X m c.h.w > J ;XrX7XrX6X<X6X<X).4X<X4X4X7XrXyXrX",
"rXrX,X'.4X4X4X4X4X4Xs.m 7 4 < 4 & # > 4 4 4 * 4 4 4 4 4 ; -.iXuXe.4 4 4 4 - @ @ f =.v.5.7 > ,.7XrXrXyXrX4X4X<X<X'.4X<X4X6XrXrXrX",
"7XrX'.4X<X4X<X<X4X4Xs.m 4 4 4 4 < @ & 3 < 4 # < 4 4 4 4 7 [.iX8Xz < 4 4 4 ; @ @ Q v.c.P = 9 H.6X7XtXtXrX<X4X4X<X,X,X<X4X6XtXrXrX",
"rX>X5X6X<X,X~.<X<X<Xs.h 7 4 4 4 < % o * 4 4 f ; 4 4 4 > N 8XiXx.8 4 4 4 4 ; @ # ) c.e.3 o : S.eX5X6XrXrX6X<X4X<X<X'.4X4XrX7X7XrX",
"rX,X7X7X7X4X<X<X<X<Xg.m 7 4 4 4 > @ @ @ # n h.r.{ Z x z 4.wXiX[.h.j 4 4 4 - # % ! x.Q @ & 7 #.*XI.1X7XrX5X4X4X<X4X<X'.6XrXrX7XrX",
"rX<X7X6X7X6X<X<X<X<Xz.m 7 4 < 4 - @ @ o 0 *.c.+XiX9X8X+X0XiXiXiX+Xz 4 4 4 > @ @ z 9.> @ & > f W M 7.rX7X7X5X4X4X<X4X>X,X7X7XrXrX",
"rX<X<X4X5X6X4X<X,X,XA.m 7 4 4 > % @ & % 4 Q h.{.uXiXiXiXiXiXiXiX}.j 4 4 < ; @ & { _ :.= > g I #.V C @XrXrX6X4X4X6X6X4X>X<X7X7XrX",
"rX5X4X4X5X7X4X4X<X,XA.m g 4 4 > % & :.,.3 & x | [.wXiXiXiXiXiXB.! 4 4 4 < & o z &.( 7.B m h h -.Z V g.qXrX6X5X6X6X6X7XrX,X6X7X7X",
"7X6X4X4X6X3X6X'.5X<XL.K h 4 4 ; @ Y -X:XD.M # # < N ! ~ m.iXiX3.4 4 4 7 z 7 7 *.b #.W r m m r ( ( P / %XrX7X5X5X7X7XrX7X6X,X6XrX",
"rX7X4X4X5X4X'.<X,X<X#XL h 4 > & % l.4X4X2X$X` = # # ; > ' wXiX}.z < z h.{._ 9.{ >.8.#.r Q V F h -.P I K.rXrX5XrXrX7XrXrXrX4X>XrX",
"rX6X4X5X4X`.4X5X,X>X>X$.h 7 > & = L.4X4X4X4X3Xs.9 # # = g |.iXiX|.4.f.OX{.h.{ [ 1X-.-.v I ~ i * #.I z K.rXrX5X7XrXrXrXrX7XrX<X4X",
"rX4XrX7X`.4X5X4X4X>X>Xd.m 7 < & 9 #X5X5X4XrX7X5Xg.j > j n { 8XiXiXuX9Xm.h.| g :.rXD.-.I 5 5 < 8 0 f F.qXrXrX5X7XrX7X7XrXrX7XeX>X",
"<X4XrX,X4X6X4X5X4X<X,XW.m g 4 & f #X5X7XtX6XrXrXN.v 6 3.a.] N t.Z.|.}.5.! : O n.tX=X%.8.7 0 w < = %.rX7XrX7X5X5X7X7X7XrXrX7X7X7X",
"rXrXrX<XrXrX;XtXrX<X<X>X` g 4 & 3 !.4X5XrX>XrXrX Xb - a.}.] ; 7 8 z t.3.w + l oXrXeXM.W q > < B k.%XrXrX7X5X4X5X7X7XrXrXrXtXrXtX",
"rXrXeX4XrX4X6XrX6X,X,X,Xl.h 4 & # J.6XrX5X6XrX7X*X/ w P o.j ; < > x e.~ 8 - | 3XrXrX2XP.A.$.D.5X7XrXrXrXrX5X7X5X7XrXrX7XrXrXtX7X",
"5XtXrX6X4X6XrX7X4X,X,X,XL.K f & o J ;X5X7X7XrXqX=X} | r./ v Z ' e.3.| Z 3.Z j.eXtXtXrX4X4X/.5X7X7XrXrXrXrXrX6X5X7XrX7XrXtXtXtX7X",
"6XuXrXrX,XqX7X6X<X<X,X,XW.b : + O = ;.&X7XrXrX7X=X4.v.].3.v ] R L v 8 v e.' K.tXtXtXtX5X5X^.4X4X5X7XrXrXrXrX7XrX7XrX7XrX7XtXtX6X",
"4X6XrX,XrX5X4X4X4X,X,X,XQ.B : - < 8 < s.7X7XrXrX3Xj.V.}.Z.] E C 7.R 6.e.6.' =XtXtXtXtXrX<X).4X4X4X4X4X6X7X7X5X7X7XrXrX7X7XyXrX6X",
"6X<X<X<X7X4X4X6X4X<X<X,XQ.Y k k k a 0 U 7X7X7XrXqXn.m.}.|.a.E 4.%X' e.G.4.;.tXyXtXtXyX5X'.`.4X4X4X4X4X4X4X6X6X7X7XrXrXrXrX6X<X6X",
"tX7X<X7X6X4X6X4X4X<X,X,XQ.R v k k < $ 7.rXrX7XrX7Xs.r.V.].r.W XX3X} ' 6.{ j.eXyXyXyXtX_.,X4X4X4X4X4X4X4X5X6XrXrXrXyXyXyXrX7X6XtX",
"rX7X`.5X6X4X7X6X4X<X<X<X:Xg.N v x > : P.7XrXrXrX*Xq.m.6.] ) ;.3X3X} 3.^ R N.tXyXyXtX7XT.4X5X4X5X6X4X<X4X7X7XrXtXyXyXyXtXrX5XrXrX",
"rXrX`.6X5X4XrX4X<X4X<X4X4X<Xg.` C C >.1X7X7XrX7X*X>.F.B.E P M.eXoXl | x.Q x.tXyXyXrX`.<X5X5X5X4X7X4X4X5X7XrXrXtXtXtX`.tX5X5XrXrX",
"rXrX^.7X5X4X7X6X4X<X4X4X5X5X4X4XL.L.3X7X7X7XrXrX*X$.B.G.9.W %XrXN.# a ' j L eXyXyX<X>X6X5X5XrX7X5X4X5X5X5X5XrXtXtXyX>XrX5X5XrXrX",
"tX7X/.4X4X4X5X4X4X4X4X5X5X6X5X7X6X_.6X7X7XrX7X7Xz.8 6.Z.| / 7XrXN.: + , 2 W eXyXuX<X6X5X5XtXtXrX6X5X5X5X5X5X7XrXtXyXyX5X5X5XrXtX",
"rXrX/.7X4X4X5X5X4X4X4X6X6X5X6X7XrX,X,X6XrX7X7XrX;.< P 0.v b rXrXM.= O - , v oX9XeX7XrX7X7XyXtXrX5X5X5X5X5X4X5XrXtXyXrXtXrX7XrXtX",
"rXtX_.7X4X4X5X4X<X4X5X5X6X7X5X7X6X'.<XrX7X7X7X,X<.< 2 < & C 7X7Xj.- $ , y 1 x Z Y z.3X5X5XrXtXrXrX5X4X5X5X5X6X6XrXrXtXtXyX7XrXrX",
"rXrX`.rX4X4X4X4X<X4X4X4X4X5X6X7X6X:X`.6XrXrX:X(.<.= , = o w.7XrXM.< $ - ; 2 a a i k n.7XrX7XrXrXrX7X5X5X6X5X5X4X5X4XtXtXyXrXtXrX",
"tXrX`.7X4X4X<X<X<X4X4X5X6X7X5X7X6X7X,X(.,X'.).,X:.y 2 - O k.rX7X Xy $ + - y a a s i } rXrX7X5X7X5XrXrX7X6X5X6X4X4X4X5XrX7XrXrXtX",
"rX<X`.rX4X<X<X<X<X<X4X7X7X7X6X7X6XrXeX~.2.E.<X7X:.t y < - L *X7X7XP.k.} w : 1 8 8 8 7.3XrX7X5X5X6X7XrXrX7X6X<X6X4X<X4XrX<XrXrXtX",
">X4X4XrX4X4X4X<X4X4X6X5X5X7X7XrXrX7X6XR.(.<XrXrXw.a c a t 4 s.7XrXeXrXrXK./ l l l U XX6X7X7XrX6X7X5X5XrXrX6X(.6X4X4X3X<X_.rXrX<X",
"'.rX4X<X4X4X4X4X4X4X4X4X6XrXrXrX7X7X_.T.6XrXrXrXt.y s a t 4 :.rX7XrX7XrXrX-XI.XXXX*XrX7X7XrX7X7X5X7X7X7X7X7X,X<X5XrXrXrX_.rX<X).",
"rXtX<X<X4X4X<X4X4X4X4X4X7X7X7X7X7X,X(.rXrXrX7XrXN.8 y y 2 < w.7XrXrXrXrXrX<X'.6X3X4XrX7X7XrX7X6X5X6X6X7X7XrX7X7X'.rXrXqX(.>X`.rX",
"rXtX<X<X4X4X<X4X6X4X4X4X6XtXyX4X'._.7X7XrX7X7XrX3X:.w 6 3 ` &X7X7XrX7XtX6X<X:X7XtX7XrX6X5XrXrX7X7X5X6XrX7XrXrX,XR.`.6X_.T.Y.7XeX",
"rXtX5X_.4X4X4X4X4X6X6X;X6XrX4X<X`.rXrXrX7X7X7X7X7X2XXXXXXX*X7X7XrXrXrX7X7X6X,XrXrXrX6X6XrX7XrX7X7X5X5X7XtX<X_.E.T.^.).6X7X:XyX7X",
"rXrXrXR.4X4X4X<X4X<X/.`.4X4X<X'.rXrXrX7XrX7X7X7X6XrXrX7X7XrX7X7X7X7X7XtXtX'._.).<X<XrXtXrXrXrX6X7X6XrX4X_.'.,X7X7XqX<XeX7X,XeXrX",
"tXtXrX'.R.U.^.^.^.>XrX7X4X4X'.rXtXtXtXrXrX7X7X7X7X7X7XrX7XrX7X6X6X6X6X7X_.eXtXrX4X>X4XtXrXrX7X4XtX7X`.,X<XrXrXrXrXrX7XrX<X<XyXtX"
};
