/* XPM */
static char *result[] = {
/* columns rows colors chars-per-pixel */
"64 64 211 2 ",
"   c #060707",
".  c #0D0C0D",
"X  c #120F0F",
"o  c #110F10",
"O  c #151314",
"+  c #181617",
"@  c #191817",
"#  c #191618",
"$  c #1C1A1B",
"%  c #221E1E",
"&  c #26201F",
"*  c #221E21",
"=  c #2C1A21",
"-  c #1F2020",
";  c #252224",
":  c #2B2425",
">  c #252629",
",  c #2B252A",
"<  c #2D292C",
"1  c #352627",
"2  c #312A2D",
"3  c #3B302C",
"4  c #2C2B30",
"5  c #322C31",
"6  c #3A2C32",
"7  c #2F3234",
"8  c #353235",
"9  c #3A3335",
"0  c #35353A",
"q  c #3C343B",
"w  c #3D393C",
"e  c #412E34",
"r  c #443634",
"t  c #483536",
"y  c #463937",
"u  c #433B3C",
"i  c #4B3D3A",
"p  c #513C38",
"a  c #4E403C",
"s  c #56433E",
"d  c #3C3B41",
"f  c #433C42",
"g  c #493F48",
"h  c #3C4247",
"j  c #454144",
"k  c #4C4445",
"l  c #444349",
"z  c #4B444B",
"x  c #46494D",
"c  c #4D494C",
"v  c #564947",
"b  c #4C4B54",
"n  c #534C53",
"m  c #544A54",
"M  c #4D5458",
"N  c #535154",
"B  c #5C5556",
"V  c #55535B",
"C  c #5A565A",
"Z  c #54595D",
"A  c #5F5A5E",
"S  c #6B524B",
"D  c #6D5049",
"F  c #63595D",
"G  c #765B53",
"H  c #796258",
"J  c #475661",
"K  c #575B64",
"L  c #5D5B62",
"P  c #635E63",
"I  c #695F65",
"U  c #5D646A",
"Y  c #646165",
"T  c #64646B",
"R  c #696569",
"E  c #6B656A",
"W  c #6B696D",
"Q  c #746969",
"!  c #656774",
"~  c #656D74",
"^  c #696D74",
"/  c #726E73",
"(  c #756F78",
")  c #69727A",
"_  c #767578",
"`  c #7A757A",
"'  c #7D797D",
"]  c #855E57",
"[  c #84665A",
"{  c #856C63",
"}  c #8D7166",
"|  c #95776B",
" . c #837A7A",
".. c #9B7F73",
"X. c #A17C6C",
"o. c #AA866F",
"O. c #A88A7B",
"+. c #6E7B84",
"@. c #7A7786",
"#. c #727B82",
"$. c #837D83",
"%. c #82788E",
"&. c #857A93",
"*. c #778188",
"=. c #7B848C",
"-. c #7A8791",
";. c #7F94A5",
":. c #6ABFF5",
">. c #7CC9FA",
",. c #868285",
"<. c #8A8387",
"1. c #82868B",
"2. c #8B858A",
"3. c #8D898E",
"4. c #908A8D",
"5. c #878696",
"6. c #938C93",
"7. c #84929C",
"8. c #8C959B",
"9. c #89949C",
"0. c #9A9498",
"q. c #9B959B",
"w. c #B29383",
"e. c #BD9D8C",
"r. c #A99690",
"t. c #8898A2",
"y. c #969AA3",
"u. c #A39DA3",
"i. c #96A2AB",
"p. c #92A7B4",
"a. c #9EABB4",
"s. c #97ABB8",
"d. c #A6A4A8",
"f. c #ACA5AB",
"g. c #AEA9AD",
"h. c #B2AAAE",
"j. c #A3AFB8",
"k. c #B4AEB3",
"l. c #A5B2BC",
"z. c #A8B1B9",
"x. c #B8B2B7",
"c. c #BBB5BA",
"v. c #BEB9BD",
"b. c #C1A18F",
"n. c #C6A695",
"m. c #C1BABF",
"M. c #AABBC6",
"N. c #B2BEC6",
"B. c #C3BEC3",
"V. c #9AC5DC",
"C. c #ADC1CD",
"Z. c #B4C3CD",
"A. c #BBC6CE",
"S. c #A9C7D8",
"D. c #B4C6D1",
"F. c #B3C9D5",
"G. c #BACBD5",
"H. c #B4CFDD",
"J. c #BCCED9",
"K. c #BCD1DD",
"L. c #88CEF8",
"P. c #94CFF8",
"I. c #8CD5FB",
"U. c #95D7FA",
"Y. c #9CDCFB",
"T. c #A8D0E5",
"R. c #BBD5E4",
"E. c #BAD8E9",
"W. c #A4DDFB",
"Q. c #AADDFA",
"!. c #B3DFF9",
"~. c #A5E0FC",
"^. c #ACE2FC",
"/. c #B4E4FC",
"(. c #BBE6FC",
"). c #BEE8FC",
"_. c #C6C1C6",
"`. c #CBC5CB",
"'. c #CDCACD",
"]. c #D1CFD1",
"[. c #C3D2DC",
"{. c #DAD8D9",
"}. c #CBDAE5",
"|. c #C8DAE6",
" X c #C6DDEB",
".X c #D1DBE0",
"XX c #CDE1EE",
"oX c #D7E4ED",
"OX c #C4E3F5",
"+X c #CBE5F4",
"@X c #C3E6FB",
"#X c #C4E9FD",
"$X c #CCECFD",
"%X c #D3E6F2",
"&X c #D9E7F1",
"*X c #D4E9F5",
"=X c #DBEAF5",
"-X c #D3EEFD",
";X c #D9EFFD",
":X c #D6F0FD",
">X c #DCF1FE",
",X c #E2E1E3",
"<X c #E8E6E8",
"1X c #EDECEC",
"2X c #E2EFF9",
"3X c #E3F3FE",
"4X c #EAF6FD",
"5X c #EEF8FE",
"6X c #F4F4F4",
"7X c #F3F9FE",
"8X c #FCFCFC",
/* pixels */
"3X3X4X5X7X5X5X4X4X4X3X3X3X3X>X>X3X>X3X>X:X:X#X-X:X3X3X3X:X*XXXK.F.F.J.F.i.a.|.#X@X(.-X-X-X:X:X:X:X;X:X3X>X>X:X:X:X>X$X#X(.>X:X5X",
"4X3X3X3X4X3X3X3X;X;X4X4X3X3X3X4X3X4X3X>X>X$X-X:X>X3Xl.1.9.8.*.*._ L Y Z & < J R.$X).(.-X-X).(.^.$X-X3X-X>X-X:X>X>X>X$X4X4X3X4X3X",
").(.#X3X3X3X3X3X4X>X-X-X;X3X4X4X3X3X3X>X:X:X-X>X;X9.z u 9 k 0._ 3.1.R k w s 9 t.$X>X:X$X$X#X#X#X/.-X3X>X>X-X:X;X$X:X3X3X>X4X>X4X",
"-X>X:X^.;X(.Y.W.3X3X3X3X;X$X>X4X>X>X>X:X;X-X-X-XF.N i a S 3 u.r.O.z.3.w a v 9 *.$X$X-X$X-X:X>X-X#X#X#X$X:X:X3X3X3X3X>X>X>X>X>X(.",
";X-X$X#XU.(.#X(.U.^.$X-X$X$X$X:X>X:X>X-X:X*X:X:XM.g i [ o.H u.B.f.m.d.' Y a < s.$X#X#X/.$X-X-X-X:X:X/.:X:X-X>X:X>X3X3X>X3X>X$X).",
"$X$X#X).(.(.(.).(.Q.(.#X#X$X-X-X$X:X:X$X$X:X:X:XN.u y H ..G m.`.`.'.u./ R C ) ).$X$X$X#X/.$X$X-X:X:X^.$X$X:X:X:X>X>X>X>X3X>X^.-X",
"$X@X#X#X(.(.(./././.^.#X#X$X-X$X#X#X$X#X:X>X:X>X+X^ : , 3 _ u.f.m.'.h.F Y W ' E.$X-X:X$X@X(.#X-X-X-XY.$X$X-X:X-X:X>X>X4X3X#X$X#X",
"$X-X$X$X$X/./.Y.(.(.).$X$X-X-X-X$X$X$X$X;X:X>X>X;XM.f : F g.` Q h.'._.E Y R b *.OX$X$X:X*X(.(.-X:X/./.-X$X-X-X:X:X:X>X3X:X:X-X$X",
":X$X$X$X).(.^.~././.#X$X:X#X:X:X>X-X$X:X:X:X>X>X+X*.a : Q B.x.Q r.'.B.c.,.' N h s.$X:X:X-X-X(.P.U.#X-X-X$X$X$X-X:X:X:X>X$X:X$X$X",
"#X$X$X#X).(./.^./.(.#X:X$X-X-X:X:X:X$X:X:X:XK.^ Z - O & / B.`.h._.`.h.f.0.,.z $ M F.-X>X;X-X^.Y.-X:X3X3X:X:X-X-X:X:X:X$X:X$X#X$X",
"#X#X$X$X#X(././.~.).$X$X$X-X:X:X:X^.#X-X:X:Xa.> @ @ @ O - N 4.g.x.k.0.u u B v X @ ) K.;X*X/.Q.;X:X-X:X>X:X:X-X-X:X:X:X$X:X:X:X$X",
"$X#X$X#X#X(.(./.W.).$X$X-X-X;X>X#X^.$X-X|.XX*.- $ @ @ @ O X r s E ` B s p a S = . @ ) OX-XOX;X>X-X:X-X;X:X-X:X-X$X$X:X$X).(.$X).",
":X#X#X$X#X#X@X#X/./.$X-X$X-X-X-X~.#X$XH.M Z 7 @ @ @ @ @ @ & [ | H { } O.} S ] 1   O ~ ).:X:X>X3X>X-X$X-X:X:X:X:X$X$X^.#X:X:X).$X",
":X#X#X#X#X$X$X#X$X^.#X$X-X-X-X$X~.$X+X-.> - @ @ @ @ @ @ $ & G O.n.n.b.b.O.G ] % . O h M.*X-X>X>X>X-X:X;X$X$X-X$X:XQ.#X;X:X:X+X:X",
":X:X$X#X#X#X$X$X$X/.^.$X-X$X-X^.$X+X+.7 $ $ @ @ @ $ @ @ & : } O.b.e.e.| { G D e   o @ 0 #.|.-X3X>X>X;X$X/.@X$X:X/./.-X:X:X:X:X>X",
":X:X:X$X$X$X$X$X$X$XY.#X-X-XW.^.:XE.h & @ & & @ $ > > - 1 D O.e.b.e.....O.} D v o O @ $ > K G.$X/.#X-X-X-X-X^.^.L.$X-X-X-X:X:X:X",
"-X:X-X-X$X$X$X$X$X-X$XL./.U.#X-X$XE.h $ $ - $ ; * , * : t X.b.b.e.w.O.w.| | G r o O # # $ * J V.*X:X$X:X;X:X>X@X$X$X-X-X-X-X-X-X",
":X-X-X-X-X-X-X-X-X;XQ.:.Y.:X:X>X-XR.h $ ; ; ; $ o # O 1 p v | O...w.e.e.e.w.| s . o # O # # < ) XX>X>X>X>X3X>X!.$X$X-X-X-X-X:X>X",
"4X:X-X-X-X$X-X-X$X/.U.(.:X:X>X>X|.U ; ; * * ; ; * O O O 1 s p s G { w.b.b.e...D . o # # # # $ d l.;X>X3X>X>X>XW.Q.-X;X-X>X:X>X4X",
"4X>X-X-X-X#X$X$XQ.@X-X-X:X:X:X+X) < 5 5 5 2 5 < 5 , $ # = * : = 1 i S | O.o.G r o O O # # # # , ^ %X>X>X>X3X:X!.>X).-X-X;X:X3X4X",
"3X3X-X-X3X;X^./.-X;X;X;X-X-X+X+.0 5 5 5 5 5 5 5 5 < 5 * * = < > $ % % % 1 3 u y , O # # # # # * l K.3X>X>X>X>X@X:X@X-X;X;X:X5X4X",
"4X3X;X3X3X$X$X;X>X;X>X;X-X$Xs.d 5 5 < 5 5 5 5 5 5 5 4 5 , * * = < < : 1 > W v.z # # O # # # O * 5 s.>X>X>X>X;X$X-X$X:X:X;X3X3X3X",
"3X3X3X>X$X-X;X-X-X3X;X-X$XH.b 5 5 5 5 5 5 5 5 5 5 5 5 5 4 5 < * * $ * * 8 c.h.f * # # # # O O * * ;.;X*X-X-X-X>X@X:X;X:X;X>X3X3X",
">X>X>X$X-X:X:X-X-X;X;X$X$X-.q 5 5 5 5 5 5 5 5 5 5 5 5 5 5 5 6 f 5 , * # j f.<.$.( ( C < # O O $ * 7.$X-X-X-X:X;X-X;X-X;X:X>X3X>X",
"3X3X-X-X:X;X-X:X-X>X>X#XS.V d 5 5 5 5 5 5 5 5 5 5 5 5 5 5 < 5 5 q q < z $.g.2.,.u.f.f.6.d o O # > 7.-X$X$X$X:X$X$X-X;X:X;X:X3X>X",
"3X:X-X:X-X$X-X-X$X$X#X$X7.g 6 5 5 5 5 5 5 5 5 5 5 5 5 5 5 5 5 f 6 5 <.,X<X{.m.6.4.u.f.f.%.* O O < i.;X;X-X:X:X:X$X:X;X:X;X:X>X3X",
">X-X;X:X-X:X-X#X#X-X-X X! g f q 5 5 5 5 5 5 5 5 5 5 5 5 5 5 5 5 d %.B._.'.'.'.,.P f 2.u.u.u o # 8 N.-X-X-X-X-X#X(.$X).;X;X:X>X3X",
"3X:X:X;X;X$X#X-X-X-X-XR.K m = 6 0 5 2 5 5 5 5 5 5 5 5 < 5 5 5 5 ` 1X6X].R F d.` z O d u.u.P o = l |.:X$X-X$X-X~.;X$X$X>X>X;X>X3X",
"3X>X;X@X/.:X-X-X:X-X-X[.L g 5 , , , 5 5 5 5 5 5 5 5 5 5 5 5 5 n {.8X1X' 8 n  .5 # # * 4.g.` ; < ^ &X>X>X-X$X$X^.-X$X-X-X>X3X4X3X",
"3X>X#X(.$X-X-X-X-X-X-XJ.L g 5 5 5 * * 5 5 5 5 < , 5 5 5 5 5 , u.8X8Xq.5 < > * O # O % $.g.@.: 2 i.=X5X3X-X-X$X$X).-X$X:X>X3X3X3X",
"3X3X(.:X-X$X$X$X-X-X:XD.V f , 5 5 2 # * 5 5 5 , * 5 5 5 5 5 z ,X8X'.f 5 5 5 0 % # * Q u.f.A > j A.3X4X3X$X$X:X$X#X#X$X-X:X4X3X3X",
"3X@X:X:X$X#XW.$X$X$X:XD.m d 5 5 5 5 * O = 5 5 , * 5 5 5 5 5 <.6X8X$.5 5 5 5 6 * O , u.f.y.5 $ b  X;X3X3X:X:X$X$X$X(.-X-X3X>X3X>X",
"3X@X>X>X>X$X$X$X$X$X;XD.m q 5 5 5 5 * O * 5 2 c 8 2 5 5 5 8 v.8X,Xn q 5 5 5 5 , # 5 u.g.( + # d N.2X*X;X;X-X-X$X-X$X(.-X3X3X3X>X",
"3X$X>X:X>X:X$X$X#X$X-XM.m q 5 5 5 5 $ # o O < 6.d.q._ F N A {.8X<XB.,.2 5 5 5 ; # 5 6.y.0 + , 8 ) j.%.D.;X;X-X-X-X-X#X#X>X>X3X3X",
"3X$X-X-X>X>X:X$X#X#X#XS.m d 5 5 5 < # # o < P 0.x.6X8X1X<X<X8X8X8X6X6.5 5 8 5 * # $ @.( < # * , b C c ^ ;X;X-X-X-X;X-X@X-X>X>X3X",
"3X:X$X-X>X:X:X$X$X#X@XM.V 6 5 5 5 * # * > * l 3.g.<X8X8X8X8X8X8X8X1X,.< 5 6 5 * O w 6.-.t.* 0 n P %.C V j.;X;X;X-X:X>X3X#X:X>X>X",
">X:X-X-X:X;X;X(.;X$X#XS.K f 5 5 < - - +.C.U $ < P u.{.1X6X6X8X8X,X,.g 5 5 8 , * # ` ( y.&.V g e 1 @.I P ! XX;X;X>X3X>X3X:X#X>X>X",
"3X>X-X-X;X;X(.$X#X$X$XH.K g , 5 = # J  X-XXX8.< # * q P R ` <X8X'.f 5 5 5 g n * I %.~ &.! e F / g m %.I E M.;X;X>X>X3X3X>X-X@X3X",
"3X:X-X>X-X(.-X-X#X#X#XE.! g 5 5 * # i.-X-X:X=Xj.h $ # * < w '.8X6X,.5 2 $.x.f.E 6.#.[.&.&.f E g F 6 %.! L a.2X2X3X3X3X>X3X3X$X*X",
"3X-X3X>X).-X>X:X-X#X#X@X-.g 5 4 * > D.;X:X3X3X;XK.U < * @ < 0.6X8X1Xf.' ].'.c.y.m M.2X&.&.F m T f = g g ! }.=X=X>X3X3X3X>X3X>X#X",
"$X;X2X#X-X>X:X>X:X#X$X#Xp.b q 5 $ 7 J.;X3X>X3X3X3XXXY j a K F _.6X8X8X1X{.i.6.Y 8 A.>XK.@.&.d = 2 9 w 0 |.;X;X;X>X>X3X3X>X>X>X>X",
"3X3X3X$X2X>X#X3X>X$X$X#XS.V f 5 - d J.;X3X@X3X3X4X3X/ d N d.d.F ,.B.].,Xi.O.j % w }.:X*Xt.5.g 6 3 < 8 @.;X;X;X;X>X>X>X3X4X3X3X4X",
">X3X4X-X3X*X=X3X>X#X#X#X).) g 5 * 4 H.;X:X;X3X3X3X3X1.> N _.v.j 5 q f ,.q./ $ @ 1.2X3X$XV.~ Z 5 8 ) N.&X3X;X:X;X>X3X3X3X3X3X4X>X",
":X4X3X;X$X:X3X3X:X#X#X#X#Xp.g 8 * # M.;X>X>X>X3X3X4Xl.> u W Y 5 5 0 8 3.2.A & w z.4X3X:X-XT. XN.J.*X;X3X3X3X>X:X>X3X>X3X3X4X4X3X",
":X5X3X3X$X3X>X:X$X$X#X#X@XH.b u * O K %X>X>X3X3X3X3XZ.N 6. .v B / 6.q.' Y W _ N A.4X4X3X-XW.;X-X>X>X>X>X3X3X>X3X3X>X3X>X3X4X4X>X",
"-X>X3X#X>X>X-X:X-X$X#X#X#XT.8 : O O - *.XX3X>X3X3X3XC.' _.h.F F ` F C u 9 ' 0.) oX4X4X3X$X^.-X-X:X:X;X>X>X:X;X>X>X3X3X>X>X5X3X$X",
">X$X$X$X>X-X$X:X$X$X#X#X@XR.x < < < 9 2 i.;X3X3X3X>XV.3.'.`.d.F W ` _ / <.2.2.1.5X4X5X;X(./.-X-X-X-X$X:X-X;X:X:X:X3X3X3X>X:X:X:X",
"3X>X$X>X:X-X:X:X-X$X$X$X#XR.Z k k a k u ^ %X>X3X>X#XV.1.`.`.A.*.Y Z.Z.^ k.m./ v.5X4X5X^.#X-X;X-X-X:X$X-X;X;X3X4X3X5X5X5X3X>X:X4X",
"4X>X(.;X:X-X>X;X-X$X$X$X-XE.Z v k k 2 & 8.;X>X3X3X).V._ k.m.c.O.1.=X[.W O.q.Y .X5X4X>XI.-X;X;X;X>X$X-X;X;X>X3X4X5X5X5X5X3X;X3X3X",
"3X>X/.>X;X-X3X-X-X$X-X-X-X+Xt.c c a < 7 G.>X3X3X>X/.S._ m./ 2.A G.2X[._ ) Q R <X4X3X/.$X-X;X-X;X>X-X-X;X;X3X3X4X4X4X(.4X;X;X3X3X",
"3X>X!.>X;X-X>X:X-X-X-X-X-X;X%Xt.U M x 8.*X3X3X3X>X^.K.3.`.2.W W =X3Xz.N i.<.L oX5X$X#X;X;X;X3X>X:X-X;X;X:X3X3X4X4X5X@X>X>X;X3X3X",
"4X>X!.-X-X-X;X-X$X-X-X-X;X>X:X;X$XT.|.>X>X>X>X>X$X/.C._ `.k./ 1.3XoXY & ' 2.0 d.6X$X>X:X;X4X4X3X>X;X:X;X-X;X>X3X4X7X5X;X;X;X3X3X",
"3X3X!.:X-X-X;X-X-X-X-X:X:X>X:X>X3X#X#X:X>X3X>X>X).#X) B g.c.c z.3X&XY & : y 9 j.3X;X>X>X>X5X4X3X;X;X;X;X:X-X;X3X4X7X4X4X3X>X4X3X",
"4X3X/.>X-X-X;X-X-X-X-X;X>X:X>X;X>X).$X2X3X>X>X$X~.%Xx a ,.3.2 a.2XoXY O @ < 1 _ R.oX&X>X;X3X4X3X:X;X;X;X:X;X;X:X3X3X3X4X5X>X4X3X",
"3X4X(.3X-X-X-X-X$X-X-X-X-X;X;X:X:X$X).:X3X3X$X~.#X;XN 1 < : % a.>XoXL & & r y 9 L W =.G.>X3X3X3X3X>X;X;X;X;X-X-X-X;X3X4X5X3X3X3X",
"4X>X(.>X-X-X-X$X$X$X-X;X:X;X>X>X:X:X#X~.#X).~.$X:X*Xx : & @ 8 [.>XoX~ & & 3 2 y a a a B }.>X:X>X>X3X3X:X:X;X:X:X-X-X;X3X3X3X3X4X",
"3X$X(.3X-X-X$X$X$X$X-X:X>X>X>X>X:X3X3X~.>.U.-X:X>X|.k y 1 % j XX>X=Xy.> $ @ 3 a a a s a l.:X:X>X>X>X>X3X>X*X-X:X$X-X-X3X$X3X3X3X",
"@X-X-X3X-X-X-X$X-X-X>X;X;X>X3X>X>X>X>XU.~.*X3X4X3X|.a a 3 < ; l.>X3XoXz.8.Z : 3 r y y 8 D.>X>X:X>X>X>X>X>X:X~.-X-X-X;X$X!.3X3X$X",
"(.3X;X$X-X-X$X-X-X-X-X:X:X3X3X>X>X3X/.I.:X3X3X3X4XoXc s a y 2 Z =X>X3X>X=XE.7.M w 0 w #.%X>X3X>X>X:X>X>X3X>X#X$X;X2X3X3X/.2X-X^.",
"3X4X$X$X$X-X-X-X-X-X-X-X:X>X>X3X:X$X~.3X3X3X>X3X3X%XN s a a 8 0 J.3X3X4X4X+X).%XJ.M.G.*X:X3X>X>X:X:X>X>X>X3X>X:X).3X3X3X^.#X/.3X",
"3X4X-X$X-X-X$X-X-X-X;X;X>X4X5X-X)./.>X>X3X3X>X>X3X=XC a a y 2 a .X3X3X3X$X$X$X3X3X=X3X>X;X3X3X>X>X:X>X>X:X4X3X$XU.(.:X/.P.L.=X3X",
"3X4X;X/.-X-X-X-X-X;X:X#X-X3X-X$X/.3X3X>X>X>X>X>X>X>Xi.w 2 2 7 =.>X>X3X>X>X:X#X>X3X3X:X>X3X>X3X>X>X:X:X3X3X$X/.Y.L.~.^.>X>X$X5X>X",
"3X4X>XY.-X-X-X-X$X$X!./.-X-X$X).3X4X3X3X>X>X>X>X>X3X=XD.z.l.M.%X:X>X>X4X4X).(.^.$X$X3X3X3X3X3X:X>X:X3X-X/.).#X>X2X2X$X3X:X$X4X>X",
"4X3X3X(.U.P.W.Q.Q.OX3X>X;X-X).3X4X4X4X3X3X>X>X>X>X>X>X>X>X3X>X:X:X:X>X>X/.3X4X3X-X#X;X4X3X3X>X-X4X>X(.#X-X3X3X3X3X3X>X>X$X*X5X4X"
};
