/* XPM */
static char *result[] = {
/* columns rows colors chars-per-pixel */
"64 64 215 2 ",
"   c #0C0C0B",
".  c #110E0F",
"X  c #13100F",
"o  c #110E11",
"O  c #151314",
"+  c #191617",
"@  c #1A1817",
"#  c #191619",
"$  c #1C191B",
"%  c #24151A",
"&  c #221C1D",
"*  c #2C211F",
"=  c #1E1D20",
"-  c #231E22",
";  c #281E21",
":  c #361B24",
">  c #252224",
",  c #2B2426",
"<  c #252629",
"1  c #2B252A",
"2  c #2E292D",
"3  c #352529",
"4  c #322A2D",
"5  c #392D2D",
"6  c #3B322F",
"7  c #2B2B30",
"8  c #322C31",
"9  c #343235",
"0  c #3C3234",
"q  c #36373B",
"w  c #3B343A",
"e  c #3D393C",
"r  c #45332F",
"t  c #402F37",
"y  c #443735",
"u  c #443A3D",
"i  c #4C3E3C",
"p  c #533E39",
"a  c #4E413C",
"s  c #53423D",
"d  c #5B413C",
"f  c #3C3D41",
"g  c #433D42",
"h  c #3C4349",
"j  c #464245",
"k  c #4D4445",
"l  c #44464B",
"z  c #4B454C",
"x  c #4D494B",
"c  c #5D4846",
"v  c #544B4E",
"b  c #5C504E",
"n  c #494952",
"m  c #4C4E53",
"M  c #534D53",
"N  c #534B55",
"B  c #4B5559",
"V  c #555255",
"C  c #55545B",
"Z  c #585759",
"A  c #5B565C",
"S  c #5E595D",
"D  c #664D47",
"F  c #6D524B",
"G  c #75534C",
"H  c #665756",
"J  c #765C54",
"K  c #7C665E",
"L  c #485B64",
"P  c #575A62",
"I  c #5D5D62",
"U  c #605663",
"Y  c #635D63",
"T  c #5D656B",
"R  c #52717F",
"E  c #656266",
"W  c #686265",
"Q  c #63656C",
"!  c #6C656B",
"~  c #6E6A6E",
"^  c #726A6B",
"/  c #656B72",
"(  c #6A6D74",
")  c #736D72",
"_  c #6B7175",
"`  c #6C737A",
"'  c #757175",
"]  c #7A7275",
"[  c #77767B",
"{  c #7D797B",
"}  c #845F57",
"|  c #83635A",
" . c #8C675C",
".. c #876D63",
"X. c #8B7266",
"o. c #95766B",
"O. c #827A7D",
"+. c #9B7F74",
"@. c #A67A6C",
"#. c #9E8275",
"$. c #AE8A77",
"%. c #A7897A",
"&. c #667881",
"*. c #777A84",
"=. c #837D83",
"-. c #81788D",
";. c #77838B",
":. c #7B838A",
">. c #738693",
",. c #6ABFF5",
"<. c #7CC9FA",
"1. c #858184",
"2. c #8B8285",
"3. c #89858B",
"4. c #8D898D",
"5. c #918A8E",
"6. c #848C93",
"7. c #958C94",
"8. c #84939C",
"9. c #8D959E",
"0. c #959295",
"q. c #9C9294",
"w. c #9A9699",
"e. c #9C999C",
"r. c #AF9082",
"t. c #B49485",
"y. c #B99888",
"u. c #BD9D8C",
"i. c #A19B9E",
"p. c #958AA5",
"a. c #8A9BA5",
"s. c #9497A6",
"d. c #9F91B3",
"f. c #A39BA2",
"g. c #97A3AB",
"h. c #94A7B4",
"j. c #99AAB5",
"k. c #A5A1A5",
"l. c #ABA4A6",
"z. c #ADA5AC",
"x. c #AEA9AC",
"c. c #B1AAAE",
"v. c #A5ABB3",
"b. c #B3ACB2",
"n. c #A6B4BC",
"m. c #B5B2B5",
"M. c #BBB5B9",
"N. c #BEBABD",
"B. c #C1A08F",
"V. c #C2A290",
"C. c #C2BABC",
"Z. c #9BB4C4",
"A. c #A6BAC6",
"S. c #B1BDC5",
"D. c #C3BEC2",
"F. c #94C3DA",
"G. c #AEC1CE",
"H. c #B4C3CC",
"J. c #A9C7D7",
"K. c #B5CAD7",
"L. c #BCCCD5",
"P. c #BED2DE",
"I. c #96CCEB",
"U. c #88CEF8",
"Y. c #8CD5FB",
"T. c #92D5FA",
"R. c #99D9F9",
"E. c #9CDBFC",
"W. c #ADD8EF",
"Q. c #B9D8E9",
"!. c #A4DDFB",
"~. c #AADDFB",
"^. c #B3DFF9",
"/. c #A5E0FC",
"(. c #ACE2FC",
"). c #B3E4FC",
"_. c #BBE6FC",
"`. c #BEE8FC",
"'. c #C5C1C4",
"]. c #C9C2C7",
"[. c #CBC6CA",
"{. c #CDC9CD",
"}. c #D0CACF",
"|. c #C3CFD7",
" X c #D2CED1",
".X c #C3D2DC",
"XX c #D4D2D3",
"oX c #DBDADB",
"OX c #C4D9E6",
"+X c #C9DBE7",
"@X c #D2DEE6",
"#X c #C0DEF0",
"$X c #C9E1EE",
"%X c #D4E3EB",
"&X c #CBE4F3",
"*X c #CDE7F6",
"=X c #C3E6FB",
"-X c #C4EAFD",
";X c #CCECFD",
":X c #D2E6F3",
">X c #D5E9F5",
",X c #D9EAF5",
"<X c #D3EEFD",
"1X c #D9EFFD",
"2X c #D6F0FD",
"3X c #DCF1FE",
"4X c #E8E7E8",
"5X c #E2EEF7",
"6X c #E3F3FE",
"7X c #EAF6FE",
"8X c #EEF8FE",
"9X c #F3F2F2",
"0X c #F1F7FE",
"qX c #F1F8FE",
"wX c #FCFCFC",
/* pixels */
"6X6X7XqX0X8X8X8X7X6X6X6X6X6X6X3X2X6X3X3X2X3X-X;X2X6X7X3X2X2XOXG.K.2X2X2X2X2X2X;X-X_.<X<X<X1X3X3X2X<X3X3X3X3X2X2X3X3X;X-X_.3X2X7X",
"7X6X6X6X7X6X6X6X3X3X7X7X6X6X6X6X7X7X7X2X2X;X*X<X%XH.g.6.[ :.h 9 l >.>X;X-X_.-X-X;X_._.<X<X`._./.-X2X6X<X2X<X2X3X2X3X;X7X7X6X7X6X",
"`._.-X3X6X6X6X6X6X3X<X1X,X6X7X8X7X6X3X2X&X8.( { 4.O.1.5.) ~ V 0 s 9 L.3X2X3X2X;X;X3X3X;X;X-X-X-X).2X6X6X2X<X3X2X;X2X6X6X6X6X6X6X",
"<X2X2X).1X_.E.!.6X6X6X6X2X;X6X6X3X3X3X:X/ u t 4 Z C.W x.M.) 9 k J 2 g.;X;X;X;X;X;X<X;X;X;X3X3X2X-X-X`.;X3X3X3X3X6X6X3X3X3X3X6X`.",
"2X<X;X-XR._.-X_.T.).;X<X;X;X<X<X2X2X2Xn.s 6 D } 6 C.i.O.C.w.~ E u < S.1X3X3X2X<X<X-X-X).;X<X<X2X2X2X).2X2X<X3X3X3X6X6X3X3X3X*X`.",
";X;X-X`._._._.`._.~._.-X-X;X<X;X;X2X2X8.a 5 $.$.J {.}.{.}.i.=.~ V *.*X1X2X2X;X;X-X;X;X-X).;X;X;X2X2X(.-X;X2X2X3X3X3X3X6X7X2X(.2X",
";X-X-X-X_._._.).).).(.-X-X;X<X;X-X;X;Xh.0 6 X.#.^ C.[.[.{.c.W E ) ;.&X<X3X<X<X;X;X<X<X;X-X_.;X>X<X<XE.<X;X<X2X<X2X3X6X6X6X-X;X;X",
"*X<X;X;X-X_.).E.`._.`.;X;X<X<X2X;X-X;XQ.T , * 2 w.2.2.C.{.{.H H ! Z ;.&X<X<X;X-X;X;X<X<X<X_.`.<X2X).).<X;X<X<X2X2X2X3X3X2X2X;X;X",
"2X2X;X;X-X_.)./.).).-X;X3X`.2X3X3X2X;X2XK.B * _ C.1.b q.}.}.M.1.=.A f j.;X-X-X-X;X<X<X<X<X<X_.T.R.-X<X<X;X;X<X<X2X2X2X2X2X2X;X;X",
"-X-X;X;X_._.)./.).).-X<X;X2X<X2X3X2X*X$X;.a 9 S D.XX2.l.}.l.D.f.0.Y > > A.;X-X;X<X<X<X3X2X<X(.R.;X3X6X3X2X2X<X<X2X2X2X-X3X;X-X;X",
"-X-X;X-X`._.).)./.`.;X;X;X<X2X3X2XI.L h @ X @ T c. X].XX X XY v S ~ + O < ;.#X=X<X<X<X1X1X^.!.3X2X2X<X3X3X2X<X<X2X2X2X;X2X2X;X;X",
";X`.;X;X-X`.)._./.`.;X;X<X<X1X<X-XF.& @ @ @ @ X > x ] O.=.) 6 p 0 b p   O - n a.OX1X<X-X;X&X1X3X2X2X<X3X<X<X2X;X-X<X2X;X`.`.;X-X",
"2X-X`.;X-X-X-X-X).).;X<X;X<X2X>XR.a.$ @ @ @ @ @ @ r G b { ! K o.F | D   X O = 1 N S.>X-X1X3X3X6X3X<X-X1X2X2X2X2X<X;X(.-X<X2X`.;X",
"2X-X-X-X-X-X-X;X;X(.-X;X;X<X;X` L h @ @ @ @ @ @ $ D $.r.r.u.B.y...| D . O X + + 1 g h.<X2X1X3X6X3X<X2X<X;X;X2X;X,X/.=X2X2X2X;X,X",
"2X<X;X-X-X-X;X<X;X)./.;X2X;XK.9 * $ @ @ @ @ @ @ - c X.u.V.u.u.%...F G X O @ @ + O - z j.1X3X1X3X6X2X2X<X).-X;X2X).).<X<X2X3X2X2X",
"<X3X<X;X;X;X;X;X;X;XE.;X;XJ.B > $ @ @ $ @ $ O & > D t.u.u.u.o.o.t.| G 5 X O @ @ # # 2 C OX1X3X<X(.-X<X<X;X2X(.(.U.;X<X<X2X2X2X2X",
"2X<X<X<X;X;X;X<X;X<X;XU.).R 7 $ = < @ @ $ 9 * < g $.B.B.u.%.%.r. .J F & . # O # # # # g 8.;X!.^.<X<X<X<X3X2X3X_.<X;X<X<X<X<X2X<X",
"3X2X;X<X<X<X<X<X<X<X~.,.E.9.O @ @ & $ < < < @ 5 F r.V.t.y.B.u.y.V.t. .r o # # # O # # 1 f F.<X1X1X3X2X6X3X6X3X^.;X;X<X<X<X<X2X3X",
"7X3X<X<X<X<X<X<X;X).T._.2Xh.* < < = 7 @ O O X * ; : J r.X.+.y.u.V.B.o.D o # # # # O # - - a.1X1X3X1X3X6X3X3X1X~.~.>X<X2X3X3X3X6X",
"6X6X<X<X<X-X;X-X^.=X1X<X$XZ O @ & * = 2 > @ O > 1 - # ; i J %.y.B.y.| 5 O O # O O # # = = Q ;X<X1X1X1X6X3X3X3X^.3X`.<X<X2X3X6X7X",
"7X6X<X<X3X1X).).<X1X1X<X>.- 8 8 8 8 8 8 8 8 2 - - - 2 8 8 1 1 5 k #.P V 0 N V 8 O # O - o g Q.>X<X3X6X6X3X3X3X=X3X-X<X<X<X3X7X6X",
"6X6X<X6X6X;X-X<X1X3X6XK.f 8 8 8 8 2 8 8 4 8 8 8 2 - - # # # $ $ - 0.0.3.f.z.b.z.! # o # # g Z.;X<X<X3X3X3X3X3X-X<X;X<X2X3X6X7X6X",
"6X6X6X3X;X;X1X<X<X1X1X/ w 8 8 8 8 8 8 8 8 8 8 4 8 8 w t 8 1 - > A l.0.[ z.f.b.f.z.P o o # 8 g.1X2X<X3X<X<X<X2X3X=X<X2X3X1X3X6X6X",
"3X6X3X;X<X3X3X1X<X1XS.w 2 2 7 8 2 8 8 8 8 8 8 8 8 8 8 8 w g w 4.oX@X4Xf.3.w N f.z.f.- . $ 2 6.3X<X;X;X<X2X<X<X2X<X1X<X<X3X6X3X3X",
"3X6X<X<X3X1X<X<X<X,X_ v f 8 : - 1 8 8 8 4 8 8 8 8 8 8 e u 1 I {.oXXX[.0.1.9 O w z.z.V o $ 8 *.3X1X<X<X<X;X;X2X;X;X<X2X2X2X3X6X3X",
"6X3X<X3X2X-X<X<X;XJ.N w 8 8 8 8 < - 8 8 8 8 8 8 8 4 8 8 8 g XX XN.x ~ b.M # @ O 2.z.7.$ # 2 ` 1X<X2X1X<X2X2X<X2X;X1X2X2X2X3X6X6X",
"3X<X<X2X<X3X<X`.-X8.z 4 8 2 8 2 8 $ - 8 2 2 , 1 8 8 8 4 2 0.wXwX7.2 g g o # O O ! z.7.# # : P :X;X3X*X;X<X<X2X-X_.;X_.,X1X1X3X6X",
"6X2X3X2X1X;X-X<X*XQ g 8 8 8 8 8 8 , O > y F d > 8 8 8 8 w 4XwXoX0 4 2 8 $ # O x z.z.=.O # o # R %XL./ K.;X;X;X/.<X<X;X2X3X<X3X6X",
"3X3X1X-X).<X<X<XK.A 8 8 8 8 8 8 8 1 O H o. .3 2 2 8 8 2 ! wXwX4.1 8 8 8 8 # O N b.z.U o O O 1 w H m I m G.;X;X(.2X;X<X<X3X3X8X6X",
"6X6X-X_.<X<X<X<XA.N 8 8 8 8 8 8 8 - 3 +.o.p , 4 8 8 8 8 e.wX4XM 8 8 8 8 8 = O g b.z.I l $ + 1 2 I p.N E C A.;X;X_.<X;X<X3X6X6X6X",
"3X6X_.<X;X<X-X;XA.n 8 8 ; ; 8 8 8 # K X.r & 4 4 8 8 8 8 N.wXoXe 8 8 8 8 8 - # 1 =.7.s.+XT = @ v N ! d.C ) C G.;X-X-X;X<X<X7X6X6X",
"6X-X3X<X;X-X~.;XA.g 8 1 w w 8 1 - o ^ $.| 6 , 9 8 8 8 8 {.wX{.V U 8 8 8 8 1 # o ) *.H.3X>X*.n M : : Y d.I { L &X;X_.<X<X6X6X3X6X",
"6X-X3X3X3X;X;X;XA.z 8 8 8 8 8 w w $ X.d G d ; 4 1 2 2 9  XwXqX9Xe.2 8 8 8 1 # o 7.[ :X1X.X*.N g O.=.3 U p.N j.;X<X;X_.<X6X6X3X6X",
"6X-X3X3X3X3X;X;XQ.C 8 8 8 8 8 8 8 % r.| @. .d D k 1.e.'.9XwXwXwXC.2 8 8 8 2 # 8 5.g.1X3Xp.*.t v H ' 3 2 e 9 &X;X;X2X-X-X3X3X6X6X",
"6X;X;X2X3X3X2X;X-X>.w 8 8 8 8 8 8 1 %.@.} 3 ! x.oXwXwXwXwXwXwX9X0.8 8 8 8 1 # =.~ Q.<X2Xa.d.*.g H N 3 0 e 9 *X1X2X<X<X=X;X3X3X6X",
"6X3X;X<X2X3X,X;X-X-XF.&.n f 9 2 > + X.D i =.b.[.wXwXwXwXwXwXwX1.; 8 8 8 A ) z f.*.*X2X2X&X>.d.-.w % 0 0 2 n.<X1X2X3X3X6X-X2X3X3X",
"3X3X<X<X3X1X<X`.3X;X-X-XQ.Q.Q.F.K.a.B > > w E =.m. X[.x.w.wXwX Xw 4 2 e.b.b.f.Y h.2X2X2X2XW.9.p.-.9 9 8 v.1X1X1X3X6X6X3X2X-X2X6X",
"3X3X<X<X2X<X`.;X-X;X;X<X;X-X_.-X<X-X&XA.T < + # $ , 8 2 8 oXwXwX[.) S [.m.M.-.w a.;X*X;X;X).,X9.*.( U S.5X3X1X3X3X3X6X6X6X<X=X6X",
"3X3X<X3X<X_.<X1X-X=X-X-X;X`._.;X_.-X1X<X<XL.` > $ @ $ 1 8 I 9XwXwXwXwX9X4.=.9 + T a.9.6.A._.6X,X|.,X6X6X6X6X1X3X6X6X6X6X3X6X;X>X",
"6X<X6X3X_.<X3X1X<X-X-X-X-X).;X;X<X<X1X1X2X3X,XP.` 9 < $ 7 h #.{.4X9X4X[.5.A + & i.[. Xb.E A.3X3X1X5X6X7X7X3X1X3X6X3X3X6X6X6X3X-X",
";X<X6X-X;X2X2X2X2X-X;X-X`./.;X;X-X<X2X3X6X3X3X7X3X9.I < ' k.*.0 x M g w.1.V + S [.C.c.[.b.9.2X2X6X3X6X6X6X3X1X1X2X6X3X6X6X6X3X3X",
"3X7X6X;X5X6X-X7X6X;X;X-X-X`.;X-X;X<X<X3X6X-X3X6X7X.XW * 1.].x.9 8 8 2 4.~ E ' 0.i.] f.[.'.6.2X6X6X6X6X6X3X1X<X1X3X3X6X6X6X6X6X7X",
"6X6X6X<X6X<X,X6X2X-X-X-X;X-X-X;X;X<X1X6X1X3X6X6X6X5X:.$ q w.S * 2 x { { ' ~ 0.4.] I ] 2.{ _ $X2X3X6X6X6X6X3X3X<X3X3X6X3X6X6X6X6X",
"2X7X7X,X;X2X6X6X2X-X-X-X-X-X-X;X-X<X3X3X3X3X3X6X7X6XH.x 1.1.W V { ^ :.x E ( 3.s.|.E ) 4.b j T 2X3X6X3X6X6X6X3X3X3X6X6X6X6X7X6X6X",
"2X7X7X6X;X5X6X2X<X-X-X;X-X-X-X;X;X3X2X3X3X6X6X3X7X6X%XT x.].] a ) S n.%X%X4X7X7X7Xv.f ~ j 5 a P.>X.XS.L.,X6X3X3X3X6X6X6X6X7X7X2X",
"<X2X6X-X3X2X<X2X;X;X-X-X;X-X).;X2X2X2X3X3X3X6X6X6X6X_.;.].{.'.i.' E @X6X6X7X7X8X7X|.0 @ * 3 , x T x y i *.>X3X3X6X6X3X2X6X8X6X;X",
"2X;X;X;X6X;X<X2X;X;X-X-X-X-X-X`.;X<X2X3X3X6X3X6X6X6XT.n.b.{.{.N.2.[ 2X6X7X7X8X7X7X7X~ @ X 6 a 3 i s a k k G.<X3X3X3X6X6X6X2X<X2X",
"7X3X-X3X3X<X2X<X2X;X;X;X;X;X-X).;X3X3X3X6X3X6X6X6X<X(.P.4.'.'.M.~ v.6X6X7X7X7X8X7X7Xv.3 & , 4 6 a s i i 5 A.6X7X6X8X7X7X7X3X2X7X",
"7X3X_.1X3X<X3X1X<X;X;X;X<X<X<X`.-X2X2X3X6X3X3X6X6X`.`.$X/ {.) O.j |.6X6X7X7X8X8X8X7X$Xh > & & 1 6 r 4 2 m +X6X7X8X8X7X8X6X1X6X6X",
"6X3X_.2X1X<X3X2X<X;X<X<X<X<X<X3X).,X2X3X3X6X6X6X6X).-XW.3. Xx.Y V .X7X7X7X7X8X8X7X3X).j.4 9 m l 9 q B :.+X6X6X6X7X7X_.7X1X3X6X6X",
"6X6X~.,X<X<X1X3X<X<X<X<X<X<X3X3X_.;X3X2X3X3X6X6X3X(.2X,X3.{.[.w.S %X6X7X7X7X8X8X8X;X=X,XOX$X>X%X$X$X:X,X1X3X6X6X7X8X=X3X1X3X6X6X",
"7X6X(.2X<X<X3X<X;X<X<X<X1X3X2X3X2X).3X3X3X6X3X3X;X_.3X2XR #.C.k.j .X7X6X7X8XqX7XqX;X3X3X1X7X7X6X2X<X3X2X<X1X6X6X7X0X8X1X1X1X6X6X",
"6X6X^.1X<X<X1X<X<X<X<X3X3X3X<X3X3X-X*X3X3X6X3X6X`.;X3X$Xj ~ k.0.> 6.6X8X8X8X8X8X7X2X6X2X3X8X7X6X3X1X1X1X1X<X1X6X7X8X6X7X6X3X7X6X",
"7X6X).3X<X<X1X<X;X<X<X3X3X2X3X3X3X`.;X3X6X3X3X-X/.2X3X%XV 4 8 * $ :.6X8XqXqXqX7X;X7X6X3X1X6X7X6X3X1X1X1X3X<X<X3X6X6X7X7X8X3X7X6X",
"6X7X_.6X<X<X<X<X;X<X<X<X<X<X<X3X2X;X_.2X6X6X;X/.-X3X2X,X_ 5 5 $ X S.6X7XqX7X7X;X7X3X6X3X6X3X6X6X6X3X1X<X3X1X<X<X1X<X6X7X8X6X6X6X",
"7X1X_.3X<X<X<X;X;X;X<X<X3X3X1X3X2X3X-X/.-X`./.;X2X2X3X>XT 6 3 * @ |.6X6X7X7X2X3X6X6X3X6X6X3X<X3X3X6X6X3X1X<X2X2X<X<X1X6X6X6X6X7X",
"3X;X_.6X<X<X;X;X;X;X<X1X3X3X3X3X,X6X6XE.<.E.;X6X6X3X3X:XZ s 4 & + g.6X7X8X6X-X<X6X3X3X3X3X3X3X1X3X3X6X6X2X2X<X2X<X;X>X6X;X6X6X7X",
"-X<X<X6X<X<X<X;X<X<X3X1X<X3X3X3X3X3X2XR./.2X3X7X6X6X6X,XP c s a 5 g .X6X7X<X2X;X3X6X3X1X1X6X3X3X2X3X3X3X6X,X/.;X<X<X1X;X).6X6X;X",
"=X6X1X;X<X<X;X<X<X<X<X3X3X6X6X6X3X6X).Y.2X7X3X6X6X6X6X,X/ D a a 6 1 v.6X6X;X<X6X6X2X7X3X1X6X3X1X3X3X3X3X6X3X-X;X1X6X6X6X).6X;X(.",
"6X7X<X-X;X<X<X<X<X<X<X<X3X3X3X3X3X-X/.6X6X3X6X6X7X6X6X3X` a a a 5 1 v.6X6X;X`.<X6X<X3X3X3X6X6X1X3X2X3X3X3X6X3X3X`.6X6X5X/.=X).7X",
"6X6X<X;X<X<X;X<X<X2X<X<X3X6X8X2X`.).3X6X6X3X3X6X6X6X6X3Xn.6 5 4 , f +X5X<X-X;X5X7X3X3X2X3X6X3X3X<X3X<X3X3X7X6X-XR._.3X).T.U.3X6X",
"6X7X1X).<X<X<X<X<X2X2X*X2X3X2X;X).7X6X3X3X3X3X6X3X6X6X6X6XH.*.( :..X6X3X6X1X-X6X3X7X2X3X6X3X6X3X3X1X<X6X6X;X).E.Y./.(.,X,X;X7X6X",
"6X7X6XR.<X<X<X;X<X*X^.).<X<X;X`.6X6X6X3X6X3X3X2X2X6X3X6X3X3X3X2X3X3X3X7X7X`.).(.;X;X6X6X6X6X6X3X3X3X6X<X).`.`.3X3X6X;X6X,X-X7X3X",
"7X6X6X_.R.T.~.~.~.=X7X2X2X;X_.7X7X7X7X6X6X3X3X3X3X3X6X3X6X3X6X2X2X2X3X3X).6X7X6X<X=X1X7X6X6X3X2X6X3X_.-X;X7X5X6X6X6X3X3X<X;XqX7X"
};
