/* XPM */
static char *result[] = {
/* columns rows colors chars-per-pixel */
"64 64 202 2 ",
"   c #0F0C0E",
".  c #120E0E",
"X  c #120F11",
"o  c #151314",
"O  c #181517",
"+  c #191817",
"@  c #171518",
"#  c #1A1619",
"$  c #1B191A",
"%  c #221C1E",
"&  c #22211F",
"*  c #221D21",
"=  c #252224",
"-  c #2A2324",
";  c #2C252B",
":  c #27282A",
">  c #2E292D",
",  c #362B2B",
"<  c #312A2E",
"1  c #3C302D",
"2  c #2D2D30",
"3  c #322C31",
"4  c #3A2E30",
"5  c #2C3236",
"6  c #343235",
"7  c #3D3232",
"8  c #373638",
"9  c #3B353A",
"0  c #3C3A3C",
"q  c #423533",
"w  c #4D3835",
"e  c #453838",
"r  c #433B3C",
"t  c #4A3C3A",
"y  c #4E403C",
"u  c #51433E",
"i  c #3A3C41",
"p  c #443D43",
"a  c #493E47",
"s  c #3D4143",
"d  c #454245",
"f  c #454649",
"g  c #4C464B",
"h  c #444B4F",
"j  c #4E4A4D",
"k  c #564744",
"l  c #534D52",
"z  c #44555F",
"x  c #555255",
"c  c #5B5456",
"v  c #55565B",
"b  c #5A565A",
"n  c #5C5A5C",
"m  c #67524D",
"M  c #695957",
"N  c #7D655D",
"B  c #545D63",
"V  c #5B5D62",
"C  c #635D62",
"Z  c #6A5F61",
"A  c #5C6166",
"S  c #5B646B",
"D  c #676366",
"F  c #63646B",
"G  c #6C676C",
"H  c #6F6A6E",
"J  c #736867",
"K  c #736B6D",
"L  c #676C74",
"P  c #726C72",
"I  c #6B7379",
"U  c #767276",
"Y  c #74757A",
"T  c #797479",
"R  c #7D797C",
"E  c #82655C",
"W  c #886C64",
"Q  c #8A7269",
"!  c #927368",
"~  c #857973",
"^  c #817A7D",
"/  c #988176",
"(  c #A4887A",
")  c #556F83",
"_  c #647687",
"`  c #757D84",
"'  c #827D83",
"]  c #7C848B",
"[  c #6C8A99",
"{  c #7B8B95",
"}  c #7E919C",
"|  c #7E9BAC",
" . c #7CC9FA",
".. c #868184",
"X. c #85868B",
"o. c #8B868A",
"O. c #8D898D",
"+. c #918A8E",
"@. c #828D95",
"#. c #938E92",
"$. c #988F98",
"%. c #8D9296",
"&. c #84929A",
"*. c #8B959D",
"=. c #989396",
"-. c #9B959A",
";. c #9D999D",
":. c #AB8F80",
">. c #AC9082",
",. c #BC9D8C",
"<. c #A39C9D",
"1. c #889BA6",
"2. c #939CA3",
"3. c #A19BA1",
"4. c #82A0AC",
"5. c #93A2AC",
"6. c #9BA6AE",
"7. c #8CA8B6",
"8. c #96A9B5",
"9. c #9CABB5",
"0. c #9DB0BB",
"q. c #A6A1A4",
"w. c #A9A1A5",
"e. c #ACA5AB",
"r. c #AFAAAC",
"t. c #B0ABAF",
"y. c #B0A7B1",
"u. c #B3ACB2",
"i. c #A4B3BC",
"p. c #B7B1B5",
"a. c #BBB4B8",
"s. c #BCB9BB",
"d. c #C0A08E",
"f. c #C2A290",
"g. c #C2BCBE",
"h. c #99B5C5",
"j. c #92BCD4",
"k. c #A4B9C6",
"l. c #ABBAC4",
"z. c #B3BDC5",
"x. c #B1BFC9",
"c. c #C3BDC1",
"v. c #B5C3CC",
"b. c #A6C4D4",
"n. c #ABC9D6",
"m. c #B7CBD7",
"M. c #BED3DF",
"N. c #88CEF8",
"B. c #94CFF8",
"V. c #8CD4F9",
"C. c #92D4F9",
"Z. c #9CD7F9",
"A. c #96DAFB",
"S. c #9CDCFB",
"D. c #ACD5EB",
"F. c #BDD5E3",
"G. c #B6D8EA",
"H. c #A4D9F5",
"J. c #A4DDFB",
"K. c #A9DDFA",
"L. c #B2DFF7",
"P. c #B3DEFA",
"I. c #A5E0FC",
"U. c #ACE2FB",
"Y. c #BCE1F4",
"T. c #B4E4FC",
"R. c #BBE6FC",
"E. c #BEE8FC",
"W. c #C6C1C4",
"Q. c #C8C2C6",
"!. c #CBC6CA",
"~. c #CEC8CD",
"^. c #C1CFD8",
"/. c #D1CCD1",
"(. c #CED3D7",
"). c #D3D1D3",
"_. c #DCDBDC",
"`. c #C8DAE5",
"'. c #C4DFED",
"]. c #D1DCE6",
"[. c #E2DFE2",
"{. c #CAE2EE",
"}. c #D7E6ED",
"|. c #C7E6F5",
" X c #CDE6F5",
".X c #C3E6FB",
"XX c #C4E9FD",
"oX c #CCECFD",
"OX c #D7E8F2",
"+X c #D4E9F5",
"@X c #D4EEFD",
"#X c #D9EFFD",
"$X c #D6F0FD",
"%X c #DCF1FE",
"&X c #E8E7E8",
"*X c #E0EFF8",
"=X c #E3F3FE",
"-X c #EAF6FE",
";X c #EEF8FE",
":X c #F3F6F9",
">X c #F1F8FE",
",X c #FCFCFC",
/* pixels */
"=X=X-X>X;X;X;X;X-X=X-X=X=X=X%X%X%X=X%X%X%X@XXXoX%X%X=X=X%X$X$X@XoX$X$X$X$X$X$XoXE.R.@X@X@X%X$X%X%X$X%X%X%X%X$X$X$X%XoXXXR.%X%X-X",
"-X=X=X=X-X=X=X=X%X%X-X=X=X=X-X-X-X-X=X%X%XoX@X$X=X=X%X=X%XoXT.R.U.XX$X$XXXR.XXXXoXR.E.@X$XR.E.U.XX@X=X@X%XoX$X%X$X%XoX-X-X=X-X=X",
".XR..X%X=X=X=X=X=X%X@X#X$X*X=X-X=X=X=X%X#X@X@X%X%X%X$X%X%XXXoX$XXXXX%X%X%X$X$XoXoX%X%XoXoXXXXXXXT.$X=X%X%X$X%X#XoX$X%X=X%X-X%X-X",
"$X$X$XT.%XR.Z.J.=X=X=X=X$XoX%X-X%X%X%X#X@X$X@X$XoXoXE.oX$X$XoXoXU.oX%XoXoXoXoXoX@XoXoXoXoX%X%XoXXXXXXXoX%X$X%X%X=X-X%X%X%X%X%XY.",
"$X$XoXXXA.R.XXR.C.U.oX@X@XoXoX$X#X#X#X@X@X$X$X$X$X$X@XT.oXoXXXXXI.$X$X%X$X#X$X#XoXXXXXT.oX@XoX@X$X$XT.oX$X$X%X%X%X=X%X%X=X%XoXXX",
"oXXXXXE.R.R.R.E.R.K.R.XXXXoXoX@XoX@X@XoXoX$X%X$X#X@XoXR.E.Y.h.8.7.5.F L 1.i.oXoXoXoXoXoXT.oX@X@X$X$XU.oXoX$X$X%X$X%X=X=X=X$XU.oX",
"oX.XXX.XR.E.R.T.T.R.U.XXXXoX#XoXXXoXoXoX$X$X%X$X%X#X@X@XU.0.D -.r.> q % $ > 0.XXoXoX@X@X.XR.XX#X@X@XS.oX@X$X$X@X$X%X=X=X=XoXoXoX",
"oX@XoXoXoXT.T.S.R.R.R.oXoX@X#X@XoXoXXXoX#X$X%X%X%X%X#X#X.X@.;.W.R r q k R D v h.oX@XoX@XoXR.R.#X$XT.T.@XoXoX@X$X$X%X%X%X$X$XoXoX",
"$X$XoXoXXXR.U.J.T.T.E.oX%XXX$X$X%XoXoX@X$X$X%X%X%X%X#X$Xi.<./.!.c k m N c.U Z V k.@X@X@X@X@XR.V.A.XX@X@XoXoXoX@X$X$X%X%XoX$XoXXX",
"XXXXoXoXR.R.T.U.T.T.XX$XoX$X$X%X$X@X@X$X$X$X%X%X%X%X%Xv.R g.r.a.j 1 E ~ /.Q.T G @.@X@X#X#X@XU.Z.@X%X%X%X$X$X$X@X$X$X$XXX%XoXoXoX",
"XXXXoXXXE.R.T.T.U.R.oXoXoX@X$X$X$XU.oX$X$X#X%X=X{.].9.;.g.~...s...% 3 q.W./.=.P @.@X@X#X+XT.K.%X$X$X#X%X%X$XoX$X$X$X$XoX$X$XoXoX",
"oXE.oXoXXXE.T.R.S.XXoXoX@X@X$X$XXXU.oXoX$X#X}.+XV s f ;.<.g.r.!.!...;.g.-.w.O.P &.#X@XoX@X|.#X%X$X@X$X@X#X@X$X$XXX@X$XoXE.R.oXXX",
"$XXXE.oXXXXX.XE.T.T.oX@XoX$X$X@XI.E.1.I M.2.S @.6 $ + o 6 D o.<.p.M c.W.M ^ ' P %.=X#XoX#X%X%X%X%X@XoX@X$X$X$X$X@XoXT.E.@X$XE.oX",
"$XXXXXXXXXXXoXoXoXU.XXoXoX@X@XoXI.|.s & h & $ $ + + + + + + . + & $ c t.<.K ' P @.oXoX@X%X@X%X=X%X@XoX#XoXoX$XoX@XI..X$X$X$XoX$X",
"%X@XoXXXE.oX@XoXoXT.I.oX$XoX@XU.XX} 8 : + + $ + + + + + @ + + + $ + o 1 n =.o.c I  X@X@X%X%X#X%X=X$X$X@XT..XoX$XT.Y.oX$X$X#X#X#X",
"@X$X$XoXoXoXoXoXoXoXI.XXoX@XJ.H.m.s - & 2 : + + $ + + + $ + + $ + $ $ / D ^ d g 9 v.oX#X@X#X%X@XT.XX@X@XoX$XU.U.N.XX$X$X$X#X$X$X",
"$X@X@X@XoXoXoXoXoXoX@X .U.N.| s 5 2 = + = $ + + + $ + $ + + O @ + + + / :.J ! m A ] oX#X%XoXS.T.#X@X@X@X@X%X%XR.oXoX@X@X@X@X@X$X",
"%X$X@X@X@X@X@X@X@X@XK. .j.v $ o @ o 2 $ + + + + + $ + # + # $ + + + & k >.,.,.( 0.n.oX@XA.K.@X%X#X#X%X$X=X=X%XP.oXoX@X@X@X@X@X%X",
"-X%X@X@X@XoX@X@XoXT.N.h.5 @ X @ @ o $ & + + + + $ + + $ $ + $ + + + $ > Q f.( N 0.Z.T.C.oX$X#X#X%X#X%X=X%X%X%XJ.K.@X@X#X%X%X%X=X",
"=X=XoX@X@XXXoXoXP.Y.8.; > & o @ @ o > = 2 $ + + + + + + + # + + + & 0 > M E m ) L.R.T.%X@X@X@X#X#X%X%X%X%X%X%XP.=XR.@X@X$X%X=X-X",
"-X=X@X@X=X#XU.T.oX5.= 3 3 # o # o # X # + $ : & + + + + @ # # # & + + + : N W _ #XXXoX$X@X@X.X@X@X#X=X%X%X%X%X.X%X.X$X$X@X%X-X=X",
"=X=X@X=X=XoXoX#Xl.2 3 3 3 X # o # * 3 3 > + - & = * + $ % $ # $ + = - : * 4 q i.|..X=X=X=X=X.X@X@X@X%X%X%X%X#XoX@XoX@X X%X=X-X=X",
"=X=X=X%XoX@X@X'.h ; 3 3 ; X # @ # 3 3 3 3 > = + @ # * * * = : * = % & = > 9 r ` H.$X=X=X=X=X#X#X$X$X%X@X$X@X@X%X.X#XF.R l.%X=X=X",
"=X%X%XoX@X#X#X5.* 3 3 3 * # # # * 3 3 3 3 3 3 $ * > : : : & * ; = ; 3 < 3 3 3 l | }.=X-X=X=X=X#X@XoXoX@X@X$X$X@XoX X%.W ..+X%X%X",
"%X%X@X@X%X#X@XB - 3 3 2 X # @ # 3 3 3 3 3 3 ; 3 i < 3 3 3 3 3 3 3 3 3 3 > 3 3 p a C 2.}.*X=X=X*X$X@X@XoXoX@X$X@XoX`.c ( +.OX%X=X",
"=X%X@X%X%XXX@Xh = ; * o   # # # 3 3 3 3 < 3 3 a < 3 3 3 3 3 3 3 3 3 3 3 3 3 3 > 3 3 a l 2.OX*X#X@X$X%X@X@X@X@X@XXX`.n d.6.$X%X=X",
"%X@X$X%X$X$XoX1.* # # # X # # * 3 3 3 3 3 3 9 4 < 3 3 3 3 3 3 3 3 3 3 3 3 3 * 3 3 3 3 3 a C x.#X@X%X@X@X@X@X@XXXR.G.c ( v.$X%X=X",
"=X$X%X@X%XoXXX X&.* # # ; * # * 3 3 3 3 3 3 3 3 3 3 3 3 3 3 3 3 3 3 3 3 3 * * 3 3 3 3 3 3 i b } }.%X@X@XoXoXoXJ.@Xm.~ / 5.$X$X-X",
"%X%X@XXXT.@X@X@XoX8.5 $ 3 ' p ; < 3 3 3 3 3 > 3 3 3 3 3 3 3 3 3 3 3 3 3 > @ ; 3 3 3 3 3 3 3 9 g G X.6.m.F.'..XK.@X%.,.! / +X-X=X",
"=X%XXXR.@X@X@X@X@X@Xm.V 6 $.3.' 3 < 3 3 3 3 3 3 3 3 3 3 3 3 3 3 3 3 3 3 * X = 3 3 3 3 3 3 3 3 3 p a a g v C L B 4./ d.( } %X%X-X",
"=X=XR.@XoX@XoXoX@X@X@X#X` $.e.&X[.T 3 > 3 3 3 3 3 3 < 3 3 3 3 3 3 3 3 < # o * 3 3 3 3 3 3 3 3 3 3 3 > > 3 9 9 % q ! f.! =.OX=X%X",
"=X.X%X$XoXXXJ.oXoXoX#X#X` v y.[.,X:X_.o.p > > 3 3 3 < 3 3 3 3 3 3 3 4 * @ X * 3 3 < < < > ; ; ; ; > > < < 3 < % w ! ( E =.OX=X=X",
"=XXX%X%X%XoXXXoXoXoX=X#X7.$ p s.,X,X,X,X&Xs.T g 3 > > 3 3 3 3 3 3 3 < * @ X # * $ $ $ $ $ $ $ $ # # + # # % # o t m E m l.*X=X=X",
"%XoX%X%X=X%XoXoXoXoXoXoXb.: @ ; .._.,X,X,X,X,X&X/.w.R n p 8 3 2 < ; * @ @ X @ @ @ $ - : 2 5 f A ` @.2.6.9.0.9.7.x.k.1.k.=X#X#X=X",
"=XoXoX@X%X$X$XoXXXXXXXoX Xh # % > 9 ' /.:X,X,X,X,X,X,X,X&X).W.t.+.C l g i 9 ; B ] 8.k.v.m.D.@X;X=X=X=X=X=X@X@X@X#X@X@XY.oX#X=X=X",
"=X%XoX@X#X%X#XoXoXXXXXXXoX} # # > 3 > 3 c <._.,X,X,X,X,X,X,X,X[.y.y.u.3.T C M.#X@X@X@X@XoXR.@X=X-X=X-X=X=X#X#X@X#X#X#X=X.X#X=X#X",
"%X%X@X@X%X#X@XE.#XoXXXoXXXF.i # = 3 3 3 3 ; ; a P -.s.).&X&X/.y.y.y.-.U C m.*X*X$X@X$X#X#XT.%X=X=X-X-X=X=X#X#X#X%X=X=X%X#XXX$X%X",
"=X%X@X@X$X#XR.oXXXXX@XoXoXoX| # * 3 3 3 3 3 4 3 3 < 2 3 3 < 3 8 i p 3 C ^.=X=X=X@XoXoX@XoXT.%X%X=X=X=X-X=X=X#X=X%X%X=X=X=X@X.X=X",
"%X%X@X%X@XR.@X#XXXXXXXXXoXR.[ $ # ; 3 3 3 3 3 > 3 3 3 = # # # # # : ` ].=X=X=X=X#XoX$X#X@XE.=X=X*X=X=X=X=X=X#X=X=X=X=X%X=X=XoX@X",
"=X@X%X%XR.@X%X@X@XXXXXXXoXK.} # * 3 3 3 3 3 3 3 3 > * # + @ $ ; V x.*X-X-X=X=X=X=X$X-X@XoXXX#X#X=X=X=X-X=X=X#X#X=X%X=X=X%X%X=X.X",
"oX#X=X.X@X%X$X#X$XXXoXXXE.J.h.0 G n 9 3 < > 3 < * * * # + 2 Y v.=X-X=X-X=X-X=X-X=X-X#X#XT.#X@X#X%X=X=X=X=X%X#X#X%X%X%X=X=X=X%X%X",
"=X=X=XoX*X%X.X-X=XoXoXXXXXXXG.i ' 3.C 3 C G 3 $ 0 H H g % 5.=X=X-X-X-X-X-X-X-X=X-X=X%X#XJ.#X%X=X=X=X=X=X%X#X@X#X%X%X=X=X=X=X=X=X",
"%X-X*X@X=X+X#X=X$XXXXXXXXXXXb.2 a.c.a 3 U =.H > i e.q.% I #X=X=X-X=X=X-X-X=X-X-X-X=X=X@XK.oX%X%X%X=X=X=X=X#X#X#X%X=X=X%X=X-X-X=X",
"$X-X-X@XoX@X-X%X$XXXXXXXXXoXb.s l C % # G 3.P * ; O.U = i.=X*X=X=X-X-X=X-X-X-X-X-X-X=X@X@XT.%X%X%X=X%X=X=X=X%X%X%X=X%X=X=X=X-X%X",
"$X;X-X=XoX=X*X$XoXXXXXXXXX.X{ #.P 8 = $ 6 b - $ & f n j U *.z.].*X-X-X-X=X;X-X-X-X-X=X=X@XK.@X@X%X%X%X=X=X=X%X%X%X=X=X=X=X-X-X$X",
"oX$X=XXX%X$X$X$X@XoXXXoXXXh.l o.#.U U U U l x ..O.#.3.W.t.p.w.H %.}.-X=X-X-X-X-X;X-X-X=XoXU.@X@X@X$X@X%X%X%X#X%X=X=X%X$X%X;X=X@X",
"$X@XoXoX%XoXoX$XoXoXoX.Xk.X.q.c.Q.p.j K -.T R O.U =.s.~.~./.Q.q.$.%.OX=X=X-X;X-X-X-X;X#XR.T.@X@X@X@X@X@X@X#X#X%X#X=X=X=X=X$X@X$X",
"-X#XoX$X%X$X$X$X@XoX.Xb.] !.~.~.~.R 9 V D x 8 j b M K r.O.R e.W./.#.}.=X-X;X-X;X;X-X-XT.XX$X%X@X@X$XoX@X@X#X=X=X=X-X;X;X=X$X#X-X",
"=X%XR.+Xl.1.6.Y S ] H ] g.~.g.g.a.U V ] v.`.i.X.f < : g g d U =.K ` *X=X-X-X;X;X;X;X$XV.@X#X#X#X%XoX@X@X%X%X=X=X;X;X;X-X=X#X=X=X",
"=X*XD.Y e - ; ; R t.a.g.W.-.J #.L *.M.$X#X%X%X] - ; ; G K ^ ..Y L (.-X-X-X-X;X;X;X=XR.oX@X%X#X@X%X@X@X@X#X=X=X-X-X;XR.;X#X#X=X=X",
"-X=Xh.k m 1 1 , #.W.u.t.R x ` i.D.oX%X%X%X*X^.r , 1 1 6 r < 0 %.}.=X=X-X-X-X;X>X-XoX.X$X#X%X*X%X#X@X#X#X%X%X=X=X;X-X.X%X%X#X=X=X",
"-X%X7.t u w & q 6 9 F *.l. X$X$X+XT.%X$X%X%X6.t w - 1 & . % = ; 6.=X-X=X-X;X;X>X>XoX#X%X%X=X-X=X%X#X%X#X#X#X%X=X-X>X;X#X#X#X=X=X",
"=X%Xh.d u q * $ . B @X#X#X#X%X%X%XXXoX%X%X%Xv.7 u w ; - - % % % n *X=X-X;X;X;X>X-X%X=X$X%X;X-X=X#X@X#X#X#X@X#X=X-X-X-X-X=X%X-X=X",
"-X-XT.2.w , $ % $ ; { @X%X$X%X@X%XE.oX%X=X%X#X7.z f e y w , % % V =X=X-X;X:X;X=XoX=X=X%X%X=X-X=X%X#X#X@X#X#X@X%X=X=X-X-X;X%X-X=X",
"=X-XR.m.r t , < - % 9 @X@X@X$X%X$XoXR.$X=X=XXXI.Y.`.] 0 1 - = 0 l.=X=X-X;X;X-XoX-X=X=X%X=X%X=X=X=X%X#X#X%X@X%X@X#X#X-X=X-X=X=X=X",
"=X%XR.{.n k y , - % 2  X%X%X#X%X$X$X|.I.XXE.U.oX%X#X#Xv.2.2.l.`.=X=X=X-X;X-X$X=X%X%X%X=X%X%X#X#X%X=X=X%X#X@X$X@X@X@X#X=X=X=X=X-X",
"=XoXR.=Xl.d e < - % S #X#X#X%X%X$X*X-XS. .S.oX%X=X%X%X%X%X%X=X%X=X%X=X-X;X=XoXoX%X%X%X=X%X#X%X%X%X%X=X%X$X$X@X$XoXoX+X=XoX=X=X=X",
".X@X@X=X@X'.7.{ { 6. X@X#X=X=X%X=X%X$XA.I.$X=X=X=X=X=X%X=X%X%X%X=X=X=X=X-X@X$XoX=X=X%X#X#X=X%X#X#X#X#X=X=X$XJ.@X@X#X%XoXT.=X-XoX",
"E.=X#XoX@X@XoX@X@X@X@X@X%X%X=X%X%X%XT.V.#X-X%X=X=X=X=X=X%X%X%X=X#X=X%X=X-XoX@X=X=X$X=X%X#X=X%X%X%X#X#X=X=X$XXXoX#X=X=X=XT.*XoXU.",
"=X-XoX.X@X@X@XoX@X@X@X#X%X%X%X=X%XXXI.=X%X*X=X=X=X=X=X=X%X=X%X=X=X=X=X=X=XoXR.#X%X#X=X%X%X=X%X#X#X%X%X#X%X=X%X%XR.=X=X*XI..XT.-X",
"-X=X@XoX@X@XoX@X$X@X#X#X#X=X;X@XE.T.%X=X=X=X%X=X=X=X=X%X%X=X%X=X=X=X%X-XoXoXoX*X-X%X=X$X%X%X=X#X%X%X#X%X%X=X=XXXA.Y.$XT.C.N.#X*X",
"=X=X%XT.@XoX@X#X@X#X$X.X@X=X@XoXR.-X%X%X%X%X%X%X=X=X=X=X=X=X%X%X%X%X=X=X%X$XXX=X%X-X$X$X=X=X%X%X%X@X%X%X-XXXR.A.V.I.U.%X$X@X;X=X",
"=X-X=XA.#X@X@X@XoX|.L.R.#XoX@XR.=X=X=X=X%X%X$X%X%X=X%X=X=X%X%X%X%X%X*X-X-XE.T.U.oXoX=X=X=X=X=X%X%X%X=X@XR.E..X$X%X=XoX*X$XoX=X*X",
"-X=X=XR.A.B.K.K.K.XX=X$X#X$XE.=X-X;X=X=X=X%X%X%X%X%X%X%X%X=X%X$X$X$X$X%XT.=X-X=X@X.X#X-X=X=X%X$X=X%XR.E.oX=X=X=X-X=X%X=XoXoX>X-X"
};
