/* XPM */
static char *result[] = {
/* columns rows colors chars-per-pixel */
"64 64 217 2 ",
"   c #0C0B0C",
".  c #100E0E",
"X  c #110E10",
"o  c #151314",
"O  c #181517",
"+  c #1A1817",
"@  c #191618",
"#  c #1C1A1B",
"$  c #221C1E",
"%  c #281E1D",
"&  c #21201F",
"*  c #1E1F20",
"=  c #221E21",
"-  c #351F29",
";  c #252124",
":  c #2A2324",
">  c #2B252A",
",  c #262829",
"<  c #2D292D",
"1  c #312726",
"2  c #312A2D",
"3  c #3A2D2D",
"4  c #3F322E",
"5  c #322C31",
"6  c #2E3032",
"7  c #353134",
"8  c #3B3234",
"9  c #393638",
"0  c #3B343A",
"q  c #3D3A3D",
"w  c #44322F",
"e  c #422934",
"r  c #453635",
"t  c #43353D",
"y  c #423A3C",
"u  c #4B3D3A",
"i  c #533D39",
"p  c #4E413C",
"a  c #53423E",
"s  c #59423E",
"d  c #3D3F43",
"f  c #433D43",
"g  c #493D45",
"h  c #493E49",
"j  c #503944",
"k  c #3D454B",
"l  c #454144",
"z  c #4A4445",
"x  c #43474B",
"c  c #4B444A",
"v  c #4D4B4E",
"b  c #574846",
"n  c #524C4D",
"m  c #484F54",
"M  c #534551",
"N  c #524C52",
"B  c #4D5256",
"V  c #535256",
"C  c #54555B",
"Z  c #5A545A",
"A  c #5C5759",
"S  c #55595D",
"D  c #6F504B",
"F  c #71534E",
"G  c #685452",
"H  c #775D53",
"J  c #776259",
"K  c #565660",
"L  c #545B61",
"P  c #5C5A63",
"I  c #635E62",
"U  c #635B69",
"Y  c #5B6167",
"T  c #5D6A74",
"R  c #666266",
"E  c #696366",
"W  c #64646A",
"Q  c #6A646A",
"!  c #61686E",
"~  c #6C696D",
"^  c #706564",
"/  c #736B6C",
"(  c #646B73",
")  c #6A6D76",
"_  c #726D72",
"`  c #71687C",
"'  c #6B737A",
"]  c #7A7375",
"[  c #747478",
"{  c #7B757B",
"}  c #7F7A7D",
"|  c #835E56",
" . c #83655B",
".. c #8F7166",
"X. c #8B7268",
"o. c #95766B",
"O. c #827A7B",
"+. c #A17D67",
"@. c #A07E72",
"#. c #A6887A",
"$. c #B18B73",
"%. c #6D7881",
"&. c #747C83",
"*. c #797D82",
"=. c #797989",
"-. c #837D82",
";. c #82788F",
":. c #887E98",
">. c #778289",
",. c #7B848C",
"<. c #7A8792",
"1. c #7191A1",
"2. c #6ABFF5",
"3. c #7CC9FA",
"4. c #858387",
"5. c #8A848A",
"6. c #8D8A8D",
"7. c #928A8D",
"8. c #858D95",
"9. c #938C93",
"0. c #87929A",
"q. c #9B9599",
"w. c #9B949A",
"e. c #AD8F81",
"r. c #B49485",
"t. c #B79887",
"y. c #BD9D8C",
"u. c #8F86A1",
"i. c #879AA5",
"p. c #939EA6",
"a. c #919FA8",
"s. c #A29CA1",
"d. c #94A3AC",
"f. c #9EA6AC",
"g. c #8AA2B2",
"h. c #97AAB5",
"j. c #A4A0A4",
"k. c #ABA5AB",
"l. c #A7A9AD",
"z. c #B1AAAF",
"x. c #A3AEB7",
"c. c #B3ADB3",
"v. c #A3B2BB",
"b. c #ACB7BF",
"n. c #B6B2B5",
"m. c #BBB5BA",
"M. c #BEBBBE",
"N. c #C1A08F",
"B. c #C5A493",
"V. c #C0BCBF",
"C. c #99B4C2",
"Z. c #8FBBD1",
"A. c #A9BAC4",
"S. c #B2BCC3",
"D. c #B2BFC9",
"F. c #A2BFD0",
"G. c #C2BDC2",
"H. c #9DC9DF",
"J. c #AEC1CC",
"K. c #B6C3CC",
"L. c #AFC7D5",
"P. c #B6CAD6",
"I. c #BDCDD6",
"U. c #BBD2DE",
"Y. c #93CBED",
"T. c #88CEF8",
"R. c #8CD5FB",
"E. c #96D7F9",
"W. c #9CDCFB",
"Q. c #B6D4E4",
"!. c #A4DDFB",
"~. c #AADDFA",
"^. c #B6DFF6",
"/. c #A7E1FB",
"(. c #ACE2FB",
"). c #BFE2F4",
"_. c #B4E4FC",
"`. c #BBE6FC",
"'. c #BEE8FC",
"]. c #C6C2C5",
"[. c #CBC6CB",
"{. c #CDC9CD",
"}. c #C5CFD6",
"|. c #D1CCD2",
" X c #C6D4DD",
".X c #D9D7D9",
"XX c #C4D6E1",
"oX c #C7DBE7",
"OX c #CBDBE5",
"+X c #C3DDEB",
"@X c #CADDE9",
"#X c #E0DEE0",
"$X c #CDE0EC",
"%X c #D3E3ED",
"&X c #DAE5EE",
"*X c #C3E4F5",
"=X c #CCE4F2",
"-X c #CDE8F6",
";X c #C3E6FB",
":X c #C4E9FD",
">X c #CCECFD",
",X c #D4E6F1",
"<X c #D0E8F4",
"1X c #DCEBF4",
"2X c #D3EEFD",
"3X c #D9EFFD",
"4X c #D6F0FD",
"5X c #DCF1FE",
"6X c #E4E2E3",
"7X c #ECEBEC",
"8X c #E1EDF5",
"9X c #E3F3FE",
"0X c #EBF6FD",
"qX c #EEF8FE",
"wX c #F4F4F4",
"eX c #F4F8FC",
"rX c #FCFCFC",
/* pixels */
"9X9X0XqXqXqXqX0X0X9X9X9X9X9X9X5X9X5X9X5X4X5X:X>X4X8X9X9X4X$XU.P.L.P.J.d.x.$X-X>X'.`.2X2X2X3X4X4X5X4X5X5X5X5X4X4X4X5X2X'.'.4X4XqX",
"0X9X9X9X9X0X0X9X5X5X0X0X9X9X9X9X9X0X9X5X5X>X4X3X5Xb.4.0.0.4.>.[ S W B & 2 T ).:X>X`.'.2X2X'.`.(.:X2X9X2X5X>X4X5X4X5X>X9X0X9X0X9X",
"*X'.:X9X9X9X9X9X9X5X2X3X4X9X0X0X9X9X9X5X5X4X>X1Xa.z y 8 z q.] 7.7.R l 9 a 8 v.>X>X5X5X>X>X:X:X:X_.2X9X5X5X4X5X3X>X4X9X9X9X9X9X9X",
"4X4X4X(.3X`.W.!.9X9X9X9X3X>X5X0X5X5X5X5X2X2X2XQ.N u a J w q.9.O.M.5.p p b 7 0.:X2X>X>X>X>X5X5X4X:X:X'.2X5X4X5X5X9X9X9X5X5X5X9X'.",
"4X2X>X:XE.`.:X`.E.(.>X2X2X>X>X3X5X5X4X2X4X2X1XJ.y t  .$.H s.].z.G.j.{ R p 6 L.4X>X>X:X(.>X2X>X2X4X4X`.>X4X4X4X5X5X9X5X5X9X5X-X:X",
">X>X:X:X`.`.`.'.`.~.`.:X:X>X2X>X>X>X2X>X-X4X4XP.0 r J +.J m.{.{.|.q./ Q C 0.-X>X>X>X>X>X_.>X2X2X4X4X(.:X>X4X4X5X4X5X9X9X9X4X(.>X",
">X;X;X'.`.`.`._._.`.(.:X:X>X2X>X:X>X>X:X4X4X4X,X,.: : 1 } s.s.V.[.c.A E ~ *.).-X>X>X2X2X*X`.:X3X2X2XW.4X>X2X4X4X5X5X9X9X0X:X>X>X",
">X2X>X>X>X_._.W.`.`.'.>X>X3X2X2X>X>X>X>X5X4X4X4XL.v : R z.} J z.[.G./ E E v >.).>X2X>X2X>X`.'.3X5X_._.>X>X2X4X2X4X4X5X5X4X4X>X>X",
"4X>X>X:X:X`.(.!.(.`.'.>X5X:X4X4X5X2X>X2X4X4X4X$X>.9 < / V.m./ j.{.V.m.5.} n k C.>X>X2X4X2X3X`.R.E.:X2X2X>X>X2X2X4X4X5X5X>X4X>X>X",
":X>X>X>X`.`._./._._.:X4X>X4X4X4X4X2X>X4X2X XY x & o # E n.[.n.[.[.z.w.7.[ f O B U.>X2X5X3X2X(.E.>X5X9X5X4X4X2X2X4X4X4X:X5X>X>X>X",
":X:X>X>X'.`._._./.`.>X>X>X2X4X5X4X(.:X2X4XJ., + + + o X y O.s.k.k.4.3 8 A z . X %.U.>X5X1X(.~.5X4X4X2X5X5X4X>X2X2X4X4X>X4X4X>X:X",
">X:X>X>X:X'.`.`.W.:X>X>X2X2X2X4X:X(.>XU. X>.* + + + + + o i s ~ O.V D s s D %   * 0.2X>X2X*X3X5X4X4X2X5X2X2X3X2X:X2X4X>X'.'.>X:X",
"4X'.'.>X:X:X'.'._._.>X>X>X4X4X2XW.:XU.k k , + + # + + + %  .@.X...o.e.o.F | $   @ 0.3X>X3X5X5X5X5X2X>X2X4X4X3X4X>X>X_.'.4X4X`.>X",
"4X:X:X>X:X>X>X>X>X(.:X>X>X2X2X>X/.).>.* & # + + + + + * 1 F #.B.B.N.y.#. .H O   O k h.>X2X2X5X9X5X2X4X3X>X>X2X>X4X/.;X4X4X4X-X4X",
"4X2X>X:X:X:X>X>X2X_./.>X4X>X2X(.).>.6 & + + + + # # + & 3 o.r.y.y.t.X. .H D 3   X @ 6 ' XX2X3X5X9X4X4X>X_.'.>X4X_._.>X4X4X5X4X5X",
"4X4X2X>X>X>X>X>X>X>X/.:X>X2X!.~.$XL & + & & + * : , & 1 H r.y.y.t.X.#.#. .F i   O O # = C I.5X2X(.:X2X2X2X4X(.(.T.>X2X2X4X4X4X4X",
"2X4X2X2X>X>X>X>X>X2X>XT._.R.*X2X^.L ; & ; # , $ = = - e o.N.t.t.t.r.e.#.@.| 3   o # @ # = P Y.~.4X3X2X3X3X5X5X`.>X>X2X2X2X2X2X3X",
"5X2X2X2X2X2X2X2X2X2X~.2.!.4X3X4XU.x # # # , O o X o = i i H #...#.t.y.N.t...i   o O O O O 5 =.-X3X4X5X4X5X9X5X^.>X>X2X2X2X2X4X5X",
"0X5X2X2X2X>X2X2X>X_.E.`.5X5X4XoXS : < > > : > > $ X o = w i i b J t.N.N.N.+.s   o O O @ @ = d D.3X3X5X9X9X5X3X(.~.2X2X2X5X5X5X9X",
"9X9X>X2X2X:X>X>X_.*X2X2X4X>X$XT 2 5 5 5 2 5 5 5 5 = @ > = = % - w a H o. .b 3 o o O @ O O O 5 =.3X3X5X5X5X5X5X~.5X'.2X2X4X5X9X0X",
"0X9X2X2X9X5X(.`.2X3X3X3X2X-X<.5 5 5 5 5 5 5 5 2 5 5 = # = > > = $ $ O $ 2 A y $ O O O O @ @ > K <X3X9X9X5X5X5X*X5X:X2X2X2X5X0X0X",
"9X9X2X9X9X>X:X2X3X9X3X3X2Xg.0 5 5 5 5 5 5 5 5 5 5 5 5 5 > # * - > < 2 5 q.].7 + O O O O o @ = d P.2X5X5X5X5X3X>X2X>X2X4X3X9X9X9X",
"9X9X9X5X>X>X3X2X3X3X3X2XQ.C 5 5 5 5 5 5 5 5 5 5 5 5 5 5 5 d - @ # # # f M.4.N > : @ O O o @ = , J.>X3X3X2X2X2X5X;X2X4X5X5X5X9X9X",
"5X9X5X>X2X5X5X2X2X3X3X*X8.d 5 5 5 5 5 6 5 5 5 2 5 5 5 5 5 - 0 d > = # R [.w.5.w.w.*.d O o o # < L.>X>X2X2X2X4X2X>X3X2X2X5X5X9X5X",
"5X9X2X2X5X3X3X2X2X5X4XP.K 0 5 5 5 5 5 5 5 5 5 5 5 5 5 5 < 5 9 8 0 h 4.s.k.4.6.s.k.k.w.q o o @ d K.>X2X2X>X>X4X4X>X3X4X3X3X5X5X5X",
"9X5X2X5X2X>X2X2X>X:X>Xh.h f 5 5 5 2 5 5 5 5 5 5 5 5 5 5 5 5 0 8 d k.wXrXwX{.9.{ 9.k.k.;.# o # f U.2X4X2X4X4X>X>X>X4X4X5X2X5X5X9X",
"5X2X4X4X2X4X2X;X>X4X>X>.g 0 t 0 5 5 5 5 5 5 5 5 5 5 5 5 5 5 5 z V.{.n.w.s.j.{ c - [ z.s.5   = B >X5X4X>X2X2X2X>X`.>X'.4X4X5X5X9X",
"9X4X5X2X3X>X:X2X>X4X>X( M 5 > 5 5 5 2 5 5 5 5 5 5 5 5 5 5 5 9 k.rXrXG.c E j.E 2 O d s.s.c o 5 ' 9X9X5X>X2X>X>X/.3X>X-X5X5X3X5X9X",
"5X5X2X:X`.>X2X2X4X4X2X( M 5 5 2 = > 5 5 5 < 5 5 5 5 5 5 > 5 _ wXrX|.c < 9 q O O o > w.z.R ; < h.9X9X5X5X2X4X>X(.4X>X2X2X5X5X0X9X",
"9X9X:X`.2X2X2X2X>X4X2XU c 5 5 5 < # > 5 5 5 > > 5 > 5 5 5 0 ].rX7XU 5 5 < > @ O @ f w.s.Z : k I.8X9XqX9X>X4X>X>X`.2X>X4X5X9X9X9X",
"5X9X'.2X2X>X>X>X2X4X=XK h 2 5 2 5 = # 5 5 5 - = 5 5 5 5 5 Q 7XrXj.5 5 2 5 0 = O 5 w.k.s.7 > ( %X4X0X0X0X>X>X4X>X:X:X>X>X4X0X9X9X",
"9X:X3X4X>X:X!.>X>X>X=XC h 5 5 5 5 = @ = 5 5 < * 5 5 5 5 5 u.rX7XI 5 5 5 5 5 = o d k.k.} O O ( 1X4X4X9X5X4X4X>X>X>X`.4X2X9X9X5X9X",
"5X:X5X5X9X>X:X>X>X>X%XK h > 5 5 5 = @ @ = = ~ R v 0 5 5 8 V.rX.X[ N 5 5 5 5 = o h k.s.f o = d D.1XI.3X3X5X2X2X>X>X2X`.4X5X5X9X9X",
"9X>X5X5X5X5X>X>X:X>X+XK h 5 5 5 5 * @ o @ f w.c..X{.c.j.l.7XrXrX7X-.< 5 5 5 = O > 7.*.# # 5 - Z U K D.9X5X2X2X2X>X2X;X:X9X5X5X9X",
"9X>X>X2X5X5X3X>X:X:X^.P h > 5 5 > @ @ o > Z w.c.7XrXrXrXrXrXrXrXrX-.< 5 7 2 - o 5 9.) m O > d ` Q Z ) 1X5X3X2X2X4X2X2X;X>X5X9X5X",
"9X5X>X2X5X4X4X>X>X:X`.U h 5 5 5 = @ 6 %., > A 9.|.rXrXrXrXrXrXeX{.A > 5 7 2 * o Q -.C.8.f M f Z :.Z K S.9X5X5X2X4X5X5X9X:X4X5X9X",
"5X5X2X2X4X3X3X`.3X>X;X( h 7 5 5 # = h.-XA.B # < N 6.c.].].wXrX{.f 5 5 5 7 5 # c ;.( *.Q g M j e =.U I *.&X3X3X5X5X9X9X5X4X;X4X9X",
"5X5X2X2X3X3X`.>X:X>X>X%.h 5 5 > @ T =X2X2XoX' * O O ; 7 z .XrX6XN 5 5 Z =.] g 9._ i.u.U e ^ I M h ;.P U  X9X3X5X5X5X9X9X9X2X;X9X",
"5X5X2X5X2X`.2X2X:X:X;Xi.h 7 7 = = i.2X2X4X4X,X0.6 $ # ; 7 z.rXeXM.Z f G.[.z.w.Q f.Q.;.:.h _ E t - %.Z U OX9X3X9X9X9X9X9X5X9X>X2X",
"5X2X9X5X'.2X5X3X2X;X;XF.h d 5 = > h.2X3X4X9X9X9XA.B 0 ; q ~ 6XrXrX7X|.#Xn.s.-.x  X3Xp.:.U e t > 3 0 h  X9X9X3X3X9X5X5X9X9X9X5X:X",
"2X2X9X:X2X5X4X4X4X:X>XQ.P d 5 = 6 A.3X5X9X5X9X9X8X} x v 6.-.5.{.wXwXwXc.6.I 5 l OX9XOX*.:.7 > 0 2 2 &.9X9X5X2X3X5X5X5X9X9X9X5X5X",
"9X9X9X>X9X5X*X0X5X>X>X).=.h < - , C.2X3X9X;X9X9X5X} q V m.n.g y I [ n.s.[ * @ >.1X9X2Xf.=.x < > x 0.@X9X5X3X2X3X5X5X5X9X9X9X9X0X",
"9X0X9X2X9X<X4X9X5X:X:X:XC.m 0 = ; g.2X9X3X2X9X9X9Xl.; 8 9.6.0 < : > 6.6.A o 8 b.0X9X9X+Xg.i.' p.OX9X9X9X9X5X5X3X5X9X9X9X9X9X9X9X",
"4X9X9X1X4X4X9X9X2X:X'.:XQ.L f = @ ( ,X3X5X5X9X5X9XK.z _ R z f V Q E ] ~ E n n }.9X9X9X3X2X^.,X3X3X5X5X9X9X9X5X5X5X9X5X9X9X0X9X9X",
"4XeX9X9X:X9X5X2X>X>X:X>X).L 0 # O @ a.3X5X5X9X9X9X}.E n.k.G E 4.5.6.A z #.<.~ 1XqX0X0X3X2X~.2X2X5X4X9X9X9X5X5X5X5X9X9X5X9X9X0X5X",
"2X4X9X:X9X4X2X2X2X:X:X:X).S = $ # : q p.3X9X9X9X9XOX4.{.V.4.A _ Y V A I 4.4.6.0X0X0X0X9X>X(.2X2X3X3X2X3X5X5X5X5X5X9X9X5X9XqX9X4X",
"4X>X>X:X9X2X2X2X2X>X:X:X:X( b y l z y L ,X5X5X9X9X%X*.[.[.G.} E b.f.] z.k._ K.qX0X0XqX3X'.`.2X2X2X2X2X2X4X2X5X5X5X9X9X9X9X4X>X4X",
"9X5X>X5X5X2X2X4X2X>X>X>X*X( b z z 9 2 Y ,X5X9X9X9X+X( V.{.G.5.[ 1X}.P q.c.W &XqX0X0XqX_.:X2X2X2X2X2X>X2X2X5X5X0X9X0XqXqX9X5X4X0X",
"0X5X`.3X5X2X5X5X>X>X>X>X2X0.v c l < & d.4X4X9X9X5XQ.( m.7.q.E S.9XI.] / ] ! 8XqXqXqX4XR.2X3X3X3X5X>X2X3X5X5X9X9X0XqX0X0X9X3X9X9X",
"9X9X`.4X2X2X5X4X2X2X>X2X2X=X>.A p 7 Y $X5X5X9X5X9XH.4.{.O.I Y 8X9XS.E q.] _ 7XqXqX9X`.>X2X5X3X2X5X2X2X3X5X9X9X0X0X0X`.qX3X5X9X9X",
"9X9X~.4X2X2X3X5X>X2X2X2X2X2X=XI.C.h. X5X5X5X9X9X5XZ.*.|.k./ ,.9X8XW 7 q.7.p }.qXqX>X;X4X3X5X9X5X5X2X2X3X5X3X9X9X0X0X:X9X3X5X9X9X",
"0X9X~.3X2X2X5X3X2X2X2X2X3X5X2X5X4X_.4X5X5X9X5X9X>X1.n m.m.I x.9X1XV + 7 l 6 S.0XwX>X5X5X3X9X9X0X4X3X3X3X3X3X5X9X0XeX0X5X3X5X9X9X",
"9X9X~.5X2X2X5X2X2X2X2X5X5X5X4X5X9X*X:X4X5X5X5X9X^.k n q.s.q v.9X4XS + $ 1 1 f.0X9X5X9X5X5X0X0X9X3X3X3X3X3X2X5X9X0X0X0X0X9X5X9X9X",
"9X0X`.5X2X2X3X2X>X2X2X3X5X3X2X5X5X'.2X5X9X9X5X:XE.V 1 q 9 $ x.9X1XV % % 4 r z 6.<.b.,X5X5X9X0X9X5X3X3X3X5X2X2X5X9X9X0X0X0X9X9X0X",
"9X9X`.9X2X2X2X2X>X2X2X2X2X2X5X4X4X>X`.4X9X9X>X/.*XB 1 : + 6 K.9X1XA & : 8 3 4 p r p ,.5X9X5X9X9X9X5X3X2X5X5X2X2X2X3X0X9X0X9X9X9X",
"0X8X'.5X2X2X>X>X>X2X2X2X5X5X3X5X4X4X:X/.:X'.(.:XOXv 4 : % v oX3X5X*.& $ & 8 p p p a z OX5X5X3X5X5X9X9X5X3X2X4X2X2X2X5X9X9X9X9X0X",
"9X>X`.9X2X2X>X>X>X>X2X3X5X5X5X5X4X9X9XW.3.W.2X4X Xv p 3 : 7 K.1X9XU.&.C 7 1 r r u u p @X5X5X5X2X3X5X5X9X4X4X2X2X2X>X2X9X>X9X9X9X",
";X3X2X9X2X2X2X>X2X2X5X5X2X5X5X5X5X5X1XE./.4X5X0XOXn b u r 1 ' 4X5X9X3X&XK.) 9 < < 1 &.2X5X5X5X5X5X5X5X9X5X4X/.2X2X2X4X>X_.9X9X>X",
"'.9X2X>X2X>X>X2X2X2X2X2X5X9X9X9X5X9X(.R.4X9X9X9X%XA b p p 7 q $X9X9X9X9X9X).U.v.d.b.&X5X3X9X5X3X5X3X3X5X9X5X:X2X5X9X9X9X_.9X2X(.",
"9X9X>X>X2X2X2X2X2X2X2X2X5X5X5X5X5X:X(.9X9X5X9X5X&XV u p u 1 q $X5X9X5X0X9X-X'.2X9X4X5X5X5X5X9X5X2X5X5X3X5X9X4X5X'.9X9X8X/.*X`.9X",
"0X9X2X>X2X2X>X2X4X2X2X2X5X9XqX4X'._.5X9X9X5X9X5X9X0.q 3 2 1 &.4X9X5X5X0X2X-X>X9X9X9X9X4X5X9X5X3X5X5X2X5X5X9X9X>XE.`.4X_.R.T.5X9X",
"9X0X3X_.2X2X2X2X2X3X4X:X4X5X4X>X`.9X9X5X5X5X5X5X9X1Xx.8.8.d.%X5X5X9X9X5X5X4X:X5X9X9X4X4X5X5X9X5X5X3X5X5X9X>X_.W.R./.(.1X1X>X0X9X",
"9X9X9XE.3X2X2X>X2X>X_.).3X>X>X'.9X9X9X5X9X5X5X5X5X9X5X9X9X5X5X5X5X5X5X0X0X*X`.(.>X>X9X0X9X9X9X5X5X5X9X2X_.`.;X5X5X9X2X5X4X:X9X9X",
"0X0X9X`.W.T.~.~.~.*X9X4X3X2X'.9X0X0X0X9X9X5X5X5X5X5X5X5X5X5X5X4X4X5X5X5X_.9X9X9X2X;X4X9X0X9X5X4X9X5X`.:X4X9X9X9X9X9X5X5X-X2XeX0X"
};
