/* XPM */
static char *d800bdc9154044ccb4f6482b39a8c526UQYC4FmDSWlE5pwR[] = {
/* columns rows colors chars-per-pixel */
"64 64 55 1 ",
"  c #6ABFF5",
". c #78C6F7",
"X c #76CCFA",
"o c #7CC9FA",
"O c #87CEF8",
"+ c #8ACFF9",
"@ c #94CFF8",
"# c #87D3FA",
"$ c #8DD4FB",
"% c #8FDAFB",
"& c #95D1F7",
"* c #92D5FA",
"= c #9BD7F9",
"- c #95DAFB",
"; c #9CDCFB",
": c #A3DDFB",
"> c #AADDFA",
", c #B2DFF7",
"< c #B2DEFA",
"1 c #9FE0FD",
"2 c #A5E0FC",
"3 c #ACE2FC",
"4 c #B4E4FC",
"5 c #BBE6FC",
"6 c #BEE8FC",
"7 c #C3E6FB",
"8 c #C4E9FD",
"9 c #CCECFD",
"0 c #D2EEFD",
"q c #D3EEFD",
"w c #D7EFFC",
"e c #D4EEFE",
"r c #DAEFFD",
"t c #D9EFFE",
"y c #D5F0FB",
"u c #D4F0FC",
"i c #D7F0FD",
"p c #D9F1FB",
"a c #DCF1FB",
"s c #DBF1FD",
"d c #DEF3FD",
"f c #DEF2FE",
"g c #E2F2FC",
"h c #E3F3FC",
"j c #E3F3FD",
"k c #E4F2FC",
"l c #E4F3FD",
"z c #E3F4FE",
"x c #E4F4FE",
"c c #E9F5FD",
"v c #E9F6FD",
"b c #EFF7FE",
"n c #EFF8FE",
"m c #F1F7FE",
"M c #F1F8FE",
/* pixels */
"xjvnbbbvvxxxjjffffftit89ijxjseee0esseie9650eeeissesfffe0if075ssv",
"vljjxxxxssvvxxxxxxxft9eejzfft946380985889660e66380j0f0sfsf9xvxxx",
"658jzfjllf0iylxvlzffte0fftsfe89088ffase99ss9988840vffese8izjjjjx",
"0pi4s5=:jjjje9fvfffse0ei9969ie0920s9999999999ss08869tifjjxjffjz5",
"ee98-586*390099etste00etie04998820ssssse98849000se49eesssjffff98",
"998755565>58890900099ettte05688640etee9999984900ei399eissffzjs39",
"97886564453889e99998esssste03663890ese9999007680ee;000etssjzx999",
"9e99954;65699eee9999tsssssts999:990eee9890000560s44090eeetfjie99",
"0099854:4469f8esf990esffsssss86;9090098890eeee5$-8e09900eets9099",
"89996542448e90esfe90essfffjfse2:9990099990ess03=0fjfie00eee8f999",
"88998544269900est29eisfjfjjjff4:88890999000se4>seetssi0eiee9ep99",
"98998655:89900es8>9isssefjjjjp;386868890ef0907tsteeetee090e06598",
"08898878449090te2890esssfjzza-49888899tjlxf9tfffse9eiiee0946ee69",
"e8898999938990e9390essffjzxx;599988890sjt990iefjf0ie99e0e37tss9s",
"ee98899994>900e389eesssfjlx9990te99989ej9t0efseffsi0489e440eisst",
"eie9999999;800;3099eeesslxps000ee9988898ef0eesf0490e0034O900ette",
"ee000999099#4-709990eessfe000e09000999849t9tf0;4e00eess699e0eeee",
"fe00000e0e> :esse0000eeet9900900990094999790-:sstsfffjs<99e0eeef",
"vs0000ee94*5stffseee0eee9es99900090e008pe:4=9etsssffffs3>0eesssx",
"xf00e89947iee0eeeeee0es0eizf90e0090e83X&<55s0eeissffffs<j60essxv",
"xj0ejs340sse000000e090s95874llt0f95340f5i99e008eetjffff7s70etsvx",
"xxejj99tsffee90000000e58ei983495140eissi97xjja8000ffsss909estjlx",
"jjjf90t0effe9999909e84sss09st93590000ess:szxxjfei0se00ef7eestfjz",
"fff90sse0sf9908489054s0esstttsssffsteets3xxxxzjfe0900eee9eeesfff",
"fjeeseee0fs89099646.s00essisssflxzjfssz49xxxxjjfs00090e09teetfff",
"js0si9e0989900000:38e00eettssfxxxxxxjj0;fflzzjjf0isee0009sestsfj",
"seei0s06900900ess9s900eeeeesfjxxvvxxxl:56ffjjjjs0f000008596ttsfj",
"jsses98e0eeesffs508000eeesfjzxxvbbbvx3>6098fjzj6xfs0900:e09iftsx",
"jfe84000eeessfst35<00etsfxxvxvnbbbbb39fjjfj4fj79xjfs0093e900ffvj",
"jf8500e00eesfsss=f400etsvvbbbnMMbbve8ezxjjfj973fjjbl0099500esjjx",
"fl60099900isssfp60590etzvvbnnMMMbbj3lf0jjjjjf>4ffvvx09998800ivjj",
"j8si98:999sssssf8990eijxxvbnbMbbmv85ffjjfjjjj79xsfjfe0009500jfjj",
"j8fff99999fs00ef99eeesjzlxvvnbbbv9:9jjfsffffs3ixjjffs0000960jfjj",
"j9fsff999999990e860eesfjzxxvbbnvf4lfpjsssssst5evjjjjfe000078jfjj",
"j990sse9889990e9890etssfjjxxxvbjfxjjffteetti05ebxxjzfse00ee79sfj",
"js90sse09888999840eetfffffjxxzjsljzxjfseeeee06sxvvvxjseitsfj80fj",
"fs00ste5s989999300eeesjjfffjjfsxxxxxxjffe0eee4fjlxxxjftsffjfi8sf",
"jfeese598999995909eeesjjsssfffjxxxxxxjjj099094ffjzllzfsffjjjf07z",
"fsese50e8888965959eiesjseeiesexxxxxllxzje9fe06jjjzllxjffjjjjjj99",
"j0jf5ess0888940990itejfjfesstsxxxxxxvxxxzsjt99sfjjxxxjssjjjjjjj7",
"9ej80sete8996:9990isxsjlxfffejzxxvvvvvxxxxft4seejjzzfsttfffjjjff",
"jlz9jf7vj998869990ifj8jzxxfffjzlxxvvvvxxvxse:ssjjjzjftettfjjzxjx",
"jxjej0elf888888999ejtejzxxjffjzzxxxvvvvvvxj0>8ffjjjjffstsjjjzllj",
"svle0exf0888888990fsffjjxxfffjzxxxvxvvvvvxxii4tsfjjjjfssfjfjlxxj",
"ebvj8jf0998888899sssffjjxlx6jjzxxxvvxvvbvvvje:eesffjjjffjjjfjxvf",
"0pl8jte0098888590essffjjlj64fjzlxvbxxvvvbvvj93e00eesfstffjjfanj9",
"s999j00e099888850essfjfzxj*fsjzzlxjjvbbbbbbs64ee000eeetssfjjzi0s",
"xs9sseee099999949ssffffjz93fsfjjxjjxvvvnbbb38ete0i00etjxxvnblftv",
"vf5ts0fe099900088ssfffjjj66fffjjxzxvvbbnnbs$eteef90esfjvbbbbxejx",
"lf4ss0fe00000eef4fssffjjj388fjjxlxvxvbnbbj59estef0etsjjvvb5vtsfl",
"lj>se0si000eetss59asffjjf3ssfjjxlxxvvbnnn96etsffsesesfjxvb7fssjx",
"xf>e00se00ettsss04tsffff94fsjjjjllxxvnnbM9sstvxxststttflvMbfttlx",
"xj4se0se00essssff79sfffz68fffjjjzxxvnnnmvsjssbxxtetttetjvbvvxfxx",
"xx4feese90eessssf59jjff82effffjjzzlvnnMx9jjffjvlftetseesxjvvvfxx",
"xl5f0ee0900eetisi95ijj928ststfjjjzzvnnv9xjffjfjjjfttseeeeixxvjxx",
"xf6f0099990eissses8:8538sssssffjjjzxnbsfjffjjssffjjfseie00fzjjlx",
"j96ze09999essssfejj:o=9fjfffffffjjjxnx99ffffsssssfjjse0e090j9jjv",
"8e0xe0090esttffffff%30zxzjjjffffjjjxv0e9jfsssffsssfjje:90ep94jz9",
"6xs900000eeesjjjff4+pjjzxxjjfffffjjxv9ejjfjssffssssfjf89fjjj4z03",
"lx9900000eeesffff8>jjjjjxxjjffffjjjxx96ejtfsfjfssssffjpf6xjj>74x",
"xx09e000eee0svb064ffjffjjjjjjfffjjjl989jvjfsfjjssssffxz9-5s3*Oaj",
"lls400e0ees8efe94xjffffffjjjjjfffjjfjt8fjxesjfjfsttfl94;$>>ta9vj",
"llf-e00009,4e006lxzjffsssfjffffstffxx64399jxxjjsssx9466fjj9jt8xj",
"vlx5=@>>>7lfe06xvbvjjfstfffjfffeetsj4llz07exllj0xa580zlzljff90Mx"
};
