/* XPM */
static char *fall1712246219[] = {
/* columns rows colors chars-per-pixel */
"64 64 45 1 ",
"  c #6E6656",
". c #6D6759",
"X c #6E6A5C",
"o c #726A57",
"O c #7B6E56",
"+ c #746D5C",
"@ c #796F5B",
"# c #7F7057",
"$ c #77705E",
"% c #7A715D",
"& c #6F6C60",
"* c #736E61",
"= c #767163",
"- c #7B7463",
"; c #7F7867",
": c #777468",
"> c #7C7669",
", c #7E796B",
"< c #7E7B70",
"1 c #83755C",
"2 c #85795E",
"3 c #89795E",
"4 c #827661",
"5 c #857A63",
"6 c #8A7D64",
"7 c #837C6C",
"8 c #897E69",
"9 c #827E71",
"0 c #8D8166",
"q c #87806F",
"w c #8D816B",
"e c #908167",
"r c #92846B",
"t c #95896F",
"y c #858174",
"u c #8A8373",
"i c #8F8876",
"p c #878478",
"a c #8A8679",
"s c #8D897B",
"d c #908774",
"f c #938974",
"g c #998C72",
"h c #928C7B",
"j c #918D81",
/* pixels */
"ayy7,,yyyqysa899799999999999999999s9a999yyiauiyusssiiyiayyyiayyq",
"524#%>99qyuau778788998788989998s8999998820555550007050505250050%",
"1%##O:y5558884444444844458887574845547932%22222222122%121%1222%%",
"1#%O#:y,58887444484444444888574457755776222222%05522212211112111",
"211##,y;8888851-444444447555755444768774022112112221222%2%##1%2%",
"22%#1>y788888411444444754587787477475973%2%11%1122125202222%2022",
"%212%7y,888851@444444455448555754876577350221212%221252222#05222",
"211117y788754444854445477885788578478793252%211222%21252%00;0022",
"3344479888885446645448588888888q8888r74566465222211111520000200#",
" o+4*999:4==*@oo*&*44**4---===;>4=4=-,,=@@+O$@oo$$$oo$$$$o$$$$%o",
"4>9979899999>74797774<99uy9999<999p99asu9<99<<,,q,<,,,,<<<<<yyp<",
"899h88j8du9d9999797777998uy9,78u99a9uu9979999ypppiiuuyuyiiiuihhh",
"888888868868867-@@+o+++++*%@oo=%4-4=4=-@*$$$+>y9q8880;0000qqqwww",
"888888886858867=+@*1@+o@++@+o@%==-4==@@=%+%=$=<,80q0;0qq7q00wwww",
"8t88888688648884+*+@+o@oXo++o2%%**11@@@*=+++$=990q0q07qw0q0q0qwq",
"888t88888466688=@@+++oo+oX++X@%-*1=*@=*@+@+++=97qq000q0wwwq0q0q0",
"8td8888888488674**@@+o++++oooX@*=o%=$$$o$XX+$$q<80qww0qwiw888885",
"88f8r88888668874+4*+*@*o+oXXoX+@$$$o$$$$o$$$$$9<q0www8wwww878588",
"f88888888868gg81@1*44*1 oooXoo@*$$$$$o$$$%$%$=upq0www80qww08788q",
"888858584545688*o*@@ooo .     XoXooXXoXo$XXX$=y<778q75758q85;555",
":==-====**+=7894&=-4*=+.XX...X&$X+XX&XXX&$&&:<pp,==:==+*::==+===",
"sjs99sj99777fj889jjjh999yq<qqpayyaaaausappssspssaashjpyaaapy<pyp",
"8d88888758848833888888880757<qquwiuiiitiiiifffffffffhfiififuyy78",
"565344111113333166666336111%,yq0w000w0w00wrtrttttrtfrrrwrtw0y711",
"6332221111111113333333331111,y7ew00ww0r0rrtttttttrtrrrrrrtrrq,51",
"6532312111111333333633331111,y70rrr0rrrrwttttfgtttrrrrttrrrryq51",
"6225311111111333333666631111,78wrrrrrrrrrtttttgttrrrrttrtrtwyq52",
"2633311111111113333666311111,y7r0wrerrtrrttttttrrerrrrtrrtttyy02",
"662222211#11111133666333111#,y7e0rrrrrtrrrttttrrrerrtttrtggtuy00",
"000022221111111133336331112#,,7rr0rrtttrwwttttrrerrtttttfggfsu00",
"66211121111O1111111434411#1@,y;0000rrw0w00rrrrww000etttrrttryy50",
",,,----;OOoOoOo@++*474==O@+*,p,::>,,>>,>>>>,,,,,>--7,<,,,9y<ss,,",
"p<p<p9ppppp<<pp9yyypuuyy9999yyppyyayaapypyppspsippppiappassjjsss",
"97777:7774:4944:>u9;--==%=$%=---=$-->;-------;-;<py<7<<><yqqyy<<",
"444**4:44**4*::4-y>+=%@++@++%%%$$$$$%-%$$-%$;%$$;sy-7,;;,;,;7<;-",
"4*:4:7444***444*-9>++%%*+@$$$$%--$%--$-$%$%$$$$;;p<>;;<;,7;,7;,%",
":4*94:7744**4*44=9:++=%%=%++*%=%-%%-;-$$$$$$$$;%,py>;;;<;77777;$",
"::*444:*:**4&4***y7++$%%-%++%%----5--%$$$$$$$$%%;p<-;;-;77<7<7<%",
"4*4:7**4:4*44&*4-9,*o$%-=%$++=-----7-$$X$$$$$$$$:p<::;-<777q77;%",
":4:4*:4:4*4*X4**:9,+@+%%-++++@%-;%;;-$$$$$$$$$$$=y<$:-;;,7777,-:",
"*:444*4:4**4**4&-94*++@*=@@++=-@%$-%$+XXo$$$$$$$=9,::;;:;7<7;::$",
"...*&..&44XXX.&4-a9XX+**==*+++**$&&$&XXXXX+$&XXX:y<$$==$:;;;;=XX",
"977<9<<<8h8699p99sa999u9s99999ppy<ay9<<<<9<yyypyyasyyyqqpasap<,;",
"7<<pd88988g6888hdddu8ddfhghgiiiisaai0qqqqwqqqqqwqqqwqq00uffiu0q;",
"44888333366666666t666688gt66g8880y90%02#222222252222#100000000#O",
"17888333366666gg66g66666686g68880y<5022222222222022200#02000220#",
"1498633366666666g66666666g8666885y<020#222222222222201100001001#",
"44866863666666g6g6g66666686g68865q<02#0#2;222225002211122000#101",
"4794666636666688888666666668868657<5201##20#1203202221102002000#",
"449846666663368888866666668886665y92211022#02222022211122220#201",
"497833443333368g8864666668g688865y95210#02012220200222220002221#",
"144411111111333664443333666644441y9%1O%%O%%#%%%%111OoOOOOOOOO#1#",
"47944&4..4.434447444*4486344:*4*:yp;%$*$$$==$=:>:;=&$o$$$$=$O$=$",
"<<99y<9977<u8dyyhg999aaghdayppaapppsyyyppy<yyyipsaaqayyyypyyq9ya",
"p999p9y997uaddduggjg8jggdgssaahjsihspsiuiyyypypipuyqqyyyyyyy9ypp",
"99777777749u8888g8888886888ay99duuiuqq<yqq<y,78qqqq;;;7;;799<7qq",
"7u777777<9<p78888g6886660wwyqiiyuuiqqq7quqyy:8qqqqq7;77777<y<q7q",
"uu77777777<p88886gg6866g0wwyquuiquwqq77quyyy,77q,,0>;;7q7q<y7q77",
"u777779777998888g6g866880qq7qwyuuquq777qy8y<,77q,q0>0,7;77;y97y7",
"8u779789974<88g8666gg668w0qqyyqquqqqq777qq,,,777777-;777;7<y<y77",
"77779998779y888868g68668wwu9quqqqqqqq777q7<y>7770,7-;;7;<;;p<77y",
"u977<9u9997y88g888888686wr88qqqqqqqyq7777,9<>77qq;;5;;7q77,<7777",
"<:44<:4444<p44634444541455,:,>--;,>,---;,>,,=-;;7>---;;;;;:p,;;;",
":*&4*&&&4<9y4411++==+ .+*:<<:=&&&$***&&*::yy,==:=:=::::::&,s<::&"
};
