/* XPM */
static char *fool1712254752[] = {
/* columns rows colors chars-per-pixel */
"64 64 47 1 ",
"  c #6E6656",
". c #6F6759",
"X c #6D685B",
"o c #716756",
"O c #756B56",
"+ c #7B6E56",
"@ c #706758",
"# c #746C5C",
"$ c #796F5B",
"% c #7E7057",
"& c #77705F",
"* c #7C725D",
"= c #6F6C60",
"- c #736E61",
"; c #767163",
": c #7B7463",
"> c #7F7866",
", c #777469",
"< c #7B7669",
"1 c #7E796B",
"2 c #7F7C70",
"3 c #81755D",
"4 c #85785E",
"5 c #887B5F",
"6 c #817761",
"7 c #847A64",
"8 c #8A7D64",
"9 c #837C6B",
"0 c #897E6A",
"q c #837E71",
"w c #8E8067",
"e c #86806F",
"r c #8B816C",
"t c #918267",
"y c #91846B",
"u c #868173",
"i c #8A8373",
"p c #8F8876",
"a c #878478",
"s c #8B8679",
"d c #8E897B",
"f c #918671",
"g c #938974",
"h c #998D76",
"j c #918B7B",
"k c #928E81",
"l c #959084",
/* pixels */
"saq29qqqdqqlqq0qqqq2q00qqfq00q99992qqssi00ll0hh0hh0qqaakaaaaasaq",
"99q96900000008706<q066%36686636336q<0000h000008h0h0jqqqqqqqqqqq9",
"9:,:6697090086666666++++33633333+36,880008800808000j999999699996",
"91:-6770000008366,66+33333333333336,88808000h8h8000q69999699q9q6",
"<:,-:66<909976-666.66@6@+%$6+66@36998880997706690099,99,999069,9",
"qqisqqq999q996,,9,,26,6,609099966q<600q09q99999900qqqqqqqqqqqaqq",
"0y0000gq6-3#@@@@@@@@.@62666366666666660a66-33-6-76-3;69q00h0j000",
"00880809@3-@@@@@6@@@@@-6$6636633663666693-3#6@@333-@$3-900000000",
"080800q66#-3@@@@@3@@@3@9636366666663886966.6#6@#&*&$$&:9000g0g00",
"86000096-#@@@@@@@3@@@@666666666666666666666@6-@6&&O#O#&<00000gf0",
"6699990q6666,@=-805566qa90q006669929qqa2966-6,-,:::;;;<2q0qqqqq0",
"89060008q7q9099qh00hffhjghgffijjqa0qqqa22q22qq22rre000euqg000gj0",
"33333333333333698ttth08800008000666969966666-9,97777447887770008",
"3333463333333360h8ht888000h080009609666666966,998887477877800005",
"33343333333@36q98h088888888800966666666666-6--297888778880778003",
"-666,@3@@33669qq00088806358869aq99299996===-=92990977710>77777:;",
"qaqaaqaq2q66qq6962q9666,,22qqalapppppppp2esupeueeeeeeeee222222>2",
"99999,,92,..@666.6.6-6=.,,296900e8eeeeeeeeew7ewwww7w7wwwi2>&;;;,",
",6,,:---6=@@663@-.6..6-.6,690900eeeeeeeeee7575ww758w4444e1;;&;;;",
",66,;:;;,6@6663@66-66.6.926999q0eee8eeeee>8w5555w5w7w4ww2>:;;;;;",
",;67:6--063@8064@36666@.69699009>,>9ee>1>>>ee>5>7*w>w>7>2,;;;;;;",
"qqq0qqq0h06900009q902qqq00,29qq0>1eueeisssepppppu1quu99eaue99292",
"9q080000888800002q8885685333366692eeerrrrrrpyyyppu*w*w**>43*****",
"7008008888888088q985353333333663218wwwrwrrrypyyyi9*4*********%**",
"6q88088888555888q96865543333366392wwewerrryyyyryp>*3**3*3*4****%",
":9000788885580889938664433336666928erwrryyrpygrpe>*&**3**3*****+",
"qqqq96900009099qqq0q096969869669e2ueu1>eeiiepeeueu>1>>>>>>>>>,>>",
"kjiijqq000000qqljfjjaaqqq0q0qaqauuuuase9>>eeepaeue12usseiipisdsu",
"qppq0q0f008000000iijiq9999,<22909e8eea443*34>e1;;&>>>aueeereepsu",
"ppqpfqf0008800q000fiiq9999,6<<998999ee**%*344e>>,>;>>ue1eepreppp",
"qp0qqqgfh0hhh00000ifiq9966969,,9999ee9>****441>,>>>>1uee8eeeeuap",
"dpqqqqg000808090qqiaaq2999966,2qe>u9ui>>>4>>>uu21112uau>epau2aaa",
"0000000806669q000rriirieere9q22211929u>,>>112ueeeeeeepieeepppdpe",
"06636666666699008880rr87w*wwq>;;;;;;>;;;;;;;1e>>>>>>>e>>>eeeee>8",
"86833668633@999787888078*w779<;;;;;;;;>;;;>;11>>>>>>>>>>>>e>ee84",
"663638066336996678778888>w7w2;&:;;;>>;;;;;;;11>>7>e7>>e>>e>>e>73",
"66606666663@qq-6;$;$*:>:&&*>1<;;;>,>>;;;;;=;11>>e>1>1e>1111>u21>",
"0q0quqau0q69q2qq9qqq1uuqu221iuquuuupuu921>22ssspdpdpppepdksdjkpe",
"990qq96q692q6999<9qq<1qqqq2:*>*w778e8>>*>>2eeierireeeepppjjdpie>",
"6666666669q=-..-#$--X=;;::2&**7*4775>4**4>2eeewrerrrerrppppu8>>3",
"6666966666q==.-@=--##--6;:2;***w>4>4>**%*>1eeeeerereeyyipgpee7>>",
"666666-666qX...=##==@---;;q:**>**>3>*=+&+;2>e>>rwweerieeppue7>*&",
"69q9q6969q9,,-,6<6<<,9991uu112e9eeeee11>>22222eeueuueauuepja,>>>",
"969qq99990q9q69969766677eeeuaeee1eiee>>>1ee22>ee999e>ww9efpdsee>",
"6660666366799633336O$$3344*w9>>>>>>e>***;>;>2>*4>4*>4>44>wweu94*",
"6669963367769-36633$$33$*4>>1>77>>5>>>**>*>>e;3*>44*4>*>8899u88>",
"6690666366799=663363$#oO&*&;<:>**>>>4>*>*>*>2,>>>44&4*4>8777978>",
"666666667709qq9999q9666-;:;1<:<:>>>>>>>=;>>>2>>>>>>>*;>;>>>12>7>",
"9999699,666666q900009961qqkpiirreeeeeeee2uiueaieepieeee2ueeaaee1",
"33@6@366-66@3666766$$$:<q000t8855wwwr88ee558558ew8w8547u9:*****&",
"@33@@@366663336666$3$$69088885855wwww559>55>>5888884444>>***O**&",
"@@@3@3@=.@@63366663$33$90888885455ww858>>57485488w84343>;*&*O**&",
"6@...-.=.@6@..667763$::1q777:67677e57>4,>>>*;;>4>94>4*;,;&&&X#&&",
"6966qq669699692,qqqq9qauqqqqq<99eeue>>9ee>>9e199ee>>>>>e9111119e",
"6333633333692,6679977:7:9699q,66*3>*&*+***>>s>*****&*+&&&***e744",
"663333333366266=$:::$;&$$;;:q:*6&*4&+&&*&&*;1>*4***++&+++**&>>*3",
"3333333333669-66&*>***##&:>>2:>:**3*&&O&&**:>:*3***$$+$$**&*7>44",
"3333o333336696=.&&**#X$*=&&,a&***&*&OOO+*&&;e;*&+**+O$$&+*&&;*%%",
"699633966699,,96>>1:=&;::;,1u11921>,;=;>>1>2e219111:;;1>>>122>17",
"i00qa,00999q2999>719e>7:74772uiepeesu>>,11192u9>7>1:22>211>2aier",
"086629000669q66.&&$*>%++*%33ee99e>e92;==&&&&9>***&&+>;;;-&=<2e4w",
"88862,60069926.6+&&&:+++%33%>919ee>9>;&&&::&>:*>4**&;-;;;-;>2944",
"66336,66369666@6&&*&&O O++++,>9>999>;=XX====;,*3***+<===&==;><**",
"6@ 3,6.666=6,=..&&##;= X&&&&1;:>>>>;,;X==;;;1;&>;*&#,>-;--=,a>-&"
};
