/* XPM */
static char *a4469f749649465da507d9b53d0458c6rVa9PDxaw1gRsOmt[] = {
/* columns rows colors chars-per-pixel */
"64 64 240 2 ",
"   c #020202",
".  c #080707",
"X  c #0B0B0B",
"o  c #13100E",
"O  c #131313",
"+  c #161719",
"@  c #1B1B1B",
"#  c #251D17",
"$  c #29211D",
"%  c #36291D",
"&  c #131B28",
"*  c #0C1830",
"=  c #1B2029",
"-  c #192334",
";  c #1D283C",
":  c #232424",
">  c #282429",
",  c #2B2B2B",
"<  c #382D25",
"1  c #242C38",
"2  c #373A3A",
"3  c #46331A",
"4  c #4A3A2F",
"5  c #513C27",
"6  c #64393C",
"7  c #6A4E1E",
"8  c #5F4127",
"9  c #5B4537",
"0  c #7A5C23",
"q  c #685034",
"w  c #77533A",
"e  c #7B6B38",
"r  c #0C1B47",
"t  c #17244D",
"y  c #162758",
"u  c #242C44",
"i  c #283649",
"p  c #353546",
"a  c #2C3C54",
"s  c #2F395B",
"d  c #333352",
"f  c #041F63",
"g  c #072263",
"h  c #152B69",
"j  c #062774",
"k  c #0C2C76",
"l  c #143074",
"z  c #18337A",
"x  c #323560",
"c  c #463D51",
"v  c #3D4247",
"b  c #2F415C",
"n  c #3C4553",
"m  c #31425C",
"M  c #364665",
"N  c #47474C",
"B  c #584A46",
"V  c #4F4A55",
"C  c #495258",
"Z  c #695645",
"A  c #795944",
"S  c #6A4C50",
"D  c #685F51",
"F  c #746955",
"G  c #776A57",
"H  c #4C5769",
"J  c #4F556B",
"K  c #5D6A71",
"L  c #7B776A",
"P  c #666C70",
"I  c #6B767B",
"U  c #747679",
"Y  c #814A39",
"T  c #885A3C",
"R  c #9A5338",
"E  c #A15B3E",
"W  c #936E26",
"Q  c #9A792F",
"!  c #AC732F",
"~  c #815949",
"^  c #8C684D",
"/  c #94684D",
"(  c #846853",
")  c #907250",
"_  c #977157",
"`  c #AB6F4E",
"'  c #B37757",
"]  c #886F67",
"[  c #967B69",
"{  c #AA7960",
"}  c #C77D57",
"|  c #9E833A",
" . c #AD872F",
".. c #A4893C",
"X. c #BA9439",
"o. c #978751",
"O. c #AF8E5E",
"+. c #B8A85E",
"@. c #9A8A69",
"#. c #968A7A",
"$. c #989174",
"%. c #AB8468",
"&. c #BB8764",
"*. c #AA9273",
"=. c #A69778",
"-. c #CB825C",
";. c #CAA947",
":. c #D5B351",
">. c #CC8662",
",. c #D98D65",
"<. c #DD9269",
"1. c #D09771",
"2. c #E3956B",
"3. c #E29B70",
"4. c #D8A37B",
"5. c #E4A57A",
"6. c #DFC45D",
"7. c #E4C45A",
"8. c #F8CC5F",
"9. c #F8CE61",
"0. c #F6D062",
"q. c #0E3083",
"w. c #15388C",
"e. c #163C94",
"r. c #1C429C",
"t. c #25438D",
"y. c #2047A1",
"u. c #234DAB",
"i. c #2750AD",
"p. c #2A55B6",
"a. c #2B56B8",
"s. c #6D7985",
"d. c #78848C",
"f. c #7A8B95",
"g. c #7D929D",
"h. c #6ABFF5",
"j. c #7AC8F9",
"k. c #878B8C",
"l. c #948B86",
"z. c #8B958E",
"x. c #949387",
"c. c #848E94",
"v. c #899498",
"b. c #959798",
"n. c #A79A87",
"m. c #AE9C89",
"M. c #9EA39A",
"N. c #ABA28A",
"B. c #B5AB8A",
"V. c #BEB18A",
"C. c #A9A898",
"Z. c #B9B195",
"A. c #889AA6",
"S. c #969DA3",
"D. c #8FA0AC",
"F. c #9AA7A9",
"G. c #97ABB6",
"H. c #A5AAA8",
"J. c #AEB1AE",
"K. c #A9B4B8",
"L. c #B4B9BB",
"P. c #D4AA84",
"I. c #D6B98E",
"U. c #C4BA97",
"Y. c #EABA8C",
"T. c #E0BE93",
"R. c #C2BEB0",
"E. c #CDC39C",
"W. c #D9C69B",
"Q. c #EEC99A",
"!. c #D6CAA4",
"~. c #D7CDAC",
"^. c #E9D7AA",
"/. c #EDD6A9",
"(. c #F0D6A7",
"). c #F4DDAC",
"_. c #F3E1B1",
"`. c #F5E2B2",
"'. c #F9E7B6",
"]. c #91B7C8",
"[. c #A7BBC6",
"{. c #B1BBC2",
"}. c #A9C1CD",
"|. c #B8C5CA",
" X c #AEC9D7",
".X c #B8CBD7",
"XX c #BAD2DE",
"oX c #88CEF8",
"OX c #94CFF8",
"+X c #8CD5FB",
"@X c #95D7FA",
"#X c #9CDCFB",
"$X c #A8D2EE",
"%X c #BAD9E9",
"&X c #A8DAF6",
"*X c #A3DDFB",
"=X c #AADDFA",
"-X c #B3DEF9",
";X c #A5E0FC",
":X c #ACE2FC",
">X c #B9E1F5",
",X c #B4E4FC",
"<X c #BBE6FC",
"1X c #BEE8FC",
"2X c #CBCBC7",
"3X c #C4CDD3",
"4X c #CBD4DA",
"5X c #E0D8C3",
"6X c #C5D9E5",
"7X c #CCDBE4",
"8X c #C7DDEA",
"9X c #CCDEE9",
"0X c #D3DEE4",
"qX c #CAE1EE",
"wX c #D3E3EB",
"eX c #DEE7EE",
"rX c #C5E4F5",
"tX c #CBE5F4",
"yX c #C3E6FC",
"uX c #C4E9FD",
"iX c #CCECFD",
"pX c #D4E6F2",
"aX c #D3E9F6",
"sX c #DBEAF3",
"dX c #D2EEFD",
"fX c #D3EEFD",
"gX c #D9EFFD",
"hX c #D6F0FD",
"jX c #DAF0FE",
"kX c #DCF1FE",
"lX c #DEF2FE",
"zX c #E3E7EA",
"xX c #E3ECF3",
"cX c #E4F0F4",
"vX c #E1F3FE",
"bX c #E3F3FE",
"nX c #E6F4FD",
"mX c #EAF6FD",
"MX c #EEF8FE",
"NX c #F3F8FC",
/* pixels */
"bXbXmXMXMXMXMXmXmXbXbXbXbXbXlXlXlXbXlXgXhXgXuXiXhXbXbXbXjXdXdXdXdXdXjXjXdXhXdXiX1X<XdXdXdXdXhXjXjXdXjXlXlXlXdXdXhXlXdXyX<XlXjXmX",
"mXbXbXbXbXbXbXbXjXjXmXmXbXbXbXbXbXmXbXlXgXiXdXfXbXbXlXlXgXiX,X1X:XuXdXiXuX<XuXuXiX1X<XdXdX1X<X:XuXdXbXdXlXdXjXlXjXlXiXbXmXbXbXbX",
"1X<XuXbXbXlXbXbXbXlXdXhXhXbXbXmXbXbXbXlXgXdXdXlXlXgXjXlXfXuXiXdXuXuXlXlXlXjXdXiXiXjXjXiXiXuXuXuX,XdXmXlXlXdXjXdXuXhXbXbXbXbXbXbX",
"dXjXhX,XlX<X#X*XbXbXbXbXdXiXlXmXlXlXlXjXdXdXdXhXiXiX1XiXhXdXdXiX;XdXjXiXiXiXiXiXiXiXiXiXiXjXjXdXuXuX1XiXgXhXlXbXbXbXbXlXlXbXbX<X",
"dXdXiXuX@X<XuX<X@X:XiXdXdXiXiXdXgXjXgXdXdXdXfXgXhXdXdX,XiXiXuXuX;XdXjXjXjXjXjXdXiXuXuX,XiXdXdXdXjXdX,XiXdXfXjXjXjXbXlXlXlXlXiXuX",
"iXiXuXyX<X<X<X1X<X=X<XuXuXiXdXiXdXdXdXiXiXdXgXgXgXdXdX<X1XuXuX1X,XdXgXgXdXdXiXiXiXiXiXuX,XiXdXdXdXhX:XiXiXfXhXjXjXlXlXbXbXjX:XiX",
"iXyXuXuX<X<X<X,X,X<X:XuXuXiXfXiXiXiXiXuXdXjXjXjXjXgXdXdX:X<X<X:XuXiXdXfXjXdXiXiXiXdXdXdXyX<XuXdXdXdX#XdXdXdXfXgXjXjXbXbXbXiXiXiX",
"iXdXiXiXiX<X,X#X<X<X1XiXiXdXfXfXiXiXiXiXgXjXjXjXjXjXgXjXiXiXiX*XiXiXdXdXdXdXiXuXiXdXdXdXdX<X1XdXjX,X,XdXiXdXfXfXdXgXlXbXhXgXiXiX",
"dXdXiXiXuX<X,X*X,X,X1XiXlXuXfXjXlXiXiXdXfXjXlXlXjXjXjXjXjXuX1X#XiXdXiXdXdXiXuXuXiXdXfXdXdXdX<X+X@XuXfXdXiXiXdXdXfXfXgXjXiXdXiXiX",
"uXiXiXiX<X<X,X;X,X,XuXdXiXdXfXjXlXdXiXdXdXjXjXlXlXlXbXlXlXgX:X*XiXiXiXdXdXiXiXiXiXiXfXgXgXaX=X#XdXlXbXlXhXfXdXdXfXfXdXuXlXiXiXiX",
"uXuXiXiXuX<X,X,X;X<XiXiXdXdXdXjXgX;XiXdXhXjXlXbXlXbXbXbXlXlX,X*XuXuXuXiXdXiXiX%XtX.X[.G.v.].&XgXgXfXgXjXjXjXdXdXhXdXdXiXdXjXiXiX",
"iXuXiXiXuX<X<X<X*XuXiXiXdXdXdXjXuX=XiXhXjXjXjXdXlXbXbXbXbXjX#X:XuX1XuX1XyXuXG.K P 2 : , : C I v.K.[.iXfXgXdXdXdXiXdXdXdX1X<XiXuX",
"dXuXuXiXuXuXyXuX,X,XiXdXiXdXgXgX;XuXiXdXdXjXjXjXlXbXbXbXlX@X,XiXuXuXuXuXuX}.N @ X         . O , v A.rXdXhXhXdXfXdXiX,X1XdXdX1XiX",
"dXuXuXiXuXiXiXiXiX:XuXiXiXdXdXiX:XiXdXdXjXjXlXlXbXbXbXbX#X<XiXiXiXuXuX%Xf.C O X               . : f.tXdXiXiXdXdXfX:XyXgXjXjXiXjX",
"dXdXiXuXuXiXiXiXiX,X=XiXdXdXdX:XuXiXfXdXjXjXjXlXbXbXbXiXiXiXdXgXdXiXiX XC : .                     @ I .X,X1XiXfX,X,XdXfXhXjXjXgX",
"dXhXdXiXiXiXiXiXiXiX#XuXdXdX*X:XdXiXiXdXdXdXjXjXbXbXjXgXdXdXiXaXaXiXrXg., O .       . O @           @ N f.[.&X,XoXiXdXdXdXgXgXfX",
"dXdXdXdXdXiXiXiXdXdXiX+X,X@XyXdXiXiXiXdXdXfXjXjXlXfXdXiXXXH.$.@.@.x.c.:             @ , o O         . , d.[.aX<XiXiXfXfXdXdXdXdX",
"lXdXdXdXdXdXdXdXdXgX=Xh.*XfXjXjXfXdXdXdXdXdXfXfXgXiXrXK.O.:.7.;.X. .3 O           + : : @ .           O v.gXjX-XiXiXfXdXdXdXdXlX",
"mXjXdXdXdXdXdXdXiX,X@X<XjXgXlXlXjXdXfXfXdXdXdXdXiXaXH.:.0.9.8.8.;. .0 X o X       X @ O                 v 6XgX:X=XdXfXfXjXjXjXbX",
"bXlXdXdXfXuXiXiX,XyXhXfXfXdXdXdXdXdXdXfXdXdXjXdXdX|.+.9.9.8.8.8.;.Q q . O X @ o           # 8 # o o X X , d.aX=XbX1XfXfXjXjXbXmX",
"bXbXdXfXbXjX:X,XdXjXjXdXdXdXdXdXdXdXfXdXiXdXjXiX>X$.0.9.8.8.8.X.| ;.Q X   # ^ Z . O   O w &.9 % { 5 o = c.P [.yXjXuXdXfXgXjXmXbX",
"bXbXfXbXbXiXiXgXjXlXjXdXdXiXdXdXdXdXdXdXdXgX<XuX.X+.6.:.7.7.X...;.X.W # X 4 R T # $ < _ T.] [ W.(.4 . @ |.wXaXiXdXiXdXjXgXbXbXbX",
"bXbXbXlXiXdXgXdXdXlXlXdXiXiXiXiXiXdXiXfXuX,XjXjX|.o.@.B.=.o.e ..Q W 0 3 @ 4 R &.F F %.(.!.N.B.'.W.% . @ }.dXfXlXyXfXdXjXgXlXbXbX",
"lXlXlXiXdXjXjXdXdXjXlXiXiXdXuX,XuXiXdX<X,XjXdXgXK.$._.).`.^.!.V.$.F q % # # ( &.^.^.(.`.5X2XL U.@.o v 2 XXfXfXdXiXgXfXfXjXlXlXlX",
"bXbXdXdXjXfXfXfXdXlXjXuXiXdXiXiX1X,X1Xj.jXdXdXqXM.^.`.Q.Y.`.`.'.'.`.E.p * + q ^ /.`.'.'.~.2X!.U.2 , D.s.%XdXdXdXiXgXdXdXgXlXlXlX",
"bXjXdXjXhXiXfXdXiXuXiXiXdXdXdXdXdX*X:XuXdXdXiXF.!.`.`.O.T &.4.Y.).`.(.A r B ,.` E.).E.~.^.^.`.N.f.A.9X8XdXdXdXdXiXjXdXjXgXjXlXbX",
"jXdXdXhXdXjXdX1XiXdXdXiXdXdXdXjXjXiXjXiXdXaX[.U.'._.=... .7 8 w &.Y.5.S f N ,.} %.U.b.4XR.~.`.Z.G.lXdXdXdXdXdXuX<XiX<XgXgXjXlXbX",
"bXjXjXdXjXiXuXfXdXfXfXdXjXlXlXjX<XdXuXdXdXXXC.`.`.*.| X.W 7 0 3 Y <.>.x j d -.' 9 =.~.~.J.x.#.F.0XlXdXdXiXdXdX*XgXdXiXhXlXgXjXbX",
"bXlXdXuX,XdXdXdXdXdXdXjXjXlXjXgX:X<X-XdXaXF.^.`.I.q ;.! 0 7 < 6 ! -.S e.q.d / Z ; k.m.W.Q.N.G.rX4X|.sXjXdXdXiX:XdXiXdXdXlXlXmXbX",
"bXlXuX<XdXdXdXdXdXdXdXjXlXjXjXjX#XlX,XdXXXZ.'.`.Q./ X.Q 0 5 y Y R c r.a.e.J D c r v.7XJ.x.[.].C.#.%.H.bXdXdXiXiX<XdXdXdXjXbXbXbX",
"lXbX<XdXdXiXiXiXdXdXhXjXjXjXlXjX<XdX<XiX[.U.'.`.(._ ) ) 9 y j y z u.a.p.u.V B i S *.9XgXpX$Xv.E.*.' #.wXiXiXiXiXuXuXdXdXhXmXbXbX",
"bXuXjXhXiXuX*XiXiXiXjXjXjXjXjXlXuXiXiXdXqXx.I.'.I._ S.J g j j e.a.a.a.u.w.t h u ' 1.J.sX.XD.B.1.T ` @.|.dXdXdXdXiX<XdXdXbXlXbXbX",
"bXuXlXlXlXiXiXiXiXiXlXjXdXdXdXpXyXiXfXfXfX6XM.=.^ u z w.w.k k w.i.a.a.y.y h l V -.<.m.n.m.P.5.2.` ` _ {.gXdXdXdXdXdX1XdXbXlXbXbX",
"bXiXlXjXlXlXiXiXiXiXiXiXiXiX%Xk.[.1XdXfXdXgXlX4XJ q.u.a.a.u.l z u.a.r.g s M A.|.{ 2.3.3.3.<.' / E A [ 3XgXdXdXdXdXdXyXuXbXlXbXbX",
"bXiXiXdXjXjXdXiXuXuXiXiXiXiXv.F v.uXdXdXgXjXjXgX[.t.a.a.a.a.i.k k r.l y J XXaXaXS.' <.>.{ l.{.3XL.4X0XgXlXgXdXdXdXdXfXyXiXjXlXbX",
"bXjXiXdXjXjXdXdXiXuXuXuXiX.XL L z..XdXdXgXlXlXgX9Xm r.p.u.u.e.q.k f t C .XgXdXdXdXb.[ b. X>XgXbXmXmXbXbXbXgXdXdXgXjXlXbXuXdXlXbX",
"lXjXdXdXjXgXdX<XgXiXuXiXrXb.F W.^.M.tXgXdXlXbXpXc.u t r.e.k j j j g p s.bXlXlXlXdXtX8XgXdX,XlXbXbXbXbXbXbXlXgXjXlXlXbXbXhXuXjXlX",
"bXlXdXdXjXfX<XiXuXuXiXiX}.F / 2.5.Z..XdXdX6X.Xd.a u a - h k j g r & = f.bXbXbXbXdXiXiXiXiX,XlXbXbXbXbXbXbXlXjXlXlXbXbXbXlXdXyXbX",
"lXjXdXjXfX<XdXfXiXuXuX%XI 9 >.2.<.4.M.6X.Xb.J m m - u a - * * ; a ; & n 4XbXbXbXgXiXlXgXdX1XbXbXbXbXbXbXbXbXlXlXbXbXbXbXbXbXiXiX",
"bXdXbXlX<XfXjXjXdXuX>Xc.B , q %.{ 2.P.b.S.J.a m a - & i m a u a m a - - N K.3XsXbXjXbXgXiXiXjXlXbXbXbXbXbXbXjXjXbXbXbXbXbXbXbXyX",
"iXfXbXuXdXjXdXgXdXuX}.F / 4 d.%XK.{ <.1.b.4Xn a ; - & + 1 m m b b a ; ; 1 b.K.K.bXbXlXgX,XjXdXdXbXbXbXbXbXlXgXgXlXlXlXbXbXbXlXlX",
"bXbXbXiXnXlXyXmXbXiXG.A _ f.>XuXrXH.&.,.] 0Xb.1 - - & & C J m m m a - 1 P eXL.{.bXbXjXdX*XjXjXbXbXbXbXbXlXgXdXgXgXlXbXbXbXbXbXbX",
"bXbXnXfXbXdXgXbXlXuX%XD.}.uXuXiXiXrXl.>.( 4X{.J & & 1 c.wX4XI a M a = v.0XsXL.|.bXbXbXdX=XuXlXlXbXbXbXbXbXlXjXgXjXbXbXbXbXbXbXbX",
"jXmXbXgXdXdXbXlXdXuXuXuXuXuXuXiXiXdX9X#.~ |.wX4Xc.U v.qXgXlX7Xs.a v k.zXwXL.z.eXmXbXbXhXhX,XgXjXlXbXbXbXbXlXjXjXlXbXbXbXbXbXbXbX",
"dXMXmXbXuXbXlXdXiXiXuXuXuXuXuXiXiXjXjX9X#.U H.K.L.H..X<XbXbXbXK.b.zXNXxXl.' [ 4XmXbXmXbXdX*XfXfXjXlXlXbXbXbXlXlXbXbXbXlXbXbXmXlX",
"dXjXnXuXbXgXfXdXdXiXuXuXuXuX<XiXdXdXjXjXpX7X9X7X7X7X1X,XlXbXbX7XH.H.J.k.%.Y.Y.n.xXmXmXbXiX:XdXdXdXfXfXjXlXjXgXlXlXbXbXlXlXMXbXiX",
"jXiXiXiXbXdXdXdXdXiXiXuXuXuXuX<XdXdXjXjXlXlXlXbXbXbX@XlXlXbXbXbXbXbXwXpXH.!.'.E.L.nXmXjX1X,X6XaXdXdXdXdXdXdXgXjXjXbXbXbXbXhXdXjX",
"bXjXiXjXjXdXdXdXdXiXiXiXiXiXiX,XiXjXjXlXlXlXlXbXbXiX:XlXjXlXbXbXbXbXbXbXsXJ.!.`.C.4XxX].f.U #.|.dXhXdXdXdXgXbXbXbXMXMXMXbXlXgXmX",
"mXlX<XgXjXdXlXgXdXiXiXiXdXdXdXuXuXjXjXlXlXlXbXbXbX1X<XlXlXlXbXbXbXbXbXmXnXxXH.~._.n.k.N 9 B w P wXiXdXdXjXlXbXmXMXMXMXMXbXdXbXbX",
"bXlX,XjXjXdXlXdXdXdXdXdXdXdXdXlX,XlXjXjXlXlXbXbXbX:XuXuXlXbXbXbXbXbXmXmXmXMXeXB.`.).[ > q A 9 D 9XdXdXjXjXbXbXmXmXMX<XmXgXjXlXbX",
"bXbX=XjXdXdXlXhXdXdXdXfXdXgXjXjX<XiXlXjXlXlXbXbXlX:XjXjXlXbXbXbXbXbXbXmXmXMXmXC.Q.).F $ ^ Z F F.aXdXjXdXjXlXbXbXmXMXyXlXjXjXbXbX",
"bXlX=XdXdXdXjXfXdXdXdXgXgXjXjXjXdX,XgXjXlXlXlXlXiX,XlXjXbXbXbXbXbXbXbXbXmXMXmXC.W.P.5 % D b.3XsXdXjXjXjXgXgXlXbXmXNXMXlXgXgXbXbX",
"bXbX,XjXdXdXjXfXdXdXfXjXjXjXjXlXlXyXiXjXlXlXlXbX1XuXlXlXlXbXbXbXbXbXbXmXMXMXL.#.( A D c.6XcXbXbXgXfXgXgXgXdXgXbXmXMXmXmXbXlXbXbX",
"bXbX,XlXfXfXjXfXiXdXfXfXjXjXjXjXlX<XiXbXbXlXlXiX;XdXlXlXlXlXbXbXbXbXbXmXMXMXJ.L L b..XgXlXbXmXbXlXgXgXgXjXdXdXjXbXnXmXmXmXlXbXbX",
"bXbX<XlXdXfXdXdXiXdXdXdXdXgXjXjXhXiX<XhXbXbXiX;XuXjXgXjXgXlXbXbXbXbXbXmXMXMXcXXX7XsXlXlXbXlXbXbXbXlXgXgXjXfXdXdXdXhXmXmXmXbXbXbX",
"bXlX<XlXdXdXdXiXiXdXdXdXjXjXjXjXdXjXuX*XuX<X:XuXjXjXjXjXjXlXlXbXbXbXbXbXMXMXjXlXbXlXlXbXbXlXjXlXlXbXbXlXjXfXhXfXdXdXlXbXbXbXbXbX",
"bXiX<XbXdXdXiXiXiXiXdXjXjXjXjXlXdXbXbX*Xj.#XiXlXbXlXlXlXlXlXlXlXbXbXbXbXMXbXiXiXlXlXlXlXlXlXjXjXjXlXbXbXjXdXdXdXdXiXdXbXiXbXbXmX",
"uXdXdXbXdXdXdXiXdXdXjXgXgXlXlXlXlXlXlX+X:XdXbXbXbXbXbXbXlXlXlXlXbXbXbXbXmXdXdXiXbXlXjXjXjXlXlXjXjXjXlXbXbXdX*XiXdXdXjXiX,XbXbXiX",
"1XbXjXiXdXdXdXdXdXfXfXfXjXbXbXbXlXlX,XoXjXbXbXbXbXbXbXbXlXlXlXlXlXbXbXbXmXiXdXbXbXlXbXjXjXbXlXjXjXjXjXlXbXlXuXiXlXbXbXbX,XbXdX:X",
"bXmXiXiXdXdXdXdXdXdXdXfXjXlXlXlXlXuX=XbXbXbXbXbXbXbXbXbXlXlXlXlXbXbXbXbXbXiX1XgXbXgXlXjXlXbXlXjXjXjXjXlXlXbXjXlX1XbXbXbX=XyX,XbX",
"bXbXdXiXdXdXdXdXfXfXdXdXjXmXMXdX1X,XlXlXbXlXlXbXbXbXbXbXbXlXlXlXbXbXbXbXiXuXiXbXmXbXlXjXlXbXbXjXjXjXjXlXlXbXbXiX@X<XjX:XOXoXlXbX",
"bXbXjX,XdXdXdXdXfXfXjXuXdXlXfXiX,XbXbXlXlXlXlXlXlXbXbXbXbXbXlXlXlXbXbXbXbXgXuXlXbXbXdXjXbXlXbXlXjXgXgXlXbXiX,X#X+X=X=XgXlXiXmXbX",
"bXbXlX@XdXdXdXdXdXiX-X,XdXdXdX1XbXbXbXbXlXlXjXjXlXbXbXlXlXlXlXjXgXlXlXbXbX1X,X:XiXiXbXbXbXbXbXjXjXjXbXdX,X<X<XlXbXbXiXbXgXuXbXbX",
"mXbXbX<X#XOX=X=X=XyXbXlXgXdX1XbXmXMXmXbXbXlXjXgXlXlXlXbXlXlXlXdXdXgXjXbX,XbXbXbXdXyXdXbXbXbXbXdXbXlX<XuXdXbXbXbXbXbXlXlXiXdXNXbX"
};
