/* XPM */
static char *deefe88e246f408ee9333aa7813df4c84MplBWmEqHzf4dou[] = {
/* columns rows colors chars-per-pixel */
"64 64 248 2 ",
"   c #010101",
".  c #0C0304",
"X  c #0B0B0A",
"o  c #160509",
"O  c #1B1013",
"+  c #2E0A0C",
"@  c #280812",
"#  c #360A17",
"$  c #291818",
"%  c #341716",
"&  c #352A2B",
"*  c #4C1515",
"=  c #6D1D0F",
"-  c #543016",
";  c #77360B",
":  c #692415",
">  c #6D2E11",
",  c #752816",
"<  c #4D1121",
"1  c #561328",
"2  c #69162B",
"3  c #701B31",
"4  c #5A3529",
"5  c #4E2D30",
"6  c #713131",
"7  c #5D471B",
"8  c #6E481B",
"9  c #694524",
"0  c #73522B",
"q  c #77443B",
"w  c #553644",
"e  c #75324B",
"r  c #514E4F",
"t  c #7A4B45",
"y  c #6D544D",
"u  c #7A6258",
"i  c #5D5962",
"p  c #714963",
"a  c #756965",
"s  c #696C73",
"d  c #7C7677",
"f  c #881F0B",
"g  c #95260D",
"h  c #99270E",
"j  c #982A14",
"k  c #893111",
"l  c #A5321A",
"z  c #B1361D",
"x  c #903525",
"c  c #883A35",
"v  c #953B36",
"b  c #AD3C26",
"n  c #97460D",
"m  c #904614",
"M  c #A34B0C",
"N  c #AA4D0C",
"B  c #AC5513",
"V  c #B25510",
"C  c #8B4C2A",
"Z  c #98443B",
"A  c #B54B2B",
"S  c #A7463A",
"D  c #B74937",
"F  c #88682B",
"G  c #C96615",
"H  c #D36C15",
"J  c #D97217",
"K  c #E87B1A",
"L  c #C4472D",
"P  c #C94F31",
"I  c #C54B39",
"U  c #CA5133",
"Y  c #D05234",
"T  c #EB4930",
"R  c #CE6B2E",
"E  c #8B1E42",
"W  c #8E2E4B",
"Q  c #884A44",
"!  c #964944",
"~  c #8A544C",
"^  c #93544E",
"/  c #875B57",
"(  c #945B55",
")  c #B24F49",
"_  c #B85349",
"`  c #8F6A52",
"'  c #A17741",
"]  c #AA6757",
"[  c #B56456",
"{  c #89576E",
"}  c #866868",
"|  c #867676",
" . c #927472",
".. c #B46F6C",
"X. c #A97668",
"o. c #B6796B",
"O. c #AA7A73",
"+. c #D2554B",
"@. c #CA5952",
"#. c #D95B52",
"$. c #EB5850",
"%. c #F35D55",
"&. c #F65F58",
"*. c #C56A5C",
"=. c #D9675A",
"-. c #E3695E",
";. c #F5645A",
":. c #C9766D",
">. c #D87869",
",. c #F1766A",
"<. c #AF8733",
"1. c #EE801B",
"2. c #F5831C",
"3. c #F9841C",
"4. c #D79136",
"5. c #B28D4D",
"6. c #A6975A",
"7. c #998572",
"8. c #B68A6E",
"9. c #D1AD48",
"0. c #D2AE50",
"q. c #CA8978",
"w. c #D78E72",
"e. c #D88A76",
"r. c #E78B76",
"t. c #F78A72",
"y. c #E8937C",
"u. c #F4947D",
"i. c #F5977C",
"p. c #F2CB5B",
"a. c #F6CC69",
"s. c #797B83",
"d. c #8A7982",
"f. c #967A85",
"g. c #AA7A8B",
"h. c #7B868C",
"j. c #6089A5",
"k. c #6ABFF5",
"l. c #7CC9FA",
"z. c #888589",
"x. c #998789",
"c. c #8F8B97",
"v. c #8A939B",
"b. c #95949A",
"n. c #B09194",
"m. c #A0A598",
"M. c #8A98A7",
"N. c #9999A3",
"B. c #AC99A5",
"V. c #96A9B4",
"C. c #98ABB9",
"Z. c #AFABAF",
"A. c #A6ABB7",
"S. c #AAB4BB",
"D. c #D0938F",
"F. c #EE948D",
"G. c #F59A82",
"H. c #F69A86",
"J. c #D4A99A",
"K. c #EFAA90",
"L. c #F3A698",
"P. c #CF99B2",
"I. c #CD9DB2",
"U. c #E99DA8",
"Y. c #CFAAB2",
"T. c #EBA8A5",
"R. c #F3B7A8",
"E. c #EFB0B4",
"W. c #F9C58A",
"Q. c #ECC5BB",
"!. c #98B2C6",
"~. c #A7B7C4",
"^. c #B1B6C6",
"/. c #D6B7C6",
"(. c #D7B4CB",
"). c #F3ABCD",
"_. c #F4B9CD",
"`. c #E7B9D1",
"'. c #B2C2CB",
"]. c #AAC3D3",
"[. c #B6C9D6",
"{. c #8CD2FA",
"}. c #98D9FB",
"|. c #ADCEE8",
" X c #BBD5E4",
".X c #A7D7F7",
"XX c #A4DDFB",
"oX c #AADDFB",
"OX c #B9DDF3",
"+X c #A5E0FC",
"@X c #ACE2FC",
"#X c #BDE4F7",
"$X c #B4E4FC",
"%X c #BBE6FC",
"&X c #BEE8FC",
"*X c #C7CBD8",
"=X c #D1C7D3",
"-X c #C7D4DD",
";X c #E7C8D9",
":X c #F0CED3",
">X c #F4C4DA",
",X c #D5C8E7",
"<X c #C6DAE8",
"1X c #DAD6EC",
"2X c #CADDF4",
"3X c #D7DCF2",
"4X c #E9C8E3",
"5X c #ECCCE5",
"6X c #F6C8E3",
"7X c #F4CCE4",
"8X c #E3D5EB",
"9X c #ECD5EA",
"0X c #E5D9ED",
"qX c #EDDAED",
"wX c #F6D4E5",
"eX c #F4D3E9",
"rX c #F4DCED",
"tX c #FADCED",
"yX c #E2DEF1",
"uX c #CBE1EF",
"iX c #D2E4EF",
"pX c #CBE5F3",
"aX c #C9E5F7",
"sX c #C2E6FB",
"dX c #C4E9FC",
"fX c #CCECFD",
"gX c #DBE3F5",
"hX c #D5E8F7",
"jX c #D2EEFD",
"kX c #D4EEFD",
"lX c #D9EEFD",
"zX c #D7F0FD",
"xX c #DAF0FD",
"cX c #DCF1FE",
"vX c #DEF2FE",
"bX c #ECE2EE",
"nX c #F8E5EC",
"mX c #E3E9F6",
"MX c #F4E3F1",
"NX c #FAE4F2",
"BX c #FBECF5",
"VX c #E3F3FE",
"CX c #E6F4FD",
"ZX c #EAF6FD",
"AX c #EEF8FE",
"SX c #F9F3F8",
"DX c #FCF4F9",
"FX c #FEFCFD",
/* pixels */
"VXVXZXAXAXAXAXZXZXVXVXVXVXVXvXvXvXVXvXlXzXlXdXfXzXVXVXVXxXkXkXkXjXkXxXxXkXzXkXfX&X%XjXkXkXkXzXxXxXkXxXvXvXvXkXjXzXvXjXsX%XvXxXZX",
"ZXVXVXVXVXVXVXVXxXxXZXZXVXVXVXVXVXZXVXvXlXfXkXkXVXVXvXvXlXfX$X&X@XdXjXfXdX%XdXdXfX&X%XjXkX%X%X@XfXkXVXjXvXjXxXvXxXvXfXVXZXVXVXVX",
"&X%XdXVXVXvXVXVXVXvXjXzXzXVXVXZXVXVXvXvXlXkXjXvXvXlXxXvXkXdXfXjXdXdXvXvXvXxXkXfXfXxXxXfXfXdXdXdX$XjXZXvXvXkXxXkXdXzXVXVXVXVXVXVX",
"jXxXzX$XvX%X}.XXVXVXVXVXkXfXvXZXvXvXvXxXkXjXkXzXfXfX&XfXzXkXjXfX+XjXxXfXfXfXfXfXfXfXfXfXfXxXxXjXdXdX&XfXlXzXvXVXVXVXVXvXvXVXVX%X",
"kXkXfXdX}.%XdX%X}.@XfXjXjXfXfXkXlXxXlXkXjXjXkXlXzXkXkX$XfXfXdXdX+XjXxXxXxXlXxXkXfXdXdX$XfXjXjXjXxXkX$XfXkXkXxXxXxXVXvXvXvXvXfXdX",
"fXfXdXsX%X%X%X&X%XoX%XdXdXfXjXfXjXjXjXfXfXkXlXlXlXkXjX%X&XdXdX&X$XjXkXlXkXkXjXfXfXfXfXdX$XfXjXfXkXzX@XfXfXkXzXxXxXvXvXVXVXxX@XfX",
"fXsXdXdX%X%X%X$X$X%X@XdXdXfXkXfXfXfXfXdXlXxXxXxXxXlXkXjX@X%X%X@XdXfXjXlXlXkXfXfXuXjXfX X!.M.M.v.uXkX}.jXjXjXkXlXxXxXVXVXVXfXfXfX",
"fXkXfXfXfX%X$X}.%X%X&XfXfXkXkXhXaXaXfXfXlXxXxXxXxXxXlXxXfXfXfXXXfXfXjXkXkXkXsXM.v.A.{ e 3 W 5 s B.!.]. X<XaXkXkXkXlXvXVXzXlXfXfX",
"jXjXfXfXdX%X$XXX$X$X&XfXvX2X8XqXqX0XyX3XlXxXvXvXxXxXxXxXxXdXdXXXfXjXfXjXjXfX~.e w 1 # o @ < # < < 2 e { s ~.jXjXkXkXlXxXfXjXfXfX",
"dXfXfXfX%X%X$X+X$X$XdXkXfX1X>X7XtXDXSXMX0XlXxXvXvXvXVXvXvXlX+XXXdXfXfXjXpX Xp 3 @ .               o 1 3 b.2XjXkXkXkXjXdXvXfXfXfX",
"dXdXfXfXdX%X$X$X+X%XfXfXjXjXhX8X4X6X7X5X8XlXvXVXvXmX0X0XyXyXOX.XdXdXdX Xs.e 1 o                       # e ^.fXjXkXkXjXfXkXxXfXfX",
"fXdXfXfXdX%X%X%XXXdXfXfXjXjXkXhX3X`.tXNX9XgXxXkXlX8XtXNXnXrX5X,X,XsXdX!.i E 1                           # e N.pXfXfXkXjX&X%XfXdX",
"jXdXdXfXdXdXsXdX$X$XfXjXfXhX8XrXMXBXDXMX9XgXxXxXvXmX1XZ.n.J.R.nXeX*X Xb.e < .                             @ 3 { ~.[..X&XjXkX&XfX",
"kXdXdXfXdXfXfXfXfX@XdXfXhX4XNXFXFXFXqXgXlXxXvXvXlXS.6.0.0.9.<.w.E.D.u 3 @                                   < E e r !.lXkXzXfXxX",
"kXkXfXdXdXfXfXfXfX$XoXfX1X7XDXFXFXSX8XkXlXxXxXhXm.6.p.p.p.p.p.4.<.5.W #                                     o 2 v.|.pXjXkXxXxXlX",
"kXzXkXfXfXfXfXfXfXfX}.dX1X>XtXDXFXFXqX1XgXhXhXB.8.W.W.W.W.a.a.0.<.8 # #                                       # p aXjXjXkXkXlXkX",
"kXkXjXjXjXfXfXfXjXjXfX{.$X|.4X7XNXDXSXNXrXqXqX;XnXnXBXSXSXnXQ.w.F F 9 o                                       . 3 C.jXjXkXkXkXkX",
"vXkXjXjXjXjXjXkXjXlXoXk.XXkXhX8X4X4X5X5X5X9XY.R.R._.>XNXDXFXFXnXJ.0.9 o         .   . .         o * +   o .   o < { <XjXkXkXkXvX",
"ZXxXjXjXjXjXkXkXfX$X}.#XxXlXvXvXlXhXhXhXhX<X6.p.p.a.a.R.>XtXFXFXDX:X6 @     $ y < . # o . . # 6 ) v # % c .   $ w W c.pXlXxXxXVX",
"VXvXjXjXkXdXfXfX$XsXzXkXkXjXkXkXkXkXkXjXjX~.6.5.` ' <.0.q.wXDXFXFX/.5 < . X x S v o < @ # 2 _ =.! 3 6 >._ .   @ A.V.s.].hXxXVXZX",
"VXVXjXkXVXxX@X$XjXxXxXkXjXjXjXjXjXjXkXjXfXC.' ` Y.J.q.D.E.wXNXSXnX` 7 < # $ D l b < 2 2 3 @.r.( ! >.F.L.!     # A.sXjXkXlXxXZXVX",
"VXVXkXVXVXfXfXkXxXvXxXkXkXfXjXjXjXjXjXjXfXV./ T.L.G.T.L.i.H.E.>X;X/ 4 < 2 $ D z @.Z W Q @.i.y.q.[ e.K.R.c . o # A.fXkXxXlXVXVXVX",
"VXVXVXvXfXjXgX1XgXvXvXhX3X1X1X3XfXjXfXjX Xd F.L.G.,.t.H.G.G.i.G.H.F.] + # o C S =.r.e.e.i.y.D.Y.n.( e.D.% @ 5 1 ~.kXkXxXlXvXVXVX",
"vXvXvXfX3X9X>X;X3XhXyXqXBXSXBXMX9X3XjXOXh.q.G.G.G._ I =.,.t.i.G.i.i.r.: * . $ t _ H.i.K.R.8.D.9Xf.*.o.q O 5 c.e [.lXkXkXxXvXvXvX",
"VXVXkXkX5XDXSXMXqXqXeXBXDXFXFXFXDXqXsXj.o.H.i.G.[ F F 8 6 v #.,.i.i.-., = $ - v 6 i.K.E.R.D.] J.T.G.8.& i s [.h.<XlXkXkXlXvXvXvX",
"VXxXjXxX4XeXrXNXrX9X1X4X6XNXFXFXFXMX!. .G.G.i.[ 5.9.<.F 7 8 - v ;.;.+.k n 5 ) ;.Z :.H.e.q.q.w.y.i.G.X.v.M.].fXpXfXxXkXxXlXxXvXVX",
"xXkXkXzXhX1X1X,X1X3XjX3X5XDXFXFXFXbXx.F.G.G.] F 9.<.F 8 0 8 : x &.&.S M M > Q $.v q y.} I./.n.e.G.G.q.b.pXjXjXdX%XfX%XlXkXxXvXVX",
"VXxXxXkXxXfXdXkXjXkXgX>XNXFXFXFXFXSXwXwX_.F.4 9.5.<.0 0 4 - z T $.) m J V k q D 4 % ] q.n.Y.Y.7.X.o.| ~.~. XfXXXlXjXfXzXxXlXxXVX",
"VXvXkXdX$XjXjXjXkXkXkX8X4X6XeXtXqXE.L.L.E.E.D.K.E.D.F 9 - k P %.[ C J K G m ^ 4 4 = 5 o.y.y.e.:.} d.b.| ] }  X+XkXfXjXjXvXvXZXVX",
"VXvXdX%XjXjXkXjXkXkXkXxXlXgXyXyX!.8.G.i.i.i.=.` 5.' F - n :.U.U.T.T.G.t.Q.J.O.5 > ; t N.} :.i.X.N.x.J.] _ Q N.fX%XjXjXkXxXVXVXVX",
"vXVX%XjXjXjXfXfXjXjXzXxXxXxXlXxX!.O.H.G.G.e.Z u 7.0 > n B A A J 2.2.t.F.:XnXnXY.~ x =.z.-XM.d b.S.n.8.[ v =.} fXdXdXjXjXzXZXVXVX",
"VXdXxXzXfXdXXXfXfXfXxXxXxXxXlXvXOXz.[ i.H.*.) c.x.0 n M M M J 3.3.3.3.J R D.nXFX:X$.;.o.=X X].m. .e.+.x v _ / [.fX%XjXjXVXvXVXVX",
"VXdXvXvXvXfXfXaXaXaXmXgXhXjXkXvXdXOXN./ [ v - 8 n V V M n V G 2.2.2.2.G C 6 ;XFXE.$.%.,.wXI...>.,.;.%.L v I t [.kXfX&XjXVXvXVXVX",
"VXfXvXxXlXgX3X0X0XrX(.(.hXfXkXgX2X2XfXuXv.4 n G K 2.1.H n M H J 3.K J B ; m `.BX:XE.T.T.BX_.&.&.%.#.I T x D ^ [.jXjXsXdXVXvXVXVX",
"VXfXfXjX8XrXSXDXFXDXx.A.jX3X9XMXMXqX9XgXhXz.B 2.3.3.3.3.K n m H 2.K C 8 8 | *X5X4XtXDXSXtXF.$.#.)  . .^ | n.S.pXjXkXkXsXfXxXvXVX",
"VXxXfXjXeXFXFXFXFXFX;X(.qXNXFXFXFXFXDXrX1X-Xq K 3.3.3.3.3.K B k B J m k } iXlXlXhX5X`.T.>._ ( x.*XmXVXmXlXlXkXzXkXxXvXVXdXkXvXVX",
"vXxXjXjX4X7XwX7X;XY.E._.eXeX6XtXFXFXBXeX1XpXr n 2.K K K H V V V k m > / -XvXvXvXkXhX^.} 7.C.<XvXVXVXVXVXVXvXlXxXvXvXVXVXzXdXxXvX",
"VXvXkXkXhX3X<XN.} ( H.E.x.<X<XeXSX9X8XgXpXc.x , B K V M M M M M N m - Z.VXVXVXVXjXfXfXuXaX@XlXvXVXVXVXVXVXvXxXvXvXVXVXVXvXjXsXVX",
"vXxXkXxXkX%X Xd t #.;.F.O.^.1XrX1X2XkXuXz.Z z D > ; G G N N N n ; - 4 *XVXVXVXVXlXfXvXlXjX%XVXVXVXVXVXVXVXVXvXvXVXVXVXVXVXVXfXfX",
"VXkXVXvX#XpXz.u Z &.%.%.>.Y.BX9X2XC.v.} D U j x L k = > ; ; : , , , * N.VXVXVXVXVXxXVXlXfXfXlXvXVXVXVXVXVXVXxXxXVXVXVXVXVXVXVXsX",
"fXlXVXdXpXV.r & ) ;.$.&.%.L.wXNX=Xn.! P U U l : A P z g = = b Y z g g q S.VXVXVXVXVXvXlX$XxXkXkXVXVXVXVXVXvXlXlXvXvXvXVXVXVXvXvX",
"VXVXVXfX'.a 5 & % ~ / _ %.;.H.>XtXY.S U U A g , : D U L z z P U L l g g 6 b.S.*XVXVXxXkXXXxXxXVXVXVXVXVXvXlXkXlXlXvXVXVXVXVXVXVX",
"VXVXCXkXd ^ c 5 r !.#Xz.@.%.;.>.I.>X( P A j h g = * S U U U P P P z l j j t g.d.-XVXVXjXoXdXvXvXVXVXVXVXVXvXxXlXxXVXVXVXVXVXVXVX",
"xXZXVXkXi _ Z r [.dXdXOXs.@.&.+.} _.n.S z j g g : : 5 Z U P U U P l g h 6 I.).f.*XZXVXzXzX$XlXxXvXVXVXVXVXvXxXxXvXVXVXVXVXVXVXVX",
"kXAXZXVXi ^ z. XfXdXdXdXOX} #.$.c (.5Xt g g g g : y S.V.~ I U U P l g ~ g.).).f.-XZXZXVXkXXXkXkXxXvXvXVXVXVXvXvXVXVXVXvXVXVXZXvX",
"kXxXVXdX<X[.pXjXjXfXdXdXdX]./ #.Q (.P.n./ = f : | <X&X$X[./ I Y L j 6 (.).).`.x.1XZXZXVXfX@XkXjXjXkXkXxXvXxXlXvXvXVXVXvXvXAXVXfX",
"xXfXfXfXvXjXjXkXjXfXfXdXdXsXC.^ v I.).).P.g.O.I.`.6X4X5XgX*X/ x c ~ /.>X).P.| A.ZXAXAXvX&X$XkXkXjXjXjXkXkXkXlXxXxXVXVXVXVXzXjXxX",
"VXxXfXxXxXkXkXkXjXfXfXfXfXfXfXC.~ r d.I.n.P.I.`.DXDXDXNX5XgXv.| ;X;XtX6X .! ) x.mXAXAX@XdXkXlXkXjXzXjXjXkXlXVXVXVXAXAXAXVXvXlXZX",
"ZXvX%XlXxXkXvXlXjXfXfXfXjXjXjX&X X[.[.V.A.B./.nXFXFXFXrX5XgXA.B.Z.(./.f.! ,.F.O.=XZXxX{.kXlXkXkXvXfXjXkXxXvXVXZXAXAXAXAXVXkXVXVX",
"VXvX$XxXxXjXvXkXjXjXjXjXjXkXkXvX$XvXzXxXmXNXFXFXFXFXDX4X8XyXmX*X^.b.N.b.D.wXNXwX6X5XOXfXkXxXkXlXvXjXkXlXxXVXVXZXZXAX%XZXlXxXvXVX",
"VXVXoXxXkXjXvXzXjXjXjXkXkXlXxXxX%XfXvXxXmX9XMXBXSXDXFXBXtXeX7XeXeXeXeX6X5XY.L.H.E./.<XkXlXlXlXiX<X<XlXkXxXvXVXVXZXAXsXvXxXxXVXVX",
"VXvXoXkXjXjXxXkXjXjXkXlXlXxXxXxXjX$XlXxXlXVXmX0X1X1XqXqXrXMXMXMXMXMXrXbXmXZ.O.G.G.O.A.lXlX'.b.s / u uXlXlXlXvXVXZXAXAXvXlXlXVXVX",
"VXVX$XxXkXjXxXkXjXjXkXxXxXxXxXvXvXsXfXxXvXvXvXVX&XdXvXlXmXmXmXmXmXmXmXZXAXAXS.X.T.K.X.d.s.r 4 & q 4 h.<XkXkXlXVXZXAXZXZXVXvXVXVX",
"VXVX$XvXkXkXxXkXfXjXkXkXxXxXxXxXvX%XfXVXVXvXvXfX+XkXvXvXvXvXVXVXVXVXVXZXAXAXZXN.D.R.i.>.5 & 5 6 6 q a [.kXkXkXxXVXCXZXZXZXvXVXVX",
"VXVX%XvXjXkXkXjXfXjXkXkXkXlXxXxXzXfX%XzXVXVXfX+XdXxXlXxXlXvXVXVXVXVXVXZXAXAXZX].O.H.i.r.5 $ S ! 4 u s <XlXkXkXkXkXzXZXZXZXVXVXVX",
"VXvX%XvXjXjXfXfXfXjXjXkXxXxXxXxXkXxXdXXXdX%X@XdXxXxXxXxXxXvXvXVXVXVXVXVXAXAXxXiX .G.i.e.$ % q y y d [.lXxXkXzXkXjXjXvXVXVXVXVXVX",
"VXfX%XVXkXjXfXfXfXfXkXxXxXxXxXvXkXVXVXXXl.}.fXvXVXvXvXvXvXvXvXvXVXVXVXVXAXVXfXaXd y.r.! $ & i h.A.uXvXVXxXkXjXkXjXfXjXVXfXVXVXZX",
"dXkXjXVXkXjXjXfXjXkXxXlXlXvXvXvXvXvXvX{.+XkXVXVXVXVXVXVXvXvXvXvXVXVXVXVXZXjXpXM.| ~ q y r s.[.uXlXlXxXVXVXkXXXfXjXkXxXfX$XVXVXfX",
"&XVXxXfXjXjXjXjXjXkXkXkXxXVXVXVXvXvX$X{.xXVXVXVXVXVXVXVXvXvXvXvXvXVXVXVXZXdX<Xd x.a a d S.lXvXlXxXxXxXvXVXvXdXfXvXVXVXVX$XVXjX+X",
"VXZXfXfXjXkXjXjXjXkXkXkXxXvXvXvXvXdXoXVXVXVXVXVXVXVXVXVXvXvXvXvXVXVXVXVXVXfX#XS.z.v.^.<XvXvXvXxXxXxXxXvXvXVXxXvX&XVXVXVXoXdX$XVX",
"VXVXjXfXkXjXjXjXkXkXkXjXxXZXAXjX&X$XvXvXVXvXvXVXVXVXVXVXVXvXvXvXVXVXVXVXfXdXfXlXmXlXvXxXvXVXVXxXxXxXxXvXvXVXVXfX}.#XxX@X{.{.vXVX",
"VXVXxX$XjXjXkXjXkXkXxXdXkXvXkXfX$XVXVXvXvXvXvXvXvXVXVXVXVXVXvXvXvXVXVXVXVXlXdXvXVXVXzXxXVXvXVXvXxXlXlXvXVXfX$X}.{.oXoXlXvXfXZXVX",
"VXVXvX}.kXjXjXjXjXfXOX$XkXjXjX&XVXVXVXVXvXvXxXxXvXVXVXvXvXvXvXxXlXvXvXVXVX&X$X@XfXfXVXVXVXVXVXxXvXxXVXjX$X%X%XvXVXVXfXVXlXdXVXVX",
"ZXVXVX%X}.{.oXoXoXsXVXvXlXjX&XVXZXAXZXVXVXvXxXlXvXvXvXVXvXvXvXkXkXlXxXVX$XVXVXVXkXsXxXZXVXVXVXjXVXvX%XdXjXVXVXVXVXVXvXvXfXjXAXVX"
};
