/* XPM */
static char *_678ec3916f04ecfb9e8b1e6469b83b5nl4fP9jdPTeMrUbB[] = {
/* columns rows colors chars-per-pixel */
"64 64 239 2 ",
"   c #020202",
".  c #0B0B0B",
"X  c #080707",
"o  c #18130F",
"O  c #131313",
"+  c #1B1B1B",
"@  c #161719",
"#  c #110F0E",
"$  c #251D17",
"%  c #36291D",
"&  c #29211D",
"*  c #131B28",
"=  c #0C1830",
"-  c #1B2029",
";  c #192334",
":  c #1D283C",
">  c #232424",
",  c #2B2B2B",
"<  c #282429",
"1  c #242C38",
"2  c #373532",
"3  c #46331A",
"4  c #513C27",
"5  c #4A3A2F",
"6  c #64393C",
"7  c #6A4E1E",
"8  c #5F4127",
"9  c #5B4537",
"0  c #7A5C23",
"q  c #77533A",
"w  c #685034",
"e  c #7B6B38",
"r  c #0C1B47",
"t  c #17244D",
"y  c #162758",
"u  c #242C44",
"i  c #283649",
"p  c #353546",
"a  c #2C3C54",
"s  c #2F395B",
"d  c #333352",
"f  c #041F63",
"g  c #072263",
"h  c #152B69",
"j  c #062774",
"k  c #0C2C76",
"l  c #112E73",
"z  c #18337A",
"x  c #163275",
"c  c #323560",
"v  c #463D51",
"b  c #3D4247",
"n  c #2F415C",
"m  c #31425C",
"M  c #3C4553",
"N  c #364665",
"B  c #47474C",
"V  c #584A46",
"C  c #495258",
"Z  c #4F4A55",
"A  c #795944",
"S  c #685F51",
"D  c #69504C",
"F  c #776A57",
"G  c #746955",
"H  c #4E566A",
"J  c #7B776A",
"K  c #6B767B",
"L  c #6C7074",
"P  c #5D6A71",
"I  c #9A5338",
"U  c #85533B",
"Y  c #A15B3E",
"T  c #936E26",
"R  c #9A792F",
"E  c #AC732F",
"W  c #8C684D",
"Q  c #977157",
"!  c #8E6D50",
"~  c #B37757",
"^  c #AB6F4E",
"/  c #967B69",
"(  c #886F67",
")  c #AA7960",
"_  c #815949",
"`  c #C77D57",
"'  c #9E833A",
"]  c #A4893C",
"[  c #BA9439",
"{  c #AD872F",
"}  c #978751",
"|  c #AF8E5E",
" . c #9A8A69",
".. c #968A7A",
"X. c #989174",
"o. c #AB8468",
"O. c #BB8764",
"+. c #A69778",
"@. c #AA9273",
"#. c #B8A85E",
"$. c #CB825C",
"%. c #CAA947",
"&. c #D5B351",
"*. c #CC8662",
"=. c #D98D65",
"-. c #DD9269",
";. c #D09771",
":. c #E3956B",
">. c #E29B70",
",. c #D8A37B",
"<. c #E4A57A",
"1. c #EABF54",
"2. c #DFC45D",
"3. c #F9CD5F",
"4. c #F5CC5E",
"5. c #E4C45A",
"6. c #F8CE61",
"7. c #F6D062",
"8. c #15388C",
"9. c #163C94",
"0. c #0E3083",
"q. c #1C429C",
"w. c #25438D",
"e. c #234DAB",
"r. c #2047A1",
"t. c #2A55B6",
"y. c #2B56B8",
"u. c #2750AD",
"i. c #6D7985",
"p. c #78848C",
"a. c #7A8B95",
"s. c #7D929D",
"d. c #6ABFF5",
"f. c #7AC8F9",
"g. c #878B8C",
"h. c #949387",
"j. c #848E94",
"k. c #899498",
"l. c #959798",
"z. c #928D88",
"x. c #A79A87",
"c. c #AE9C89",
"v. c #9EA39A",
"b. c #ABA28A",
"n. c #B5AB8A",
"m. c #A9A898",
"M. c #B9B195",
"N. c #BEB18A",
"B. c #969DA3",
"V. c #889AA6",
"C. c #9AA7A9",
"Z. c #97ABB6",
"A. c #8FA0AC",
"S. c #A5AAA8",
"D. c #AFB0AD",
"F. c #A9B4B8",
"G. c #B4B9BB",
"H. c #AEB1B0",
"J. c #D4AA84",
"K. c #D6B98E",
"L. c #C4BA97",
"P. c #EABA8C",
"I. c #E0BE93",
"U. c #C2BEB0",
"Y. c #CDC39C",
"T. c #D9C69B",
"R. c #EEC99A",
"E. c #D6CAA4",
"W. c #D7CDAC",
"Q. c #E9D7AA",
"!. c #F4DDAC",
"~. c #F0D6A7",
"^. c #EDD6A9",
"/. c #F5E2B2",
"(. c #F9E7B6",
"). c #F3E1B1",
"_. c #91B7C8",
"`. c #A7BBC6",
"'. c #B1BBC2",
"]. c #A9C1CD",
"[. c #B8C5CA",
"{. c #AEC9D7",
"}. c #B8CBD7",
"|. c #BAD2DE",
" X c #88CEF8",
".X c #8CD5FB",
"XX c #92D5FA",
"oX c #9CDCFB",
"OX c #97D9FA",
"+X c #94CFF8",
"@X c #BAD9E9",
"#X c #A3DDFB",
"$X c #AADDFA",
"%X c #A8DAF6",
"&X c #B3DEF9",
"*X c #A8D2EE",
"=X c #A5E0FC",
"-X c #ACE2FC",
";X c #B4E4FC",
":X c #BBE6FC",
">X c #BEE8FC",
",X c #B9E1F5",
"<X c #C4CDD3",
"1X c #CBD4DA",
"2X c #CBCBC7",
"3X c #E0D8C3",
"4X c #C5D9E5",
"5X c #CCDBE4",
"6X c #CCDEE9",
"7X c #C7DDEA",
"8X c #D3DEE4",
"9X c #CAE1EE",
"0X c #D6E4EC",
"qX c #C5E4F5",
"wX c #C3E6FC",
"eX c #C4E9FD",
"rX c #CCECFD",
"tX c #CBE5F4",
"yX c #D3E9F6",
"uX c #DBEAF3",
"iX c #D2EEFD",
"pX c #D5EFFD",
"aX c #D3EEFD",
"sX c #D9EFFD",
"dX c #D9EFFD",
"fX c #D4E6F2",
"gX c #D6F0FD",
"hX c #D6F0FD",
"jX c #DAF0FE",
"kX c #DEF2FE",
"lX c #DCF1FE",
"zX c #E3ECF3",
"xX c #E1F3FE",
"cX c #E6F4FD",
"vX c #E3F3FE",
"bX c #EAF6FD",
"nX c #EEF8FE",
"mX c #E4F0F4",
"MX c #EBF0F3",
/* pixels */
"bXjXkX:XeXiXkXgXiXpXkXkXkXjXpXjXjXgXpXpXpXiX:XwXrXpXgXpXjXjXpXiXpXpXpXjXvXcXvXgXrXeXsXgXsXkXkXkXkXkXvXvXcXcXcXbXbXbXbXbXnXbXvXcX",
"cXcXcXbXcXrXkXjXkXjXiXkXiXvXiXeX-X:X>XpXiX:X>XrXeXwX:XwXrXiXeX-X>X;XrXsXkXkXvXvXpXpXrXsXjXcXcXcXcXcXcXcXbXbXjXjXcXcXcXcXvXvXcXbX",
"cXvXvXvXvXvXgXeXpXjXpXkXkXbXiX;XwXeXwXrXrXjXjXrXrXpXjXlXkXkXwXeXiXrXwXpXkXjXsXkXkXiXpXsXjXkXvXcXbXcXcXgXgXiXkXcXcXvXkXvXvXwX:XeX",
":XvXvXkXkXvXcXvXvXkXgXsXrX>XwXeXiXjXjXrXrXrXrXrXrXrXrXrXrXjXiX=XrXiXpXgXrX>XrXrXgXpXiXpXjXkXkXkXbXkXrXpXvXvXvXvX#XoX:XjX;XgXgXiX",
"wXrXkXkXkXkXvXjXjXjXpXpXrX;XpXjXiXiXiXrX;XwXeXrXpXjXjXjXjXjXiX=XwXeXrXrX;XiXpXgXsXpXiXiXpXsXjXsXpXrXrXiXiXrX-XXX:XwX:XOXeXrXpXpX",
"rX-XjXvXvXkXkXjXjXgXpXrXrX-XgXpXiXiXrX;XeXrXrXrXrXrXpXpXsXpXiX;X>XwXwX>X:XiXpXsXsXsXpXrXrXiXiXiXrXiXrXeXeX:X$X:X>X:X:X:XeXeXrXrX",
"rXrXrXcXvXvXjXjXsXpXiXiXiXoXpXpXiXeX:XeXiXiXrXrXrXrXpXjXpXiXrXeX-X:X:X-XiXpXsXjXjXjXjXsXeXrXrXrXrXpXrXeXeX-X:X;X;X:X:X:XwXeXwXrX",
"rXrXpXgXvXkXsXpXpXpXiXrXiX;X;XjXiX>X:XiXiXiXiXrXeXrXpXpXpXiXrXrX#XrXrXrXjXsXjXjXjXjXjXsXrXrXrXrXpXpXpXrXrX>X:X:XoX;X:XrXrXrXpXrX",
"rXrXiXrXjXsXpXpXiXiXrXrXiXpXwXOX.X:XpXpXiXiXiXrXeXeXrXiXiXrXiXrX#XwXwXjXjXjXjXjXkXkXjXpXiXrXrXkXjXpXwXkXrX>X;X;X#X;X:XwXrXrXiXiX",
"rXrXrXkXeXpXpXpXiXiXpXgXkXvXkXiXOX$XyXpXsXpXrXrXrXrXrXiXiXrXrXrX#X-XdXkXkXvXkXkXkXjXjXpXiXrXpXkXjXpXiXrXpXwX;X;X=X;X:X:XrXrXrXeX",
"rXrXgXpXrXpXpXgXpXiXjXjXjXsXpXpXdX%X_.k.Z.`.}.tX@XrXrXiXrXeXwXwX#X;XkXkXvXkXkXkXvXkXjXgXpXrX=XsXjXpXiXiXrXrX:X=X;X;X:XwXrXrXeXeX",
"eXrX:X>XiXpXiXrXiXpXpXsXpXrX`.F.k.K C > , - 2 L P Z.wXwX>XwX>XeX-XoXgXvXvXvXvXjXpXjXjXjXgXrX$XeXjXpXiXiXrXrXwX#X:X:X:XwXrXrXwXrX",
"rX:XpXpX>X;XrXiXpXpXgXgXpXqXV.b < O . X X X X . + B ].eXwXwXeXeXrX;XOXlXvXvXvXkXjXjXjXpXiXrXeX=XpXsXiXrXiXrX;X;XwXwXwXeXrXwXwXiX",
"jXrXjXjXsXeX=XpXiXpXrXrXiXtXa.> .               . @ C a.@XeXeXrXrXrX:XoXcXcXvXvXkXkXjXjXpXiXrX-XrXpXiXrXrXeX-XrXrXrXrXeXrXwXeXpX",
"sXjXjXgXpXiX;X;XpXrX:X;X}.K +         X           . < C {.rXrXiXsXiXrXrXrXcXcXvXkXjXjXjXpXpXrXeX-XpXiXiXrX$X;XrXrXrXrXwXeXrXpXpX",
"pXsXsXpXiXiXrX X;X%X`.a.B +           + @ X       . O , s.qXrXyXyXrXiXiXpXgXcXcXjXjXpXpXpXrXrXiX=XoXiXiXeXoXrXrXrXrXrXrXrXpXgXpX",
"pXpXpXpXiXpXrXrX:XyX`.p., .         O . , + X         X > j.h. . .X.S.|.rXiXgXkXjXjXpXpXiXrXrXrXiXwXXX;X.XrXiXiXrXrXrXiXiXiXpXpX",
"kXpXpXpXiXpXrXrX&XgXvXk.O           X + > < @       X X @ 3 { [ %.1.1.| F.qXrXgXpXpXgXiXiXiXiXpXjXjXpX#Xd.$XpXiXpXiXiXiXiXiXpXkX",
"cXjXjXjXpXpXiX$X=XsX4Xb X             X @ + .       . O . 0 { %.4.3.6.7.&.S.yXrXpXiXpXiXpXpXpXjXkXkXsXjX:XXX;XrXpXpXiXiXiXiXjXbX",
"bXcXjXjXpXiX:XvX$XyXp., . . o o $ 8 $ X   X X   # + . @ . w R %.3.3.6.6.6.#.[.iXiXjXpXiXiXpXpXpXpXpXiXiXiXgXwX;XrXrXwXpXiXiXkXcX",
"cXbXjXsXpXiXwXjXwX`.P j.- # 4 ) % 9 O.q O X O X D W $ X # R %.' [ 4.3.3.6.7.X.,XrXjXiXrXiXpXiXiXiXiXiXiXpXjXjXiX;X-XjXvXpXiXvXcX",
"cXcXvXsXjXpXrXiXrXyX9X[.+ . 5 ^.T./ ( I.Q % $ $ U I 4 . $ T [ %.] [ 5.2.&.2.#.}.eX:XpXiXiXiXiXiXiXiXrXpXpXkXkXjXsXrXrXvXvXpXcXcX",
"vXvXkXsXjXpXpXwXdXpXiX].+ . % T.(.n.b.E.~.o.F F O.I 5 + 3 0 T R ] e } +.n. .} [.jXjX;XeXpXrXiXrXrXrXrXrXpXkXkXpXiXsXiXrXkXvXvXvX",
"kXkXkXjXpXpXpXrXpXsXpX|.2 b #  .L.J 2X3X/.~.Q.Q.O.W + $ % w G X.N.E.Q././.).X.F.pXiXjX;X:XiXrXeX;XwXiXrXrXkXjXiXpXjXjXiXrXkXkXkX",
"kXkXkXsXpXpXsXrXiXpXiX@Xi.A., 2 L.E.2XW./.(./.^.W w @ = p Y.(.(.(././.P.R./.Q.v.9XiXiXjXf.>X;X>XrXrXiXrXeXjXkXiXpXpXpXjXpXpXvXkX",
"vXkXjXsXjXpXjXrXiXiXiXiX7X7XV.a.b.(.Q.Q.W.Y.!.Y.^ =.V r A ~./.!.P.,.O.U | /./.E.C.rXiXpXeX-X#XiXiXiXiXiXrXrXeXrXiXpXrXgXjXiXjXvX",
"vXkXjXsXsX:XrX:XeXiXiXiXiXiXlXZ.M./.W.U.1Xl.L.o.` =.B f D <.P.O.q 8 7 { ] @.!.(.L.`.yXiXrXjXrXjXjXpXiXiXrXiXiXrX>XiXjXiXgXpXpXjX",
"cXjXsXkXgXrXiXpX#XiXiXiXiXpXkX8XC...h.D.W.W.+.6 ~ $.p j c *.-.U 3 0 7 T [ ' @./.).m.|.iXiXwXiX:XjXkXkXjXpXpXpXiXpXeXrXjXpXjXjXvX",
"vXbXkXkXiXiXrXpX-XrXiXiXjXuX[.1X9XZ.b.~.T.c.g.t D W d 0.9.D $.E 6 2 7 0 R %.w K./.Q.C.yXiX&X:X-XsXjXkXjXjXpXpXpXiXiXiX;XwXpXkXvX",
"cXvXcXjXpXiXiX:XrXrXiXiXvXS.o...m._._.h.D.5Xk.r v S H 9.t.q.v I U y 4 0 R [ Q R./.(.M.|.iX;XkXOXjXjXjXkXjXpXpXpXiXpXiXiX:XeXkXvX",
"vXvXbXgXiXiXeXwXrXrXrXrX0X..~ @.Y.k.*XfXzX5X@.D i V Z e.t.y.e.z y j y 9 ! ! Q ~./.(.L.`.rX:XiX:XgXkXjXjXjXgXiXiXrXrXrXiXiX:XcXkX",
"vXvXkXvXiXiX:XrXiXiXiXiX[. .^ U ;.n.C.}.uXH.;.~ u h t 8.e.y.y.y.9.j j g H B.Q K.(.K.h.9XiXrXrXeXlXjXjXjXjXjXrXrXrX#XwXrXgXjXwXvX",
"vXvXkXvXiX:XrXiXiXiXiXsX'.Q ^ ^ :.<.J.c.x.c.-.$.Z l h y r.t.t.u.8.k k 8.8.x u W +.v.4XpXpXpXrXwXyXiXiXiXjXkXrXrXrXrXrXkXkXkXeXvX",
"vXvXkXvXeXeXiXiXiXiXpXsX}./ A Y ! ~ -.>.>.>.:.) [.V.N s g q.y.e.z l e.t.y.e.0.H 1XkXsXpXpXiX:X`.g.4XrXrXrXrXrXrXrXrXkXkXjXkXrXvX",
"kXkXjXrXeXpXpXiXiXpXjXkXdX8X1XG.<X'.z.o.*.-.~ B.yXyX|.H y x q.k k u.y.y.t.y.w.`.dXkXjXsXpXiXeXk.G l.rXrXrXeXeXeXrXpXjXjXiXrXrXvX",
"vXkXiXeXvXkXjXpXgXpXjXvXcXcXbXbXcXsX,X{.l./ z.pXpXpXdX[.C t f k 0.9.e.e.t.q.m 7XdXvXkXsXpXiX}.k.J J {.rXeXwXeXrXiXpXjXjXiXrXjXvX",
"kXjXwXgXvXvXkXkXjXsXkXvXcXcXcXvXvXkX;XpXpX7XtXpXkXkXkXxXi.p g j j j k 9.q.t u j.fXkXjXpXpXtXv.Q.T.F l.qXrXeXrXjX:XpXsXjXiXiXjXkX",
"vXeXiXvXvXvXvXkXkXjXkXvXcXcXcXvXkXkX;XrXrXrXrXiXvXvXvXvXa.- * r g j k h ; a u a p.}.4XpXiX}.M.<.:.W G ].rXrXeXwXrX:XpXjXpXpXkXvX",
"iXrXvXvXvXvXvXvXkXkXvXcXcXcXcXvXvXvX:XiXpXkXrXpXvXvXcX1XM * : a : = = ; a u ; m m H k.}.4Xv.,.-.:.*.9 L @XwXwXrXpXiX:XpXjXpXjXkX",
"eXvXvXvXvXvXkXkXjXjXvXcXcXcXvXvXkXjXrXrXsXvXjXvXuX<XF.C ; ; a n a u a m i * ; a m a H.B.l.J.:.~ o.w , V j.,XwXiXjXjXpX:XkXvXiXvX",
"kXkXvXvXvXkXkXkXsXsXkXvXvXvXvXvXpXpXjX;XsXkXcXcXF.F.l.1 : 1 a n n m m 1 @ * ; : a M 1Xl.;.:.) F.@Xp.5 W G ].eXpXdXpXjXiXeXvXpXrX",
"cXvXcXvXvXvXkXsXsXpXsXkXvXvXvXvXvXjXjX#XpXjXcXcX'.G.uXP 1 ; a m m m H C * * ; ; 1 l.8X( =.O.S.qXwX,Xa.Q A Z.rXvXbXwXkXcXrXvXcXvX",
"vXcXcXvXvXvXvXjXsXjXkXvXvXvXvXkXkXkXeX$XiXvXcXcX[.G.uX8Xk.- a N a K 1X9Xj.1 * * H G.1XW *.z.qXrXrXeXwX].C.@XwXkXcXdXiXvXpXcXcXvX",
"vXcXcXcXvXkXvXkXjXjXvXvXvXvXvXkXjXsX;XgXgXcXcXbXuXk.G.0X0Xg.b a i.5XkXdX9Xk.K j.1X0X[._ ..6XiXrXrXwXeXeXeXwXeXiXkXcXpXiXpXcXbXjX",
"kXbXcXvXkXvXvXvXkXkXvXvXvXkXkXjXpXpX#XpXvXbXbXbX1X/ ~ z.zXnXzXl.F.vXvXvX:X}.S.G.F.S.L ..7XjXjXrXrXwXeXeXeXeXrXrXiXkXvXeXvXbXbXpX",
"rXvXnXlXkXvXvXkXkXsXjXkXjXpXpXiXiXiX-XrXvXbXbXzXx.P.P.o.g.F.S.S.5XvXvXkX;X:X5X5X5X6X5XfXjXjXpXiXrX:XeXeXeXeXrXiXiXpXsXvXeXmXgXiX",
"jXiXgXvXvXvXvXjXjXsXpXpXpXiXiXiXyX4X;X:XjXbXmXH.Y.(.E.S.fX0XxXvXvXvXvXkXvXXXxXcXvXkXkXkXkXjXpXiX:XeXeXeXeXrXrXiXpXiXiXvXrXrXrXjX",
"bXsXkXcXbXnXbXcXcXvXsXpXiXiXgXiX[...K a._.zX1Xm./.E.D.uXcXvXvXcXvXvXkXjXkX-XrXvXvXkXkXkXkXjXjXrX;XrXrXrXrXrXrXiXpXpXpXjXjXrXjXcX",
"cXvXpXcXbXbXbXbXbXvXkXjXpXiXrX9XL q V 9 B g.x.).E.S.zXcXcXcXvXcXcXvXkXjXjX:X>XvXvXvXkXkXkXjXjXeXwXiXiXiXrXrXrXiXpXkXiXjXsX:XkXbX",
"cXkXjXsXbX:XbXbXbXvXvXjXsXpXiX6XS 9 A w < / !./.m.0XbXbXcXcXcXcXcXvXvXkXwXeX-XvXvXvXkXkXjXjXkX;XkXpXpXiXiXiXiXiXpXkXiXjXjX;XkXcX",
"cXvXjXjXkXeXbXbXcXvXkXjXpXjXpXyXC.G S W & G !.R.m.bXbXbXbXbXbXcXcXvXvXkXjXjX-XkXvXvXkXkXjXlXrX:XjXjXsXpXpXiXiXiXgXjXiXpXjX$XvXcX",
"cXcXsXsXkXbXnXbXcXkXsXsXsXjXsXpXuX<Xl.S % 4 J.T.m.bXbXbXcXcXcXcXvXvXvXvXjXkX;XrXkXkXkXkXjXsX;XiXjXjXjXsXsXpXiXiXpXjXiXiXpX$XkXcX",
"cXcXkXcXbXbXbXbXvXsXpXsXsXsXpXsXcXcXmX4Xj.S A W ..G.bXnXbXcXcXvXvXvXvXkXkXkXeX>XvXkXkXkXjXrXwXkXkXjXjXjXjXpXiXiXpXjXiXpXjX;XvXcX",
"cXcXkXbXbXbXcXcXjXpXpXjXsXpXsXkXcXbXvXkXdX}.l.J J F.bXnXbXcXvXvXvXvXkXkXkXkXpX=XrXkXkXvXvXrX:XkXjXjXjXjXpXpXiXrXpXjXpXpXkX;XcXcX",
"cXcXvXbXcXcXgXpXpXpXpXjXsXsXkXvXvXvXkXvXkXkXyX5X|.mXnXnXbXvXvXvXvXvXkXsXjXsXjXeX=XrXvXvXgX:XrXgXjXjXsXpXpXpXiXrXiXpXpXiXkX:XcXcX",
"cXcXvXvXvXkXiXiXpXgXpXjXkXvXvXkXkXjXkXvXvXkXkXvXkXjXbXnXcXvXvXvXvXkXkXjXjXjXjXjXeX-X:XeX#XeXjXpXjXjXjXjXpXiXiXrXrXrXiXiXkX:XkXcX",
"bXvXvXrXvXiXrXiXpXiXpXjXvXvXkXjXjXjXkXkXkXkXkXkXrXrXcXnXcXvXvXvXkXkXkXkXkXkXkXvXkXrXOXf.#XxXvXpXkXjXjXjXjXpXrXrXrXrXiXpXvX:XrXvX",
"rXvXvX;XrXgXpXiXrX#XpXvXvXkXjXjXjXkXkXjXjXjXkXkXrXpXiXbXcXvXvXvXkXkXkXkXvXvXvXcXcXvXiX=XXXkXkXkXkXkXkXsXsXjXpXiXrXiXiXpXcXiXpXwX",
"=XiXvX;XvXvXvXkXrXwXkXvXkXjXjXjXjXkXvXjXjXvXkXvXvXpXrXbXcXvXvXkXkXkXkXkXvXvXcXcXvXvXvXgX X;XkXkXvXvXvXjXpXpXpXiXiXiXiXiXrXjXcX:X",
"cX;XeX$XvXvXcX:XkXgXvXkXkXjXjXjXjXkXvXkXjXkXsXvXpX:XrXcXcXvXvXvXkXkXkXkXvXvXcXcXvXvXvXvXvX$XeXkXkXkXkXjXpXpXpXiXiXiXiXiXrXrXcXcX",
"vXlX XXX-XgX:XOXrXvXcXkXkXjXjXjXjXvXvXkXjXkXvXbXvXrXeXrXcXvXvXvXkXkXkXvXvXvXvXvXvXkXkXvXkXkX;X>XiXbXbXjXiXpXpXpXiXiXiXiXrXiXcXcX",
"vXbXrXlXdX$X$X.XoX;XrXcXkXsXsXjXkXvXkXvXjXpXcXvXkXeXsXvXvXvXvXkXkXkXvXvXvXvXvXkXkXkXkXkXkXvXcX;XrXpXkXpXeXjXpXpXiXpXiXiX;XjXcXcX",
"vXcXeXsXxXrXxXvXkX:X:X;XiXcXjXkXjXvXvXcXcXvXrXrX-X;X>XcXcXkXkXsXjXkXkXkXkXvXvXkXjXjXkXkXvXvXcXcX>XiXiXpX;X&XrXiXiXiXiXpXOXkXcXcX",
"cXnXiXrXkXkXvXcXvXcXvXiXwX:XlXcXiXvXcXcXcXpXwXiXvXcXcX;XvXjXsXpXpXkXkXkXvXkXkXkXsXjXkXvXvXbXbXbXcX>XiXpXkXcXwX$X$X$X+XOX:XcXcXbX"
};
