/* XPM */
static char *result[] = {
/* columns rows colors chars-per-pixel */
"64 64 245 2 ",
"   c #010101",
".  c #0C0305",
"X  c #0F0908",
"o  c #170609",
"O  c #171317",
"+  c #23060D",
"@  c #280912",
"#  c #360A17",
"$  c #2B1412",
"%  c #371619",
"&  c #38211E",
"*  c #341A21",
"=  c #343033",
"-  c #4B1513",
";  c #541916",
":  c #641C0F",
">  c #5E230A",
",  c #50311B",
"<  c #662517",
"1  c #782917",
"2  c #723411",
"3  c #4E1526",
"4  c #581627",
"5  c #68162E",
"6  c #741936",
"7  c #512F2A",
"8  c #6A322E",
"9  c #7A352C",
"0  c #5E451D",
"q  c #6C491E",
"w  c #56413E",
"e  c #734E25",
"r  c #69463C",
"t  c #784538",
"y  c #733448",
"u  c #564C4D",
"i  c #70504A",
"p  c #6B615B",
"a  c #74665D",
"s  c #5B5963",
"d  c #6D5867",
"f  c #676A6E",
"g  c #756969",
"h  c #7D6C75",
"j  c #7B7879",
"k  c #8A240E",
"l  c #95260D",
"z  c #9A280E",
"x  c #992C16",
"c  c #8A3412",
"v  c #A12E16",
"b  c #A53219",
"n  c #821C3E",
"m  c #8A3929",
"M  c #873B35",
"N  c #943733",
"B  c #A43C2F",
"V  c #B43C22",
"C  c #C13E27",
"Z  c #9B470D",
"A  c #95480F",
"S  c #A34B0B",
"D  c #A94F0D",
"F  c #AB5312",
"G  c #AF5310",
"H  c #B85C12",
"J  c #BC6114",
"K  c #8A433C",
"L  c #914E35",
"P  c #B34B2A",
"I  c #A5483C",
"U  c #B74736",
"Y  c #926F2D",
"T  c #D16C17",
"R  c #DB7318",
"E  c #EA7B1A",
"W  c #C3492C",
"Q  c #D3432D",
"!  c #CA5032",
"~  c #EE4E38",
"^  c #D76F26",
"/  c #971D45",
"(  c #8D3050",
")  c #874C47",
"_  c #93524D",
"`  c #875957",
"'  c #B84D46",
"]  c #A7524A",
"[  c #B0584F",
"{  c #936459",
"}  c #AA6252",
"|  c #B56858",
" . c #AC7A58",
".. c #946E6B",
"X. c #8B6877",
"o. c #897979",
"O. c #AB726B",
"+. c #A8786B",
"@. c #B87364",
"#. c #A47878",
"$. c #C7534B",
"%. c #D8574C",
"&. c #D75C52",
"*. c #E8574C",
"=. c #E95C55",
"-. c #F35C55",
";. c #F35D58",
":. c #DA6459",
">. c #EA6159",
",. c #F5645B",
"<. c #D0776B",
"1. c #ED7568",
"2. c #AE862B",
"3. c #F4821C",
"4. c #F9841D",
"5. c #C29A37",
"6. c #DF9739",
"7. c #978758",
"8. c #B08E4C",
"9. c #B6A24C",
"0. c #95837A",
"q. c #E39F54",
"w. c #D2B154",
"e. c #C88776",
"r. c #CB8870",
"t. c #D68A77",
"y. c #EC8576",
"u. c #F68A79",
"i. c #E8947D",
"p. c #F6947B",
"a. c #F4967E",
"s. c #F6CC5C",
"d. c #F7C766",
"f. c #F5CF64",
"g. c #737986",
"h. c #8E7889",
"j. c #A87E8F",
"k. c #7B838A",
"l. c #8A8488",
"z. c #8B8992",
"x. c #998996",
"c. c #8A9299",
"v. c #94959A",
"b. c #B08E92",
"n. c #9DA29E",
"m. c #8A9CA4",
"M. c #979CA2",
"N. c #A29BA6",
"B. c #BD9AA2",
"V. c #8DA8B6",
"C. c #9EACB7",
"Z. c #A6ACB7",
"A. c #B1A7B0",
"S. c #AAB3BA",
"D. c #C58984",
"F. c #D3948A",
"G. c #EE988C",
"H. c #F59A82",
"J. c #F79B84",
"K. c #D3A48A",
"L. c #F0A98C",
"P. c #F5A797",
"I. c #CC99AB",
"U. c #EC9DAD",
"Y. c #CDAFB6",
"T. c #E9ABA4",
"R. c #F4A8A6",
"E. c #ECB2A9",
"W. c #F1B2B3",
"Q. c #F6C8AC",
"!. c #9CB4C2",
"~. c #A7BAC7",
"^. c #B3BAC4",
"/. c #D6B3C8",
"(. c #E8A7C6",
"). c #E7B8C5",
"_. c #F1B8CE",
"`. c #F6B4D4",
"'. c #95C0D3",
"]. c #B6C3CC",
"[. c #ABCADB",
"{. c #B8CAD6",
"}. c #BDD0DD",
"|. c #8DD1F7",
" X c #97D9FA",
".X c #ADCCE5",
"XX c #BADAEB",
"oX c #A4DDFB",
"OX c #AADDFB",
"+X c #B7DCF7",
"@X c #A6E0FB",
"#X c #ACE2FC",
"$X c #B5E1F6",
"%X c #B4E4FC",
"&X c #BBE6FC",
"*X c #BEE8FC",
"=X c #C4C9D7",
"-X c #D7C2D0",
";X c #C6D5DF",
":X c #F7C8C8",
">X c #E7C6D8",
",X c #F7C5D7",
"<X c #E8D5D9",
"1X c #F9D5D6",
"2X c #D6CAE5",
"3X c #C7DAE9",
"4X c #DAD6EC",
"5X c #D7DDF2",
"6X c #E5CCE5",
"7X c #E9CAE4",
"8X c #ECCDE4",
"9X c #F3C7E2",
"0X c #F3CCE3",
"qX c #EAD5E7",
"wX c #E4D5EC",
"eX c #E3D9EE",
"rX c #EBDBED",
"tX c #F7D7E9",
"yX c #F4DCED",
"uX c #E7DEF1",
"iX c #F4DFF0",
"pX c #CCE0ED",
"aX c #D7E5EE",
"sX c #CAE4F5",
"dX c #C3E6FB",
"fX c #C4E9FD",
"gX c #CCECFD",
"hX c #D5E4F4",
"jX c #D8E7F7",
"kX c #D3EEFD",
"lX c #D9EEFC",
"zX c #D6F0FD",
"xX c #DCF1FE",
"cX c #EEE0EC",
"vX c #F8E2ED",
"bX c #E5E8F7",
"nX c #F5E6F2",
"mX c #FAE4F1",
"MX c #FBEBF4",
"NX c #E3F3FE",
"BX c #EAF6FD",
"VX c #EFF8FE",
"CX c #F6F4F9",
"ZX c #FDF4FA",
"AX c #FEFCFD",
/* pixels */
"NXNXBXVXVXVXVXBXBXNXNXNXNXNXxXxXxXxXNXxXxXzXfXgXzXxXNXNXxXkXkXkXkXkXzXzXzXzXzXgXfX&XkXkXkXkXzXxXxXkXxXxXxXxXzXzXzXxXgXfX&XxXxXBX",
"BXNXNXNXBXNXBXNXxXxXBXNXBXNXNXBXBXBXNXxXxXgXzXzXNXNXxXNXxXgX%X*X#XfXzXzX*X&XdXfXgX*X*XkXzX*X&X#XfXzXNXkXxXkXzXxXzXxXgXBXBXNXBXNX",
"dX*XfXNXNXxXNXNXNXxXzXzXzXNXBXBXNXNXNXxXlXkXkXxXxXxXxXxXzXfXgXkXfX*XxXxXxXxXzXgXgXxXxXgXgXfXfXfX%XzXNXxXzXzXxXzXgXzXNXNXxXBXxXBX",
"kXzXzX#XxXdX XoXNXNXNXNXlXgXNXNXxXxXxXxXkXzXkXzXgXgX*XgXzXkXkXgX#XzXxXgXgXgXgXgXgXgXkXgXgXxXxXkXfXfXfXgXxXzXxXxXNXNXxXxXxXxXNX$X",
"zXkXgXfX X&XfX*X X#XgXkXgXkXgXzXkXlXlXkXkXkXkXkXzXzXkX%XgXgXfX*XoXkXlXxXxXzXxXzXgXfXfX#XgXkXkXkXzXzX%XgXzXzXxXxXxXNXxXxXNXxXgXfX",
"gXgXfX*X&X&X&X*X&X@X&XdXfXgXkXgXkXkXkXgXgXxXlXkXlXkXkX%X*X*XfX*X%XkXkXxXzXzXgXgXgXgXgXgX%XgXgXkXzXzX#XgXgXzXzXxXzXxXNXxXNXzX#XkX",
"gXdXfXdX&X&X&X%X%X%X#XgXfXfXkXgXfXfXgXfXkXlXxXxXxXlXkXkX#X*X&X#XfXgXkXkXxXkXgXgXgXkXgXkXdX&XdXkXkXzX XgXgXzXzXkXzXxXxXBXBXfXgXgX",
"gXkXgXgXgX%X%X X&X&X*XgXgXlXlXgXsXgXgXgXlXlXlXxXxXkXxXxXgXgXgXoXfXgXkXkXzXzXgXfXgXgXkXkXkX&X&XkXzX%X%XzXkXgXkXzXzXxXxXxXzXzXgXgX",
"zXgXgXgXfX&X%XoX%X%X*XfXxXfXsX{.f h g.j.~.;XdX}.lXxXxXxXxXdXdX XgXkXgXzXkXgXfXfXfXkXkXkXkXlX&X|. XfXkXkXgXgXgXkXzXzXzXzXgXzXgXfX",
"fXgXgXgX*X%X%XoX%X%X.X~.C.N.h.X.y 6 / 4 4 y h.u S.xXxXNXxXzX#X@XfXgXgXkXkXkXgXgXgXkXkXxXjX5XXX.XgXxXxXlXzXzXzXkXzXzXzXfXxXkXfXgX",
"fXfXgXfX*X&X%X%X@X*X].s ( 6 - + o o o . X O # 5 ` /.NXNXxXxX%X@X&XfXfXgXgXgXgXgXkXkXjXwXiXmXuXyX,X4XxXxXxXzXzXkXzXzXkXkXzXzXzXgX",
"gXfXgXgXfX*X&X&XoX*XXXh.3 #                 . @ 3 h.S.aXNXzX X#XfX&XfXfXdXfXgXkXkXlXwXmXMXmX0X9X6XjXkXkXxXkXzXgXfXkXzXgX*X*XfXfX",
"zXfX*XgXdXfXfX&XOX[.h.4 .                       + n y h.aX X$XhX4X2X6X6X6X4XlXNXNXBXuX7X,X9XwXbXlXkXgXkXzXzXzXzXzXgX#X&XzXzX*XgX",
"zXfXfXfXdXgXgXdX!.d 4 .                         . 5 y v.|.$X-XtXtXtX<XqXnX6XlXNXlXsX8XZXZXqXuXcXbXkXkXkXgXgXzXgXzX@XdXlXzXzXsXlX",
"xXkXgXfXdX.Xk.X./ 6 .                             . # y x.I.>XvXi.w.8.7.n.XXgXxXsXlX5XwXmXAXZXMXqXeXlXkX$XfXgXzX#X$XkXzXzXxXzXzX",
"kXzXzXgXgX.Xg.g.6 #                                   + 4 @.t.5.2.s.s.f.w.7.~.sXkXNXkXkXwXZXAXAXZX>XhXkXgXzX#X#X|.gXzXzXzXzXzXzX",
"kXzXkXkXgXgXgXh.3                                     o 5 e 2.5.s.s.f.d.f.s.7.V.gXlXgXjXrXZXAXAXMX9X5XlXkXxXxX*XgXgXkXkXkXkXzXkX",
"xXkXgXkXkXkXXXy o                                       % & Y 2.d.Q.:X1X1X1X:XB.3X5XwXyXMXAXZXiX9X7XjXNXxXNXxX+XgXgXkXkXkXkXxXxX",
"BXxXkXkXkXfXx.5 .         o o                           3 9.8.K.1XZXAXZXMXvX1X1X>X0X0XqXtX0X9X7XuXlXNXlXNXxXxXOXoXkXkXkXzXxXxXNX",
"NXNXkXkXkX!.( 4 @ . o 7 . ; I < # .     + o o % & .     3  .<XAXAXZXmX,XW.d.f.s...}.3X5X5XhXjXkXlXlXlXNXxXxXxXOXNX*XkXkXxXxXNXBX",
"BXNXkXlX3Xf g.z.#   o ' I - n | $.9 # + @ + # ] I &   + ; b.ZXAXAXmXT.q.w.9.2.w.9.'.gXzXkXkXfXkXkXlXNXNXxXxXxXdXxXdXkXkXkXxXBXNX",
"NXNXkXNXjXsXdXZ.#     ' P.t.[ 9 @.>.N 4 ; 3 4 B V 9 X # % r <XAXZXmX>XD.{ e.b.a 8.k.NXNXNXlXsXkXkXkXxXxXlXxXlXsXkXgXkXzXlXNXBXNX",
"NXNXNXlXgXkXkXZ.# . . _ E.G.t.| <.G.1.M M 6 N U C 9 # 6 , , B.tX,XR.P.J.E.L.E.T.i v.xXNXNXNXNXkXkXkXlXkXkXkXkXNXfXkXzXxXxXxXNXNX",
"NXlXlXgXkXlXkX^.3 % o , T.G.} b.b.i.H.<.<.} t.U U , # @ & e.U.P.J.a.J.G.p.u.p.E.i.0.aXNXNXNXNXjXjX5XhXkXkXkXjXjXkXlXkXzXxXxXxXxX",
"xXNXkXkXzXlXlX}.y h.* o { @.} x.yXL.J.P.H.a.u.I i X + - ] J.H.H.J.p.u.1.,.W H.H.J.e.n.bXBXbXqXnXnXmXiXwX5XgX4X>X6X4XkXkXlXxXxXxX",
"NXlXkXxXlXgXgXpXf !.s u & t.a.Y.I.i.E.W.E.a.r.9 < O @ : ' H.H.u.1.&.I e e Y | H.a.a.+.S.NXyXZXAXAXAXZXMXwXwXwXrXMXyX6XlXxXxXNXNX",
"zXkXkXxXlXzXkX*XXXsX!.k.k.@.a.i.i.G.t.t.H.L.} $.>.8 1 c B ,.,.%.< q 0 q 2.5. .} J.a.H...=XnXAXAXAXmX9X7X6XiXmXmXmXtX>XjXlXlXxXNX",
"NXxXxXkXzXgXfXkXzXkXgXdXv.t.a.a.e.K.Y.b.O.G.8 ' %.7 Z H A =.-.U 1 , Y 0 Y 2.5.Y } J.a.G.b.cXAXAXAXMX7X5XjX4X4X=X6X4X5XxXxXkXxXNX",
"xXxXkXdX&XgXkXkXzXzXXX].S...r.O.x.Y.Y.b.t.L % K I 8 S J H N -.~ Q > 0 e q Y 8.5.7 <._.tX<XZXAXAXAXAXmX9XjXkXgX#XxXgXgXkXxXxXBXNX",
"NXNXfX&XkXkXzXkXgX3Xo.} k.v.j { e.t.i.t.{ , ; i r L F E E F ( ;.~ A > 0 e 8.W.L.D.U.W.R.R.).cXmXiX0X9XeXkXgXgXgX&XgXkXzXxXNXNXNX",
"xXNX&XkXgXgXgXgXkXM.) $. .D.l.z.r.y.@.o.z.9 2 , i <.Y.P.y.P.U.(.U.D.F , Y Y 8.7.:.u.a.a.a.e.~.eXeXcXBXNXzXgXgXgXfXfXkXkXzXBXNXNX",
"NXfXxXzXkXfXoXgXfXX.:.L | e.N.^.j o.C.{...%.c #.>XnXvXW.u.6.4.E ^ I P A 2 w 7.g L <.H.H.J.+.~.BXkXlXNXNXzXgXzXzXgX%XgXkXNXNXxXNX",
"xXfXxXxXxXgXgXgX[.` ' N m &.t.0.m.].eXA.<.-.y.CXAX/.} T 3.4.4.4.3.S S S S q 0.c.] | H.H.} g.sXBXNXxXxXxXlXkXkXkXkXgX*XkXNXNXxXNX",
"NXgXxXxXxXxXgXsX[.) $.B Q ;.,.1.<.O.>XW.=.=.1.vXCX<.1 A 3.3.4.4.T H D A H J D e , m [ { N.+XlXNXNXNXbXbXlXjXjXgXgXkXfXfXNXlXxXNX",
"NXgXgXkXxXzXzXgX[._ B x ~ ' *.;.-.,.1XtXR._._.vXiXO.Y 2 H E 3.E R H A T E 4.E R D 7 m.pXsX+X5XnXNXNXbX/.>XnXyXrXeXhXkXfXgXxXNXxX",
"xXxXgXzXxXxXzXgXdX~.M.o.{ z.h.{ &.=.U.mXMXMX0X8XrX^.e S 2 H 3.T A A T 3.4.4.4.4.H j hX5XwXiXMXmXyXiXBXN.B.AXAXAXMXyXeXlXfXlXxXNX",
"xXxXkXkXxXlXkX&XxXgXfXgXfXgXgX!.v.{ ' <.F.`.jXxXNXlX].t L q G A D R 4.4.4.4.4.E e }.5XyXAXAXAXAXAXMXyX>XnXAXAXAXAXZX8XbXzXdXzXxX",
"NXxXzXkXzXlX&XgXfXfXgXgXgXgX%XgXgXXX^.h.z.aXNXNXlXlXhXZ.q 2 c D D S H R E R 3.Z 7 {.5XqXmXZXAXtX9X0X>X_.W.I./.0X0X,X8XNXNXkXdXNX",
"NXzXkXxXkX&XkXkXgXfXfXfXgX&X&XgX&XgXlXlXzXzXNXzXzXzXzXhXr q c S S S Z Z G E F < m h pXjX4X6XMXtXbX;X#.E.H._ g S.bXjXNXNXxXNXgXzX",
"NXgXNXxX*XkXxXkXkXfXfXfXfX#XzXgXgXkXlXlXzXxXNXNXxXzXzXzXa % > > 2 S D H H 2 2 U b U { {.+X3XeXyXyXY.D.1.-.$.i j hXNXxXNXNXNXxXfX",
"gXlXNXsXgXxXzXlXxXgXgXfX*X@XgXgXgXkXzXxXNXxXxXNXNXxXlX3X7 1 z V k > > > : k ! B 1 ! ! ) f M.4XrXMXE.>.-.=.=.) p c.hXxXNXNXNXxXxX",
"NXNXNXgXNXxXsXBXxXgXgX*XgX*XgXfXgXkXzXxXNXdXNXNXlXbX=Xi k l v ! ! b l z V ! U : l W ! ! ] B.wXtX`.u.;.=.%.&.8 = u S.bXNXNXNXNXBX",
"xXNXBXkXNXgXzXNXxX*X*XfXfXfXfXgXgXgXlXNXlXlXNX3XM.c.y l l v W ! W W P ! ! P ; 1 z b ! ! ] /.0XW.y.;.>.} h.i % 7 u g {.NXNXNXNXNX",
"zXBXNXlXkXzXBXxXzXfXfXgXfXfXfXgXgXgXxXxXzXNXlXz.B.I.( l v v W ! ! ! ! ! N ; : k z v V W { `.b.&.;.=._ ].xX].j - U ` c.lXNXBXBXxX",
"zXVXBXxXfXNXxXzXzXfXfXfXfXfXfXfXgXxXzXxXxXxXNXc.I.`.j.k l l W ! ! ! ! _ p < < l l l b ) /.(.` %.,.[ ^.xXNXxX3Xs ] L f aXNXBXBXzX",
"zXzXNXsXxXlXzXzXgXgXfXgXgXfX&XgXzXzXzXxXxXNXxXv.I.`.`.I.) l P ! ! ! ` =XhXn.8 k l z k i /.(.M ;.' M.kXlXxXxXlXpXM.h C.lXxXVXNXzX",
"zXgXgXgXNXgXkXzXgXgXgXfXfXfXgX&XgXzXzXxXxXNXxX{.x.(.(.`.b.m x W U ..;XbXcXrX/.i m 9 #.(.(./.K $.l.pXgXkXkXzXlXlXlXjXNXNXNXzXgXzX",
"BXzXgXzXzXkXzXkXzXgXfXgXgXgXfX%XgXzXxXNXxXxXNXbXX.` j.`.8XY.0.) i }.aX>XiXvXyX8X/.(.(.`.(.X.m o.3XkXkXkXkXlXNXBXNXBXVXVXNXxXzXBX",
"BXxX&XlXxXkXxXzXkXgXgXgXkXkXkX*XfXxXxXxXxXxXlXA.[ ,.I j._.yX6X=Xl.hX8XmXAXAXAX>XI.x.h.x.g.g v.pXxXkXkXkXxXxXNXNXBXVXVXBXNXkXNXNX",
"NXxX&XlXkXkXxXzXgXkXkXkXkXkXkXxX%XxXzXxXxXNX6X/.,X_.G.i l.x.v.N.^.BXbXrXMXAXAXAXvX>X[.[.lXlXlXkXxXgXkXkXlXNXNXBXVXBX&XBXxXxXNXNX",
"NXxX#XlXkXkXxXxXkXkXkXkXzXlXlXlX%XfXxXxXxXqX0X`.W.<X8X/.6X-X6XeXqX0X0X0XZXAXAXZXMXvX4XkXlXxXxXxXlXkXxXkXxXxXNXBXBXVXdXxXlXxXNXNX",
"BXNX#XzXkXkXxXkXkXgXkXkXlXpXl.v.C..XlXlXxXN.F.H.H.#./.wX0XmXmXvXmXyXvXmXvXmXyXyXyXhXlXxXlXBXBXBXxXlXxXlXkXlXxXNXBXVXBXNXlXlXNXBX",
"NXNX%XxXkXkXxXkXkXkXlXzXsXC.t r = u g.=XS...L.L.#.!.zXxXbXrXrXuXrXuXbXnXCXBXCXCXBXlXxXxXxXBXBXNXlXkXlXlXxXkXkXNXBXBXBXNXNXxXNXBX",
"NXBX%XxXkXkXlXkXgXkXkXzX].p 8 9 7 7 = i @.i.E.+.k.lXxXxXxXxXxXNXBXNXNXBXVXVXBXBXgXNXNXxXxXNXBXNXxXxXzXlXxXkXkXxXNXNXBXBXBXxXNXNX",
"BXNX&XNXkXkXkXkXgXgXgXzX{.a u 9 K 7 O i J.H.G.j *XxXzXxXxXxXNXNXNXNXNXBXVXBXBXgXNXNXNXxXNXxXxXNXNXxXlXlXlXkXxXkXxXzXNXBXBXNXNXBX",
"NXbX*XxXkXgXkXgXgXkXzXzXgXm.p r ) L O 8 a.u.t.n.zXzXxXzXxXxXxXNXNXNXNXNXVXBXzXNXNXxXxXNXxXxXxXxXxXNXxXxXxXkXzXkXkXkXxXNXNXNXBXNX",
"NXgX*XxXkXkXgXgXgXgXkXzXxXjX~.k.p u $ & r.p.e.S.NXxXxXxXxXxXxXxXNXNXNXBXVXNXfXzXxXxXxXxXxXxXxXlXxXxXNXxXzXzXkXzXgXgXkXxXgXNXNXBX",
"fXzXkXNXkXkXkXgXkXzXxXlXkXxXNXlX{.v.u w t I ` k.3XxXNXNXxXxXNXNXNXxXNXNXBXzXzXgXNXNXxXxXlXNXxXxXlXxXxXNXxXzX@XkXkXzXxXsX%XNXNXgX",
"*XNXxXgXkXkXgXkXkXzXkXzXzXNXNXNXxXzX'.f h i 0.7.n.NXNXxXNXxXNXxXxXNXxXNXBXfXzXxXNXzXNXxXlXNXxXlXxXzXxXxXNXxXfXgXxXNXNXNX$XNXkX@X",
"NXNXgXgXgXkXkXkXkXkXkXkXzXxXxXxXxXfX@XxX].v.j j =XNXNXNXNXxXxXNXNXNXNXNXNXgX*XzXxXlXNXxXxXNXxXxXlXxXzXxXxXNXxXxX*XNXNXNX@XfX$XBX",
"NXBXkXgXkXkXgXkXkXzXzXzXxXBXVXkX*X%XxXNXxXlXpXpXxXNXNXNXNXxXxXxXNXxXxXBXgXgXgXNXNXNXNXzXxXNXxXlXxXxXxXxXzXBXNXgX X$XxX$X|.|.lXxX",
"BXNXxX%XkXkXkXkXkXzXzXfXlXxXkXgX&XNXNXxXNXxXxXxXxXNXxXNXNXNXNXxXxXNXNXxXNXzXsXxXNXBXzXzXxXxXNXxXkXlXzXxXNXgX%X X|.@X#XjXzXkXBXNX",
"NXNXxX XlXkXkXkXgXsX+X$XlXgXgX*XNXNXNXNXxXxXxXxXxXNXNXxXNXxXxXzXzXNXxXBXBX*X%X#XgXgXNXBXNXNXNXxXxXxXNXkX&X*XfXzXxXNXgXNXlXfXBXxX",
"BXBXNX&X X|.oXOXOXdXBXlXzXkX&XBXBXVXNXNXNXxXxXxXxXxXxXNXxXxXNXzXzXxXxXxX%XNXBXNXgXdXzXBXNXNXxXzXNXxX&XfXgXNXNXNXBXNXxXxXgXzXVXBX"
};
