/* XPM */
static char *_318599796b14800ab70967e9da2eed162jJ7Z9UXC3bhxZV[] = {
/* columns rows colors chars-per-pixel */
"64 64 208 2 ",
"   c #2F0707",
".  c #310707",
"X  c #340907",
"o  c #3B0B07",
"O  c #300708",
"+  c #340A0A",
"@  c #3B0C0A",
"#  c #3D100E",
"$  c #3C1313",
"%  c #3B1617",
"&  c #430D07",
"*  c #490F07",
"=  c #430E08",
"-  c #490F08",
";  c #4D1107",
":  c #45110B",
">  c #4B1109",
",  c #541407",
"<  c #591707",
"1  c #5C1907",
"2  c #541509",
"3  c #591708",
"4  c #55190D",
"5  c #5C1A09",
"6  c #431512",
"7  c #4C1912",
"8  c #481916",
"9  c #431B1B",
"0  c #511B13",
"q  c #5B1F11",
"w  c #631C07",
"e  c #631D09",
"r  c #681F08",
"t  c #5D2114",
"y  c #54221D",
"u  c #5D251B",
"i  c #692007",
"p  c #65210D",
"a  c #6C230C",
"s  c #72280F",
"d  c #652312",
"f  c #6C2611",
"g  c #662919",
"h  c #742B13",
"j  c #792E16",
"k  c #793219",
"l  c #7B3219",
"z  c #442224",
"x  c #4B2828",
"c  c #572B27",
"v  c #512E30",
"b  c #5C3535",
"n  c #662E22",
"m  c #69342A",
"M  c #7C3C28",
"N  c #673A34",
"B  c #744339",
"V  c #6B4847",
"C  c #77534C",
"Z  c #705250",
"A  c #7B5855",
"S  c #685960",
"D  c #7E6668",
"F  c #796D74",
"G  c #833A1E",
"H  c #843C22",
"J  c #863F26",
"K  c #8A4125",
"L  c #8D4529",
"P  c #88462D",
"I  c #90472C",
"U  c #8F4B32",
"Y  c #954D32",
"T  c #975034",
"R  c #995236",
"E  c #9C573A",
"W  c #A0593E",
"Q  c #8A5747",
"!  c #9A5842",
"~  c #AB4E4D",
"^  c #A55D42",
"/  c #B15958",
"(  c #986859",
")  c #AA6348",
"_  c #AD6D55",
"`  c #B46D55",
"'  c #B77259",
"]  c #BB735B",
"[  c #8F6F69",
"{  c #867477",
"}  c #977B77",
"|  c #B96363",
" . c #BD6B6B",
".. c #B97A64",
"X. c #BD7472",
"o. c #C0765F",
"O. c #C16E6C",
"+. c #C4726E",
"@. c #C67C69",
"#. c #C57773",
"$. c #C97670",
"%. c #CC7C73",
"&. c #AE8474",
"*. c #CC836F",
"=. c #CD8273",
"-. c #C78879",
";. c #D18376",
":. c #D38976",
">. c #D38778",
",. c #D4897A",
"<. c #877F86",
"1. c #6ABFF5",
"2. c #7CC9FA",
"3. c #998B8E",
"4. c #A98F8C",
"5. c #B99486",
"6. c #B4968D",
"7. c #BA9E94",
"8. c #B8A097",
"9. c #BCA39B",
"0. c #9CA9B5",
"q. c #ADA7AB",
"w. c #B1A7A8",
"e. c #ACADB6",
"r. c #B5B6BB",
"t. c #B9BABE",
"y. c #C8928E",
"u. c #CCA49B",
"i. c #C3ABA3",
"p. c #C8AFA6",
"a. c #D4ADA7",
"s. c #C5B3AD",
"d. c #CBB3AA",
"f. c #D3B6AE",
"g. c #C6B9B5",
"h. c #D5BDB4",
"j. c #E0B7AE",
"k. c #C8C1BF",
"l. c #D7C3BB",
"z. c #DCC4BB",
"x. c #8CB6D0",
"c. c #A4BBCB",
"v. c #B6BBC2",
"b. c #AEC4D4",
"n. c #B8C9D5",
"m. c #88CEF8",
"M. c #94CFF8",
"N. c #8CD5FB",
"B. c #93D5F9",
"V. c #9CD7F9",
"C. c #95DAFB",
"Z. c #9CDCFB",
"A. c #A9CFE5",
"S. c #B8D5E6",
"D. c #A3DCFB",
"F. c #AADDFA",
"G. c #B3DFF9",
"H. c #A5E0FC",
"J. c #ACE2FC",
"K. c #B4E4FC",
"L. c #BBE6FC",
"P. c #BEE8FC",
"I. c #C3C6CA",
"U. c #CACACD",
"Y. c #D5C8C4",
"T. c #C5CED6",
"R. c #C8D2D8",
"E. c #CAD5DE",
"W. c #D3D3D6",
"Q. c #D4D7DA",
"!. c #E2CCC3",
"~. c #E6D3CB",
"^. c #E9D5CC",
"/. c #E9D6CE",
"(. c #E5D8D3",
"). c #ECDCD4",
"_. c #EEE2DA",
"`. c #F0E5DD",
"'. c #CADBE7",
"]. c #D6DEE5",
"[. c #CBE1EF",
"{. c #D4E3ED",
"}. c #DAE4ED",
"|. c #CBE6F6",
" X c #C3E6FB",
".X c #C4E9FD",
"XX c #CCECFD",
"oX c #D6E7F2",
"OX c #D3E9F5",
"+X c #D9EBF6",
"@X c #D2EEFD",
"#X c #D3EEFD",
"$X c #D9EFFD",
"%X c #D6F0FD",
"&X c #DAF0FE",
"*X c #DCF1FE",
"=X c #DEF2FE",
"-X c #E8EBEC",
";X c #F3ECE4",
":X c #F5F4EC",
">X c #E1F3FE",
",X c #E3F3FE",
"<X c #E6F4FD",
"1X c #EBF6FD",
"2X c #E9F6FE",
"3X c #EEF8FE",
"4X c #F1F7FE",
"5X c #F1F8FE",
/* pixels */
",X,X2X3X3X3X3X2X2X,X,X,X,X,X=X=X=X,X=X$X%X$X.XXX%X,X,X,X&X@X@X@X@X@X&X&X@X%X#XXXP.L.@X@X@X@X%X&X&X#X&X=X=X=X#X@X%X=X@X XL.=X&X2X",
"2X,X,X,X,X,X,X,X&X&X2X2X,X,X,X,X,X2X,X=X$XXX#X#X,X,X=X=X$XXXK.P.J..X@XXX.XL..X.XXXP.L.@X@XP.L.J..X@X,X@X=X@X&X=X&X=XXX,X2X,X,X,X",
"P.L..X,X,X=X,X,X,X=X@X%X%X,X,X3X,X,X=X=X$X#X@X=X=X$X&X=X#X.XXX@X.X.X=X=X=X&X#XXXXX&X&XXXXX.X.X.XK.@X2X=X=X@X&X#X.X%X,X,X,X,X,X,X",
"@X&X%XK.=XL.V.F.,X,X,X,X@XXX=X2X=X=X=X&X@X@X#X%XXXXXP.XX%X#X@XXXH.@X&XXXXXXXXXXXXXXXXXXXXX&X&X@X.X.XP.XX$X%X=X,X,X,X,X=X=X,X,XL.",
"@X@XXX.XC.L..XL.B.J.XX@X@XXXXX#X$X&X$X@X@X@X#X$X%X@X@XK.XXXX.X.XH.@X&X&X&X&X&X@XXX.X.XK.XX@X@X@X&X#XK.XX@X#X&X&X&X,X=X=X=X=XXX.X",
"XXXX.X XL.L.L.P.L.F.L..X.XXX@XXX@X@X@XXXXX@X$X$X$X@X@XL.P..X.XP.K.@X$X$X@X@XXXXXXXXXXX.XK.XX@X@X#X%XJ.XXXX#X%X&X&X=X=X,X,X&XJ.XX",
"XX X.X.XL.L.L.K.K.L.J..X.XXX#XXXXXXXXX.X@X&X&X&X&X$X#X@XJ.L.L.J..XXX@X#X&X#XXXXXXX@X@X@X XL..X@X#X@XZ.@X@X@X#X$X&X&X,X,X,XXXXXXX",
"XX@XXXXXXXL.K.Z.L.L.P.XXXX#X#X@XXXXXXXXX$X&X&X&X&X&X$X&XXXXXXXD.XXXX@X#X#X#XXX.XXX@X@X@X@XL.P.@X&XK.K.@XXX@X#X#X@X$X=X,X%X$XXXXX",
"@X@XXXXX.XL.K.D.K.K.P.XX=X.X#X&X=XXXXX@X@X&X=X=X&X&X&X&X&X.XP.Z.XX@XXX@X@XXX.X.XXX@X#X#X@X@XL.N.C..X@X@XXXXX@X@X@X#X$X&XXX@XXXXX",
".XXXXXXXL.L.K.H.K.K..X@XXX@X#X&X=X#XXX@X@X&X&X=X=X=X,X=X=X$XJ.D.XXXXXX@X@XXXXXXXXX@X#X&X&X@XJ.V.@X=X,X=X%X#X@X@X#X#X#X.X=XXXXXXX",
".X.XXXXX.XL.K.K.H.L.XXXX@X@X#X&X$XH.XX#X%X&X=X,X=X,X,X,X=X=XK.D..X.X.XXX@XXXXXXX@X@X@X&X$XK.F.&X#X#X$X&X&X&X@X#X%X#X#XXX@X&XXXXX",
"XX.XXXXX.XL.L.L.D..XXXXX@X@X#X&X.XF.XX%X&X&X&X#X=X,X,X,X,X&XZ.J..XP..XP..X.XXX@X@X=X@XXX#X X$X&X$X#X#X#X$X#X#X@XXX@X#X@XP.L.XX.X",
"@X.X.XXX.X.X X.XK.K.XX@XXX@X$X$XH..XXX@X#X&X&X&X=X,X,X,X=XC.K.XX.X.X.X.XXXXX$X,X,X,X=XXX$X=X=X=X&X#XXX#X%X%X#X#X@XXXK.P.#X#XP.XX",
"#X.X.XXX.XXXXXXXXXJ..XXXXX@X@XXXJ.XX@X#X&X&X=X=X,X,X,X,XZ.L.XXXXXX.X.X.XXX@X&X,X$XXXXX@X%X@X=X,X=X@X%X$XXXXX@X@X@XJ. X$X&X&XXX&X",
"#X#XXX.X.XXXXXXXXXK.F.XX@X@X@XJ..XXX#X@X&X&X&X=X,X,X,XXXXXXX@X$X@XXXXXXX.XXX@X,XXX$X@X#X=X&X@X=X=X&X%X#XK..XXX@XK.K.@X#X%X&X&X$X",
"#X%X#XXXXXXXXXXXXXXXZ..X@X@XD.J.@XXXXX@X@X@X$X$X,X,X'.r.r.[.@X@X@XXX.X.XS.0.b.n.e.E.T.r.t.].=X@XK.XX@X@X@X@XJ.K.m.XX@X@X@X$X$X#X",
"#X#X@X@X@XXXXXXX@X@XXXm.K.C. X@XXXXXXX@XE.w.( ( } B m g g N A q.T.T.n.<.x % z z 8 m m u u N C 0.'.@X@X#X@X%X&XL.XXXX@X#X#X#X@X@X",
"=X#X@X@X@X@X@X@X@X$XF.1.D.@X&X&X#X@X[.q.Q e a a 5 = @ > 3 4 d f m m n > $ z $ o : > = @ o 2 f H ( g.oX=X=X,X&XG.XXXX@X@X#X@X@X=X",
"2X&X@X@X@X@X@X@XXXK.B.L.&X$X&X=X$X'.} g : > e w > % # * 3 f 5 = : > ; > : 6 = ; > * - @ 5 J ) ..@.] &.U.+X=X&XJ.F.#X#X#X&X&X&X,X",
",X=X@X@X#X.XXXXXK. X%X#X#X@X@X@X'.[ p 2 X - a e : 6 & - < ; X O o > , ; * * 1 < = = 2 l T ' ;.,.,.,.*...U.=X&XG.,XL.@X#X&X&X,X2X",
",X,X@X@X,X%XJ.K.@X&X&X@X@XXX@X'.{ q 5 o & 3 h 5 * * ; , , o . . = ; r w 1 5 5 2 o O > L ] ;.%.;.>.;.,.=...].=X X&X X@X#X$X&X2X,X",
",X,X@X,X,XXX.X$X&X=X&X#X@XXX|.{ 2 5 < = , a p ; > 2 e < > $ + O X ; a s r , = o . . d _ ;.%.%.;.+. .=.>.=.7.+X|.@XXX@X&X$X,X,X,X",
",X,X,X=XXX@X$X@X#X+X+XOXXXXXv.c 5 t 6 ; e e , - ; f a ; - : 9 @ - 3 h h w * X O O o Y :.,.%.;.%. . .+.;.;...U.=X X$X@X&X$X=X,X,X",
"=X=X=XXX#X$X$X+XQ.(.Y.k.'.[.[ e a 8 @ 3 h 5 > * , a ; * , ; - - ; e G l 3 o . . X d ..,.%.$.%.+. . .+.>.;.u._.-X_.}.$X#X&X=X=X=X",
",X,X#X#X&X#X+X(.).).!.f.g.v.l H q X & d g y ; , 1 , > , 5 ; o o < a l a , @ O O : U =.;. . .O.$.$. . .$.j.:X:X:X:X(.{.@X$X=X=X=X",
",X&X@X&X%XXXQ.).).).!.h.s.} J M 9 + > l u b 2 r 0 > * 1 < & O o , h s 1 7 9 @ 9 q ` ;.$. .O.$.%.$. . .#._.:X:X:X;X/.].&X$X&X=X,X",
"&X#X@X%X@X&XQ.!./.!.z.h.6.P ^ J x : p K w y 3 f c > > < ; & . o < j a ; v 8 - : l @.%.;.O. .$.$.O. . .y.`.:X:X:X`.~.E.$X$X&X=X,X",
",X&X&X@X&XXXT.z.z.z.l.d.&.H ) R f j I K a r h h 0 > , 1 y 7 & > w l p > > > ; 5 T =.%.%. . . . . .X.+.u.)._.`.)./.h.R.%X=X$X&X,X",
",X=X@X.XK.@XE.l.z.l.d.i.7.! J E ) Y l G H s K l 1 , e a t y * , a G a , 3 3 5 l ) ,.,.+. .$. .X.a././.!./.).).!.h.s.[.@X=X=X2X,X",
",X=X.XL.@X@XOXY.z.h.p.8.9.! a G I a 3 a I R K G l a h j 5 7 ; w j K h i i a l L ' ,.;. .+.%.O.y.;X;X;X~.!.).~.h.i.R.XX@X&X,X,X,X",
"=X,XL.@X@XXX|.Y.!.z.f.6.7.! B l J g b 3 h K a p Y R G a a w w j J K G s i l Y ^ @.,.=. .+.%.+.a.).).).!.!._.;X).l.U.XX@X%X2X,X,X",
",X.X&X%XXX Xn.).).~.z.9.&.M m h G 5 0 , a G 5 ; j L d u a G L I f a G K I T Y ) %.>.=. .O.+. .y.l.z.z.l./.:X:X:X_.l.E.@X,X=X,X,X",
",X.X=X=X=X|.Y.).).~.z.d.( p , e l p , 3 , d p , a h 0 6 < l R h < 1 w a H j s L o.,.;.O. . . ./ 5.6.6.7./.:X:X:X`.l.I.@X,X=X,X,X",
",XXX=X&X=XoXg.Y.!.z.h.p.Q 3 > 1 h s w 2 9 : w , 5 a < , a H K a 3 4 > , 1 w a J ' >.;.$. . . .| ~ ~ / X.!.;X:X;X).z.n..X,X=X,X,X",
",XXXXX@X&XoXs.h.h.h.d.i.( 2 > , e e 2 v z . ; , < r 4 7 w G J r c b x : ; 2 w j _ ;.%.%. . . .O./ ~ |  .f.).).)./.h.U. XXX&X=X,X",
",X&XXX@X&X$XI.p.d.d.i.8.( y : : , 1 > z O o ; w a q V % ; l l 3 c $ + @ - > , e T %.%.>.+. .$.$. .|  .+.y.z.!.!.z.d.W.,X.X$X=X,X",
"=X&X@X@X&X$XOXr.9.8.7.4.C v $ 9 > p * + . - , h h 0 x & 5 G p ; @ O X . o ; ; , J @.%.,.$. .$.$. . . .O.X.u.f.h.p.g.}.,X%X.X&X=X",
",X=X#X#X&X#XL.|.n.v.r.R.{ @ O + o f 2 o . X , h a o O > w l w ; = O . O = 2 5 < j ' ,.;.;. . . .O.$.+. .+.,.5.U.W.}.,X,X=X@X X,X",
"=X&X@X&X#XL.@X@X.X X X Xb.v O X X p 3 * o O ; a a - X & , s 5 ; = X   X = 2 r w s W ;.;.;.$. . .$.%.+. .%.%.s.+X,X,X=X,X,X,XXXXX",
",X@X,X=XL.$X&X&X@X.X.X.X XF X = o 5 a , > o * w h , & - < a 5 ; = O   @ o ; < < a K ] ,.%.;.%.O. .+. .$.=.*.R.$X,X,X=X,X,X,X,X X",
"XX$X,X.X@X&X@X$X@X.XXXXXL.x.z 6 = 2 e , , > : , a 3 = = 5 r , > o O . = @ - * : 3 j W ;.>.;.,.;. . .+.;.=.u.OX@X=X=X=X,X,X,X=X=X",
",X,X,XXX<X=X X2X,XXXXX.X.XS.S + = 2 1 > ; ; X - , w 2 o 6 ; 3 = = o X $ # X - # 8 3 l ' ,.%.%.%. . .O.>.-.{.$X@X$X=X,X,X,X,X,X,X",
",X,X<X#X,X#X$X,X&X.X.X.X.X Xb.S > 3 2 > > , o o 2 5 < & X & 2 = > = X O . o > = . o p I ' =.;.>.$.#.=.-.W.=X&X$X=X,X,X,X,X,X,X,X",
"&X2X,X$X@X#X,X=X@X.X.X.X.X.X XS.N 2 > - * ; X X 2 w 5 < o o 2 = O > o O o o > , & & 5 f J ) ] @.*.@.&.Q.,X,X&X&X=X=X=X,X,X,X,X,X",
"@X3X2X,X.X,X=X@XXXXX.X.X.X.X.X.Xe.c 9 = : 6 o o > 3 5 w > X = > O > ; = : 9 X - ; = 2 2 2 l I E _ 5.W.,X,X,X=X=X,X,X,X=X,X,X2X=X",
"@X&X,X.X,X$X@X@X@XXX.X.X.X.XL.XX|.q.{ b @ + + = > 2 2 2 > o X = : 2 u n ; o o O = X 6 B 0 4 g 3.E.OX#X&X=X&X$X=X=X,X,X=X=X3X,XXX",
"&XXXXXXX,X@X@X@X@XXXXX.X.X.X.XL.@X$XOXv.D v x C B M m V F b 9 $ 7 A q.U.} x 6 x x C 3.E.c.c.n.OX@X@X@X@X@X@X$X&X&X,X,X,X,X%X@X&X",
",X&XXX&X&X@X@X@X@XXXXXXXXXXXXXK.XX&X$X=X$X'.'.+X}.'.A.{.$X{.q.3.4.oX,X,X2Xe.3.Q.].-X2XJ..X@X$X@X@X%X@X@X@X$X,X,X,X3X3X3X,X=X$X2X",
"2X=XL.$X&X@X=X$X@XXXXXXX@X@X@X.X.X&X&X=X=X=X,X,X,XL.P.$X$X=X,X,X,X,X,X,X2X3X3X3X3X3X&XN.#X$X#X#X=XXX@X#X&X=X,X2X3X3X3X3X,X@X,X,X",
",X=XK.&X&X@X=X@X@X@X@X@X@X#X#X=XK.=X&X&X=X=X,X,X,XJ..X.X=X,X,X,X,X,X,X2X2X3X3X3X3X,XL.XX@X&X$X#X=X@X#X$X&X,X,X2X2X3XL.2X$X&X=X,X",
",X,XF.&X#X@X=X%X@X@X@X#X@X$X&X&XL.XX=X&X=X=X,X,X=XJ.&X&X=X,X,X,X,X,X,X2X2X3X3X5X3XXXP.@X$X&X=X=X&X@X&X@X&X=X,X,X2X3X X=X&X&X,X,X",
",X=XF.#X@X@X&X@X@X@X@X$X$X&X&X&X@XK.$X&X=X=X=X=XXXK.=X&X,X,X,X,X,X,X,X,X2X3X3X4X5XXX&X&X$X2X,X,X&X$X&X$X$X$X=X,X2X5X3X=X$X$X,X,X",
",X,XK.&X#X@X&X#X@X@X#X&X&X&X&X=X=X XXX&X=X=X=X,XP..X=X=X=X,X,X,X,X,X,X2X3X3X3X4X2X&X,X&X&X3X,X,X$X@X$X$X$X#X$X,X2X3X2X2X,X=X,X,X",
",X,XK.=X#X#X&X#XXX@X#X#X&X&X&X&X=XL.XX,X,X=X=XXXH.@X=X=X=X=X,X,X,X,X,X2X3X3X5X,XXX,X,X=X=X,X2X,X=X$X$X$X&X#X@X&X,X<X2X2X2X=X,X,X",
",X,XL.=X@X@X#X@XXX@X#X@X@X$X&X&X%XXXL.%X,X,XXXH..X&X$X&X$X=X,X,X,X,X,X2X3X3X2XXX,X,X=X=X,X=X,X,X,X=X$X$X&X#X@X#X@X%X2X2X2X,X,X,X",
",X=XL.=X@X@X@XXXXX@X@X@X&X&X&X&X@X&X.XD..XL.J..X&X&X&X&X&X=X=X,X,X,X,X,X3X3X&X=X,X=X=X,X,X=X&X=X=X,X,X=X&X#X%X#X@X@X=X,X,X,X,X,X",
",XXXL.,X#X@XXXXXXXXX#X&X&X&X&X=X@X,X,XD.2.Z.XX=X,X=X=X=X=X=X=X=X,X,X,X,X3X,XXXXX=X=X=X=X=X=X&X&X&X=X,X,X&X@X@X@X@XXX@X,XXX,X,X2X",
".X@X@X,X@X@X@XXX@X#X&X$X$X=X=X=X=X=X=XN.J.@X,X,X,X,X,X,X=X=X=X=X,X,X,X,X2X@X#XXX,X=X&X&X&X=X=X&X&X&X=X,X,X@XD.XX@X#X&XXXK.,X,XXX",
"P.,X&XXX@X@X@X@X@X#X#X#X&X,X,X,X=X=XK.m.&X,X,X,X,X,X,X,X=X=X=X=X=X,X,X,X2XXX@X,X,X=X,X&X&X,X=X&X&X&X&X=X,X=X.XXX=X,X,X,XK.,X@XJ.",
",X2XXXXX@X@X@X@X@X@X@X@X&X=X=X=X=X.XF.,X,X,X,X,X,X,X,X,X=X=X=X=X,X,X,X,X,XXXP.$X,X$X=X&X=X,X=X&X&X&X&X=X=X,X&X=XP.,X,X,XF. XK.,X",
",X,X@XXX@X@X@X@X#X#X@X@X&X2X3X@XP.K.=X=X,X=X=X,X,X,X,X,X,X=X=X=X,X,X,X,XXX.XXX,X2X,X=X&X=X,X,X&X&X&X&X=X=X,X,XXXC.L.&XJ.B.m.=X,X",
",X,X&XK.@X@X#X@X#X#X&X.X#X=X#XXXK.,X,X=X=X=X=X=X=X,X,X,X,X,X=X=X=X,X,X,X,X$X.X=X,X,X@X&X,X=X,X=X&X$X$X=X,XXXK.Z.N.F.F.+X=XXX2X,X",
",X,X=XC.@X@X@X@X@XXXG.K.#X@X@XP.,X,X,X,X=X=X&X&X&X,X,X=X=X=X=X&X$X=X=X,X,XP.K.J.XXXX,X,X,X,X,X&X&X&X,X@XK.L.L.=X,X,XXX,X$X.X,X,X",
"2X,X,XL.Z.M.F.F.F. X,X=X$X@XP.,X2X3X2X,X,X=X&X$X=X=X=X,X=X=X=X@X@X$X&X,XK.,X,X,X@X X@X,X,X,X,X@X,X=XL..X@X,X,X,X,X,X=X=XXX@X5X,X"
};
