/* XPM */
static char *_4a380194eef4edbff528fc992a0e8b3mRRbjRb3sL4HHfAw[] = {
/* columns rows colors chars-per-pixel */
"64 64 199 2 ",
"   c #151514",
".  c #171717",
"X  c #1C1914",
"o  c #171818",
"O  c #191A1B",
"+  c #2C1D0F",
"@  c #241E16",
"#  c #1F201F",
"$  c #34210F",
"%  c #3E240E",
"&  c #23221D",
"*  c #2A251D",
"=  c #2F281F",
"-  c #3A2513",
";  c #38281A",
":  c #1B1F22",
">  c #1D2223",
",  c #1F242A",
"<  c #252422",
"1  c #2A2723",
"2  c #2B2923",
"3  c #21262D",
"4  c #222A2E",
"5  c #2F2A28",
"6  c #332C26",
"7  c #2F302B",
"8  c #36322A",
"9  c #222731",
"0  c #242A35",
"q  c #292D37",
"w  c #262E3A",
"e  c #263136",
"r  c #273239",
"t  c #29333E",
"y  c #3A3734",
"u  c #3B3A34",
"i  c #33373E",
"p  c #44260D",
"a  c #47280D",
"s  c #432A16",
"d  c #512E10",
"f  c #5C391B",
"g  c #663E1D",
"h  c #41342B",
"j  c #593D26",
"k  c #423C33",
"l  c #543F33",
"z  c #6D401A",
"x  c #74451C",
"c  c #7C4A1E",
"v  c #59412D",
"b  c #474236",
"n  c #43423C",
"m  c #4B463A",
"M  c #554034",
"N  c #514B3E",
"B  c #694424",
"V  c #764B29",
"C  c #684B36",
"Z  c #2A3641",
"A  c #2D3A44",
"S  c #2F3D4A",
"D  c #323B43",
"F  c #373B41",
"G  c #303E4B",
"H  c #2F4249",
"J  c #394347",
"K  c #32424C",
"L  c #344552",
"P  c #364B55",
"I  c #384956",
"U  c #364B59",
"Y  c #384D59",
"T  c #3B535E",
"R  c #3C5662",
"E  c #3E5965",
"W  c #3F5A6A",
"Q  c #494844",
"!  c #544E42",
"~  c #5B4E44",
"^  c #5A5448",
"/  c #5B564B",
"(  c #475458",
")  c #575853",
"_  c #5E5A51",
"`  c #64584A",
"'  c #645C4C",
"]  c #795E45",
"[  c #625D53",
"{  c #695F51",
"}  c #6A604E",
"|  c #7F6A4F",
" . c #666153",
".. c #6C6454",
"X. c #66645D",
"o. c #6B6559",
"O. c #6D695D",
"+. c #716755",
"@. c #746A56",
"#. c #7B6D55",
"$. c #706758",
"%. c #746C5B",
"&. c #796F5B",
"*. c #7E7057",
"=. c #77705F",
"-. c #7C725D",
";. c #415967",
":. c #415D6B",
">. c #526469",
",. c #446372",
"<. c #4B6975",
"1. c #4C6C7B",
"2. c #516E79",
"3. c #6E6B61",
"4. c #736E61",
"5. c #767163",
"6. c #7B7564",
"7. c #7F7867",
"8. c #777469",
"9. c #7B7669",
"0. c #7E796B",
"q. c #727874",
"w. c #7F7C70",
"e. c #8B582C",
"r. c #9E5F2B",
"t. c #9E612F",
"y. c #8B633F",
"u. c #9A6335",
"i. c #AD672E",
"p. c #A26735",
"a. c #A36836",
"s. c #AA6E3B",
"d. c #B56C30",
"f. c #826D52",
"g. c #877257",
"h. c #81755C",
"j. c #85785E",
"k. c #817761",
"l. c #847A64",
"z. c #8A7D65",
"x. c #837C6B",
"c. c #857E6E",
"v. c #897E6A",
"b. c #827E71",
"n. c #847F71",
"m. c #7E8178",
"M. c #8E8067",
"N. c #87806E",
"B. c #8B816D",
"V. c #918167",
"C. c #91846B",
"Z. c #868071",
"A. c #868173",
"S. c #868276",
"D. c #8A8474",
"F. c #8F8876",
"G. c #878478",
"H. c #8A8679",
"J. c #8E897C",
"K. c #918671",
"L. c #938974",
"P. c #948C79",
"I. c #506F81",
"U. c #4D7285",
"Y. c #4F768A",
"T. c #527283",
"R. c #55798A",
"E. c #597D8F",
"W. c #537E92",
"Q. c #597D90",
"!. c #558195",
"~. c #5B8293",
"^. c #57859A",
"/. c #5E8599",
"(. c #5A899E",
"). c #668A98",
"_. c #5C8CA3",
"`. c #5E91A8",
"'. c #648FA2",
"]. c #6692A6",
"[. c #6497AD",
"{. c #6B97AD",
"}. c #6598AF",
"|. c #6B99AF",
" X c #6498B0",
".X c #6D9CB2",
"XX c #6DA2BA",
"oX c #71A1B7",
"OX c #71A4BB",
"+X c #74ACC4",
"@X c #79ADC4",
"#X c #7BB3CB",
"$X c #928E81",
"%X c #959084",
"&X c #81BBD4",
"*X c #85BFD8",
"=X c #87C1DB",
"-X c #88C4DE",
";X c #8AC6E0",
/* pixels */
"H.G.b.0.0.n.S.S.D.S.H.J.H.Z.c.c.c.Z.b.x.x.c.x.x.n.D.Z.x.x.n.c.x.x.0.b.Z.b.H.F.H.Z.H.J.F.H.F.F.F.L.F.S.S.S.G.H.J.G.S.G.H.H.H.G.S.",
"c.x.x.x.l.x.v.v.v.v.v.B.v.l.l.l.l.l.c.c.h.h.h.h.j.l.z.l.l.l.h.h.h.h.0.0.v.B.B.B.B.V.B.V.C.V.C.C.C.C.K.H.Z.c.Z.Z.x.x.c.Z.Z.n.c.x.",
"x.7.9.6.-.l.l.l.l.l.v.v.l.k.k.k.k.k.l.6.*.#.*.*.h.h.j.h.h.h.h.*.*.*.6.9.z.z.v.M.M.v.M.B.B.B.B.B.B.B.B.n.x.x.x.x.x.x.x.x.x.x.x.7.",
"x.7.6.5.k.l.v.v.v.v.v.v.v.l.h.k.l.l.6.6.*.*.h.h.h.h.h.h.h.h.h.h.h.*.7.x.z.v.M.V.V.M.B.B.V.V.M.B.V.V.v.0.x.x.c.x.x.x.x.x.x.x.x.9.",
"9.6.8.4.6.7.l.7.x.v.v.v.l.k.=.-.-.6.6.4.%.&.&.&.-.-.-.-.-.-.-.=.-.=.0.0.k.l.l.l.z.v.z.l.l.l.l.l.z.v.7.9.9.7.9.5.7.6.7.7.7.7.9.9.",
"Z.Z.D.D.Z.Z.n.0.x.x.n.x.x.7.8.5.6.9.0.x.5.5.9.9.7.x.c.x.x.x.x.x.x.x.x.x.c.c.n.b.b.Z.x.x.x.x.x.x.x.n.Z.S.n.n.b.0.Z.Z.Z.Z.Z.H.Z.n.",
"B.B.B.B.B.B.D.n.6.=.&.%.%.$.o.%.%.%.%.%.%.%.6.x.-.h.l.h.k.k.k.k.k.k.k.k.k.k.c.S.7.k.=.&.=.=.=.=.=.6.6.=.6.6.x.H.B.B.B.B.B.B.B.B.",
"B.z.z.z.v.v.v.7.%.&.%.%.%.o.o.$.%.%.$.$.$.%.4.7.-.h.h.h.-.h.h.h.h.h.-.-.h.h.l.x.=.-.=.-.=.&.%.=.&.&.%.%.&.=.6.x.B.B.B.B.B.B.B.v.",
"B.v.z.v.v.z.v.7.=.&.%.%.%.%.$.%.%.%.%.%.%.%.%.l.k.k.h.h.h.k.k.l.k.k.h.h.z.j.l.x.6.-.=.-.=.=.%.=.=.=.=.%.%.=.6.x.B.B.B.B.B.B.B.B.",
"l.l.v.v.v.v.x.5.%.%.%.%.%.o.o.$.%.%.%.%.%.%.4.7.k.k.k.h.h.k.k.k.k.k.k.k.l.l.7.9.=.=.&.=.=.=.%.%.=.%.%.%.%.%.%.9.v.B.v.B.B.B.B.v.",
"l.7.x.x.c.c.b.b.9.9.7.5.6.4.4.4.9.9.9.7.7.9.n.S.c.N.c.x.x.x.6.9.x.x.c.c.c.c.S.b.9.9.9.9.9.5.5.8.7.6.7.5.5.5.9.w.x.x.x.n.Z.Z.D.x.",
"l.l.z.l.z.v.B.B.v.z.z.z.z.7.x.c.L.L.K.K.C.L.P.P.L.P.L.K.K.K.H.S.N.N.Z.Z.Z.Z.F.D.c.c.c.c.c.x.b.b.B.B.B.v.v.v.B.Z.B.B.B.v.B.D.F.B.",
"h.h.j.h.h.h.h.h.h.h.h.h.j.6.7.z.V.V.V.V.V.V.V.V.V.C.C.V.v.M.Z.x.l.l.z.l.l.l.l.l.6.k.6.6.6.7.w.x.l.l.l.l.l.k.l.l.z.l.l.l.z.v.B.l.",
"h.h.j.j.j.j.j.h.h.j.h.h.j.-.7.z.V.V.C.C.V.V.V.V.M.M.V.M.M.V.B.x.7.l.B.l.l.l.6.l.l.6.l.6.7.7.0.x.z.z.z.z.l.k.z.z.l.z.z.z.z.z.B.l.",
"h.h.h.h.h.h.h.*.*.h.h.*.h.-.c.z.M.B.V.V.v.l.-.&.&.&.=.&.=.-.4.O.o.o.o.o.o.%.6.6.6.6.6.=.6.5.0.l.z.z.z.z.l.l.z.z.z.z.z.l.z.z.v.h.",
"5.6.6.6.5.5.5.5.5.%.6.6.7.x.n.c.v.v.v.v.x.[ F i i i i i i i F i q < < < 1 / x.9.5.4.4.4.4.9.b.7.l.v.v.l.l.l.l.v.l.l.l.l.l.x.6.5.",
"G.G.H.H.H.S.S.b.b.0.6.7.x.c.x.c.x.x.x.6._ Q t U ,.I.T.T.T.;.K R I e , O   y [ x.b.b.H.D.D.Z.Z.Z.N.B.B.Z.N.c.B.Z.b.w.0.0.0.0.0.w.",
"7.7.7.7.7.6.6.6.w.6.%.%.-.-.-.=.%.=.%.[ i t P Y.XX*X=X=X=X).:.W.Y.T Z , O   1  .9.v.z.z.z.z.z.M.z.z.z.M.z.z.z.B.H.x.6.5.5.5.6.6.",
"6.7.7.6.6.5.5.5.9.5.%.%.-.-.-.&.%.=.) i q ;.|.@X*X-X;X;X;X'.:.W.Y.T A 9 3 O X 2 / l.l.z.z.z.z.M.z.z.z.z.z.j.l.z.N.7.5.5.%.5.5.5.",
"6.7.7.6.6.6.5.5.9.5.%.%.h.k.-.&.%._ J r P ~.*X;X;X;X;X;X;X'.:.W.Y.T A 0 0 , O   7 / *.z.z.z.z.z.z.z.z.z.z.z.z.l.x.7.6.5.5.5.5.6.",
"8.8.5.8.6.6.5.5.8.4.%.%.k.k.6.%.[ i t G Y..X*X-X;X;X;X;X;X'.:.W.Y.T A 0 0 0 3 o   < ' l.z.l.l.l.k.6.l.z.z.z.k.l.0.9.8.8.5.8.8.8.",
"b.w.n.c.B.N.N.N.H.Z.x.c.K.D.B.c.X.i U U.^.[.XX&X;X;X;X;X;X'.:.W.Y.T A 0 0 0 3 o   & o.H.F.H.H.H.Z.w.Z.Z.Z.N.x.n.H.S.x.x.x.x.x.x.",
"v.H.B.z.M.B.B.z.v.v.v.v.V.V.V.B.3.D :._._.^.!.'.{.{.{.{.{.T.Y ,.,.L Z 0 0 0 3 o   & o.K.K.C.K.K.F.Z.k.k.k.k.6.-.k.k.-.-.-.-.-.-.",
"6.N.z.z.z.z.z.z.z.z.z.z.z.v.v.z.3.D :._.(.U.R L S G K L L G Z S A Z Z t w t w :   & ..B.B.C.C.C.D.x.-.h.-.*.*.-.-.-.*.-.-.*.-.&.",
"6.c.B.v.B.z.z.z.z.z.z.z.z.v.v.z.3.i U <.W U A w t K <././././././././.E.1.Y.Q.,.A < o.C.C.C.C.C.D.x.-.-.-.-.-.-.-.-.-.*.-.-.*.-.",
"6.x.z.z.z.l.z.z.z.z.z.z.z.z.z.z.3.i S U t Z S K U ,.|.;X;X;X;X;X;X;X;X#X[.+X*X XR < ..K.C.C.K.C.B.7.-.*.*.*.-.-.-.-.-.-.-.*.-.-.",
"b.S.n.c.v.6.9.x.v.x.v.x.x.7.x.c.3.i S U t Y R.W.!.(.+X;X;X;X;X;X;X;X;X#X[.+X*X XR < o.H.D.n.Z.D.S.b.9.7.7.6.7.x.x.x.7.x.7.6.6.7.",
"H.J.H.H.H.S.Z.D.B.B.C.C.D.Z.D.F.8.D S ( C ] x.)._.`.+X;X;X;X;X;X;X;X;X#X[.+X*X XR <  .B.Z.H.S.x.b.x.0.x.Z.H.H.Z.Z.H.D.Z.H.J.H.H.",
"Z.H.Z.Z.B.Z.B.B.V.M.M.V.B.B.Z.B.4.i S ( u.d.s.q.W.W.|.@X@X@X@X@X@X@X@X.X^.}.oX^.U & ` j.k.Z.0.6.6.6.6.7.7.S.Z.v.c.B.B.c.N.H.H.Z.",
"F.F.D.Z.N.n.B.C.B.B.B.V.B.c.v.D.4.i S ( u.d.p.~ A e G I D K I G K I K A S A i e > & ` h.h.x.7.6.6.6.6.7.x.Z.N.v.B.B.D.B.Z.H.H.H.",
"F.F.Z.Z.c.b.B.C.V.B.B.B.B.x.x.v.O.i r i C V C y , o 9 t > 0 Z , 4 Z 4 3 Z ,     1 b ..h.h.x.9.7.6.6.6.7.x.b.c.v.v.B.B.B.N.S.H.F.",
"H.H.D.n.b.S.K.K.B.B.B.B.v.0.x.c.4.F 3 O 3 q q q 9 > K R K U E L P E L K R H ,   k %.k.k.l.S.b.b.x.0.0.x.Z.H.S.x.Z.D.H.Z.b.G.H.D.",
"D.B.B.v.v.v.v.z.z.l.l.l.7.b.Z.B.l.%.k   O > w S K K R.oX|..XoX.X.XoX.X.XoX|.R.4 n 6.7.9.x.S.Z.Z.N.x.x.Z.S.H.Z.x.Z.H.H.H.J.J.D.B.",
"l.k.k.h.k.h.l.l.l.h.h.h.x.x.l.z.l.l.` 8 X O 3 A I R E.oX@X#X#X#X#X#X#X#X#XOX/.0 k 4.5.5.0.x.7.l.l.l.l.7.l.7.7.l.l.x.x.x.H.B.l.l.",
"k.k.k.k.k.l.l.l.l.h.h.h.x.x.z.z.l.l.k.o.7 > , w S Y R ,.!._._._._._._._.(.1.U > u O.5.6.0.x.6.l.l.l.l.l.7.7.x.l.x.x.x.x.Z.v.l.k.",
"h.h.h.k.h.l.l.l.k.h.-.-.x.x.l.z.l.l.3.>.R.~.E.U.W S r e A H H H H H H H H r 3   < u  .5.0.7.6.l.x.x.l.l.l.7.l.l.x.x.x.7.x.v.l.h.",
"k.6.k.l.l.k.l.k.k.-.%.%.x.x.6.=.%.' >.E.#X;X=X+XW.G 9 , , : O O       O O : > O O < m [ 8.9.7.x.x.x.x.7.x.x.7.7.x.x.7.9.b.x.l.6.",
"Z.Z.Z.H.Z.Z.D.Z.Z.x.7.0.S.S.b.0.o.7 2.&X=X;X-X=X.X;.U I I A 9 9 , O , 0 0 A K w 9 3 < n Z.H.H.H.H.H.H.H.H.H.H.H.J.J.H.H.%XJ.F.Z.",
"l.l.x.v.x.l.x.x.l.x.b.0.9.9.7.9.[ < 2.-X-X-X;X;XoX:.T T T I L E W E W R L I I t 0 9 O u x.B.B.Z.B.B.D.B.B.D.D.D.L.P.J.F.D.B.v.l.",
"l.l.l.l.l.k.k.l.l.x.x.5.%.%.%.%./ < <.*X-X-X-X&X'.T T :.:.,.1._.}.}.}.(.1.,.R t 0 9 O y 7.v.B.B.B.B.B.B.v.B.B.D.L.L.H.Z.v.x.l.6.",
"6.l.l.l.l.6.k.l.k.9.0.4.%.%.%.%./ & R .X&X;X*X/.T 4 E ^.^.|.#X&X*X*X*X&X#X}.U.S 0 9 O y 7.v.v.B.B.B.B.B.B.B.B.B.D.L.H.B.v.l.l.6.",
"=.6.l.6.6.-.6.k.6.6.x.%.o.%.%.%. .m J E 1.T.1.P 4 O I U.U.~.].OX+X+X+XOX].~.,.w : 3 y / 7.v.c.c.v.c.v.B.B.B.B.B.D.D.S.x.v.l.6.=.",
"7.x.x.x.x.9.7.7.x.b.b.8.4.4.9.9.9.5.! < O o o o o O A R R R :.!._._._.W.:.R P > O 5 X.0.0.7.Z.S.Z.Z.Z.Z.Z.Z.Z.S.D.H.$XS.9.7.7.7.",
"l.v.v.B.B.v.x.l.v.Z.v.x.x.7.x.l.l.l.%./ &     : , 3 S T T T E W._._._.W.E T P > 8  .6.x.b.7.v.v.v.v.v.v.v.v.v.v.v.K.L.J.H.c.v.l.",
"h.k.l.x.l.k.h.h.k.k.l.l.x.6.h.h.h.h.-.+.b 2   : < 5 y n n !  .8.m.m.m.8.{ Q i y / =.6.7.b.6.-.k.k.k.k.-.-.6.k.k.k.v.v.N.Z.z.l.-.",
"h.k.l.v.z.k.h.h.k.k.l.l.9.=.h.h.h.h.h.&.@.m X   @ - s s s B u.p.a.a.a.p.u.j < ' =.6.6.7.b.6.-.6.k.k.k.-.k.k.k.k.z.v.v.v.c.v.l.k.",
"h.l.l.z.l.k.h.h.k.k.l.x.x.6.-.-.-.-.-.*.#.N X   O 2 5 5 5 h l M j g j v g - < ..6.6.6.6.b.6.6.k.k.k.k.-.-.-.k.l.z.z.l.l.x.z.z.k.",
"6.l.l.l.l.7.6.6.l.l.v.c.S.b.c.c.c.c.c.x.7.! O > 0 t Z t w r Z Z k f k u f ; < !  .6.7.9.0.9.7.7.x.x.7.6.6.6.6.6.7.x.l.7.0.x.x.k.",
"7.x.x.x.7.x.x.9.7.k.l.k.l.v.c.B.B.B.c.x.7.! > A U Y U L w A Y Y ` u.` / u.v 3 # m 7.Z.Z.c.Z.Z.D.D.H.D.Z.N.c.n.b.b.c.n.D.H.n.c.x.",
"&.=.-.=.%.&.=.x.6.-.-.-.&.-.k.k.k.k.h.$.m u A I T T L Z w S T T ' a.' _ p.C 3 o 1 m @.z.z.z.z.z.z.z.z.z.l.l.l.Z.x.6.6.6.=.=.-.=.",
"%.&.*.&.@.%.%.5.=.&.-.-.-.-.k.l.l.k.$.~ h k ) ) ) ) i 3 3 A T T _ y._ ) y.C h ; @ & ' l.l.l.l.z.z.z.z.l.j.j.j.l.7.-.=.=.%.=.=.&.",
"@.%.%.%.@.&.#.%.%.&.&.-.*.-.-.k.l.h.N ; e.t.p.a.p.u.j     r T T ( ( ( ( ( ] t.r.j & ' l.l.l.l.z.z.z.z.l.h.h.h.6.6.-.&.%.%.&.=.-.",
"%.%.%.%.%.%.%.4.%.%.%.%.%.%.=.6.%.N 8 - z c c c x g ;     > e r r r y k k B c B v N $.6.=.6.k.l.l.z.k.k.-.-.6.6.8.%.%.%.O.%.%.=.",
"x.x.x.x.x.x.x.n.x.x.x.0.0.0.x.6.[ * $ a a a a p - * < < < < < < X X $ a a a % X n 7.x.0.b.0.x.c.c.c.x.x.x.x.x.n.x.x.x.0.0.0.c.c.",
"h.h.-.h.h.h.h.*.*.h.j.x.S.9.%.m = - p a a a p + 6 /  .o.O. .} } b X $ a a a % X k %.=.7.H.7.-.h.-.-.=.&.&.&.&.-.=.-.-.-.b.l.h.j.",
"h.h.*.h.h.h.h.h.h.h.h.l.b.o.N j f x x z d % $ 8 N %.6.9.b.6.-.k.! @ d x x x x f v ! ..6.b.6.-.-.-.-.-.#.#.&.&.&.-.-.-.=.7.k.h.h.",
"j.j.h.h.h.h.*.h.h.h.j.l.x./ * V i.i.i.r.f $ @ ! %.6.7.9.w.7.-.-.! * V i.i.i.i.i.B * / 6.0.6.-.-.-.-.-.&.&.&.-.-.=.*.-.-.x.k.h.j.",
"h.h.h.*.*.*.*.*.*.h.h.6.x.%. .@.f.g.g.f.} ' ' %.%.=.6.6.S.6.=.=.%. .#.f.f.| f.f.#. .@.6.b.6.-.-.&.-.-.#.#.&.&.&.-.-.-.=.6.=.*.h.",
"x.x.l.7.6.6.7.l.x.l.x.x.b.9.9.9.7.x.x.9.%.%.6.6.5.5.6.9.Z.0.0.x.x.7.0.9.4.5.8.9.7.7.7.0.b.0.0.x.7.x.x.6.5.5.7.7.7.7.7.0.0.9.7.x.",
"B.B.B.B.D.Z.B.B.B.B.B.Z.b.x.x.l.7.x.x.x.b.l.k.k.k.k.k.l.b.S.Z.Z.Z.Z.Z.D.Z.0.6.6.7.7.7.x.b.Z.x.v.x.x.l.7.w.0.0.7.7.7.7.b.G.D.B.B.",
"z.l.l.l.c.v.l.l.l.l.l.z.c.6.=.%.%.&.=.=.7.-.#.#.*.*.h.h.c.c.x.x.v.v.x.x.x.5.%.%.=.5.=.5.x.7.=.-.-.-.-.#.9.8.4.5.5.%.%.6.b.v.l.l.",
"z.z.l.l.x.v.z.z.z.z.z.v.x.6.&.%.%.=.=.=.6.&.#.#.h.h.h.*.x.x.x.x.v.v.x.x.9.5.%.%.5.6.6.6.9.7.=.-.h.=.-.&.5.5.5.5.5.5.5.9.x.x.l.l.",
"k.-.*.*.5.6.-.k.k.k.k.k.7.6.%.%.&.=.=.=.4.%.@.@.#.#.#.#.5.7.x.x.x.v.c.x.9.%.%.%.%.%.4.%.8.6.-.-.h.=.-.=.8.4.%.4.%.O.%.4.9.7.-.-.",
"5.4.O.%.0.9.4.8.5.5.5.5.0.4.%.%.%.%.%.%.8.4.o.O.4.5.5.5.0.8.7.7.l.7.5.5.8.5.O.3.4.4.4.8.8.5.=.6.6.6.%.%.9.9.4.4.8.4.5.8.S.9.5.%."
};
