/* XPM */
static char *_92f96edf9ba4532ccde4f3819a88018I2nkp1ddj7jHMEny[] = {
/* columns rows colors chars-per-pixel */
"64 64 224 2 ",
"   c #030302",
".  c #080706",
"X  c #0B0806",
"o  c #0B0B0A",
"O  c #140E0A",
"+  c #0E141C",
"@  c #141414",
"#  c #1C1814",
"$  c #1C1D1C",
"%  c #251C17",
"&  c #322519",
"*  c #3C3018",
"=  c #0B1427",
"-  c #151C27",
";  c #041335",
":  c #171F36",
">  c #1D2227",
",  c #1D2838",
"<  c #222324",
"1  c #292A2B",
"2  c #2E3335",
"3  c #383332",
"4  c #49362A",
"5  c #573E2C",
"6  c #4F333D",
"7  c #603522",
"8  c #664C1F",
"9  c #5C4227",
"0  c #574538",
"q  c #765825",
"w  c #6E4D32",
"e  c #684B39",
"r  c #081A45",
"t  c #1C2641",
"y  c #122657",
"u  c #252B45",
"i  c #27344A",
"p  c #38394D",
"a  c #2B3B57",
"s  c #07246A",
"d  c #122A69",
"f  c #1C356E",
"g  c #0B2A77",
"h  c #17347B",
"j  c #243970",
"k  c #453A4A",
"l  c #2F404C",
"z  c #2F415B",
"x  c #374557",
"c  c #31425D",
"v  c #334A78",
"b  c #464748",
"n  c #514C4F",
"m  c #474657",
"M  c #575656",
"N  c #685548",
"B  c #6B544C",
"V  c #77624D",
"C  c #6C6359",
"Z  c #7B6655",
"A  c #4E5861",
"S  c #555662",
"D  c #59676F",
"F  c #61686E",
"G  c #756C64",
"H  c #697179",
"J  c #767471",
"K  c #915A3E",
"L  c #997429",
"P  c #8F7132",
"I  c #A17E32",
"U  c #855C46",
"Y  c #945F42",
"T  c #85614A",
"R  c #856A58",
"E  c #996D51",
"W  c #8D775B",
"Q  c #A66C4D",
"!  c #AB7657",
"~  c #B87956",
"^  c #897664",
"/  c #8C796B",
"(  c #A57E64",
")  c #C37853",
"_  c #AE862D",
"`  c #A1843C",
"'  c #B48C31",
"]  c #B79036",
"[  c #998244",
"{  c #968959",
"}  c #BB835F",
"|  c #988468",
" . c #8F8479",
".. c #9C907F",
"X. c #B48466",
"o. c #AF906D",
"O. c #A88A78",
"+. c #A9987A",
"@. c #CC855D",
"#. c #CEAC4A",
"$. c #C28761",
"%. c #D7916A",
"&. c #CA9D77",
"*. c #DDA37C",
"=. c #0F3181",
"-. c #17398A",
";. c #183D94",
":. c #233F8B",
">. c #1D439B",
",. c #2C4183",
"<. c #2D4D97",
"1. c #1E46A2",
"2. c #244DA8",
"3. c #2B51A8",
"4. c #2751B1",
"5. c #2B55B5",
"6. c #2B56B9",
"7. c #415783",
"8. c #586A88",
"9. c #707C83",
"0. c #7D8487",
"q. c #7B8C95",
"w. c #7686A0",
"e. c #6ABFF5",
"r. c #7AC8F9",
"t. c #8B8988",
"y. c #979888",
"u. c #848E93",
"i. c #949A9D",
"p. c #AC9583",
"a. c #A59988",
"s. c #9EA199",
"d. c #B9A684",
"f. c #ABA897",
"g. c #B2AC93",
"h. c #8899A7",
"j. c #989FA4",
"k. c #9DA6AA",
"l. c #91A7B4",
"z. c #96ABB6",
"x. c #A5A7A7",
"c. c #B7B4A9",
"v. c #A0ABB0",
"b. c #A9B5BA",
"n. c #B4B9BA",
"m. c #DEAE84",
"M. c #CDB28B",
"N. c #EEB98C",
"B. c #E2BD91",
"V. c #C7B4AA",
"C. c #CDC39C",
"Z. c #D8C69C",
"A. c #E1C99E",
"S. c #F2C89A",
"D. c #D4CCA6",
"F. c #D8CCA5",
"G. c #D4CEB8",
"H. c #E5D6A9",
"J. c #F5DBAB",
"K. c #F6E2B2",
"L. c #F9E4B3",
"P. c #88B3C6",
"I. c #9AB3C2",
"U. c #A8BBC7",
"Y. c #B5BDC1",
"T. c #8EC0DA",
"R. c #B7C4CA",
"E. c #BACCD6",
"W. c #96CCE9",
"Q. c #89CEF7",
"!. c #94CFF8",
"~. c #8CD5FB",
"^. c #93D5F9",
"/. c #9BD7F9",
"(. c #95DAFB",
"). c #9CDBFB",
"_. c #ABD4ED",
"`. c #B7D7E6",
"'. c #A8DCF5",
"]. c #A4DDFB",
"[. c #AADDFA",
"{. c #B2DFF7",
"}. c #B2DEFA",
"|. c #BFE0EF",
" X c #A5E0FB",
".X c #ACE1FB",
"XX c #BEE0F0",
"oX c #B3E4FC",
"OX c #BBE6FC",
"+X c #BEE8FC",
"@X c #C8CCCF",
"#X c #C4CCD2",
"$X c #C8D4DC",
"%X c #D5DCDE",
"&X c #C7DBE7",
"*X c #CCDAE3",
"=X c #D1DDE5",
"-X c #CDE2EC",
";X c #D7E4ED",
":X c #CAE5F4",
">X c #C2E6FB",
",X c #C4EAFD",
"<X c #CCECFD",
"1X c #D4E6F2",
"2X c #D9E7F1",
"3X c #D4E9F5",
"4X c #DDEAF4",
"5X c #D2EEFD",
"6X c #D3EEFD",
"7X c #D9EFFD",
"8X c #D6F0FD",
"9X c #DAF0FE",
"0X c #DCF1FE",
"qX c #DEF2FE",
"wX c #EAEDED",
"eX c #E1EEF8",
"rX c #E7F0F6",
"tX c #E1F3FE",
"yX c #E3F3FE",
"uX c #E6F4FD",
"iX c #EAF6FD",
"pX c #E9F6FE",
"aX c #EEF8FE",
"sX c #F2F8FE",
/* pixels */
"yXyXpXaXaXaXaXpXpXyXyXyXyXyXqXqXqXyXqX7X8X7X,X<X8XyXyXyX9X5X5X5X5X5X9X9X5X8X5X<X+XOX5X5X5X5X8X9X9X5X9XqXqXqX5X5X8XqX5X>XOXqX9XpX",
"pXyXyXyXyXyXyXyX9X9XpXpXyXyXyXyXyXpXyXqX7X<X6X6XyXyXqXqX7X<XoX+X.X,X5X<X,XOX,X,X<X+XOX5X5X+XOX.X,X5XyX5XqX5X9XqX9XqX<XyXpXyXyXyX",
"+XOX,XyXyXqXyXyXyXqX5X8X8XyXyXpXyXyXyXqX7X5X5XqXqX7X9XqX6X,X<X5X,X,XqXqXqX9X6X<X<X9X9X<X<X,X,X,XoX5XpXqXqX5X9X5X,X8XyXyXyXyXyXyX",
"5X9X8XoXqXOX/.].yXyXyXyX5X<XqXpXqXqXqX9X5X5X6X8X<X<X+X<X8X6X5X<X X5X9X<X<X<X<X<X<X<X<X<X<X9X9X5X,X,X+X<X7X8XqXyXyXyXyXqXqXyXyXOX",
"5X5X<X,X(.OX,XOX^..X<X5X5X<X<X5X7X9X7X5X5X5X6X7X8X5X5XoX<X<X,X,X X5X9X9X9X9X9X5X<X,X,XoX<X5X5X5X9X5XoX<X6X6X9X9X9XyXqXqXqXqX<X,X",
"<X<X,X>XOXOXOX+XOX[.OX,X,X<X5X<X5X5X5X<X<X5X7X7X7X5X5XOX+X,X,X+XoX5X7X7X5X5X<X<X<X<X<X,XoX<X5X5X5X8X.X<X<X6X8X9X9XqXqXyXyX9X.X<X",
"<X>X,X,XOXOXOXoXoXOX.X,X,X<X6X<X<X<X<X,X5X9X9X9X9X7X5X5X.XOXOX.X,X<X5X6X9X5X<X<X<X5X5X5X>XOX,X5X5X5X).5X5X5X6X7X9X9XyXyXyX<X<X<X",
"<X5X<X<X<XOXoX).OXOX+X<X<X5X6X6X<X<X<X<X7X9X9X9X9X9X7X9X<X<X<X].<X<X5X6X6X5X<X,X<X5X5X5X5XOX+X5X9XoXoX5X<X5X6X6X5X7XqXyX8X7X<X<X",
"5X5X<X<X,XOXoX].oXoX+X<XqX,X6X9XqX<X<X5X6X9XqXqX9X9X9X9X7X,X+X).<X<X<X5X5X<X,X,X<X5X6X6X5X5XOX~.(.,X6X5X<X<X5X5X6X5X7X9X<X5X<X<X",
",X<X<X<XOXOXoX XoXoX,X5X<X5X6X9XqX6X<X5X5X9X9XqXqXqXyXqX&X3X'.T.z.l.<X5X5X<X<X<X<X5X6X9X9X5X.X/.5XqXyXqX8X6X5X5X6X5X6X,XqX<X<X<X",
",X,X<X<X,XOXoXoX XOX<X<X5X5X5X9X7X X<X5X8X9XqXyXqXyXyX$XF u.A 2 2 A q.l.z.U.<X<X5X5X5X9X7XoX[.9X5X6X7X9X9X9X5X5X8X6X6X<X5X9X<X<X",
"<X,X<X<X,XOXOXOX].,X<X<X5X5X5X9X,X[.<X8X9X9X9X6XqXqX=XM < $ o   o o @ 1 m I.<X5X6XqX5X<X5X,X7X9X7X6X6X6X7X6X6X5X<X5X6X5X+XOX<X,X",
"5X,X,X<X,X,X>X,XoXoX<X5X<X5X7X7X X,X<X5X5X9X9X9XqX$X0.$ o             o 1 9.E.yXyXyXqX<X7XqXqXqX9X5X<X6X8X8X5X5X5X<XoX+X5X5X+X<X",
"5X,X,X<X,X<X<X<X<X.X,X<X<X5X5X<X.X<X5X5X9X9XqXqXR.b 1 o                   < n b.7X<X<X5X8X5XqXyXqX5X8X7X<X<X5X5X6X.X>X7X9X9X<X9X",
"5X5X<X,X,X<X<X<X<XoX[.<X5X5X5X.X,X<X5X5X9X9X9X7Xu.$ o @       4 5 o @ o $ @ b S I.7X5X5XqX9X6XqXqX9X8X6XoX,X<X5XoXoX5X5X8X9X9X7X",
"5X8X6X<X<X<X<X<X<X<X).,X5X5X)..X5X<X<X5X5X5X5XR.2 o @   o . X | M.# # X $ @ 1 I.E.qX5X7X5X9XqX6XoX<X5X6X5X5X.XoXQ.<X5X5X5X7X7X6X",
"5X5X5X5X5X<X<X<X5X5X<X~.oX(.>X5X<X<X<X5X5X5X3XH <       o % & B.K.V X % o @ o D :X5X<X7XqX5X).oX6X5X5X5X5X9X9XOX<X<X6X6X5X5X5X5X",
"qX5X5X5X5X5X5X5X5X7X[.e.].6X9X9X6X5X5X5X5X5X3XU.$   . o o 5 e J.K.M.% 9 & o   > z.+X<X5X(.].9X9X7X9XqXqXqXyX9X}.<X<X6X5X5X5X5XqX",
"pX9X5X5X5X5X5X5X<XoX^.OX9X7XqXqX9X5X6X6X5X5X5XU.@   $ o X U E L.K.L.N U 5 X   2 q.W.oX/.<X6X7X9X9X9XqXqXqXqXqX.X[.5X6X6X9X9X9XyX",
"yXqX5X5X6X,X<X<XoX>X8X6X6X5X5X5X6X5X5X6X5X5X3X0.# o o . # Q ! L.K.L.+.Q w O   l _.OXOX9X5X5X5X8X9X9XqXqXqXqX9X}.yX+X6X6X9X9XyXpX",
"yXyX5X6XyX9X.XoX5X9X9X5X5X5X5X5X5X5X5X5X<X5XR.[ & $ X O 9 ( t.g.H.L.M.^ T O $ x 1X<X<X5X5X5X,X5X5X7XyXqXqXqXqX>X9X>X5X6X7X9XpXyX",
"yXyX6XyXyX<X<X7X9XqX9X5X5X<X5X5X5X5X5X5X5X7Xy.` ] * 0 % Q V.@Xx.A.K.c.n.| % S z.|.>XyXyXyXqX,X5X5X5XqXqX9X9X9X<X5X<X6X9X7XyXyXyX",
"yXyXyXqX<X5X7X5X5XqXqX5X<X<X<X<X<X5X<X6X,X{.| #.] 8 T 7 &.D.G.G.K.H.X.O.R C h.3X].9XyXyXyXyXqX5X8X5X9X5X5X5X5XqX,X6X6X9X7XqXyXyX",
"qXqXqX<X5X9X9X6X5X9XqX<X<X5X,XoX,X<X5XOXoX1X{ #._ L w e X.L.J.K.L.A.} @.^ R.7X9X.XyXyXyXyXyXyXqX6X5X<X5X5X5X5X5X<X7X6X6X9XqXqXqX",
"yXyX5X6X9X6X6X6X5XqX9X,X<X5X<X<X+XoX>Xr.7X:X{ ] ' L 8 q w Z.K.H.Z.d.@.X.G -XyXoX<XyXyXyXyXyXyXqX9X5X5X5X<X5X5X5X<X7X6X5X7XqXqXqX",
"yX9X5X9X8X<X6X5X<X,X<X<X5X5X5X5X5X]..X,X5X:X{ L L q q q 3 B +.C.F.&.Q w { -X5X).qXqXyXyXyXyXyXqX5X8X9X5X6X5X5X5X<X9X6X9X7X9XqXyX",
"9X5X5X8X5X9X5X+X<X5X5X<X5X5X6X9X9X<X9X<X<X<Xo.] _ q 1 i u ~ ~ K T B : 9 | 2X].OX+XqXqXyXyXyXyX9X5XqX5X5X5X5X5X,XOX<XOX7X7X9XqXyX",
"yX9X9X5X9X<X,X6X5X6X6X6X9XqXqX9XOX5X>X8X5X5X..I L W S =.j m / T V n s 3 s..X.X+X5X<X,XqXyXyXyX+XyXqX9X5X<X5X5X].7X5X<X8XqX7X9XyX",
"yXqX6X,XoX5X5X5X5X5X5X9X9XqX9X7X.XOX}.5X5X5Xn.` P F.! >.6.;.k Z / p s G P.<XqXyXyXqXyXoXqXyX>X<XyXyXqX9X5X5X<X.X5X<X5X5XqXqXpXyX",
"yXqX,XOX5X5X5X5X5X5X5X9XqX9X9X9X/.qXoX5X5X5X&X| +.J.@.,.6.6.>.m / h s R b.7XyXyXyXyXqXyX<X>X.XqXyXyXaXyX5X5X<X<XOX5X5X5X9XyXyXyX",
"qXyXOX5X5X<X<X<X5X5X8X9X9X9XqX9XOX5XOX<X5X5X7Xs.H.m.Y ,.6.6.6.;.j 3.s U c.7X5XyXyXyXyXyXqX}.oXqXqXpXpXyX5X<X<X<X,X,X5X5X8XpXyXyX",
"yX,X9X8X<X,X].<X<X<X9X9X9X9X9XqX,X<X<X5X5X5X*Xg.J.Y B :.6.6.6.>.v 3.s B f.1XqXyXyXyXyXyXyX>X<XyX9XqXyXqX5X5X5X5X<XOX5X5XyXqXyXyX",
"yX,XqXqXqX<X<X<X<X<XqX9X5X5X5XqX<X<X5X6X6X7Xn.F.m./ a ;.6.5.6.2.h 5.g 6 X.b.7X9XqXqXqXqX9X.X8XyXyXyXqXqX9X5X5X5X5X<X+X5XyXqXyXyX",
"yX<XqX9XqXqX<X<X<X<X<X<X<X<X5X5X,X+X5X6X6X1Xf.J.X.#X8.=.4.6.5.4.f <.;.u @.d.E.7X9X9X9X9X7XOX6XpXyXyXyXyXqX5X5X5X5X5X>X,XyXqXyXyX",
"yX<X<X5X9X9X5X<X,X,X<X<X<X5X5X<X,X<X5X6X7XU.C.S.O.2Xh.g 1.4.4.5.h 5.4.d w %.a.&X5X7X7X8X5XOX6XaXyXyXyXyXqX9X5X5X5X5X6X>X<X9XqXyX",
"yX9X<X5X9X9X6X5X<X,X,X,X<X<X<X,XoX5X5X6X7Xb.D.N.O.3Xw.d h 2.1.-.d 7.6.>.t Q *.f.s.R.5X5X5X+X9XyXpXpXpXpXyX9X5X8X7X9XqXyX,X7XqXyX",
"qX9X5X5X9X7X5XOX9X<X,X<X<X<X<X.X5X5X6X6X5Xb.D.N.p.1X8.;.3.-.-.-.s -.6.4.y G ) &.d.y.&X5X5XoXqXyXyXyXyXyXyXqX7X9XqXqXyXyX8X,X9XqX",
"yXqX5X5X9X6XOX<X,X<X<X<X<X<XOX<X5X<X6X6X5Xb.D.N.y.&Xv 1.6.5.5.2.r = ;.h = M E W (  .&X<X<XoXqXqXyXyXyXyXyXqX9XqXqXyXyXyXqX5X>XyX",
"qX9X5X9X6XOX5X6X,X,X,X,X<X+XOX<XOX<X5X8X5Xb.F.S.( k.x d >.4.2.g = + ; = - p G W ^ k.3X7X5X+XyXyXyXyXyXyXyXyXqXqXyXyXyXyXyXyX<X<X",
"yX5XyXqXOX6X9X9X5X,X,X,X<XoX5X<X<X5X8X7X5Xb.H.L.$.C z i : r y r = + = , i x k.#X;X7XyX7X<X<X9XqXyXyXyXyXyXyX9X9XyXyXyXyXyXyXyX>X",
"<X5XyX,X5X9X5X7X5X,X<X<XOX].<X<X<X5X8X9XyXb.F.J.$.3 c c a i - + - < - , a c h.yXyXyXqX7XoX9X5X5XyXyXyXyXyXqX7X7XqXqXqXyXyXyXqXqX",
"yXyXyX<XuXqX,XpXyX<X<X,X,X+X<X<X<X5X8XqXyX`.x.p.| x c a i u u > j.b., t a x 0.4XyXyX9X7X].9X9XyXyXyXyXyXqX7X5X7X7XqXyXyXyXyXyXyX",
"yXyXuX6XyX6X7XyXqX,X,X,X,X,X,X<X<X<X5XyX7X5XyX;Xk.x c z z z , 9.eX$XH F H n.n.#XyXyXyX<X[.,XqXqXyXyXyXyXyXqX9X7X9XyXyXyXyXyXyXyX",
"9XpXyX7X5X6XyXqX5X,X,X,X,X,X,X<X<X5XqX9XqXqXyX1Xi.A a c z , 2 *XyXeXi.%X;X@Xv.eXpXyXyX8X8XoX7X9XqXyXyXyXyXqX9X9XqXyXyXyXyXyXyXyX",
"5XaXpXyX,XyXqX5X<X<X,X,X,X,X,X<X<X9X9X9XqXqXqXE.R.%XJ S m 0.i.=XyXyX*Xj.R ^ 4XpXpXpXpXyX6X].6X6X9XqXqXyXyXyXqXqXyXyXyXqXyXyXpXqX",
"5X9XuX,XyX7X6X5X5X<X,X,X,X,XOX<X5X5X9X9XqXqXyX4Xj.n.wXwX%XR.v.yXyXpXpX*X+.o.$XuXpXpXpXyX<X.X5X5X5X6X6X9XqX9X7XqXqXyXyXqXqXaXyX<X",
"9X<X<X<XyX5X5X5X5X<X<X,X,X,X,XOX5X5X9X9XqXyXqXyXn.( G k.k.R.7XyXyXyXyX1Xs.B.( t.x.;XaXqX+XoX5X5X5X5X5X5X5X5X7X9X9XyXyXyXyX8X5X9X",
"yX9X<X9X9X5X5X5X5X<X<X<X<X<X<XoX<X9X9XqXqXqXqX4Xf.Z. .&X3XqXyXyXpXyXyX*Xa.H.N 4 e M Y..X,X5X7X5X5X8X5X5X5X7XyXyXyXaXaXaXyXqX7XpX",
"pXqXOX7X9X5XqX7X5X<X<X<X5X5X5X,X,X9X9XqXqXqXqXn.C.+.U.7X7XqXyXyXyXyXyXY.C Z N M.d.R M Q.6X7X5X5XqX<X5X6X9XqXyXpXaXaXaXaXyX5XyXyX",
"yXqXoX9X9X5XqX5X5X5X5X5X5X6X5XqXoXqX9X9XqXqX*Xy.H.O.`.>XqXyXyXyXyXyXyXeX=Xb.t.J G C h.<X5X9X7X5XqX5X6X7X9XyXyXpXpXaXOXpX7X9XqXyX",
"yXyX[.9X6X5XqX8X5X5X5X6X5X7X9X9XOX<XqX9XqX7XH b n n E.9XqXyXyXyXyXyXyXyXpXpXaXrX2X:X+X5X7X9XqXqX9X5X9X6X9XqXyXyXpXaX>XqX9X9XyXyX",
"yXqX[.5X5X5X9X6X5X5X5X7X7X9X9X9X5XoX7X9X7XU.C N ~ 4 u.9XyXyXyXyXyXyXyXpXpXaXaXaXaX<X9X9X7XpXyXyX9X7X9X7X7X7XqXyXpXsXaXqX7X7XyXyX",
"yXyXoX9X6X5X9X6X5X5X6X9X9X9X9XqXqX>X<X9XqXk.C O.0 ^ 0.7XqXyXyXyXyXyXyXpXaXaXaXsXpX9XyX9X9XaXyXyX7X6X7X7X7X5X7XyXpXaXpXpXyXqXyXyX",
"yXyXoXqX6X6X9X6X<X5X6X6X9X9X9X9XqX+X<XyXyX*XJ b 0 N i.7XqXqXyXyXyXyXyXpXaXaXsXyX<XyXyXqXqXyXpXyXqX7X7X7X9X5X5X9XyXuXpXpXpXqXyXyX",
"yXyXOXqX5X5X5X5X<X5X5X5X5X7X9X9X8X<XOX8XyXyXXXW.`.*X1X9X7XqXyXyXyXyXyXpXaXaXpX<XyXyXqXqXyXqXyXyXyXqX7X7X9X6X5X5X5X8XpXpXpXyXyXyX",
"yXqXOXqX5X5X5X<X<X5X5X5X9X9X9X9X5X9X,X].,XOX.X,X9X9X9X9X9XqXqXyXyXyXyXyXaXaX9XqXyXqXqXyXyXqX9XqXqXyXyXqX9X6X8X6X5X5XqXyXyXyXyXyX",
"yX<XOXyX5X5X<X<X<X<X6X9X9X9X9XqX5XyXyX].r./.<XqXyXqXqXqXqXqXqXqXyXyXyXyXaXyX<X<XqXqXqXqXqXqX9X9X9XqXyXyX9X5X5X5X5X<X5XyX<XyXyXpX",
",X5X5XyX5X5X5X<X5X5X9X7X7XqXqXqXqXqXqX~..X5XyXyXyXyXyXyXqXqXqXqXyXyXyXyXpX5X5X<XyXqX9X9X9XqXqX9X9X9XqXyXyX5X].<X5X5X9X<XoXyXyX<X",
"+XyX9X<X5X5X5X5X5X6X6X6X9XyXyXyXqXqXoXQ.9XyXyXyXyXyXyXyXqXqXqXqXqXyXyXyXpX<X5XyXyXqXyX9X9XyXqX9X9X9X9XqXyXqX,X<XqXyXyXyXoXyX5X.X",
"yXpX<X<X5X5X5X5X5X5X5X6X9XqXqXqXqX,X[.yXyXyXyXyXyXyXyXyXqXqXqXqXyXyXyXyXyX<X+X7XyX7XqX9XqXyXqX9X9X9X9XqXqXyX9XqX+XyXyXyX[.>XoXyX",
"yXyX5X<X5X5X5X5X6X6X5X5X9XpXaX5X+XoXqXqXyXqXqXyXyXyXyXyXyXqXqXqXyXyXyXyX<X,X<XyXpXyXqX9XqXyXyX9X9X9X9XqXqXyXyX<X(.OX9X.X!.Q.qXyX",
"yXyX9XoX5X5X6X5X6X6X9X,X5XqX6X<XoXyXyXqXqXqXqXqXqXyXyXyXyXyXqXqXqXyXyXyXyX7X,XqXyXyX5X9XyXqXyXqX9X7X7XqXyX<XoX).~.[.[.7XqX<XpXyX",
"yXyXqX(.5X5X5X5X5X<X{.oX5X5X5X+XyXyXyXyXqXqX9X9XqXyXyXqXqXqXqX9X7XqXqXyXyX+XoX.X<X<XyXyXyXyXyX9X9X9XyX5XoXOXOXqXyXyX<XyX7X,XyXyX",
"pXyXyX+X/.!.[.[.[.>XyXqX7X5X+XyXpXaXpXyXyXqX9X7XqXqXqXyXqXqXqX5X5X7X9XyXoXyXyXyX5X>X5XyXyXyXyX5XyXqXOX,X5XyXyXyXyXyXqXqX<X5XsXyX"
};
