/* XPM */
static char *_70156e1cc8d4113a96d6ca9c39570dap3z0wkbjxhG8sFhj[] = {
/* columns rows colors chars-per-pixel */
"64 64 203 2 ",
"   c #151514",
".  c #191815",
"X  c #171818",
"o  c #191B1B",
"O  c #231D16",
"+  c #35210E",
"@  c #3C230E",
"#  c #2B2014",
"$  c #24221D",
"%  c #2D241B",
"&  c #362617",
"*  c #1B1E23",
"=  c #1D2224",
"-  c #1E232A",
";  c #242523",
":  c #292824",
">  c #21252D",
",  c #222A2E",
"<  c #2B2B29",
"1  c #332B24",
"2  c #322F2C",
"3  c #2F322E",
"4  c #35322C",
"5  c #3A352D",
"6  c #3D382E",
"7  c #222731",
"8  c #242B34",
"9  c #282E38",
"0  c #27313B",
"q  c #293438",
"w  c #29333C",
"e  c #373636",
"r  c #44260D",
"t  c #47280D",
"y  c #4D2C0F",
"u  c #452B14",
"i  c #452E19",
"p  c #532F11",
"a  c #4A321D",
"s  c #54341A",
"d  c #653A17",
"f  c #633C1B",
"g  c #453629",
"h  c #553C25",
"j  c #433E35",
"k  c #6E4019",
"l  c #5C422B",
"z  c #484237",
"x  c #444139",
"c  c #534436",
"v  c #6A4627",
"b  c #784A24",
"n  c #684A35",
"m  c #66533E",
"M  c #2B3642",
"N  c #2D3A45",
"B  c #2E3D49",
"V  c #2F424A",
"C  c #394347",
"Z  c #31424C",
"A  c #334551",
"S  c #364A55",
"D  c #3B4E56",
"F  c #364B59",
"G  c #384E59",
"H  c #3F5057",
"J  c #3A525D",
"K  c #3C5562",
"L  c #3E5965",
"P  c #3F5B6A",
"I  c #444444",
"U  c #4B4945",
"Y  c #454A4C",
"T  c #4B4C4B",
"R  c #514E46",
"E  c #5B5546",
"W  c #56524A",
"Q  c #5B574A",
"!  c #5A564B",
"~  c #465559",
"^  c #575A56",
"/  c #5B5A52",
"(  c #655646",
")  c #635C4C",
"_  c #775C43",
"`  c #625E52",
"'  c #68604E",
"]  c #75634B",
"[  c #636056",
"{  c #6D6554",
"}  c #676358",
"|  c #6C665A",
" . c #6D695B",
".. c #716756",
"X. c #746A56",
"o. c #7B6E56",
"O. c #706758",
"+. c #746C5B",
"@. c #796F5A",
"#. c #7E7057",
"$. c #77705F",
"%. c #7C725D",
"&. c #405B67",
"*. c #445D6C",
"=. c #425F71",
"-. c #44616E",
";. c #456372",
":. c #4C6A76",
">. c #486878",
",. c #496C7C",
"<. c #536A71",
"1. c #656B64",
"2. c #6B6B62",
"3. c #736E61",
"4. c #767163",
"5. c #7B7464",
"6. c #7F7866",
"7. c #767369",
"8. c #7B7669",
"9. c #7E796B",
"0. c #6A7673",
"q. c #767971",
"w. c #7F7C70",
"e. c #8B5323",
"r. c #8C582D",
"t. c #995D2B",
"y. c #8C5931",
"u. c #9D6536",
"i. c #93643B",
"p. c #A5622C",
"a. c #A8642C",
"s. c #A66936",
"d. c #A56E3E",
"f. c #B46C31",
"g. c #836242",
"h. c #8A6D4E",
"j. c #8D704F",
"k. c #8B6F51",
"l. c #81755C",
"z. c #85785E",
"x. c #817761",
"c. c #847A64",
"v. c #8A7D65",
"b. c #837C6B",
"n. c #857E6E",
"m. c #897E6A",
"M. c #837E71",
"N. c #847F71",
"B. c #8D8067",
"V. c #8E8167",
"C. c #87806E",
"Z. c #8B816D",
"A. c #918167",
"S. c #91846B",
"D. c #868071",
"F. c #868173",
"G. c #868276",
"H. c #8A8373",
"J. c #8A8476",
"K. c #8F8876",
"L. c #878478",
"P. c #8A8679",
"I. c #8E897C",
"U. c #918671",
"Y. c #938974",
"T. c #998D76",
"R. c #918B7B",
"E. c #4E7588",
"W. c #537486",
"Q. c #537B8D",
"!. c #5A7E8F",
"~. c #537D91",
"^. c #558195",
"/. c #5F8595",
"(. c #5C8599",
"). c #5A879C",
"_. c #718588",
"`. c #648797",
"'. c #62899C",
"]. c #5C8DA3",
"[. c #628DA1",
"{. c #6491A5",
"}. c #6396AD",
"|. c #6A96AA",
" X c #6498AF",
".X c #6B99AE",
"XX c #6D9CB1",
"oX c #709FB2",
"OX c #6FA2B8",
"+X c #74A6BD",
"@X c #75ACC4",
"#X c #78AEC5",
"$X c #79B0C7",
"%X c #7CB4CC",
"&X c #7EB8D1",
"*X c #928E81",
"=X c #959084",
"-X c #80B6CF",
";X c #81BBD4",
":X c #85BFD9",
">X c #87C1DB",
",X c #88C4DD",
"<X c #8AC6E0",
/* pixels */
"P.L.M.9.9.N.G.G.J.G.J.I.J.D.n.n.n.D.M.b.b.n.b.b.N.J.D.b.b.N.n.b.b.9.M.D.M.J.K.J.J.J.I.P.J.K.K.K.Y.R.G.G.G.L.P.I.P.G.L.P.P.P.L.G.",
"n.b.b.b.c.b.m.m.m.m.m.Z.m.c.c.c.c.c.n.n.l.l.l.l.z.c.v.c.c.c.l.l.l.l.9.9.m.Z.Z.Z.Z.Z.Z.A.S.A.S.S.S.S.U.P.D.n.D.D.n.b.n.D.D.N.n.b.",
"b.6.8.5.%.c.c.c.c.c.m.m.c.x.x.x.x.x.c.5.#.o.#.#.l.l.z.l.l.l.l.#.#.#.5.8.v.v.v.V.V.v.V.Z.Z.Z.Z.Z.Z.Z.Z.N.b.b.b.b.b.b.b.b.b.b.b.6.",
"b.6.5.4.x.c.m.m.m.m.m.m.m.c.l.x.c.c.5.5.#.o.l.l.l.l.l.l.l.l.l.l.l.#.6.b.v.v.V.A.A.V.Z.Z.A.A.V.Z.A.A.m.9.b.b.n.b.b.b.b.b.b.b.b.8.",
"8.5.7.3.5.6.c.6.b.m.m.m.b.x.$.%.%.5.5.3.+.@.@.@.%.%.%.%.%.%.%.$.%.$.9.9.x.c.c.c.v.v.v.c.c.c.c.c.v.m.6.8.8.6.8.4.8.5.6.6.6.6.8.8.",
"D.D.J.J.D.D.N.w.b.b.N.b.b.8.7.4.5.8.9.b.4.4.8.8.6.b.n.b.b.b.b.b.b.b.b.b.n.n.N.M.M.D.b.b.b.b.b.b.b.N.D.G.N.N.M.9.D.D.D.D.D.J.D.N.",
"Z.Z.Z.Z.Z.Z.H.N.5.$.@.+.+.O.| +.+.+.+.+.+.+.5.b.%.l.c.l.x.x.x.x.x.x.x.x.x.x.n.G.6.x.$.@.$.$.$.$.$.5.5.5.5.5.b.J.Z.Z.Z.Z.Z.Z.Z.Z.",
"Z.v.v.v.m.m.m.6.+.@.+.+.+.{ { O.+.+.O.O.O.+.3.6.%.l.l.l.%.l.l.l.l.l.%.%.l.l.c.b.%.%.$.$.$.@.+.$.@.@.+.+.@.$.5.b.Z.Z.Z.Z.Z.Z.Z.m.",
"Z.v.v.m.m.v.m.6.$.@.+.+.+.+.O.+.+.+.+.+.+.+.3.c.x.x.l.l.l.x.x.x.x.x.l.l.v.z.c.b.5.%.$.%.$.$.+.$.$.$.$.+.+.$.5.b.Z.Z.Z.Z.Z.Z.Z.Z.",
"c.c.m.m.m.m.b.4.+.+.+.+.+.| { O.+.+.+.+.+.+.3.6.x.x.x.l.l.x.x.x.x.x.x.x.c.c.6.8.$.$.@.$.$.$.+.+.$.+.+.+.+.+.+.8.m.Z.m.Z.Z.Z.Z.m.",
"c.6.b.b.n.n.M.M.8.8.6.4.5.3.3.3.8.8.8.6.6.8.N.G.n.C.n.b.b.b.5.8.b.b.n.n.n.n.G.M.8.8.8.8.8.4.4.7.6.5.6.4.4.4.8.w.b.b.b.N.D.D.J.b.",
"c.c.v.c.v.m.Z.Z.m.v.v.v.v.6.b.n.Y.Y.U.U.S.Y.T.T.Y.T.Y.U.U.U.P.G.C.C.D.D.D.D.K.H.n.n.n.n.n.b.M.N.Z.Z.Z.m.m.m.Z.D.Z.Z.Z.m.Z.H.K.Z.",
"l.l.z.l.l.l.l.l.l.l.l.l.z.5.6.v.A.A.A.A.A.A.A.A.A.S.S.A.v.V.D.b.c.c.v.c.c.c.c.c.5.x.5.x.5.6.w.b.c.c.c.c.c.x.c.c.v.c.c.c.v.m.Z.c.",
"l.l.z.z.z.z.z.l.l.z.l.l.z.%.6.v.A.A.S.S.A.A.A.A.v.c.c.x.x.c.6.4.+.$.6.5.+.+.+.+.5.5.c.5.6.6.9.b.v.v.v.v.c.x.v.v.c.v.v.v.v.v.Z.c.",
"l.l.l.l.l.l.l.#.#.l.l.#.l.%.n.v.V.Z.A.A.v.v.v.v.@.T U U U U I C I I I e 5 4 4 5 E 5.5.$.5.4.9.c.v.v.v.v.c.c.v.v.v.v.v.c.v.v.m.%.",
"4.5.5.5.4.4.4.4.4.+.5.5.6.b.N.n.m.m.m.m.b.c.c. .T w B G &.*.*.*.G B A B , = o   5 Q  .3.3.8.M.6.c.m.m.c.c.c.c.m.c.c.c.c.c.b.5.4.",
"L.L.P.P.P.G.G.M.M.9.5.6.b.n.b.n.b.b.b.b.b.8.7.T w M =.].#X-X-X-X[.&.E.E.J M - X o < 3.D.D.D.D.D.C.Z.Z.D.C.n.Z.D.M.w.9.9.9.9.9.w.",
"6.6.b.6.6.5.5.5.w.5.+.+.%.%.%.$.+.$.$.@.+.} U w Z !.XX%X>X<X<X<X|.-.Q.Q.K N 7 - o o 5 ) v.v.v.V.v.v.v.V.v.v.v.Z.J.b.5.4.4.4.5.5.",
"5.6.6.5.5.4.4.4.8.4.+.+.%.%.%.@.+.$.$.$.} T 9 N ;.%X<X<X<X<X<X<X|.-.Q.Q.K N 8 8 - X   6 { l.v.V.v.v.v.v.v.z.c.v.C.6.4.4.+.4.4.4.",
"5.6.6.5.5.5.4.4.8.4.+.+.l.x.%.@.$.5.5.+.U w w =.{.;X,X,X,X,X,X,X|.*.Q.Q.K N 8 8 7 -   . 1 { v.v.v.v.v.v.v.v.v.c.b.6.5.4.4.4.4.5.",
"7.4.4.7.4.4.4.4.7.3.+.+.x.x.5.+.+.+.5.+.I B P Q.}.+X&X;X(.W.W.W.*.A J K B 7 * * * *     $ ' c.c.x.5.c.v.v.v.x.c.9.8.4.7.4.7.7.7.",
"M.w.N.n.D.C.D.D.J.D.b.n.U.H.H.n.9.b.n.6.Y F ^.].].^.}..XS N A A A A A A A w 8 , , 8 , o $  .J.J.D.w.D.D.D.n.b.D.P.G.M.b.b.b.b.b.",
"m.J.Z.v.V.Z.Z.v.v.v.v.v.A.A.A.Z.D.N.v.x.U F ^.].~.F A S S W.+X+X+X+X+X+X+X+X|.!.[..X~.S ; O.U.U.K.D.x.x.x.x.5.%.x.x.5.%.%.%.%.%.",
"5.C.v.v.v.v.v.v.v.v.v.v.v.v.v.v.n.b.v.l.I Z ,.,.K w w A ;.|.,X<X<X<X<X<X<X<X&X X#X;X XK ; O.S.S.H.b.%.l.%.#.#.%.%.%.#.%.%.#.%.%.",
"5.n.Z.v.Z.v.v.v.v.v.v.v.v.v.v.v.n.b.c.l.U M G B 0 M S -.^.+X,X<X<X<X<X<X<X<X&X X#X;X XK ; O.S.S.H.b.%.%.%.%.%.%.%.%.%.#.%.%.#.%.",
"5.b.m.v.v.c.v.v.v.v.v.v.v.v.v.v.b.b.z.%.U M F N B >.E.~.].+X,X<X<X<X<X<X<X<X&X X#X;X XK ; O.U.S.Z.6.%.#.#.#.%.%.%.%.%.%.%.#.%.%.",
"M.G.N.n.n.5.8.b.m.b.m.b.b.6.b.n.M.M.n.b.U M D U ( q.`.].~.!././././././././.!.>.W.!.>.B ; } D.D.G.M.8.6.6.5.6.b.b.b.6.b.6.5.5.6.",
"P.I.J.J.J.G.D.H.Z.Z.S.S.H.D.J.K.Y.K.R.J.Y M D _ s.s.9.~.P N - = = - = = - = = * = = o X $ 2.G.b.M.b.9.b.D.P.J.D.D.J.H.D.J.I.P.J.",
"D.J.D.D.Z.D.Z.Z.A.V.V.A.Z.Z.D.Z.H.H.H.N.Y M D g.f.f._ S 9 > - X o * X X * o   - o       $ | 9.5.5.5.5.6.6.G.D.m.n.Z.Z.n.C.P.J.D.",
"K.K.H.D.C.N.Z.S.Z.Z.Z.A.Z.n.m.H.Z.Z.H.n.Y 0 V m y.y.c > X - 0 - - 0 - - 0 - - 0 -     $ 6  .6.5.5.5.5.6.b.D.C.m.Z.Z.H.Z.D.P.P.J.",
"K.K.D.D.n.M.Z.S.A.Z.Z.Z.Z.b.b.m.n.m.D.n.U > o < e e 9 7 o 9 S M B G N N G B M D q o   6 O.6.8.6.5.5.5.6.b.M.n.m.m.Z.Z.Z.C.G.J.K.",
"J.J.J.N.M.G.U.U.Z.Z.Z.Z.m.9.b.n.n.n.D.D.2.I o o - 7 M B w -.[.'.'.{.'.'.{.'.(.{./.:.- z x.G.M.M.b.9.9.b.D.P.G.b.D.J.J.D.M.L.P.J.",
"H.Z.Z.m.m.m.m.v.v.c.c.c.6.M.D.Z.Z.Z.Z.H.K.| 4 o X - N S J !.#X&X;X;X;X;X;X;X;X;X%X|.8 z 9.G.D.D.C.b.b.D.G.J.D.b.D.J.J.P.I.I.H.Z.",
"c.x.x.l.x.l.c.c.c.l.l.l.b.b.c.v.c.v.v.m.v.c.O.5   X - M S &.,.). X X X X X X X X!.K = j 8.b.6.c.c.c.c.6.c.6.6.c.c.b.b.m.J.Z.c.c.",
"x.x.x.x.x.c.c.c.c.l.l.l.b.b.v.v.c.c.v.v.m.6.1.<.:.:.;.K A N w S J J J J J J J J Z 8 X : R +.5.c.c.c.c.c.6.6.b.b.b.b.c.b.D.m.c.x.",
"l.l.l.x.l.c.c.c.x.l.%.%.b.b.c.v.c.c.c.c.%.2.<.XX,X>X@X(.A , o o o o o X   X o o o o X   ; Q +.6.b.b.c.c.c.6.b.b.b.b.b.6.b.m.c.l.",
"x.5.x.c.c.x.c.x.x.%.+.+.b.b.5.$.$.$.$.+.z ~ oX;X<X,X:X+X*.A Z Z M > > *   * > > w B 7 - > < z 5.b.b.b.6.b.b.6.6.b.b.6.8.M.b.c.5.",
"D.D.D.J.D.D.J.D.D.b.6.9.G.G.M.9.9.M.G.8.e S %X<X<X<X<X%X:.J J J S B F G A F F B A S 0 8 7 o x D.P.P.P.J.J.P.J.P.I.I.P.P.=XR.K.D.",
"c.c.b.m.b.c.b.b.c.b.M.9.8.8.6.8.8.6.M.7.5 A #X,X<X,X:X+X-.J L L L -.~.].].].^.;.&.J w 8 7 o j m.Z.Z.H.Z.Z.H.H.H.Y.R.*XK.H.Z.m.c.",
"c.c.c.c.c.x.x.c.c.b.b.4.+.+.+.+.+.+.4.| 4 B {.%X<X,XXX:.q S Q.Q.).OX#X%X%X%X$X+X[.E.N 8 7 o j c.Z.Z.Z.Z.m.Z.H.H.Y.Y.P.D.m.b.c.5.",
"5.c.c.c.c.5.x.c.x.8.9.3.+.+.+.+.+.+.5. .z C -.!.'.'.-.w o V E.Q.).OX#X%X%X%X#X+X[.,.0 - > 4 E m.Z.Z.Z.Z.Z.Z.Z.Z.H.Y.J.Z.m.c.c.5.",
"$.5.c.5.6.%.5.x.5.5.b.+.| +.+.+.+.+.+.+.| W < ; - - = o   q K L P ;.^.{.{.{.).;.&.F - o : ) 6.m.m.n.m.Z.Z.Z.Z.Z.H.H.G.b.m.c.5.$.",
"6.b.b.b.b.8.6.6.b.M.M.7.3.3.8.8.8.8.8.5.5.+.W <     o - - M J J J L Q.].].].~.P J A = 4 Q 3.D.D.D.D.D.D.D.D.D.G.J.P.*XG.8.6.6.6.",
"c.m.m.Z.Z.m.b.c.m.D.m.b.b.6.b.c.c.c.c.x.x.c.5.R : . * > < e C C T ^ 0._._._.0.^ Y V 3 W w.6.b.m.m.m.m.m.m.m.m.m.m.U.Y.I.P.n.m.c.",
"l.x.c.b.c.x.l.l.x.x.c.c.b.5.l.l.l.l.%.@.@.#.#.o.E $   . & u i i v u.d.d.d.d.d.u.h : ) 4.w.5.%.5.x.x.x.%.%.5.x.x.x.m.m.C.D.v.c.%.",
"l.x.c.m.v.x.l.l.x.x.c.c.8.$.l.l.l.l.l.#.@.#.#.#.) $   . % 1 1 1 g n n v b v v b i ; { 6.w.5.%.5.x.x.x.%.x.x.x.x.v.m.m.m.n.m.c.x.",
"l.c.c.v.c.x.l.l.x.x.c.b.b.5.%.%.%.%.%.#.o.@.o.+.) $ X = 9 0 9 8 9 0 0 4 s 5 3 s & ; Q +.M.5.x.x.x.x.x.%.%.%.x.c.v.v.c.c.b.v.v.x.",
"5.c.c.c.c.6.5.5.c.c.m.n.G.M.n.n.n.n.n.b.6.6.5.3./ $ 8 A S S A w M S S W y.( T y.l > : U 9.8.6.6.b.b.6.5.5.5.5.5.6.b.c.6.9.b.b.c.",
"6.b.b.b.6.b.b.8.6.x.c.x.c.m.n.Z.Z.Z.n.m.c.b.6.` I q Z J J S B 0 N J J ) s.) / s.n > o 4 W 8.D.H.H.H.H.D.C.n.N.M.M.n.N.J.J.N.n.b.",
"@.$.%.$.+.@.$.b.5.%.%.%.@.%.x.x.x.x.l.%.@.@.{ z 1 Y ~ ~ ~ C 8 7 M J J / i.) ^ i.n 2 % O $ { v.v.v.v.v.v.c.c.c.D.b.5.5.5.$.$.%.$.",
"+.@.#.@.X.+.+.4.$.@.%.%.%.%.x.c.c.x.%.@.@.) 6 v r.i.i.i.i.l o o 9 G J ~ ^ ~ ~ / _ y.r.s $ ' c.v.v.v.v.c.z.z.c.c.6.%.$.$.+.$.$.@.",
"X.+.+.+.X.@.o.+.+.@.@.%.#.%.%.x.c.x.%.@.) z & f e.e.e.e.b a     , G J J J J J J m e.b l z O.c.v.v.v.v.c.l.l.l.6.5.%.@.+.+.@.$.%.",
"+.+.+.+.+.+.+.3.+.+.+.+.+.+.$.5.c.x.$.{ 5 # r t y y y u % O o o 3 H ~ J G D D D j u O j O.$.x.c.c.v.x.x.%.%.5.5.7.+.+.+. .+.+.$.",
"b.b.b.b.b.b.b.N.b.b.b.9.b.9.b.N.D.D.| j & @ r t t r + % R Q Q Q [ 1.2.^ 3 4 g g i @ . z w.9.b.n.n.n.b.b.b.b.b.N.b.b.b.9.9.9.n.n.",
"l.l.%.l.l.l.l.#.#.l.z.b.G.8.5.5.5.} c a s d d p r @ & 6 7.6.5.x.%.5.c.Q O u d d d d i c  .4.%.l.%.%.$.@.@.@.@.%.$.%.%.%.M.c.l.z.",
"l.l.#.l.l.l.l.l.l.l.l.x.M.4.$.$.+.5 h t.p.a.p.k @ O z 3.w.5.%.x.$.%.l.E $ v a.a.a.p.p.v 2 ` %.%.%.%.%.o.o.@.@.@.%.%.%.$.6.x.l.l.",
"z.z.l.l.l.l.#.l.l.l.z.c.b.4.5.$.+.) ] k.h.h.h.] ( Q  .8.w.6.%.%.%.%.5.O.E ] h.h.j.j.j.] [ +.%.%.%.%.%.@.@.@.%.%.$.#.%.%.b.x.l.z.",
"l.l.l.#.#.#.#.#.#.l.l.5.b.4.@.@.+.$.5.$.+.+.+.@.+.$.5.5.G.5.$.$.$.$.$.%.+.O.+.@.%.$.%.5.M.5.%.%.@.%.%.o.o.@.@.@.%.%.%.$.5.$.#.l.",
"b.b.c.6.5.5.6.c.b.c.b.b.M.8.8.8.6.b.b.8.+.+.5.5.4.4.5.8.D.9.9.b.b.6.9.8.3.4.4.8.6.6.6.9.M.9.9.b.6.b.b.5.4.4.6.6.6.6.6.9.9.8.6.b.",
"Z.Z.Z.Z.J.D.Z.Z.Z.Z.Z.D.M.b.b.c.6.b.b.b.M.c.x.x.x.x.x.c.M.G.D.D.D.D.D.J.D.9.5.5.6.6.6.b.M.D.b.m.b.b.c.6.w.9.9.6.6.6.6.M.L.J.Z.Z.",
"v.c.c.c.n.m.c.c.c.c.c.v.n.5.$.+.+.@.$.$.6.%.o.o.#.#.l.l.n.n.b.b.m.m.b.b.b.4.+.+.$.4.$.4.b.6.$.%.%.%.%.o.8.7.3.4.4.+.+.5.M.m.c.c.",
"v.v.c.c.b.m.v.v.v.v.v.m.b.5.@.+.+.$.$.$.5.@.o.o.l.l.l.#.b.b.b.b.m.m.b.b.8.4.+.+.4.5.5.5.8.6.$.%.l.$.%.@.4.4.4.4.4.4.4.8.b.b.c.c.",
"x.%.#.#.4.5.%.x.x.x.x.x.6.5.+.+.@.$.$.$.3.+...X.o.o.o.o.4.6.b.b.b.m.n.b.8.+.+.+.+.+.3.+.7.5.%.%.l.$.%.$.7.3.+.3.+. .+.3.8.6.%.%.",
"4.3. .+.9.8.3.7.4.4.4.4.9.3.+.+.+.+.+.+.7.3.}  .3.4.4.4.9.7.6.6.c.6.4.4.7.4. .2.3.3.3.7.8.4.$.5.5.5.+.+.8.8.3.3.7.3.4.8.G.9.4.+."
};
