/* XPM */
static char *_ac72584c9b74b74972e046d9932c8a8x1XyZlXJFtlJKmos[] = {
/* columns rows colors chars-per-pixel */
"64 64 199 2 ",
"   c #151514",
".  c #181815",
"X  c #1C1915",
"o  c #161718",
"O  c #171919",
"+  c #1A1C1C",
"@  c #311F0F",
"#  c #271E14",
"$  c #211E1A",
"%  c #38220E",
"&  c #24221E",
"*  c #2A241C",
"=  c #332315",
"-  c #382717",
";  c #3B2A1C",
":  c #1B1E22",
">  c #1D2124",
",  c #1F232B",
"<  c #262521",
"1  c #292722",
"2  c #2A2925",
"3  c #21262C",
"4  c #232A2C",
"5  c #2D2C28",
"6  c #352F26",
"7  c #33312C",
"8  c #3C342C",
"9  c #212730",
"0  c #252B35",
"q  c #2A2D35",
"w  c #262E3A",
"e  c #263135",
"r  c #283134",
"t  c #27323B",
"y  c #2A333C",
"u  c #3A3734",
"i  c #32363D",
"p  c #34383F",
"a  c #43260D",
"s  c #47280D",
"d  c #422D19",
"f  c #532F11",
"g  c #47311D",
"h  c #56351A",
"j  c #603715",
"k  c #643E1E",
"l  c #493628",
"z  c #583B24",
"x  c #423D33",
"c  c #4A3B33",
"v  c #3F413C",
"b  c #73441D",
"n  c #79471D",
"m  c #7A481D",
"M  c #55422D",
"N  c #45433C",
"B  c #494439",
"V  c #49453B",
"C  c #5B4333",
"Z  c #524C3E",
"A  c #694525",
"S  c #7D4E29",
"D  c #6B4F39",
"F  c #774F33",
"G  c #2A3642",
"H  c #2D3B44",
"J  c #2F3D49",
"K  c #343A41",
"L  c #303E4C",
"P  c #2E4048",
"I  c #31424D",
"U  c #334552",
"Y  c #364A54",
"T  c #3C4D53",
"R  c #374C59",
"E  c #394D5B",
"W  c #3A525D",
"Q  c #3C5462",
"!  c #3D5965",
"~  c #3F5B6A",
"^  c #444646",
"/  c #4C4C4B",
"(  c #534E43",
")  c #5B4E40",
"_  c #514E4A",
"`  c #55524A",
"'  c #595448",
"]  c #5C574B",
"[  c #495558",
"{  c #5D5952",
"}  c #515E5F",
"|  c #625C4E",
" . c #6B5D4C",
".. c #655F53",
"X. c #6C6554",
"o. c #686458",
"O. c #6B665A",
"+. c #6E695B",
"@. c #716755",
"#. c #746A56",
"$. c #7B6E56",
"%. c #706758",
"&. c #746C5B",
"*. c #796E5A",
"=. c #7E7057",
"-. c #77705F",
";. c #7C725D",
":. c #435A63",
">. c #415E6B",
",. c #46626D",
"<. c #456574",
"1. c #4B6976",
"2. c #486878",
"3. c #536C75",
"4. c #6A6B63",
"5. c #736E62",
"6. c #767163",
"7. c #7B7464",
"8. c #7F7867",
"9. c #777469",
"0. c #7C7669",
"q. c #7E796B",
"w. c #7F7C70",
"e. c #83532A",
"r. c #8F572A",
"t. c #985C2B",
"y. c #885B37",
"u. c #9E602E",
"i. c #9A6235",
"p. c #99663A",
"a. c #A9652C",
"s. c #B16A2F",
"d. c #A46836",
"f. c #B56C30",
"g. c #9F6F44",
"h. c #81755C",
"j. c #85785E",
"k. c #A17248",
"l. c #817661",
"z. c #847A64",
"x. c #8A7D65",
"c. c #837C6B",
"v. c #857E6E",
"b. c #897E6A",
"n. c #837E71",
"m. c #847F71",
"M. c #8D8067",
"N. c #8E8167",
"B. c #87806E",
"V. c #8B816D",
"C. c #918166",
"Z. c #91846B",
"A. c #868071",
"S. c #868173",
"D. c #868276",
"F. c #8A8473",
"G. c #8F8876",
"H. c #878478",
"J. c #8A8679",
"K. c #8E897C",
"L. c #918671",
"P. c #938974",
"I. c #998D76",
"U. c #918B7B",
"Y. c #4A6E81",
"T. c #4D7384",
"R. c #4E7688",
"E. c #547788",
"W. c #547A8C",
"Q. c #567E91",
"!. c #627B83",
"~. c #548095",
"^. c #5C8496",
"/. c #58859A",
"(. c #5A899F",
"). c #718282",
"_. c #698993",
"`. c #618A9D",
"'. c #5C8DA4",
"]. c #638DA1",
"[. c #6592A6",
"{. c #6396AD",
"}. c #6B96A9",
"|. c #6C98AE",
" X c #679CB3",
".X c #6C9CB2",
"XX c #71A2B7",
"oX c #72A5BC",
"OX c #76ADC5",
"+X c #7AAEC6",
"@X c #7CB4CD",
"#X c #7FB9D2",
"$X c #928E81",
"%X c #959084",
"&X c #81BBD4",
"*X c #84BFD8",
"=X c #87C2DB",
"-X c #89C5DF",
";X c #8AC6E0",
/* pixels */
"J.H.n.q.q.m.D.D.F.D.J.K.J.A.v.v.v.A.n.c.c.v.c.c.m.F.A.c.c.m.v.c.c.q.n.A.n.J.G.J.A.J.K.G.J.G.G.G.P.U.D.D.D.H.J.K.H.D.H.J.J.J.H.D.",
"v.c.c.c.z.c.b.b.b.b.b.V.b.z.z.z.z.z.v.v.h.h.h.h.j.z.x.z.z.z.h.h.h.h.q.q.b.V.V.V.V.C.V.C.Z.C.Z.Z.Z.Z.L.J.A.v.A.A.c.c.v.A.A.m.v.c.",
"c.8.0.7.;.z.z.z.z.z.b.b.z.l.l.l.l.l.z.7.=.$.=.=.h.h.j.h.h.h.h.=.=.=.7.0.x.x.b.N.N.b.N.V.V.V.V.V.V.V.V.m.c.c.c.c.c.c.c.c.c.c.c.8.",
"c.8.7.6.l.z.b.b.b.b.b.b.b.z.h.l.z.z.7.7.=.=.h.h.h.h.h.h.h.h.h.h.h.=.8.c.x.b.N.C.C.N.V.V.C.C.N.V.C.C.b.q.c.c.v.c.c.c.c.c.c.c.c.0.",
"0.7.9.5.7.8.z.8.c.b.b.b.z.l.-.-.;.7.7.5.&.*.*.*.;.;.;.;.;.;.;.-.;.-.q.q.l.z.z.z.x.b.x.z.z.z.z.z.x.b.8.0.0.8.0.6.8.7.8.8.8.8.0.0.",
"A.A.F.F.A.A.m.q.c.c.m.c.c.8.9.6.7.0.q.c.6.6.0.0.8.c.v.c.c.c.c.c.c.c.c.c.v.v.m.n.n.A.c.c.c.c.c.c.c.m.A.D.m.m.n.q.A.A.A.A.A.J.A.m.",
"V.V.V.V.V.V.F.m.7.-.*.&.&.%.+.%.&.&.&.&.&.&.7.c.;.h.z.h.l.l.l.l.l.l.l.l.l.l.v.D.8.l.-.*.-.-.-.-.-.7.7.-.7.7.c.J.V.V.V.V.V.V.V.V.",
"V.x.x.x.b.b.b.8.&.*.&.&.%.+.+.%.&.&.%.%.%.&.5.8.;.h.h.h.;.h.h.h.h.h.;.;.h.h.z.c.-.;.-.;.-.*.&.-.*.*.&.&.*.-.7.c.V.V.V.V.V.V.V.b.",
"V.b.x.b.b.x.b.8.-.*.&.&.&.&.%.&.&.&.&.&.&.&.5.z.l.l.h.h.h.l.l.l.l.l.h.h.x.j.z.c.7.;.-.;.-.-.&.-.-.-.-.&.&.-.7.c.V.V.V.V.V.V.V.V.",
"z.z.b.b.b.b.c.6.&.&.&.&.&.+.+.%.&.&.&.&.&.&.5.8.l.l.l.h.h.l.l.l.l.l.l.l.z.z.8.0.-.-.*.-.-.-.&.&.-.&.&.&.&.&.&.0.b.V.b.V.V.V.V.b.",
"z.8.c.c.v.v.n.n.0.0.8.6.7.5.5.5.0.0.0.8.8.0.m.D.v.B.v.c.c.c.7.0.c.c.v.v.v.v.D.n.0.0.0.0.0.6.6.9.8.7.8.6.6.6.0.w.c.c.c.m.A.A.F.c.",
"z.z.x.z.x.b.V.V.b.x.x.x.x.8.c.v.P.P.L.L.Z.P.I.I.P.I.P.L.L.L.J.D.B.B.A.A.A.A.G.F.v.v.v.v.v.c.n.m.V.V.V.b.b.b.V.A.V.V.V.b.V.F.G.V.",
"h.h.j.h.h.h.h.h.h.h.h.h.j.7.8.x.C.C.C.C.C.C.x.C.N.b.V.x.x.x.v.0.7.7.z.7.7.7.7.7.7.l.7.l.7.8.w.c.z.z.z.z.z.l.z.z.x.z.z.z.x.b.V.z.",
"h.h.j.j.j.j.j.h.h.j.h.h.j.;.8.x.C.C.Z.Z.C.C.C.C.&.` _ _ _ _ / / / / / ^ x x x N ..7.z.7.8.8.q.c.x.x.x.x.z.l.x.x.z.x.x.x.x.x.V.z.",
"h.h.h.h.h.h.h.=.=.h.h.=.h.;.v.x.N.V.C.C.b.x.x.-.` t H U E E E E I G J y > +   X x X.*.-.7.6.q.z.x.x.x.x.z.z.x.x.x.x.x.z.x.x.b.h.",
"6.7.7.7.6.6.6.6.6.&.7.7.8.c.m.v.b.b.b.b.c.z.6.^ y G <.].OX+X+X+XQ.Q T.2.U t >   X 7 o.5.5.0.n.8.z.b.b.z.z.z.z.b.z.z.z.z.z.c.7.6.",
"H.H.J.J.J.D.D.n.n.q.7.8.c.v.c.v.c.c.c.c.8.o./ y E W..X@X=X;X;X-X].>.~.R.W G 9 : O & N o.A.A.A.A.B.V.V.A.B.v.V.A.n.w.q.q.q.q.q.w.",
"8.8.8.8.8.7.7.7.w.7.&.&.;.;.;.-.&.-.-.&.+.^ w G T.&X-X-X;X;X;X-X].>.~.R.W G 0 0 :     N *.z.x.N.x.x.x.N.x.x.x.V.J.c.7.6.6.6.7.7.",
"7.8.8.7.7.6.6.6.0.6.&.&.;.;.;.*.&.-.-.o.^ y G 2.{.=X;X;X;X;X;X-X].>.~.R.W G 0 0 9 ,   $ 8 #.x.N.x.x.x.x.x.j.z.x.B.8.6.6.&.6.6.6.",
"7.8.8.7.7.7.6.6.0.6.&.&.h.l.;.*.-.7.7.o.i J >.~. XOX*X@X`.^.^.^.<.U ~ ! I 0 > > > :     & X.x.x.x.x.x.x.x.x.x.z.c.8.7.6.6.6.6.7.",
"9.9.6.9.7.7.6.6.9.5.&.&.l.l.7.&.&.&.7.o.i ~ (.'.'.'.oX].U L U U I L L L J 0 3 > 3 3 > O & X.z.z.l.7.z.x.x.x.l.z.q.0.9.9.6.9.9.9.",
"n.w.m.v.V.B.B.B.J.A.c.v.L.F.V.v.q.c.v.5.p ~ '.'.T.E Q Q E E.|.|.|.|.|.|.|.[.^.T.~.`.2.H 1 +.J.J.A.w.A.A.A.B.c.A.J.D.c.c.c.c.c.c.",
"b.J.V.x.N.V.V.x.b.b.b.b.C.C.C.V.A.m.b.&.i Q R.Y.Q w y U <..X;X;X;X;X;X;X;X;X@X{.OX#X{.W 1 &.L.L.G.A.l.l.l.l.7.;.l.l.;.;.;.;.;.;.",
"7.B.x.x.x.x.x.x.x.x.x.x.x.b.b.x.v.c.x.#.i I W J y G Y <./.OX;X;X;X;X;X;X;X;X@X{.OX#X{.W 1 #.Z.Z.F.c.;.h.;.=.=.;.;.;.=.;.;.=.;.*.",
"7.v.V.b.V.x.x.x.x.x.x.x.x.b.b.x.v.c.z.%.i J R G U 2.T.Q.'.OX;X;X;X;X;X;X;X;X@X{.OX#X{.W 1 &.Z.Z.F.c.;.;.;.;.;.;.;.;.;.=.;.;.=.;.",
"7.c.x.x.x.z.x.x.x.x.x.x.x.x.x.x.c.c.j.&.i J E N { ).`.(.~.`.}.}.}.}.}.}.}.}.`.R.^.`.T.P 1 &.Z.Z.V.8.;.=.=.=.;.;.;.;.;.;.;.=.;.;.",
"n.D.m.v.b.7.0.c.b.c.b.c.c.8.c.v.n.n.v.5.i J [ y.d.k.).W.~ H 4 4 4 4 4 4 4 4 4 > , 4 > + 1 o.A.A.D.n.0.8.8.7.8.c.c.c.8.c.8.7.7.8.",
"J.K.J.J.J.D.A.F.V.V.Z.Z.F.A.F.G.P.G.U.0.K J [ p.f.d...R t 3 :   O :   O : o o : O       1 5.D.c.n.c.q.c.A.J.J.A.A.J.F.A.J.K.J.J.",
"A.J.A.A.V.A.V.V.C.N.N.C.V.V.A.V.F.F.F.9.p G ^ y.i.r.c , O , 0 + , 0 : > 0 > > 0 >     + 7 5.q.7.7.7.7.8.8.D.A.b.v.V.V.v.B.J.J.A.",
"G.G.F.A.B.m.V.Z.V.V.V.C.V.v.b.F.V.V.F.6.p , < 7 u u q , O y I 0 H U w y U t t I 4     x @.8.0.7.7.7.7.8.c.A.B.b.V.V.F.V.A.J.J.J.",
"G.G.A.A.v.n.V.Z.C.V.V.V.V.c.c.b.v.b.A.c.{ 7   : , 0 G H y ,.^.W.Q.^.W.W.^.W.W.^.T.W > V h.c.0.8.7.7.7.8.c.n.v.b.b.V.V.V.B.D.J.G.",
"J.J.F.m.n.D.L.L.V.V.V.V.b.q.c.v.v.v.A.F.D.` & . + 0 I E Q `.@X&X&X&X&X&X&X&X&X&X@X].4 V z.D.n.c.c.q.q.c.A.J.D.c.A.F.J.A.n.H.J.F.",
"F.V.V.b.b.b.b.x.x.z.z.z.8.n.A.V.V.V.V.F.G.8.| 1   + 0 J W <.W.{. X X X X X X X X^.:.> V c.D.A.A.B.c.c.A.D.J.A.c.A.J.J.J.K.K.F.V.",
"z.l.l.h.l.h.z.z.z.h.h.h.c.c.z.x.z.x.x.b.x.7.4.:.:.:.Q R I H I ! >.>.>.>.>.>.>.~ U e O 7 { 7.8.z.z.z.z.8.z.8.8.z.z.c.c.c.J.V.z.z.",
"l.l.l.l.l.z.z.z.z.h.h.h.c.c.x.x.z.z.x.z.l.4.3.oX&X@X.XT.H 3 + > > + + + + + + + + +   O 2 ..-.z.z.z.z.z.8.8.c.z.c.c.c.c.A.b.z.l.",
"h.h.h.l.h.z.z.z.l.h.;.;.c.c.z.x.z.z.z.#.V 3.XX*X;X-X#X[.W I H H e , , :   : , , t y 3 , 3 7 ( 7.c.c.z.z.z.8.z.z.c.c.c.8.c.b.z.h.",
"l.7.l.z.z.l.z.l.l.;.&.&.c.c.7.-.-.-.-.| & 1.=X;X;X;X;XXX>.W W W U H U I G I U H U Y t 0 9 O u 7.c.c.c.8.c.c.8.8.c.c.8.0.n.c.z.7.",
"A.A.A.J.A.A.F.A.A.c.8.q.D.D.n.q.q.n.D.o.1 1.=X;X;X-X=X.X>.W Q Q Q >.W./././.R.! Q R t 0 9 O N A.J.J.J.J.J.J.J.J.K.K.J.J.%XU.G.A.",
"z.z.c.b.c.z.c.c.z.c.n.q.0.0.8.0.0.q.n.o.1 :.oX*X;X*X|.1.H ! R.R./.|.OXOXOXOXoX}.^.<.G 0 9 O N b.V.V.F.V.V.F.F.F.P.U.U.G.F.V.b.z.",
"z.z.z.z.z.l.l.z.z.c.c.6.&.&.&.&.&.&.6...7 T R.[..X}.,.y + W ~.~.{.+X@X#X#X#X@XOX[.2.y 3 3 5 ( b.V.V.V.V.b.V.V.F.P.P.J.A.b.c.z.7.",
"7.z.z.z.z.7.l.z.l.0.q.5.&.&.&.&.&.&.7.&...N 4 4 q 4 > O O H >.>.>.2.(.{.{.{./.1.>.R > o 1 | 8.b.V.V.V.V.V.V.V.V.F.P.J.V.b.z.z.7.",
"-.7.z.7.7.;.7.l.7.7.c.&.+.&.&.&.&.&.&.&.&.] N N 7 . + : > H W W W >.~.'.'.'.W.! U y O 5 ( 6.v.b.b.v.b.V.V.V.V.V.F.F.D.c.b.z.7.-.",
"8.c.c.c.c.0.8.8.c.n.n.9.5.5.0.0.0.0.0.7.7.0.q.8.` + > 3 q K T T [ } !._._._.!.[ K 3 < _ q.8.A.A.A.A.A.A.A.A.A.D.F.J.$XD.0.8.8.8.",
"z.b.b.V.V.b.c.z.b.A.b.c.c.8.c.z.z.z.z.l.l.z.z.b.' O   $ - d g g F p.k.k.k.k.g.p.l 2 { 9.n.8.b.b.b.b.b.b.b.b.b.b.b.L.P.K.J.v.b.z.",
"h.l.z.c.z.l.h.h.l.l.z.z.c.7.h.h.h.h.;.*.*.=.;.h.( X   X - ; ; ; z F F S e.S S S d 1 @.8.n.7.;.l.l.l.l.;.;.7.l.l.l.b.b.B.A.x.z.;.",
"h.l.z.b.x.l.h.h.l.l.z.z.0.-.h.h.h.h.h.=.*.=.=.=.Z X . > 0 w 0 0 q y y 8 h 8 8 f = 2 | 6.n.7.;.7.l.l.l.;.l.l.l.l.x.b.b.b.v.b.z.l.",
"h.z.z.x.z.l.h.h.l.l.z.c.c.7.;.;.;.;.;.=.$.*.$.&.Z + e I U U I w H U U ) e._ _ e.l 3 7 ' n.7.7.l.l.l.l.;.;.;.l.z.x.x.z.z.c.x.x.l.",
"7.z.z.z.z.8.7.7.z.z.b.v.D.n.v.v.v.v.v.c.8.8.6.] v r I W W Y L w J W W  .d.| | d.C 3 O N q.0.8.8.c.c.8.7.7.7.7.7.8.c.z.8.q.c.c.l.",
"8.c.c.c.8.c.c.0.8.l.z.l.z.b.v.V.V.V.v.b.z.c.&.7 q U E E R H 0 0 J W W  .p.{ { p.C , O V 0.A.A.F.F.F.F.A.B.v.m.n.n.v.m.F.J.m.v.c.",
"*.-.;.-.&.*.-.c.7.;.;.;.*.;.l.l.l.l.h.;.*.;.+.5 > G H y 4 > + : y W W [ | [ [ ] u +   1 V *.x.x.x.x.x.x.z.z.z.A.c.7.7.7.-.-.;.-.",
"&.*.=.*.#.&.&.6.-.*.;.;.;.;.l.z.z.l.;.*.*.X.' l l c c l ; #     e W W W W W W W u ; ; # & X.z.x.x.x.x.z.j.j.z.z.8.;.-.-.&.-.-.*.",
"#.&.&.&.#.*.$.&.&.*.*.;.=.;.;.l.z.l.;.;.*.V ; e.u.u.u.u.t.g     e W W W W W W [ D t.t.z 1 X.z.x.x.x.x.z.h.h.h.8.7.;.*.&.&.*.-.;.",
"&.&.&.&.&.&.&.5.&.&.&.&.&.&.-.7.z.l.7.+.V 6 % k n n n b h =     > e e e r u x x A b k M ( &.l.z.z.x.l.l.;.;.7.7.9.&.&.&.+.&.&.-.",
"c.c.c.c.c.c.c.m.c.c.c.q.c.q.c.m.A.A.0.] * @ s s s s a - 1 1 1 1 1 1 1 $ . % s s s % X V n.q.c.v.v.v.c.c.c.c.c.m.c.c.c.q.q.q.v.v.",
"h.h.;.h.h.h.h.=.=.h.j.c.D.0.7.7.z.7.V * % a s s s a # 7 o.o.X.X.X.X.%.V X % s s s % X V D.8.;.h.;.;.-.*.*.*.*.;.-.;.;.;.n.z.h.j.",
"h.h.=.h.h.h.h.h.h.h.h.l.n.6.-.-.+.Z M k n m b f % = 8 ` q.7.;.l.-.;.h.Z # h m m m n k M ` +.;.h.;.;.;.$.$.*.*.*.;.;.;.-.8.l.h.h.",
"j.j.h.h.h.h.=.h.h.h.j.z.c.6.7.-.] * A s.s.s.a.j % $ ' 7.w.8.;.;.;.;.;.Z * S s.s.s.s.s.A 1 | ;.;.;.;.;.*.*.*.;.;.-.=.;.;.c.l.h.j.",
"h.h.h.=.=.=.=.=.=.h.h.7.c.6.*.*.&.-.;.-.&.#.*.*.&.&.-.7.D.7.-.-.-.-.-.&.%.%.#.*.=.;.;.7.q.6.;.;.*.;.;.$.$.*.*.*.;.;.;.-.7.-.=.h.",
"c.c.z.8.7.7.8.z.c.z.c.c.n.0.0.0.8.c.c.0.&.&.7.7.6.6.7.0.A.q.q.c.c.8.q.0.5.6.9.0.8.8.8.q.n.q.q.c.8.c.c.7.6.6.8.8.8.8.8.q.q.0.8.c.",
"V.V.V.V.F.A.V.V.V.V.V.A.n.c.c.z.8.c.c.c.n.z.l.l.l.l.l.z.n.D.A.A.A.A.A.F.A.q.7.7.8.8.8.c.n.A.c.b.c.c.z.8.w.q.q.8.8.8.8.n.H.F.V.V.",
"x.z.z.z.v.b.z.z.z.z.z.x.v.7.-.&.&.*.-.-.8.;.$.$.=.=.h.h.v.v.c.c.b.b.c.c.c.6.&.&.-.6.-.6.c.8.-.;.;.;.;.$.0.9.5.6.6.&.&.7.n.b.z.z.",
"x.x.z.z.c.b.x.x.x.x.x.b.c.7.*.&.&.-.-.-.7.*.$.$.h.h.h.=.c.c.c.c.b.b.c.c.0.6.&.&.6.7.7.7.0.8.-.;.h.-.;.*.6.6.6.6.6.6.6.0.c.c.z.z.",
"l.;.=.=.6.7.;.l.l.l.l.l.8.7.&.&.*.-.-.-.5.&.#.#.$.$.$.$.6.8.c.c.c.b.v.c.0.&.&.&.&.&.5.&.9.7.-.;.h.-.;.-.9.5.&.5.&.+.&.5.0.8.;.;.",
"6.5.+.&.q.0.5.9.6.6.6.6.q.5.&.&.&.&.&.&.9.5.o.+.5.6.6.6.q.9.8.8.z.8.6.6.9.6.o.5.5.5.5.9.0.6.-.7.7.7.&.&.0.0.5.5.9.5.6.0.D.q.6.&."
};
