/* XPM */
static char *aec2aa7f5a2d438be98304d79e248da3kb18JMmG6oC8FZtI[] = {
/* columns rows colors chars-per-pixel */
"64 64 242 2 ",
"   c #020202",
".  c #090706",
"X  c #0B0B0B",
"o  c #0E0D0F",
"O  c #19120D",
"+  c #0C1218",
"@  c #141413",
"#  c #191613",
"$  c #1B1A1A",
"%  c #2E190F",
"&  c #281A13",
"*  c #2C231B",
"=  c #39281C",
"-  c #0C1422",
";  c #111823",
":  c #171D28",
">  c #0B1632",
",  c #091636",
"<  c #271E30",
"1  c #1D232B",
"2  c #1B2535",
"3  c #232323",
"4  c #2A2A2C",
"5  c #322C32",
"6  c #363739",
"7  c #432D1E",
"8  c #463428",
"9  c #54392F",
"0  c #453939",
"q  c #553D34",
"w  c #603F3D",
"e  c #5D461C",
"r  c #674B1F",
"t  c #5A4228",
"y  c #4B463F",
"u  c #56493A",
"i  c #755724",
"p  c #6E4D30",
"a  c #6A4835",
"s  c #7C632D",
"d  c #051743",
"f  c #111D4F",
"g  c #071C58",
"h  c #152653",
"j  c #212141",
"k  c #222E41",
"l  c #273446",
"z  c #3A3B45",
"x  c #2D3E57",
"c  c #333355",
"v  c #0A2565",
"b  c #152C6A",
"n  c #082877",
"m  c #142F73",
"M  c #15327B",
"N  c #2A3967",
"B  c #4E3A4A",
"V  c #3E4245",
"C  c #2F415B",
"Z  c #3F4650",
"A  c #30425D",
"S  c #354870",
"D  c #46474A",
"F  c #584A45",
"G  c #5C5347",
"H  c #464C53",
"J  c #4A5358",
"K  c #4C5459",
"L  c #56585A",
"P  c #6E534E",
"I  c #67594C",
"U  c #79644C",
"Y  c #69645B",
"T  c #796855",
"R  c #7E7452",
"E  c #45546F",
"W  c #5C6970",
"Q  c #646564",
"!  c #777466",
"~  c #69727A",
"^  c #757979",
"/  c #844831",
"(  c #88573D",
")  c #A65638",
"_  c #856425",
"`  c #987429",
"'  c #917432",
"]  c #A47E2E",
"[  c #855C42",
"{  c #89654D",
"}  c #996649",
"|  c #9B6B51",
" . c #887659",
".. c #9A7459",
"X. c #A46949",
"o. c #AB7254",
"O. c #B87A56",
"+. c #877863",
"@. c #977969",
"#. c #897C74",
"$. c #AD7E63",
"%. c #C1704B",
"&. c #AB832C",
"*. c #B1892E",
"=. c #A88736",
"-. c #BC9538",
";. c #978442",
":. c #B19444",
">. c #9A8569",
",. c #89847A",
"<. c #938879",
"1. c #A88668",
"2. c #B98C69",
"3. c #A6957B",
"4. c #B19375",
"5. c #C09F43",
"6. c #C4815A",
"7. c #D28159",
"8. c #D2B14E",
"9. c #CC8F68",
"0. c #D7956D",
"q. c #D99B73",
"w. c #E3976D",
"e. c #D1A37E",
"r. c #E4A479",
"t. c #0F3284",
"y. c #163789",
"u. c #163C95",
"i. c #1F418C",
"p. c #1B429A",
"a. c #29488E",
"s. c #1E46A3",
"d. c #254CA3",
"f. c #244DAC",
"g. c #2851AB",
"h. c #3659A5",
"j. c #2954B6",
"k. c #2A55B6",
"l. c #2B56B9",
"z. c #4B6086",
"x. c #6B7B84",
"c. c #797D81",
"v. c #76828A",
"b. c #7C8B94",
"n. c #7697A6",
"m. c #74BAE7",
"M. c #848582",
"N. c #8F8F8B",
"B. c #969788",
"V. c #8A9498",
"C. c #959996",
"Z. c #959B9C",
"A. c #A49E87",
"S. c #BA9883",
"D. c #97A19E",
"F. c #AAA486",
"G. c #B8A987",
"H. c #BAAF91",
"J. c #BCB496",
"K. c #8A99A2",
"L. c #939DA4",
"P. c #9BA5A8",
"I. c #8BA7B3",
"U. c #98A8B3",
"Y. c #A5A7A8",
"T. c #A8B5BB",
"R. c #B2B7B7",
"E. c #C7AB87",
"W. c #D2B990",
"Q. c #E9B286",
"!. c #E7B68A",
"~. c #C3AEA3",
"^. c #C7B9A7",
"/. c #CCC29D",
"(. c #D6C49B",
"). c #E5CC9E",
"_. c #F3CA9A",
"`. c #D8CFA6",
"'. c #EFD3A6",
"]. c #E7D7A9",
"[. c #F4D8A8",
"{. c #F3E1B1",
"}. c #F6E2B2",
"|. c #F8E3B3",
" X c #FAEBBA",
".X c #87B3C6",
"XX c #A9BDC7",
"oX c #B5BEC3",
"OX c #ABC1CB",
"+X c #B5C3CC",
"@X c #AECAD9",
"#X c #BACBD5",
"$X c #B7CDD8",
"%X c #90CEF3",
"&X c #8CD4FB",
"*X c #96D7F9",
"=X c #9DDCFB",
"-X c #AAD3E7",
";X c #BFD9E7",
":X c #ADDFF7",
">X c #A4DDFB",
",X c #AADDFA",
"<X c #B5DEF8",
"1X c #A5E0FB",
"2X c #ACE2FB",
"3X c #BBE1F3",
"4X c #B4E4FC",
"5X c #BBE6FC",
"6X c #BEE8FC",
"7X c #CCCFCD",
"8X c #C7CED2",
"9X c #C4D2DB",
"0X c #CBD5DA",
"qX c #D7D9DB",
"wX c #E0DDD9",
"eX c #C5DAE5",
"rX c #C9DBE6",
"tX c #C3DDEA",
"yX c #D6DEE5",
"uX c #CBE1EE",
"iX c #D6E4EC",
"pX c #CBE6F4",
"aX c #C3E6FB",
"sX c #C4EAFD",
"dX c #CCECFD",
"fX c #D5E7F3",
"gX c #D4E9F6",
"hX c #D3EEFD",
"jX c #D9EFFD",
"kX c #D6F0FD",
"lX c #D7F0FD",
"zX c #DAF0FE",
"xX c #DCF1FE",
"cX c #DEF2FE",
"vX c #E9ECED",
"bX c #E2EDF5",
"nX c #E1F3FE",
"mX c #E3F3FE",
"MX c #E6F4FD",
"NX c #EAF6FD",
"BX c #EEF8FE",
"VX c #F5F8FB",
/* pixels */
"mXmXNXBXBXBXBXNXNXmXmXmXmXmXcXcXcXmXcXjXlXjXsXdXlXmXmXmXcXhXhXhXhXhXcXcXhXlXhXdX6X5XhXhXhXhXlXcXcXhXcXcXcXcXhXhXlXcXhXaX5XcXcXNX",
"NXmXmXmXmXmXmXmXcXcXNXNXmXmXmXmXmXNXmXcXjXdXhXhXmXmXcXjXhXdX4X6X-XI.$XdXsX5XaXsXdX6X5XhXhX6X5X2XsXhXmXhXcXhXcXcXzXcXdXmXNXmXmXmX",
"6X5XsXmXmXcXmXmXmXcXhXlXlXmXmXNXmXmXcXcXjXhXhXcXcXjX$Xv.OXI.x.L V K +XrXuXgXpXpXdXcXcXdXdXsXsXsX4XhXNXcXcXhXcXhXsXlXmXmXmXmXmXmX",
"hXzXlX4XcX5X=X>XmXmXmXmXhXdXcXNXcXcXcXcXhXhXhXlXdX@XK 6 K 3 @ $ 3 5 V K W ~ W OXdXdXdXdXdXcXcXhXsXsX6XdXjXlXcXmXmXmXmXcXcXmXmX5X",
"hXhXdXsX*X5XsX5X*X2XdXhXhXdXdXhXjXcXjXhXhXhXhXjXeXK $ 3 @ .       . X @ 4 D U.pXdXsXsX4XdXhXhXhXcXhX4XdXhXhXcXcXcXmXcXcXcXcXdXsX",
"dXdXsXaX5X5X5X6X5X,X5XsXsXdXhXdXhXhXhXdXdXhXjXeXb.$ . X               . @ 6 x.@XsXdXdXsX4XdXhXhXhXlX2XdXdXhXlXcXcXcXcXmXmXcX2XdX",
"dXaXsXsX5X5X5X4X4X5X2XsXsXdXhXdXdXdXdXsXhXgXK.V 5 # X                     . @ 6 b.pXhXhXaX5XsXhXhXhX=XhXhXhXhXjXcXcXmXmXmXdXdXdX",
"dXhXdXdXdX5X4X=X5X5X6XdXdXhXhXhXdXdXdXdXjXeXz 3 @ X X         O . X X   X . @ 3 6 v.pXhXhX5X6XhXcX4X4XhXdXhXhXhXhXjXcXmXlXjXdXdX",
"hXhXdXdXsX5X4X>X4X4X6XdXcXsXhXcXcXdXdXhXgXK.4 X @ $ . .     . ..9   $ X X 3 $ $ J J v.pXhXhX5X&X*XsXhXhXdXdXhXhXhXhXjXcXdXhXdXdX",
"sXdXdXdX5X5X4X1X4X4XsXhXdXhXhXcXcXhXdXhX$X6 X . @ . . X     = ).G.X @ @   3 3 X H XXK.eXjXhX2X*XhXcXmXcXlXhXhXhXhXhXhXsXcXdXdXdX",
"sXsXdXdXsX5X4X4X1X5XdXdXhXhXhXcXjX1XdXpX~ 4 @   .   @ X & O [ }.].G X O O o 3 . $ L.pXjXjX4X,XcXhXhXjXcXcXcXhXhXlXhXhXdXhXzXdXdX",
"dXsXdXdXsX5X5X5X>XsXdXdXhXhXhXcXsX:XdXtXV.6 .     . @   9 * 9.|.}.H.$ & 8 . $   X D tXdXhXaXjXcXhXhXhXhXjXhXhXhXdXhXhXhX6X5XdXsX",
"hXsXsXdXsXsXaXsX4X4XdXhXdXhXjXjX1XsXdXhX$X3 .   X X X . [ 8 !.}.}.}.F & p 7 X     @ v.pXjXcXcXcXcXhXdXhXlXlXhXhXhXdX2X6XhXhX6XdX",
"hXsXsXdXsXdXdXdXdX2XsXdXdXhXhXdX2XdXhXhXXX$ .   & X . O X.a _.}.}. X3.= } a X     4 J U.hXhXcXmXcXhXlXjXdXdXhXhXhX2XaXjXcXcXdXcX",
"hXhXdXsXsXdXdXdXdX4X,XdXhXhXhX2XsXdXhXgXv.@ X   @ . . = o.[ [.}.}.}.(.q O.[ O     V $XtXcXcXhXcXcXcXlXhX4XsXdXhX4X4XhXhXlXcXcXjX",
"hXlXhXdXdXdXdXdXdXdX=XsXhXhX=X2XhXdXdXOX' = $ @     = a 6.( (. X|.[.].{ o.} O     D tXhXhXcXcXhX4XdXhXhXhXhX2X2X&XdXhXhXhXjXjXhX",
"hXhXhXhXdXdXdXdXdXdXdX&X4X*XaXhXdXdXtX<.=.7 = # @   a ( B.Y.M.G.'.|.].@.#...O   4 H ;XhXcXhX=X4XhXhXhXhXhXzXzX5XdXdXhXhXhXhXhXhX",
"cXhXhXhXhXhXhXhXhXhX,Xm.>XhXcXcXhXhX#X;.;.8._ * a   ( O.wX7XZ./.'. XJ.qXY.S.& . v.x.;XdX*X>XcXcXjXcXcXcXcXmXzX<XdXdXhXhXhXhXhXcX",
"NXcXhXhXhXhXhXhXdX4X*X5XcXjXcXcXjXhXD.;.8.-._ 8 } % X.!.^.wX7X].|.}.2.~.~...u D K.%X2X*XdXhXjXcXcXcXcXcXcXcXcX2X,XhXhXhXcXcXcXmX",
"mXcXhXhXhXsXdXdX4XaXlXhXhXhXhXhXhXhXN.:.8.*.` s U / } |.].`.].}.|. X2.X.} U J m.@X5X5XcXhXhXhXlXcXcXcXcXcXcXcX<XmX6XhXhXcXcXmXNX",
"mXmXhXhXmXcX2X4XhXcXcXhXhXhXhXhXhXhX^ 8.-.*.] _ t a t ).}.|.|.|.}.(.2.0.0.Y #X5XjXdXdXhXhXhXsXhXhXjXmXcXcXcXcXaXcXaXhXhXjXcXNXmX",
"mXmXhXmXmXdXdXjXcXcXcXhXhXdXhXhXhXhXN.-.*.&.&.i r _ i  .{.}.].(./.E.6.w.1.Y rXjXdXaXmXmXmXcXsXhXhXhXcXcXcXcXcXdXhXdXhXcXjXmXmXmX",
"mXmXmXcXdXhXjXhXhXcXcXhXdXdXdXdXdXhXB.=.` ` i r _ _ r : +.`.(.`./.4.7.| i R eXjX>XcXmXmXmXmXcXhXlXhXzXhXhXhXhXcXaXhXhXcXjXcXmXmX",
"cXcXcXdXhXcXzXhXhXcXcXdXdXdXsX4XsXdXB.5.*.&.` r t u < B O.(  .G.W.9.p e s +.rXzX2XmXmXmXmXmXmXcXhXhXdXhXhXhXhXhXdXjXhXhXzXcXcXcX",
"cXmXhXhXcXhXhXhXhXcXcXsXdXhXdXdX6X4XV.:.*.&._ 8 g v c F 9.q.%.p q 5 g : r B.fX4XdXmXmXmXmXmXmXcXcXhXhXhXdXhXhXhXdXjXhXhXjXcXcXcX",
"mXcXhXcXlXdXhXhXdXsXdXdXhXhXhXhXdX>XI.' ] ` U E.c u.y.b D +.{ F $.B n h u Y.dX=XcXcXmXmXmXmXmXcXhXlXcXhXhXhXhXhXdXcXhXcXjXcXcXmX",
"cXhXhXlXhXcXhX6XdXhXhXdXhXhXhXlXcXdXrX .] ` G._.P u.l.f.m w I Y ..c n z ,.9X>X5X6XcXcXmXmXmXmXcXhXcXhXhXhXhXhXsX5XdX5XjXhXcXcXmX",
"mXcXcXhXcXdXsXhXhXhXhXhXcXcXcXcX5XhX6XP.=.s `._.o.y.l.l.j.M F E.@.b n 5 3..X:X6XhXdXsXcXmXmXmX6XmXcXcXhXdXhXhX>XjXhXdXlXcXjXcXmX",
"mXcXhXsX4XhXhXhXhXhXhXcXcXcXcXjX2X5X:XtX!  .}.!.| y.l.l.l.l.t.B N s.n < 2.T.cXmXmXcXmX4XcXmXaXdXmXmXcXcXhXhXdX2XhXdXhXhXcXcXNXmX",
"mXcXsX5XhXhXhXhXhXhXhXcXcXcXcXcX=XmX4XhXU.G.}.9.a y.l.l.l.j.f.v E d.n < O.C.iXmXmXmXcXmXdXaX2XcXmXmXBXmXhXhXdXdX5XhXhXhXcXmXmXmX",
"cXmX5XhXhXdXdXdXhXhXlXzXcXcXcXzX5XhX5XdXC.]._.} F u.l.j.j.l.j.v a.g.n j o.<.;XmXmXmXmXmXcX:X4XcXcXNXNXmXhXdXdXdXsXsXhXhXlXNXmXmX",
"mXsXcXlXdXsX,XdXdXdXzXzXzXcXcXcXsXdXdXtXB. XQ.q f u.l.l.l.l.j.b g.j.n f ) 4.P.jXmXmXmXmXmXaXdXmXcXcXmXcXhXhXhXdXdX5XhXhXmXcXmXmX",
"mXsXcXcXcXdXdXdXdXdXcXcXhXhXhXcXdXdXhXXXJ.|.0.L b y.l.l.l.l.l.n S h.y.g / o.3.#XjXcXcXcXcX2XlXmXmXmXcXcXcXhXhXhXhXdX6XhXmXcXmXmX",
"mXdXcXcXcXcXdXdXdXdXdXdXdXdXhXhXsX5XdXU.`.'.$.T.S n f.l.l.l.l.M a.h.f.n 8 %.E.Z.gXjXcXcXjX5XhXNXmXmXmXmXcXhXhXhXhXhXaXsXmXcXmXmX",
"mXdXdXhXcXzXhXdXsXsXdXdXdXhXhXdXsXdXuXB.{.!...uXE n p.f.j.j.l.y.i.l.l.y.f X.0.3.+XjXjXhXhX5XhXBXmXmXmXmXcXcXhXhXhXhXhXaXdXcXcXmX",
"mXcXdXhXcXcXhXhXdXsXsXsXdXdXdXsX4XhXeXA.|.Q.@.fXS v m j.j.p.u.M N z.l.f.n = 7.!.N.pXhXhXhX6XcXmXNXNXNXNXmXcXhXlXhXcXcXmXsXhXcXmX",
"cXcXhXhXcXjXhX5XcXdXsXdXdXdXdX2XhXhXeXA.|.r.@.9XN u.i.m p.u.n n v d.l.l.p., ( w.G.K.;XhXhX4XcXmXmXmXmXmXmXcXjXcXcXcXmXmXlXsXcXcX",
"mXcXhXhXcXhX5XdXsXdXdXdXdXdX5XdXhXdXeXF.|.r.#.XXb s.l.l.d.i.s.u.d M l.l.M - q 7.Q./.,.T.dX4XcXcXmXmXmXmXmXcXzXcXcXmXmXmXcXhXaXmX",
"cXcXhXcXhX5XhXhXsXsXsXsXdX6X5XdX5XdX#XF.}.q.,.U.b f.l.l.l.l.g.v + > t.p., ; 7 %.} 1.J.,.tX6XmXmXmXmXmXmXmXmXcXcXmXmXmXmXmXmXdXdX",
"mXhXmXcX5XhXcXcXhXsXsXsXdX4XhXdXdXhX#XF.}.0.,.V., m s.j.l.f.t.d + + d d ; 2 3 [ +. .1.M.3XsXcXcXmXmXmXmXmXmXcXcXmXmXmXmXmXmXmXaX",
"dXhXmXsXhXcXhXjXhXsXdXdX5X>XdXdXdXdXT.J.|.!.$.D k : , g n n v - : - + ; 2 2 2 Y 4.| ..P.:XjXhXhXmXmXmXmXcXcXjXjXcXcXcXmXmXmXcXcX",
"mXmXmXdXMXcXaXNXmXdXdXsXsX6XdXdXdXhXZ.].|.[.6.0 C x k 2 : > - + + o - k x x C D ,.C.Y.eX>XjXcXmXmXmXmXmXcXjXhXjXjXcXmXmXmXmXmXmX",
"mXmXMXhXmXhXjXmXcXsXsXsXsXsXsXdXdXdXC. X|._.( 5 C C A A k : ; + z 1 ; : k A A K iXmXmXhX,XsXcXcXmXmXmXmXmXcXcXjXcXmXmXmXmXmXmXmX",
"cXNXmXjXhXhXmXcXhXsXsXsXsXsXsXdXdXhXP.3.(.Q.} k A x l 2 k k ; J 9XV.2 2 x C x L R.mXmXhXlX4XjXcXcXmXmXmXmXcXcXcXcXmXmXmXmXmXmXmX",
"hXBXNXmXsXmXcXhXdXdXsXsXsXsXsXdXdXcXjX#XN.@.0 C A x x C A 2 6 9XmXoXJ 1 l l ~ qXZ.bXNXmXhX>XhXhXcXcXcXmXmXmXcXcXmXmXmXcXmXmXNXcX",
"hXzXmXsXmXjXhXhXhXdXsXsXsXsX5XdXhXhXcXjXuXc.l A A A A A l : P.mXmX8XP.oX8X7XvXqXZ.bXNXmXdX2XhXhXhXhXhXcXcXcXjXcXcXmXmXcXcXBXmXdX",
"cXdXdXdXmXhXhXhXhXdXdXsXsXsXsX5XhXhXcXcX+XY.c.2 x C C l : K rXmXmXfXV.R.iX8XR.V.yXNXBXcX6X4XhXhXhXhXhXhXhXhXjXcXcXmXmXmXmXlXhXcX",
"mXcXdXcXcXhXhXhXhXdXdXdXdXdXdX4XdXcXcXcXP.qXvXY.H Z 5 H Z.V.rXmXmXmXrXP.c.U I 0XNXBXBX2XsXhXjXhXhXlXhXhXhXjXmXmXmXBXBXBXmXcXjXNX",
"NXcX5XjXcXhXcXhXhXdXdXdXhXhXhXsXsXcXcXcX#XV.yXVXvXvX8XiX8XL.jXmXmXmXmXmXY.E.1.8XBXNXzX&XhXjXhXhXcXdXhXhXcXcXmXNXBXBXBXBXmXhXmXmX",
"mXcX4XzXcXhXcXhXhXhXhXhXhXhXhXcX4XcXcXcXjXP.T Y.0X0X0XP.L.9XmXmXmXmXNXmX0XA.q.+.R.9X-XdXhXcXjXhXcXhXhXjXcXmXmXNXNXBX5XNXjXcXcXmX",
"mXmX:XcXhXhXcXlXhXhXhXhXhXhXcXcX5XdXzXcXgXP.W.| Q I.U.#XjXmXmXmXmXmXmXNX0XF.[.Q.a u L P.gXjXcXcXcXhXcXhXcXcXmXmXNXBXaXcXcXcXmXmX",
"mXcX:XhXhXhXcXhXhXhXhXjXhXcXcXcXhX4XjXjXeXB.[.$.XX4XjXzXcXmXmXmXmXmXmXmXoXH.}. .3 a a 0 Q rXmXmXcXjXcXjXjXjXcXmXNXVXBXcXjXjXmXmX",
"mXmX4XcXhXhXcXhXhXhXhXcXzXzXzXzXcXaXdXcXP./.!.<.3XsXcXcXcXmXmXmXmXmXmXiXQ T >.6 >.W.B.+.u ^ bXmXjXhXjXjXjXhXjXmXNXBXNXNXmXcXmXmX",
"mXmX4XcXhXhXcXhXdXhXhXhXzXzXcXzXcX6XdX9XA. Xe.K.>XhXcXcXcXcXmXmXmXmXmXmXqXZ.! G T  .>.T y V.bXmXcXjXhXjXcXhXhXcXmXMXNXNXNXcXmXmX",
"mXmX5XcXhXhXhXhXdXhXhXhXhXjXlXzXlXdX-X^ 3.E.2.n.sXcXjXcXjXcXmXmXmXmXmXNXBXBXbX@XT.P.V.V.oXgXmXmXmXcXjXjXzXhXhXhXhXlXNXNXNXmXmXmX",
"mXcX5XcXhXhXdXdXdXdXhXhXlXcXcXcXhXgXx.k D 0 8 c.jXcXcXcXcXcXcXmXmXmXmXmXBXNXcXcXmXcXcXcXcXcXcXcXcXmXmXcXcXhXlXhXhXhXcXmXmXmXmXmX",
"mXdX5XmXhXhXdXdXdXdXhXcXcXcXcXcXhX#XD Y a 0.t 4 9XcXcXcXcXcXcXcXmXmXmXNXBXmXdXdXcXcXcXcXzXzXcXzXcXcXmXmXcXhXhXhXhXdXhXmXdXmXmXNX",
"sXhXhXmXhXhXdXdXdXhXcXjXjXcXcXcXcXU.I H. .a U G #XmXmXmXcXcXcXcXmXmXmXmXNXhXhXdXmXcXcXcXzXcXcXzXcXcXcXmXmXhX>XdXhXhXzXdX4XmXmXdX",
"6XmXcXdXhXhXhXhXhXhXhXhXcXmXmXmXcXT.G u >.8 1.u #XmXmXmXcXcXcXcXcXmXmXmXNXdXhXmXmXcXmXcXcXcXcXcXzXcXcXcXmXcXsXdXcXmXmXmX4XmXhX2X",
"mXNXdXdXhXhXhXhXhXhXhXhXcXcXcXcXcX;Xn.L y F I Q yXmXmXmXcXcXcXcXmXmXmXmXmXdX6XjXmXjXcXcXcXmXcXcXzXcXcXcXcXmXzXcX6XmXmXmX,XaX4XmX",
"mXmXhXdXhXhXhXhXhXhXhXhXcXNXBXhX6X4XcXgXeX#X#XfXmXmXmXmXmXcXcXcXmXmXmXmXdXsXdXmXNXmXcXcXcXmXmXcXzXzXcXcXcXmXmXdX*X5XcX2X&X&XcXmX",
"mXmXcX4XhXhXhXhXhXhXcXsXhXcXhXdX4XmXmXcXjXjXjXcXcXmXmXmXmXmXcXcXcXmXmXmXmXjXsXcXmXmXhXcXmXcXmXcXcXjXhXcXmXdX4X=X&X,X,XjXcXdXNXmX",
"mXmXcX*XhXhXhXhXhXdX<X4XhXhXhX6XmXmXmXmXcXcXcXcXcXmXmXcXcXcXcXcXjXcXcXmXmX6X4X2XdXdXmXmXmXmXmXcXcXcXmXdX4X5X5XcXmXmXdXmXjXsXmXmX",
"NXmXmX6X=X%X,X,X,XaXmXcXjXhX6XmXNXBXNXmXmXcXcXjXcXcXcXmXcXcXcXhXhXjXcXmX4XmXmXmXhXaXhXmXmXmXmXhXmXcX5XsXhXmXmXmXmXmXcXcXdXhXVXmX"
};
