/* XPM */
static char *b36c09fc97854a50b01629fab5d6ad26uIOK0QFhvM6PI8qb[] = {
/* columns rows colors chars-per-pixel */
"64 64 255 2 ",
"   c #020101",
".  c #0C0507",
"X  c #160509",
"o  c #191616",
"O  c #230B0C",
"+  c #34150E",
"@  c #2B0913",
"#  c #380B18",
"$  c #381715",
"%  c #3A2512",
"&  c #3E1D28",
"*  c #3A292B",
"=  c #45180B",
"-  c #591B0D",
";  c #440C1C",
":  c #481819",
">  c #5A1C14",
",  c #6B1D0E",
"<  c #651E10",
"1  c #4A2319",
"2  c #502E12",
"3  c #592819",
"4  c #6D2E0F",
"5  c #75350C",
"6  c #652417",
"7  c #762618",
"8  c #6C3511",
"9  c #490E21",
"0  c #581428",
"q  c #66162B",
"w  c #6F1132",
"e  c #731634",
"r  c #572A23",
"t  c #523431",
"y  c #652A24",
"u  c #762929",
"i  c #653628",
"p  c #77352A",
"a  c #732F37",
"s  c #6E4B17",
"d  c #56433B",
"f  c #74522D",
"g  c #67443D",
"h  c #76453A",
"j  c #7E6630",
"k  c #74344C",
"l  c #45474A",
"z  c #564445",
"x  c #58585A",
"c  c #744744",
"v  c #6F504E",
"b  c #765B56",
"n  c #6D635C",
"m  c #5B5C64",
"M  c #645E68",
"N  c #736670",
"B  c #797579",
"V  c #8A240E",
"C  c #94260E",
"Z  c #99270D",
"A  c #862917",
"S  c #8B3811",
"D  c #881B3C",
"F  c #8B3431",
"G  c #AC3D2D",
"H  c #99460D",
"J  c #864416",
"K  c #964F11",
"L  c #984C12",
"P  c #A64C0D",
"I  c #B0540E",
"U  c #A95914",
"Y  c #B35C14",
"T  c #B16319",
"R  c #874239",
"E  c #944A3C",
"W  c #B3432C",
"Q  c #A7443B",
"!  c #B84539",
"~  c #976C36",
"^  c #C76715",
"/  c #D07219",
"(  c #DA7518",
")  c #E67B1A",
"_  c #901C40",
"`  c #873855",
"'  c #A92852",
"]  c #904F4B",
"[  c #875958",
"{  c #955957",
"}  c #A84D46",
"|  c #A55449",
" . c #BB5549",
".. c #B8534C",
"X. c #A95853",
"o. c #936957",
"O. c #A66A5B",
"+. c #B2725F",
"@. c #8D5671",
"#. c #85696A",
"$. c #926D6E",
"%. c #996C75",
"&. c #8A7879",
"*. c #B0756A",
"=. c #C44E44",
"-. c #C6524A",
";. c #D8554C",
":. c #D35B52",
">. c #E6554A",
",. c #F0594F",
"<. c #CB665A",
"1. c #E66156",
"2. c #F4635A",
"3. c #CA7665",
"4. c #CF7369",
"5. c #EF746B",
"6. c #EB786B",
"7. c #F57969",
"8. c #A68439",
"9. c #E6821D",
"0. c #F5841C",
"q. c #F8841C",
"w. c #F8891D",
"e. c #CDA63E",
"r. c #9B8D5A",
"t. c #B38F50",
"y. c #979777",
"u. c #B78E71",
"i. c #C6A94B",
"p. c #D0A457",
"a. c #C8826D",
"s. c #CC8D6F",
"d. c #D78A74",
"f. c #E58A75",
"g. c #F58878",
"h. c #E9957D",
"j. c #F6967E",
"k. c #EBBA7B",
"l. c #ECCE5F",
"z. c #677C87",
"x. c #7A7B85",
"c. c #8C7C86",
"v. c #79838A",
"b. c #778B95",
"n. c #6ABFF5",
"m. c #8A8689",
"M. c #948887",
"N. c #948B97",
"B. c #8B949D",
"V. c #93959C",
"C. c #A68794",
"Z. c #B88E93",
"A. c #A6979B",
"S. c #BFA299",
"D. c #999DA4",
"F. c #AA96A5",
"G. c #9BA5AD",
"H. c #92A7B6",
"J. c #A5A6A9",
"K. c #B3A8B2",
"L. c #A8B3B9",
"P. c #B3B4BA",
"I. c #CA9286",
"U. c #E88C89",
"Y. c #EA9985",
"T. c #F59B82",
"R. c #F59C88",
"E. c #D9AA91",
"W. c #F6A189",
"Q. c #ECA991",
"!. c #CE98AE",
"~. c #C8A5A8",
"^. c #D0ACB7",
"/. c #C6B5BC",
"(. c #EDB1AB",
"). c #F4C38B",
"_. c #F0C6AD",
"`. c #9CB0C3",
"'. c #ACB9C5",
"]. c #B3BDC7",
"[. c #D1B6C6",
"{. c #EEB0CF",
"}. c #C7BDE2",
"|. c #B7C5CF",
" X c #BBC9D6",
".X c #8ED0F8",
"XX c #98D9FA",
"oX c #B7D5E8",
"OX c #A5DCF9",
"+X c #AADDFB",
"@X c #B5DEF7",
"#X c #A5E0FC",
"$X c #ACE2FB",
"%X c #BAE1F5",
"&X c #B4E4FC",
"*X c #BBE6FC",
"=X c #BEE8FC",
"-X c #D0C9D4",
";X c #C4D2DC",
":X c #EECDD7",
">X c #E6D5DC",
",X c #EFE1DD",
"<X c #C6CCE8",
"1X c #D8CDE7",
"2X c #C8D9E7",
"3X c #D9D4EC",
"4X c #C7DDF4",
"5X c #D2DCF3",
"6X c #DCDCF1",
"7X c #E5C7E3",
"8X c #ECC4E1",
"9X c #ECCAE4",
"0X c #F2C5E0",
"qX c #F3CCE4",
"wX c #F8CCE3",
"eX c #E8D2E5",
"rX c #E4D3EA",
"tX c #EBD5EA",
"yX c #E4D9EE",
"uX c #ECDBEC",
"iX c #F6D4E8",
"pX c #F4DCED",
"aX c #FADCED",
"sX c #E5DEF1",
"dX c #F9DFF0",
"fX c #D2E3EE",
"gX c #C8E4F6",
"hX c #C3E6FB",
"jX c #C4E9FD",
"kX c #CCECFD",
"lX c #D4E3F5",
"zX c #DBE3F5",
"xX c #D8E8F6",
"cX c #D2EEFD",
"vX c #D3EEFD",
"bX c #D5EFFD",
"nX c #D9EFFD",
"mX c #D6F0FD",
"MX c #DAF0FD",
"NX c #DCF1FE",
"BX c #DEF2FE",
"VX c #E7E2E6",
"CX c #F7E5ED",
"ZX c #E4E7F5",
"AX c #F7E6F3",
"SX c #FBECF5",
"DX c #E1F3FE",
"FX c #E3F3FE",
"GX c #E6F4FD",
"HX c #EAF6FD",
"JX c #EEF8FE",
"KX c #FBF1F6",
"LX c #F3F7FB",
"PX c #FCF4FA",
"IX c #FEFCFD",
/* pixels */
"FXFXHXJXJXJXJXHXHXFXFXFXFXFXBXBXBXFXBXnXmXnXjXkXmXFXFXFXBXcXcXcXcXcXBXBXcXmXcXkX=X*XcXcXcXcXmXBXBXcXBXBXBXBXcXcXmXBXcXjX*XBXBXHX",
"HXFXFXFXFXFXFXFXBXBXHXHXFXFXFXFXFXHXFXBXnXkXbXbXFXFXBXBXnXkX&X=X$XjXcXkXjX*XjXjXkX=X*XcXcX*X*X$XjXcXFXcXBXcXBXBXBXBXkXFXHXFXFXFX",
"=X*XjXFXFXBXFXFXFXBXcXmXmXFXFXHXFXFXBXBXnXcXcXBXBXnXBXBXcXjXkXcXjXjXBXBXBXBXcXkXkXBXBXkXkXjXjXjX&XcXHXBXBXcXBXcXjXmXFXFXFXFXFXFX",
"cXMXmX&XBX*XXXOXFXFXFXFXcXkXBXHXBXBXBXBXcXcXcXmXkXkX=XkXmXcXcXkX$XcXBXkXkXkXkXkXkXkXkXkXkXBXBXcXjXjX=XkXnXmXBXFXFXFXFXBXBXFXFX*X",
"cXcXkXjXXX*XjX*XXX$XkXcXcXkXkXcXnXBXnXcXcXcXcXnXcXcXcX&XkXkXjXjXOXcXnXnXBXnXBXcXkXjXjX&XkXcXcXcXBXcX&XkXcXcXBXBXBXFXBXBXBXBXkXjX",
"kXkXjXjX*X*X*X=X*X+X*XjXjXkXcXkXcXcXcXkXkXcXnXnXnXcXcX*X=XjXjX*X&XcXbXbXcXcXkXkXkXkXkXjX&XkXcXcXcXmX$XkXkXcXmXBXBXBXBXFXFXBX$XkX",
"kXjXjXjX*X*X*X&X&X*X$XjXjXkXbXkXkXkXkXjXcXBXBXBXBXnXcXcXOX*X*XOX%XoXG.B.cXcXkXkXkXkXcXcXhX%XkXcXcXcXXXcXcXcXcXnXBXBXFXFXFXjXkXkX",
"kXcXkXkXkX*X&XXX*X*X=XkXkXcXbXbXkXkXkXkXnXBXBXBXBXnXbX|.v. XL.x.b ` k V. X2XoX@X4XgXcXlXyX1X2XcXBX&X&XcXkXcXbXcXcXnXBXFXmXbXkXkX",
"cXcXkXkXjX*X&XOX&X&X=XkXBXjXbXBXBXlX3XlXcXBXBXBXBXnX].k z @.k 0 # e 0 k ` @.@.@.m H.zXuXKXSXiX}.XXjXcXcXkXkXcXcXbXbXnXBXkXcXkXkX",
"jXkXkXkX*X*X&X#X&X&XjXcXkXcXbXnXzX8XaXtXrX7XxXBXBX Xk 0 e 0 X . . X . X O q _ v G.2X7XSXIXIXPXwX3XBXFXBXmXcXcXcXbXcXcXjXBXkXkXkX",
"jXjXkXkXjX*X&X&X#X*XkXkXcXcXcXxX8XdXIXPXCXCXsXxX;X#.0 @ #                 ; q k N. X3XpXIXIXIXAX8XnXnXBXBXBXcXcXmXcXcXkXcXMXkXkX",
"kXjXkXkXjX*X*X*XOXjXkXkXcXcXcX6XqXIXIXIXAX-XZ.n k e ;                       . O 9 k N.rXpXPXIXKX0XlXbXbXnXcXcXcXkXcXcXcX=X*XkXjX",
"cXjXjXkXjXjXjXjX&X&XkXcXkXcXnXrXaXIXIXVXJ.r.j : _ e .                           @ D ' %.-XpXIXKX0XlXkXcXcXbXbXbXcXkX&X=XcXcX*XkX",
"cXjXjXkXjXkXkXkXkX$XjXkXkXcXcX1XaXIXPXS.i.l.f e 9 X             + r             X q k ` N -XKXSX0XcXcXbXkXkXbXcXcX$XjXnXBXBXkXBX",
"cXcXkXjXjXkXkXkXkX&X+XkXcXcXcX<XaXIXKX).l.t.a @                 R 3.: .           @ k F.B B.AXaX9XMXmXcX&XjXkXcX&X&XcXbXmXBXBXnX",
"cXmXcXkXkXkXkXkXkXkXXXjXcXcXOX@X9XPXKX).l.h 9 .             . O <.T.X.#   . .     . 0 c.lX2XuXqX<XkXcXcXcXcX$X&X.XkXcXcXcXnXnXcX",
"cXcXcXcXcXkXkXkXcXkXkX.X&XXXjXcX<X>XSX_.8.w w .           + + 3 g.T.d.D O O ;       X k  XcX1X8XzXcXcXcXcXBXBX*XkXkXbXcXcXcXcXcX",
"BXcXcXcXcXcXcXcXcXcX+Xn.OXcXBXbXJ.I.iX:Xf i @             y : R j.j.T.X.0 $ u X       ; N XX9X9XxXnXBXBXBXFXBX@XkXkXbXcXcXcXcXBX",
"HXBXcXcXcXcXcXcXkX&XXX%XnXnXnXfXy.k.wXSXE.f X           . F q <.R.T.j.d.a 0 F > .     . & D.tX0XzXnXBXBXBXBXBX$X+XcXcXbXBXBXBXFX",
"FXBXcXcXcXjXkXkX&XhXmXcXlX7XrX;Xr.(.SXIX>Xr X         . O Q u 5.(.(.R.T.| D Q u O     . x M -XaX7XnXBXBXBXBXBX@XFX*XcXcXBXBXFXHX",
"FXFXcXbXFXBX$X&XcXBXBXbX7XCXSX[.t.:XIXIXVXt ;         X :  .F 7.R.(.(.R.3.F ..p +     . m.uXKXKX0XzXFXBXBXBXBXhXBXhXcXcXnXBXHXFX",
"FXFXbXFXFXkXkXnXBXBXBXzX0XPXIX/.t.iXIXIXVXt ; @ X     $ u -.F 6.T.R.Q.T.d.F =.p $     . M.IXIXPX0XlXBXBXBXBXBXkXcXkXcXBXnXFXFXFX",
"FXFXFXBXkXcXnXcXcXBXBX6XqXPXIX-X~ (.PXIXeXR q e @     y F :.O.%.a.h.T.j.f.} { } $   o o M.IXIXSX8XcXBXcXcXcXcXBXhXcXcXBXnXBXFXFX",
"BXBXBXkXcXBXBXcXcXBXBX5XqXIXIX>X~ p.,XIX_.f 1 # $ o   F F I.9X&.%.<.j.T.a.~.c.*.$ . l B m.IXIXaX7XcXkXcXcXbXbXcXkXbXcXcXBXBXBXBX",
"FXFXcXcXBXcXcXcXcXBXMX4XqXIXIXCXt.i.E.CXZ.s s % r 7 . G 1.(.pX/.(.j.T.h.*.:X/.4.3 $ l -X[.KXiXeXzXcXcXcXkXcXcXcXkXnXcXcXnXBXBXBX",
"FXBXcXBXmXkXbXcXkXjXkXgX8XAXAXCXk.l.t.:Xu.s f % t W < ! 6.*.~.~.I.j.j.h. .<.3. .i N v.1XpXaX9XBXcXmXBXcXcXcXcXcXkXBXcXBXnXBXBXFX",
"BXcXcXmXcXBXcX=XkXcXcX5X8XeXrXiXk.e.t.:X~.2 % 4 3 R F F g.I.$.u.R.j.j.Y. .,.,.| 1 $.[.pXKXaX9XnXcXBXcXcXcXcXcXjX*XkX*XnXnXBXBXFX",
"FXBXBXcXBXkXjXbXcXcXcXrX0XyXzX:Xi.8.s.:XA.c  .S I 5 i 1 4.W.(.(.W.j.h.3.-.2.6.R -.6.(.CXIXSX0X4XGXZXtXrXbXcXcX+XbXcXkXmXBXnXBXFX",
"FXBXcXjX&XcXcXcXcXzXrX8XiXyX2Xu.i.~ Z.&.O.R.7.S ( I J z h h.T.Y.f.d.d.3.;.2...F >.f.U.Q.KXKX8X6XsXaXIXCX1XcXkX$XcXkXcXcXBXBXHXFX",
"FXBXjX*XcXcXcXcXcX7XaXAXSXuX2Xr.i.f O.d.T.T.2.S 0.^ H g z h d.h.d.d.3.<.;.} v [ [ Q U.6.,XIXwXyXuXIXIXKX9XlXkXkX*XcXcXcXBXFXFXFX",
"BXFX*XcXcXkXkXkXlX8XSXCXiXrX;Xn $.d.j.j.7.1.! J w.) I S r i p ] 3.d.f.<.| c.<XlX2X{ 5.5.SXIXiXrXpXIXIXSX9XlXkXkXjXjXcXcXmXHXFXFX",
"FXjXBXmXkXjX+XkXlX8XKXuX6X].M.~.(.g.7.,.G 6 - U w.0.( P 5 7 : r 1 p c #./.9XZXFXfX] ,.7.IXIXiXuXpXIXiX9X7XlXcXcXkX*XcXcXFXBXFXFX",
"FXjXBXBXBXkXkXkX5X9XSXyX4Xm.(.g.1.-.! p f % 2 ( q.q.0.^ H 8 * 1 H J b.1XSX9XxXnX;XE ,.R.IXKX0XZXpXIXwXsXxXcXcXcXcXkX*XcXFXBXFXFX",
"FXkXBXBXBXBXkXkX4X8XSX6X4X&.(.g.>.i d ~ 8.r U w.0.0.q.q.^ H 8 2 P h 2XrXKXqXzXnXL.! ,.(.>X9XrXHXuXKXKX9XxXcXcXcXcXcXjXjXFXBXFXFX",
"FXkXkXcXBXBXbXkXgX8XSXyX4XM.Y.Q.2.{ |.'.L.o.9.q.w.q.q.q.q.) T i H M.FXuXSXAX1X|.n G ,.U.N.4XcXJXZXiXKXiXsXnXcXcXcXcXbXjXkXBXBXFX",
"FXBXkXcXBXBXcXcXkX7XSXuX4XD.a.R.7.]  XbX2Xo.9.0.w.q.q.q.q.q.9.L 4 D.BXuXVXM.c } =.! >.4.V.*XnXFXGXZXCXaXtXnXcXmXnXBXBXFXjXcXBXFX",
"BXBXcXcXBXnXcX*XBX1XiXKXeX[.*.T.g...G.bX;X~ Y T ) w.w.q.q.w.U 8 5 f M.J.M.7 G ;.;.;.1.4.B.&XBXFXsXiXwXCXeXBXnXBXBXBXFXFXmXjXBXBX",
"FXBXcXcXBXcX*XkXjXgX7XAXPXVX#.Y.g.1.&.gX|.U / K L Y ( 0.w.w.K = H P L J $ u Q Q -.Q 3.o.B b.2XxXpXPXSXaXeXBXBXBXBXFXFXFXBXcXjXFX",
"BXBXcXBXcX*XcXcXkXjXhX1XpXLXm.d.T.5.X.m.b 5 Y ) ^ L 4 S U Y 2 s I / ) Y = A G W Q | #./.AXP.L.ZXCXIXPX0XuXFXBXBXFXFXFXFXFXFXkXkX",
"FXcXFXBX*XcXBXBXcXjXjXhX8XKXP.O.W.g.>.=.;.! A U w.) / L J Y 8 ( 0.0.w.J , - > < 6 y C.wXwXC.v.ZXCXIXIXKXqXZXBXBXFXFXFXFXFXFXFXjX",
"kXcXFXjXcXBXcXnXcXjXkXjX7XSXuX#.T.j.g.7.2.=.F 5 ) 0.0.9.) U + 4 ^ 9.T , Z C V V V 7 !.{.{.c.l 5XpXIXKXIXiXsXnXnXBXBXBXFXFXFXBXBX",
"FXFXFXkXGXBXhXHXFXkXkXjX7XSXAXD.*.W.T.Y.+.X.Q - 5 I ^ I P - = = = 5 4 C C V C C A %.{.{.Z.[ b xXtXpXqXPXiX6XcXnXnXBXFXFXFXFXFXFX",
"FXFXGXcXFXcXnXFXBXjXjX5X8XSXtXoXB h O.*.O.O.Q 7 A < 5 H S + = - > , < < 6 7 V V %.!.!.%.R ] P.BXZXsXpXPXwXsXBXnXBXFXFXFXFXFXFXFX",
"BXHXFXbXcXcXFXBXcXjX4X8XSXPX1X'.x.$.b o.| | p 7 Z C , - = - = $ 1 3 r y 3 < 6 [ [.Z.c } { `.zXzXZXtXKXPXqXZXBXBXBXFXFXFXFXFXFXFX",
"cXJXHXFXjXFXBXcXkXkX1XiXIXPXK.[.eXiXeXA.c i G G Z C V 7 < : x V.K.P.P.P.J.&.N #.b ] ;.] K.6XpXAXAXKXIXSX9XZXBXBXFXFXFXBXFXFXHXBX",
"cXMXGXjXFXnXbXcXcXkX7XAXIXCXK.tXiXaXiXiX>XF.A C C C A 6 v J.2XFXGXHXHXFXGXZX-X#.<.,.U.^.SXPXAXaXCXSXSXqXsXnXnXBXBXFXFXBXBXJXFXkX",
"BXkXkXkXFXcXcXcXcXkX8XKXIXPX[.qX-XA.K.7XiX7Xc V V 7 r m.2XFXFXFXFXFXFXFXGXJXA.a.5.<.Z.-X3XtX7X6X5X6X3X6XcXcXnXBXBXFXFXFXFXmXcXBX",
"FXBXkXBXBXcXcXcXcXkX8XPXIXIXiX^.] -.} c A.dX-Xb < d H.xXBXBXFXFXFXFXFXFXGX].*.R.d.<.-.c m c. XcXcXmXcXcXcXnXFXFXFXJXJXJXFXBXnXHX",
"HXBX*XnXBXcXBXcXcXkX8XPXIXIX:XC.F 2.2.>.g /.aX~.1 H.*XnXBXBXFXFXFXFXFXFXzX&.h.T.T.4.t 1 Q a z D.xXkXcXcXBXBXFXHXJXJXJXJXFXcXFXFX",
"FXBX&XBXBXcXBXcXcXcX7XSXPXCXAX{.[ Y.g.;.] #.[.^.B OXjXjXBXFXFXFXFXFXFXxXm.v a.f.4.i * g h 1 t t G.cXcXcXBXFXFXHXHXJX*XHXnXBXBXFX",
"FXFX+XBXcXcXBXmXcXcX6XqXtX6X9XpXM.I.(.-.%.[.^.F.L.$XBXBXBXBXFXFXFXFXFXZXD.n b [ b t X.a.a.O.h t x.cXBXcXBXBXFXFXHXJXjXBXBXBXFXFX",
"FXBX+XcXcXcXBXcXcXcXcXzXxXnXzX8X>XE.(.X.#.C.m.V.oX&XBXBXFXFXFXFXFXFXFXFXHX2XL.V.m.&.n v g h t x '.nXBXnXnXnXBXFXHXJXJXBXnXnXFXFX",
"FXFX&XBXcXcXBXnXcXcXbXBXBXnXnXyXqX(.R...B  XlXFX=XjXBXBXBXFXFXFXFXFXFXHXJXJXJXJXzX2X X|.L.G.].2XbXbXnXnXnXcXnXFXHXJXHXHXFXBXFXFX",
"FXFX&XBXcXcXBXcXkXcXcXcXBXBXnXxXA.O.+.-.[ |.nXkX#XcXBXBXBXBXFXFXFXFXFXHXJXJXJXFXkXFXBXBXnXFXFXFXBXnXbXnXBXcXcXBXFXGXHXHXHXBXFXFX",
"FXFX*XBXcXbXcXcXkXcXcXcXcXnXcX2X$.d.d.2.Q m gXOXjXBXnXBXnXBXFXFXFXFXFXHXJXJXHXkXGXFXBXBXBXBXFXFXFXBXnXnXBXcXcXcXcXmXHXHXHXFXFXFX",
"FXBX*XBXcXcXkXkXkXcXcXcXBXnXBXB.R | } ;.R m OXjXBXBXBXBXBXBXBXFXFXFXFXFXJXJXBXFXFXBXBXFXFXBXBXBXBXBXFXBXBXcXmXcXcXcXBXFXFXFXFXFX",
"FXkX*XFXcXcXkXkXkXkXcXBXBXBXfXx * a p + t z.kXBXFXBXBXBXBXBXBXBXFXFXFXFXJXFXkXkXBXBXBXBXBXBXBXBXBXBXFXFXBXcXcXcXcXkXcXFXkXFXFXHX",
"jXcXcXFXcXcXcXkXcXcXBXnXnXBXG.o.r p p y d D.FXFXFXFXBXBXBXBXBXBXFXFXFXFXHXcXcXkXFXBXBXBXBXBXBXBXBXBXBXFXFXcXOXkXcXcXMXkX&XFXFXkX",
"*XFXBXkXcXcXcXcXcXcXbXbXBXBXN.g ] r h O.z ].FXFXFXFXFXFXBXBXBXBXBXFXFXFXHXkXcXFXFXBXFXBXBXFXBXBXBXBXBXBXFXBXjXkXBXFXFXFX&XFXcX$X",
"FXHXkXkXcXbXcXcXcXcXcXbXBXnXm.b v h h c x lXFXFXFXFXFXBXBXBXBXBXFXFXFXFXFXkX*XbXFXnXBXBXBXFXBXBXBXBXBXBXBXFXMXBX*XFXFXFX+XjX&XFX",
"FXFXcXkXcXcXcXcXcXcXbXcXBXHX;XB.b.z.x.v.].BXBXFXFXFXFXFXFXBXBXBXFXFXFXFXkXjXkXFXHXFXBXBXBXFXFXBXBXBXMXBXBXFXFXkXXX*XBX$X.X.XBXFX",
"FXFXBX&XcXcXcXcXcXcXBXjXcXBXcXhX&XBXnXBXnXBXBXBXBXFXFXFXFXFXBXBXBXFXFXFXFXnXjXBXFXFXcXBXFXBXFXBXBXnXcXBXFXkX&XXX.X+X+XnXBXkXHXFX",
"FXFXBXXXcXcXcXcXcXkX@X&XcXcXcX*XFXFXFXBXBXBXBXBXBXFXFXBXBXBXBXBXnXBXBXFXFX=X&X$XkXkXFXFXFXFXFXBXBXBXFXkX&X*X*XBXFXFXkXFXnXjXFXFX",
"HXFXFX=XXX.X+X+X+XjXFXBXbXcX=XFXHXJXFXFXFXBXBXnXBXBXBXFXBXBXBXcXcXnXBXFX&XFXFXFXcXjXcXFXFXFXFXcXFXBX*XjXcXFXFXFXFXFXBXBXkXcXJXFX"
};
