/* XPM */
static char *result[] = {
/* columns rows colors chars-per-pixel */
"64 64 238 2 ",
"   c #060606",
".  c #1A1A15",
"X  c #29130E",
"o  c #332319",
"O  c #1F2224",
"+  c #282829",
"@  c #342F2B",
"#  c #2D3236",
"$  c #353739",
"%  c #49221D",
"&  c #4E2D1A",
"*  c #71271F",
"=  c #4F2A21",
"-  c #493729",
";  c #533728",
":  c #443D34",
">  c #6C2E29",
",  c #514030",
"<  c #574838",
"1  c #72492F",
"2  c #674933",
"3  c #6A533A",
"4  c #79573A",
"5  c #353C41",
"6  c #3E4041",
"7  c #4A4A48",
"8  c #544D4A",
"9  c #57514D",
"0  c #585756",
"q  c #6B5847",
"w  c #6F524D",
"e  c #765C45",
"r  c #5F615B",
"t  c #7B654A",
"y  c #67615C",
"u  c #776656",
"i  c #787258",
"p  c #5C5E60",
"a  c #5A6268",
"s  c #686767",
"d  c #796A67",
"f  c #707170",
"g  c #787877",
"h  c #992A29",
"j  c #88302C",
"k  c #95382A",
"l  c #9A3836",
"z  c #A6302C",
"x  c #AC3A38",
"c  c #B63A38",
"v  c #C83C35",
"b  c #9A4426",
"n  c #8D5133",
"m  c #A64728",
"M  c #AF512C",
"N  c #A84736",
"B  c #A75734",
"V  c #8A6838",
"C  c #8F7135",
"Z  c #B46937",
"A  c #AC7135",
"S  c #CF4339",
"D  c #D06D32",
"F  c #D87636",
"G  c #E37733",
"H  c #994949",
"J  c #885547",
"K  c #905652",
"L  c #995959",
"P  c #A74947",
"I  c #A95750",
"U  c #876847",
"Y  c #8D6A43",
"T  c #926C43",
"R  c #956A48",
"E  c #977448",
"W  c #896E55",
"Q  c #916653",
"!  c #88735A",
"~  c #957757",
"^  c #A76945",
"/  c #A6764A",
"(  c #A47A4C",
")  c #AC7550",
"_  c #886965",
"`  c #887867",
"'  c #947666",
"]  c #897A75",
"[  c #967070",
"{  c #A9726F",
"}  c #C35B44",
"|  c #D0714A",
" . c #98882F",
".. c #998738",
"X. c #A68538",
"o. c #B09336",
"O. c #BAA53A",
"+. c #C6B73D",
"@. c #D2B23B",
"#. c #F4B833",
"$. c #CFC33F",
"%. c #D7C73D",
"&. c #EAD43E",
"*. c #998A53",
"=. c #B1884B",
"-. c #B98C56",
";. c #BD9057",
":. c #B8A752",
">. c #998465",
",. c #89847C",
"<. c #988879",
"1. c #9A9271",
"2. c #AD8F71",
"3. c #B3AB71",
"4. c #C39459",
"5. c #C79759",
"6. c #D19051",
"7. c #C4A845",
"8. c #C8B643",
"9. c #D0AD51",
"0. c #C69968",
"q. c #CBB26A",
"w. c #D4C443",
"e. c #CDC572",
"r. c #E4D361",
"t. c #EDE37D",
"y. c #F8EC7D",
"u. c #777C81",
"i. c #7C8286",
"p. c #6ABFF5",
"a. c #878888",
"s. c #978986",
"d. c #999388",
"f. c #8A8E91",
"g. c #8B9297",
"h. c #939393",
"j. c #9C9A95",
"k. c #95989A",
"l. c #9C9C9B",
"z. c #A58A8A",
"x. c #A59889",
"c. c #A59996",
"v. c #B79391",
"b. c #9EA09C",
"n. c #AAA295",
"m. c #A3A19E",
"M. c #B5AF91",
"N. c #B3A799",
"B. c #999BA1",
"V. c #A79FA1",
"C. c #9AA4A8",
"Z. c #9BB0BC",
"A. c #A4A3A2",
"S. c #A9A6A3",
"D. c #ACAAA5",
"F. c #A4A8AB",
"G. c #ACACAB",
"H. c #B4ACA8",
"J. c #AFB2AF",
"K. c #B4B2AD",
"L. c #BBB6A9",
"P. c #A9ADB4",
"I. c #ACB2B5",
"U. c #AAB4BB",
"Y. c #B4B4B2",
"T. c #B9B5B1",
"R. c #B7B8B9",
"E. c #BCBCBB",
"W. c #C7B28B",
"Q. c #C5B4A7",
"!. c #C3B9B6",
"~. c #D1CA92",
"^. c #CFC9AD",
"/. c #C7C4B9",
"(. c #D9D4B6",
"). c #E2DAB7",
"_. c #ADBDC7",
"`. c #B5BDC4",
"'. c #B9BDC4",
"]. c #BAC4C8",
"[. c #BBCAD3",
"{. c #B5CDD9",
"}. c #8AD0F9",
"|. c #98D9FA",
" X c #B9D8E7",
".X c #B1D9EF",
"XX c #A4DDFB",
"oX c #AADEFB",
"OX c #A5E0FB",
"+X c #ACE2FB",
"@X c #BBE2F4",
"#X c #B4E4FC",
"$X c #BBE6FC",
"%X c #BEE8FC",
"&X c #C4C4C4",
"*X c #C8C7C7",
"=X c #CCCCCB",
"-X c #CDCCCD",
";X c #D1D2CE",
":X c #DED9C9",
">X c #C6D4DA",
",X c #D4D4D2",
"<X c #D7D8D4",
"1X c #DADAD5",
"2X c #D7D8D9",
"3X c #DCDDDA",
"4X c #E3DCCB",
"5X c #E1DED9",
"6X c #DFE0DB",
"7X c #EDE9C5",
"8X c #E2E3DD",
"9X c #ECE9DE",
"0X c #C6DAE6",
"qX c #D7DEE1",
"wX c #CCE1ED",
"eX c #CCE5F3",
"rX c #C8E5F4",
"tX c #C3E6FB",
"yX c #C4E9FC",
"uX c #CCECFD",
"iX c #D6E9F5",
"pX c #D3EEFD",
"aX c #D9EFFD",
"sX c #D6F0FD",
"dX c #DCF1FE",
"fX c #E4E5E3",
"gX c #E7E8E4",
"hX c #EBEBE5",
"jX c #ECECEA",
"kX c #EFF0E9",
"lX c #F3F4EC",
"zX c #EEEFF0",
"xX c #EEF4F7",
"cX c #E3F3FE",
"vX c #EAF6FD",
"bX c #F4F4F4",
"nX c #F6F8F5",
"mX c #FCFCFC",
/* pixels */
"cXcXvXvXvXvXvXvXvXcXcXcXcXcXdXdXdXcXdXdXdXdXyXuXdXdXcXcXpXuXwXeXpXpXsXsXsXsXsXuXyX$XsXsXpXsXsXdXsXsXdXdXdXdXsXsXsXdXuX%X%XdXdXxX",
"vXcXcXcXvXcXvXvXdXdXvXcXvXcXcXvXvXvXcXdXaXuXpXsXcXcXcXwXC.f a .X+XtXsXsX%X$XyXyXuX%X$XpXsX$X%X+XyXsXcXpXdXuXdXdXsXdXuXvXvXcXcXcX",
"%X$XyXcXcXcXcXcXcXdXpXdXsXcXvXvXcXcXcXdXaXpXpXdXdXsXdX].$ 7 s 0XtX%XdXdXdXdXsXuXuXdXdXuXuXyXyXyX#XsXcXcXdXsXdXpXuXsXcXcXdXvXcXvX",
"pXsXsX#XaXtX|.XXcXcXcXcXpXuXdXvXdXdXdXdXpXsXpXsXuXyX#X{.$ 0 q P.{.yXdXuXuXuXuXuXuXuXuXuXuXdXdXuXyXyX%XuXdXsXdXcXcXcXdXdXdXdXdX$X",
"sXpXuXyX|.$XyX%X|.+XuXpXpXuXuXpXpXaXaXpXpXpXpXaXsXsXpX.Xd ^ 5.B d >XaXaXsXdXsXsXuXyXyX#XuXpXpXpXsXsX#XpXpXpXdXaXdXcXdXsXvXdXuXyX",
"uXuXyX%X$X$X$X%X$XXX$XtXyXuXpXpXpXpXpXuXuXpXaXaXaXpXuXZ.9 J *.J q C.aXaXsXsXuXuXyXuXuXuX#XuXuXpXsXsX+XyXuXsXsXsXdXdXdXvXdXsX+XpX",
"uXtXyXtX$X$X%X#X#X#X+XuXyXuXpXuXyXyXuXyXaXaXdXdXdXaXpXg.g 4Xg ^.g f.pXpXaXpXuXuXtXuXuXpXtX$XyXpXpXiX|.pXpXpXpXdXsXdXdXvXvXyXuXuX",
"uXpXuXuXuX#X#X|.%X$X%XuXuXpXpXpXuXuXuXuXaXdXdXdXdXdXaX[.m.E.E.E.k.].pXpXpXpXuX@X].Z.eX X].C.c.1.>.u ! J.uXpXpXpXsXsXdXdXsXpXuXuX",
"sXuXuXuXyX$X#XOX#X#X%XuXdX%XsXdXdXuXuXpXpXsXaXdXdXdXaX>Xg.f.u.i.f.].uXeXwX{.k.< 3 ~ q T E 3 ~ >.1.j.&XeXuXuXuXpXsXsXdXdXuXsXuXyX",
"yXuXuXyX%X#X#XOX#X#XyXsXuXsXsXsXsXsXpXsXaXsXaXcXdXcXdXiXZ.i.i.f i.F.n.` ! R U 3 U i ` n.H.E.=X1XqXdXdXsXsXsXpXpXsXsXsXyXdXuXuXuX",
"yXyXuXuXyX$X#X#XOX$XuXuXpXpXpXdXsX+XuXsXsXsXcXcXaXaXiX>XY.] ' Y 3 W ~ ` <.N.D.!.*X&X3XlX6XkXlXhXeXaXsXiX0X>X].rXsXsXsXuXsXsXuXuX",
"uXyXuXyXyX$X$X#XXXyXuXuXuXpXpXsXtX+XuXsXaXsX0X].S.<.! t ! q ~ <.L.=X;X<XlX3X9XlX,XzX<X,X<XlXlX].E.l.<.! u ' ,.0XyXpXsXuX%X%XyXyX",
"sXyX%XuXyXyXyX%X#X#XuXuXuXpXpXpXXX%XyX[.B.>.q Y q <.c./.;X8XkX;XlXlX;XlXlX,XlX3X1XbXnXmX;XlX5Xe ` i d.K.E.;XuXpXsXuX#XtXsXsX%XuX",
"sXyXyXyXyXyXuXuXuX+XyXuXpXpXsXuXOX[.t 3 u <.m.;X2XjX/.M.W.^.8X8XlXgX8XlX8X;X2X1X*X,X&X/.gXbXY.K.;X8X1XfXhX>XpXpXpXOXtXsXsXdXuXsX",
"sXsXuXyXyXuXuXuXuX#XOXuXpXuXpX+XyX_.n.E.=X6X8X8X8X9.#.#.#.#.9.(.lX;XlX8X;X1X,X-XkXlXhX8XlX9X6X6X3XfX1X1XhX XyXsX+X@XpXpXsXsXsXsX",
"sXsXsXuXuXuXuXuXuXuXXXuXuXpXXX+XuXwX6X;X6X*XkX/.=.Z Z B m m m n Q.=X,X2X;X8XlX,XlXlX1XlXlX<X3XgX;XgX5X,X9XwX+X+X}.uXpXpXaXsXpXsX",
"pXpXpXpXuXuXuXpXuXpXuX}.+X|.tXpXuX3X<X;X<X*X].L z m B Z Z Z Z Z / M.~.L.9XlX6X9XlXlX;XlXkX*X3XkX;X8X8X,X3XpXsX%XuXuXpXpXpXpXdXpX",
"dXsXuXpXpXpXpXpXpXpXoXp.|.pXdXsXwXhX;X6X^.3.1.q.W.^.).4X(.d.L.9X4XE.(.L.^.kX,XlXlX9X8XlX1X;X1XlX;X8X8X1X3XaXdX@XuXuXpXpXaXpXpXdX",
"vXdXpXpXpXpXpXpXuX#X}.$XdXsXsXdX2X6X6XL.^.8X-Xg O h.mXmXs   . E.jX6X6XhXlXlX;XlXlX1XlXlX;X1X1XlX=XfXfX<X3X>XaXoXoXpXpXpXdXdXdXvX",
"cXcXpXpXpX%XuXuX#XtXdXpXsXsXsXsX6X,XkX6X2XkX,X.   6 mXmX$     A.2XkX,XlXlXhX6XlXlX=XlXkX;X1X1X8X*X8X*X;X,XB.aXoXdX@XpXpXdXdXcXcX",
"cXcXpXpXdXaX+X#XpXdXdXdXpXuXuX0X8X=XlX8X1XbX*Xl.7 F.f.bX'.7 a.hX<XnX;XnXlX6X9XlXlX;XlX9XK.h.D.f.K.R.A.*XI.0XdXtXaXyXpXpXpXdXvXcX",
"vXcXpXcXcXuXuXaXdXdXdXpXsXuXuX0XlX;XhX8X1XhX&XhXmX=X9 zXmXmXbXE.lXlX<XlXlX<XkXlX8X9XlX;XC.l.K.m.D.m.K.,XE.>XdXrXpXuXsXsXdXcXcXcX",
"cXcXcXdXuXpXpXpXpXdXdXsXuXuXuX0XlX,X8XgX;X8XhX;X&XjXjXjXgX=X&X,XlXlX<XlXlX;XlXlX;XlXlX&XD.S.K.A.K.S.S.K.=X>XpXcXyXpXpXdXdXdXcXcX",
"dXdXdXuXpXdXdXpXpXsXdXuXuXpXtX XlX,X9X8X,X8XjX,X&X*X=X&XjXE.=X=XkXkX1XlXlX,XlXlX=XnXlXY.c.l.x.s.d.d.c.D.S.,XwXsXiXaXsXpXdXdXdXcX",
"cXdXpXsXdXpXaXsXpXdXsXuXuXpXuX XlX<X9XfX1XhX,X&XY.'.*X&X,X*XfX*X;X9X1XlXlX;XlXnX;XlXlX{ n > S > ; S 1 y f.h.F.>XuXpXsXaXaXdXcXdX",
"cXaXpXdXsXyXpXpXuXyXuXuXuXpXpX0XlX,X9X8X,X1X,X=X=X3X5XjX2X*XhXY.J.&XG.gXkX&XlXlX,XlX9XI 4 J n 1 n N , ] K.R.U.[.uXdXsXsXpXdXcXcX",
"dXpXpXdXpXdXpX%XuXpXuXuXpXpXdX0XkX=XhX8X*X,X&X5X*X`.P.I.I.I.Y.h.j.Y.J.l.2Xl.6XkX;XlXgXP = j S - k S ; C.uXsXpXyX#XuX$XsXaXaXdXcX",
"dXdXdXpXaXuXyXpXpXpXpXsXdXdXdXeXfX;XkX3X=X&Xk.G.B.'.'.'.`.F.T.S.D.m.I.a.1XA.;X9XS.lX5Xv = j v & k S ; U.uXuXpXOXsXpXuXsXdXpXdXcX",
"cXdXaXtX#XpXpXpXsXpXpXdXdXdXdXaX2X<XlX*XJ.m.j.K.F.F.P.P.B.S.T.D.D.T.k.P.I.R.3X8Xa.;X:Xz % > z o j v ; U.pXsXyX+XpXuXpXpXdXdXvXcX",
"cXdXyX%XpXpXpXpXpXpXpXdXdXdXdXaX>X8X*X*Xh.K.m.T.A.Y.A.H.T.A.Y.K.S.T.m.F.`.U.-X&Xh.E.*Xh o * h o > c ; B.uXpXuXuX%XpXuXpXdXcXcXcX",
"cXcX%XpXuXuXuXpXpXpXsXdXdXdXdXdX X<X&X<.j.H.m.T.D.K.H.K.T.A.Y.T.m.K.D.A.P.`.`.'.R.&X!.h o * h o = h % a.uXuXuXuXyXyXuXpXsXvXcXcX",
"dXyXdXpXuXyXXXuXuXuXdXsXsXpXaXdXyXR.,.Z x.S.D.K.S.h.F.l.8 0 f j.S.K.Y.l.P.'.F.C.Y.hX!.j % % h % % h % 8 eXsXsXuXuX$XpXpXcXcXdXcX",
"cXyXdXdXdXuXuXuXuXuXdXpXpXpXR.aXyXR.) D 2.A.H.!.,Xf.gXR.; 1 ; + Y.G.H.A.A.U.A.Y.m.*XT.j * : { z.A.Q.] : f.iXpXuXpXuX%XsXdXdXcXcX",
"cXuXdXdXdXaXuXuXuXuXuX0X*Xv.2.iXyXv.D G | G.gXhX' a.2X*X4 4 4 u mXmX8XB.G.S.D.T.m.K.E.c.1X3X/.H.c.n.!.5X>XpXpXpXpXpXtXyXcXdXdXcX",
"cXuXuXpXdXdXpXuXyXyXtX&X5X| 6.0XE.F D G ^ 1X9X0.Z u.2X-XY T 4 ! nXmXmX;Xa.j.S.T.b.T.D.d.z.N./.jXmXmXmXfXiXaXpXpXpXpXpXtXuXdXcXdX",
"dXdXuXpXdXaXpXpXuXyX$X{.H.F G 2.-.6.6.F Z w.=.D F s.jXjX/.E U _ nXmXmXgXg.8 a.T.b.T.H.1XnXmXmXmXmXmXmXqXcXdXaXaXpXdXdXcXyXsXdXcX",
"dXdXpXpXdXaXpX%XaXuXyXuXY.G B q.t.y.t.2.A 6.D D | =XR.&XK.( U ! nXmXmXbXl.l.a.a.b.T.J.6XmXmXmX<XbXnXfXiXcXaXaXaXdXdXcXdXsXtXsXcX",
"cXdXpXpXsXpX%XuXyXyXuXuX>X) u 3.q.t.~.: 3.D D G <.1.T.I.<.E n ! bXmXmXmXC.h./.3 d.G.J.6XmXlX*Xs ] a.g >XcXcXaXaXcXdXcXcXcXpXtXcX",
"dXsXpXdXpX$XpXpXuXyX_ c.<.:.~.M.7X(.t.e.t.6.G m *.o.E h.E.2XE.<.zXmXjX;Xh.h.K.) e k.K.2XmXh.I N q.n 7 a.iXcXaXcXcXcXcXcXdXcXuXuX",
"cXpXcXdX%XpXdXpXpXyXz.b b q.(.:X7X:Xe.y.y.X.b n o.O.V z x J <.*X*X=XF.&XfX*X,.~ e *.H.*XbXf ! w >.> a 8 qXcXaXaXcXdXdXcXcXcXcXyX",
"pXpXcXrXpXdXsXiXsXyX0X^ m q.^.).7X(.e.y.r.A M m m m b N 0.t.q.' '.0 f 2X&X2Xu Q t ! ,.m.I.s D.0 /.s s 0 >XdXaXaXdXdXdXcXcXcXdXdX",
"cXcXcXuXcXdXyXvXcXuXyXx.B -.q.~.^.:.w.8.7.M m k M M O.C t.e.e.>.E.&XB.zXfX;Xa.Q.W.W.~ <.{ ~ d a.a.g g i.aXaXpXpXdXdXdXcXcXcXcXvX",
"dXcXvXpXvXpXaXcXdX%X%X3.+.X.o.:.:.7.7.:.A M M m o.&.+.C q.3.C 1.V.l J F.=Xh.w (.).7X).R } | I i.g i.u.f 0XaXdXaXdXcXcXcXcXcXcXcX",
"aXvXcXpXuXsXcXdXsX%X#X:.+.B b A X.o.A B % X X 1 w.w.O.K 4 1.t <.z.L x B.2X< : M.U >.7XQ > l h _ g u.g.-XiXcXaXdXdXcXdXcXcXvXcXcX",
"sXvXvXcXyXcXdXsXuXuX X! m k b Q c.m M b b X   +.+. .C L v.z.H z.z.] l B.>X8 8 g ! 1.7XQ l.<XV.f i.B.pXaXcXdXdXcXcXcXcXcXcXvXvXdX",
"pXsXcXyXcXiXsXsXuXuX@X!  ...>.[.8 X b m m b 1 @.%.+.1 M h L c.P.L l x V.2Xx.i f ! g n.W F.H._ I.C._.pXaXdXdXdXdXdXdXcXdXcXvXcXuX",
"sXuXuXyXdXpXpXpXuXuX@X_ w.~.<Xr     . s.2.A  .+.O.C h B B c H &XL v c k.5Xc.] h.h.a.M.x.P.v.c f.i.a.I.wXpXsXdXdXdXdXcXcXcXsXpXsX",
"vXdXuXdXdXpXpXsXsXuXuX<.2.1X1.o.& . . i 2X(.+.+...b N &.w.c [ ,Xz.P H ] 5Xa.s 7 f 1.d.j.&XI x [ _ t ) <.eXdXcXcXvXvXvXvXcXdXsXvX",
"xXdX$XsXdXpXdXpXpXuXuXI.qXs...@.%.O.&.$.1.6Xn. .e l N @.O.x D.R.H.{ w L -XA.s 9 ] a.] h.!.P L a.[ w Y / ].dXcXvXvXvXvXvXcXdXdXvX",
"cXdX$XsXaXpXdXsXiX X].qXk.w 4 +.+.+.&.$.O.m.fXN.c.v.P c c L -Xs.&XP x x B.gX0 $ 5 s f.'.v.u ] g.s 2 2 T c.cXcXvXvXxX$XvXdXdXdXcX",
"cXcXoXdXaXpXaXaX0X2XzX2Xg l * > *.*.o./ C 1 &XzXzX&X!.P c c.L.-.H.v.c L L P.5 < 2 + u.*Xc l k.B.y 2 ; 4 a.aXcXcXvXvXyXdXdXdXcXcX",
"vXdX#XpXpXpXaXpX XF.2X`.A.R $.b U.P.f.> * j ].bXfX5XL *X_ ;X2.5.2.*XI ] > + $ V / 3 5 L H [ a.f y - ; n c.aXdXcXvXmXvXdXaXaXcXvX",
"cXcXoXaXaXpXaXaXpXeX_.[.[.d.7.N -XzX'.P c N J.qX] j h K '.f q 4.4.c./.P > + q n n ~ @ H w V.7 7 < - 3 e >XpXaXcXvXvXvXvXcXdXcXvX",
"vXcX#XcXpXpXpXpXuXpXpXaXeXm.' c v.zXfXL c N :.S.H c I !.f.5 5 W 4.{ c.&Xw # U ^ B -.+ l x.,.p y 0 2 4 A.aXaXaXaXvXcXcXvXvXdXcXcX",
"cXvX$XcXpXpXpXpXuXpXpXpXaX].c.{ I xXzXz.c v N N x { &XN.< # 5 5 *.5.4.z.j.# E ^ ^ ) @ z.M.3 # @ i ` I.iXaXaXaXpXpXaXcXvXvXcXvXcX",
"vXaX$XaXpXpXpXuXuXuXpXiXaXaXn.n.s.>XzX*XP c c P V.2Xz.-.-.3 # 5 6 Y 4.-.: $ ( n ) U 7 W.e $ $ u aXcXcXdXaXpXpXpXpXpXaXcXcXcXvXcX",
"cXuX$XcXpXpXuXuXuXpXpXaXdXdXwX>.x.].lXjXh.[ S.2X!.! / 4.4.4.t # 5 5 q -.: # Y j ) , < < $ t $ q aXdXcXcXaXsXpXpXpXuXpXdXuXcXcXcX",
"tXpXpXcXpXpXuXpXuXpXaXaXaXdXcX>XU >.;XkXzX5XT.~ / 6.9.5.5.5.5.=.- 5 5 $ # + e ;.E # # $ < - 2 <.aXdXsXcXcXsXOXpXpXpXdXeX#XcXcXuX",
"%XcXaXuXpXpXpXuXpXpXpXaXaXcXcXcXE.E 4 $ $ + @ V / -.=.4.4.;.-.-.-.e : $ $ + $ , @ $ @ : < $ t <.aXdXdXdXdXdXyXuXaXcXcXcX#XcXpX+X",
"cXvXuXyXpXpXpXuXpXpXpXpXaXaXcXaXdXI.E 3 + + + , T -.4.4.;.4.4.;.-.-.-.E U t : , < 3 <.].].a a C.aXdXsXdXdXcXdXdX%XcXcXcXOXtX$XcX",
"cXvXuXuXpXpXpXpXpXsXpXpXdXcXvXpX%X#X`.! < + + + , Y ( -.5.5.5.4.4.;.;.-.*.T Y Q <.*XsXsXdXcXdXaXaXdXdXdXdXcXcXuX|.$XaX#X}.}.iXcX",
"cXvXaX#XpXpXpXpXpXsXsXyXpXcXsXuX@XvXdX2Xd.3 # 5 # - V T T E / ( E E T Y R <.J.>XcXcXsXdXdXdXcXaXdXpXaXdXcXuX#X|.}.XX+XdXdXpXxXcX",
"cXcXcX|.aXpXpXiXpXuX.X$XpXuXpX%XcXcXcXdXiX].] 5 5 # @ 3 Y T C Y T ~ 1.L.2X@X#X+XuXuXcXvXcXcXcXdXdXsXcXpX#X%XtXdXdXcXuXcXdXyXvXdX",
"vXvXcX$X|.}.XXoXoXtXvXdXpXpX%XcXvXvXvXcXcXdXiX XZ.u.a 7 9 d.T.].>XiXsXdX#XcXvXcXpXtXpXcXvXcXcXsXcXdX$XyXpXcXcXcXcXcXdXdXuXuXnXvX"
};
