/* XPM */
static char *_ca3d35c62e444dee07348dfd65ec9a21zAxsiljW2Dfr97J[] = {
/* columns rows colors chars-per-pixel */
"64 64 61 1 ",
"  c #292827",
". c #2D2D2D",
"X c #302F2F",
"o c #2F2E31",
"O c #302F32",
"+ c #343335",
"@ c #383736",
"# c #373837",
"$ c #393936",
"% c #36363A",
"& c #38373B",
"* c #3A3A3D",
"= c #3F403F",
"- c #363740",
"; c #3D3D42",
": c #3F3F49",
"> c #403F44",
", c #403F49",
"< c #3F4045",
"1 c #3F4048",
"2 c #414245",
"3 c #44444B",
"4 c #46474C",
"5 c #44444E",
"6 c #45464E",
"7 c #48474F",
"8 c #46484F",
"9 c #474A4F",
"0 c #48484E",
"q c #48494F",
"w c #464752",
"e c #474754",
"r c #484751",
"t c #464853",
"y c #474954",
"u c #484A51",
"i c #484B52",
"p c #494C53",
"a c #494955",
"s c #494B55",
"d c #4B4B54",
"f c #4A4D56",
"g c #4C4E54",
"h c #4B4C59",
"j c #4B4E59",
"k c #4C4E58",
"l c #4D4F5A",
"z c #4D5056",
"x c #4E5057",
"c c #4E5058",
"v c #4F5259",
"b c #4E515B",
"n c #50535A",
"m c #50525E",
"M c #50545F",
"N c #53565F",
"B c #535661",
"V c #525562",
"C c #555861",
"Z c #545863",
"A c #575C66",
/* pixels */
";%+2&&32;*2;;;63wja223;3w;;;26w632;63;3tta;%<6w33ywaaw16waw63;*o",
";%*3*;2;*;;;266tfii362;62*+&2668866iiiiifi336fgaiikkmckkf6ta6*%+",
"3;362323*;*;266ft8063**362;*26336638aiiii23668fi6fkaf686*262*&*2",
"twa383;6**2;32<32232**26836323326623323>*;;;22ii6fk6332&&>2&+*33",
"a362i328;26682233880623i8tw63363t636>2;%*;&*;3ikaaj66i622<2&&20i",
"633wkfkp8iicccMVcfifCgcxgmVm3280ipggcCAnipggcMMmmMVc336f8p628pgx",
"&*;;2;;23tacVaai33w3Mi8228f3++&;;;33fVC2&;38pfiit863**36tt323883",
"*22;<;368tkg32;;;&++mt22363+&;+;;;6ffka%&33aajt33333*3tt2;*;28p8",
"3i8863662*;;*>3;&+.Ox6*2363&+..;;*<8taj;;3ww6323wt63;33;**222ipt",
"3t8t86<&+%**;3:o .o-c3*#;<33++*62<ii3jcw3w63336ffaig33;;3333333t",
"t63<<<;*&%&*;&+%%&&&3;;**;<;+*<32302;23;2633p6332323;;++**;;**;;",
"cpkcggg06**<2*6VVc8&;;<3331,;;*333;%;%;666;3i3;&**+%*&.X%2>;;;*;",
"ifVVcki3*+;3<1cVVi;>23336ff<***2;&%&*+;3ra8ia6632&@*;*+*3632r62*",
"cmi3fc6&+%1ywtccCki6333;tgi*+%%;&+&*&&;6af6ii363<*&;3&+266;3362*",
"2;&;6<++*<6a66mcVkiai6ttki2++&*;*&;***3ak83f3;;36323;*&;3;;362&+",
"3&&*2*&&<38368ccmiitiiipp82.+&*&+&;**;tia;3632;33;*;;;*;3666:;&*",
"ayy;36;%;3;3666t;&%.+++*&*&+&;;;;>33338fi;2336686838ifpfkcift36;",
"kje633++***%*;;;**+++&*&*2;;;;3333666iikg223336ft8tffttacjjjwjy*",
"Vw6*%+++++;#+2;*&++++*@+*36333326w66iggck;2236tcff63twttcyjkyjw;",
"3&++++%++;<%*68%++*;;>**;2222266ti36ggiff223663ka223aw6tw3cmfft6",
";+++#<2;233;2fg;;26iaii36663223ikaifktakt33633;6;233663633cf306i",
"33twaji66tw13it36kmMmkcagfgcg666a66i63afwiii323*+%*;;3;;3633;fgk",
"+&23aa;;&*++;%+*3igt;33;3;238tait33666i6ii6t66;%&&;*;;3;**%66f8t",
";226aw*&;%+;***3taw;;;36;;;32tai6tgffiiiifiga633332*23i>+++;*88a",
";*3tw3&*;&*;+*2iw6;*33i6;363;iaakkkggfkkgkkk6366wi3**22&X+&;*3tf",
"2;8ia226i2;;;3ia7;*;iit6;;;*;ajkVVkaa6wwrw6;36;&;;;**3*%+&3660p3",
"2;22323it2;;*23*;**<223;*23&*;;3ay3;;**+%&&*%%&++O+O+****2338pp3",
"222222pt6a6*%;*+*222222%;a623;;;;;;;2>;;;*36233;;;&&++;22633ii8t",
"06323pci662*2**=2268832*3w62;2;%+++%*%&;;6wtjfw;;;;;%*;36i8pfppx",
"62228gci33332;<23388822;;&2**3;+%+%++&;2;wwfkja:;;;%%;6238iccpxM",
"2328fcit3tf833<<2268333;%%<*;3;&*&;&&<333afkcjw;;;;%;;**28xccfca",
"3838xf0336f32<;266683282*;2;2633222*2<3iikfjw6;*;3;;;>;23tf36at3",
"3326t80223828p8<*==2223222<2322***222;;233tw<22;&*>2632>2632<228",
"332888622600x82*$$*222222633882$*2;***;;2333;3i2;2>322>23033;;*3",
"332868226ppx022*$*2222226688p822*&@&;;;232;*;6a32;*2;**2;2222323",
"62<038=20ppp862*&22222223688pt22*22333t63;;3i86;%&&;;;6**3323033",
"6<2p83=6gf0pfp62230860666666pp3&&3326i62;**;223**22;3;;;3863666i",
"220gi00xcxp0xcnxnMnMCVnMnxpxMgi662&+*;;;;;;>;;666622;;33;22;36ig",
";*2633663332266ikfigciacf8686t63;*+*%*2;&*33;2wii3;>%>6323636twi",
"**3aw3;;38332236t6ikktkj683<;632;23;&;***33;*23ii622&33336titw66",
"+;3;%%%*366633tiwwjjajc63t2**322;;2%&&+*222**;2iai2>&>3>366ti636",
";;&O%;;;;23632tawyw66t3;3<%+*32;%%&**%+;3>*2223gg62>&33232;22326",
"3;+o+*%%;;&%;&%;;;;;;;**;++o%*;*+*362*2*%**&;*;6322&+*;2;2***;;;",
"k3+*<<<2<<&*w3*2;3<;&*32;;*%;383@3ck6;&++%&**+%33f6*++**2633;<33",
"p3;33333;*;<w;;*+;*%%<;*;;;;;66**ia;&+X+%&&;;+*30a3&+*326i3366tt",
"6633tt3*;3633;%+%**;3**3633i2;;;28;+X++**&;22>26i63&*&23322336at",
"823t3<#&*;2333**<#;***26;3;2;;;638*+*&>;**263;36i73>**33333666t8",
"i82<;*;3338i6t63;&<;;332#**223ikcf;3;>;%*233;;23i332;&333666iaai",
";;*&&*;63:;33>33..+%+*%%*&*22;;26060a6;;232633233322322367riairr",
";;;;;;666;%;3333..&*%*>22223222330iif6;23336668t333;;6aw6iw3ri6w",
"33;6333663;36266%+*&+>6i33603600iggfki;2<3t686ti36666ki;2i63aaai",
"36tjawy663*6twtt#+&++23336336iiiikgif6;222w2238a6iaai6;;236ww6t8",
"kjVMfka3;;26fjgc863680i030ipgccgcmckmfi666w;38ikkkmk3;33raaat6if",
"Ckyt<;;6ftii3akkk33tifiikgkcccfgMVcffgicmff6ickmcxcMggcmmVVMMMMm",
"6&%+..+3633;;3663O+*36>63;36633ti22;&2;6j6633tyw33tftiaakcctitif",
";%++++%3633*333w3+;36633;;;6ww6a;+;&+2*;a6wt3ay;%;ajffafjjt;<36a",
"*o+++;;;63;<3363;+*6w;&++;;3t66w;*3;*3;;3&3<1;;%;;wjttttt63;263f",
"&&*>6i633;28iii3;%2w3;*23>;6wafi2;2*23*3t6at6;>3tytw66366t326itc",
"**&;222<**>22;;<*%;;;;;;;3;;2ww63;**;*&;2<2332332666;***2632;33i",
"33&*>23362232>>;+%;>63**;3;;336wi3;;3*%*;;<6323363gt&>;*2266*266",
";>+&238i6236622*%;3wi3*>36666w>>2*362;;33tjj623223a2>3332igi33ti",
";*+****22232*&&+&*2ar;;23ww3;33>>33;&;*;;3tii333222280330gki32i6",
"&*++%++%&*&&++%+*<8g3&&266;*33636;+**;**;6i8226iw3233330gk66i806",
"++.o+o+++%+o+;;;22;3;+%33*+-,6;3;+&;;;%;336*;;;;333626pffg6276ii"
};
