/* XPM */
static char *result[] = {
/* columns rows colors chars-per-pixel */
"64 64 181 2 ",
"   c #070E16",
".  c #080E16",
"X  c #060F19",
"o  c #080F18",
"O  c #071016",
"+  c #081117",
"@  c #06121B",
"#  c #08111A",
"$  c #061523",
"%  c #091522",
"&  c #061826",
"*  c #0A1826",
"=  c #051729",
"-  c #061A2C",
";  c #0A1B2B",
":  c #171623",
">  c #101B29",
",  c #061D33",
"<  c #0A1E32",
"1  c #051F39",
"2  c #072036",
"3  c #0C2135",
"4  c #06223B",
"5  c #0B243C",
"6  c #0D283F",
"7  c #122435",
"8  c #10263C",
"9  c #11293E",
"0  c #062642",
"q  c #0A2641",
"w  c #062945",
"e  c #0B2A44",
"r  c #062C4B",
"t  c #0B2D4A",
"y  c #122C43",
"u  c #112F49",
"i  c #07314F",
"p  c #0C314D",
"a  c #133046",
"s  c #1A3044",
"d  c #12324C",
"f  c #1B374D",
"g  c #062F51",
"h  c #092F50",
"j  c #063255",
"k  c #0B3454",
"l  c #0F3957",
"z  c #06355A",
"x  c #0A3659",
"c  c #07385D",
"v  c #0C3A5D",
"b  c #123653",
"n  c #183650",
"m  c #133955",
"M  c #1B3A54",
"N  c #133C5C",
"B  c #1B3E5B",
"V  c #203649",
"C  c #063C63",
"Z  c #0B3D63",
"A  c #063F69",
"S  c #083F69",
"D  c #113E61",
"F  c #1B415E",
"G  c #074067",
"H  c #0D4165",
"J  c #06426C",
"K  c #0C446B",
"L  c #0E486E",
"P  c #134264",
"I  c #1A4463",
"U  c #1D4866",
"Y  c #13456A",
"T  c #184669",
"R  c #14486E",
"E  c #1B4A6C",
"W  c #064573",
"Q  c #094671",
"!  c #064976",
"~  c #0C4A74",
"^  c #064D7B",
"/  c #0C4E7A",
"(  c #134C73",
")  c #1A4E73",
"_  c #114F79",
"`  c #07517F",
"'  c #0C527E",
"]  c #155177",
"[  c #1C5175",
"{  c #13527B",
"}  c #1A547B",
"|  c #1E587E",
" . c #204A67",
".. c #2A4E6C",
"X. c #225275",
"o. c #295373",
"O. c #225579",
"+. c #23587D",
"@. c #2B5A7B",
"#. c #3D6179",
"$. c #065485",
"%. c #0C5482",
"&. c #0E5986",
"*. c #07568A",
"=. c #0A5788",
"-. c #06588F",
";. c #0C5A8A",
":. c #135681",
">. c #185780",
",. c #145985",
"<. c #1B5B84",
"1. c #135C8A",
"2. c #1B5F8A",
"3. c #095D91",
"4. c #115F90",
"5. c #245B81",
"6. c #15608E",
"7. c #1B618D",
"8. c #0D6195",
"9. c #0E6499",
"0. c #0E689B",
"q. c #146392",
"w. c #1B6592",
"e. c #126699",
"r. c #156A9C",
"t. c #1B6D9C",
"y. c #2A6185",
"u. c #25638B",
"i. c #2C658A",
"p. c #316184",
"a. c #326589",
"s. c #376C8E",
"d. c #226A95",
"f. c #2A6B94",
"g. c #226E9B",
"h. c #316B91",
"j. c #25719E",
"k. c #2D749E",
"l. c #3E769B",
"z. c #0E6DA4",
"x. c #146EA2",
"c. c #1A6FA0",
"v. c #1A72A3",
"b. c #1676AB",
"n. c #1C77A9",
"m. c #0F77B1",
"M. c #147BB5",
"N. c #1D7DB2",
"B. c #2574A3",
"V. c #2977A6",
"C. c #2C79A6",
"Z. c #237CAD",
"A. c #2A7DAB",
"S. c #3177A1",
"D. c #337CA7",
"F. c #217DB1",
"G. c #447B9D",
"H. c #1781BA",
"J. c #1883BC",
"K. c #3582AD",
"L. c #2181B5",
"P. c #2A80B1",
"I. c #2386BB",
"U. c #2C87B9",
"Y. c #3A87B3",
"T. c #3D8DBA",
"R. c #2189C1",
"E. c #2C92C7",
"W. c #2C97CD",
"Q. c #3597CB",
"!. c #4295C1",
"~. c #449DCB",
"^. c #4DA0CD",
"/. c #58A0C1",
"(. c #5CA5CE",
"). c #48A5D5",
"_. c #53AEDC",
"`. c #69B0D0",
"'. c #64B1D9",
"]. c #6CBBE3",
"[. c #74C5EC",
/* pixels */
"^ ` ' ;.1.x t 4 - - , e k E e 5 t b t b D R q q D u ; > @ ; 7 ; 3 < 5 8 - 4 I e 4 7 3 < 3 < < < , a t q , q s y > @ ; 8 8 8 b D ",
"Z Z H H Z 1 4 u j S K L Q G w , u h t e t t , , y , = 1 5 5 3 3 9 y u e m O.G.q 1 % @ * < f m N I X.[ u 0 X., . o o . . o . . < ",
"    O @ $ b 4 t ' x.Q v Z F t t q q 3 $ o @ @ $ b B q < 3 8 9 $ @ + @ $ 6 O.k v N @ # o . O @ @ @ = l Y x Z y X . . . . . . . * ",
"        o b q v ~ e.k $ $ 5 +.P e M $ @ o o o @ B t s . @       + . o o m ) q { m # o + +     O o $ P [ x D 5 X o . . . . . . * ",
"        . s q D Z ` t @   5 O.t u f . + o X X X m b 8 o o .   O   o X X d [ 1 ] d @ + + + . . . o X <._ D O.y X o .     .     @ ",
"        % u 4 b k P 5 + @ q E u y $ . . .   X X B D & X o . o . . o o X a <.4 v t + @ o . . . o o $ f.w.S >.t o   o o       o + ",
"        % d 4 m e i q + + 2 I n 2 o o . o o X X n b < . . o o o   + @   & [ [ <.a @ o + . . . o o @ u.g.Z [ d o o     O     . + ",
"        > m 2 m U p F   @ 3 m d 6 X X o o o X X I X.8 o + o o   o o O O @ l h.R < + + o o o o o o @ } 2.h E n o + o X       . + ",
".   . o % b q e t t B o o 8 u y q o o o o o   X N R n @ . o o o o o o o o y t u % @ . . . . o o o o f Y t ) u o + + o o o o o o ",
". . . o @ b t t a q $ % % < 3 , y o o o o o @ @ q t q X o o o o + @ + + # n t d $ o + o . . . o o o = ) k 5.5 o + $ 7 7 & % $ $ ",
". . o o % l P g 6 = @ o X < - 6 u < 3 5 3 3 ; = e N - X . o o + @ @ $ $ u 5.b u 3 $ $ 7 3 d 8 @ o % , R 5.) 1 , y u l D I D k N ",
". . o o % l l.B ; $ @ @ $ 3 < u m b t d d k m N x O.= X @ $ $ = 8 5 d E [ [ l < 7 5 X.<.Z p m N b b P w.F.;.<.S.H v h x m N D D ",
"e q 3 < , t D k < = $ $ $ u N Z p q 5 q q q t m p e q q k N x Z N Z ( Z P e M : : 7 Y / g k h Y K v z K W 4.4.S D x D x x E 5.5.",
"x w t k D x k z x e 5 w N t q < , q q M q b p t q 1 4 t D ( ( :.K c x b d 3 < ; > < k N R ) P x v Z c S A 2.D t 0 Z D D T C ! 2.",
"D D D D P P H <.) k D K Q t , < t t t k h Z t t q q t g Y L H N p d d q q y y y y N B - $ ; = ; 6 p k E a.5.D k h g z S R C :.<.",
"$ % - , - 4 m ) t.i.K 1.L E k k I I } ( P D m d q e v ( G m q < ; ; & @ @ @ % < D D b ; @ o o o @ @ @ % 7 1 D S g x T } _ ( ( D ",
"o X X + o $ X 1 { z K w.G | N u N t I N N I d 1 ; 2 N C.) 6 < & @ X o o X o X y 5.Y 3 * * # + + + O @ O @ a 7.u.4 = = - - - $ % ",
"X X o + + X @ < >.v Y Q N N < o * y t d y $ @ % % d Y Z N , 3 s @ . o o   X o % t E < ; * @ + + + O O @ + 6 ( N @ X o o + o X o ",
". X o + o @ @ t 6.u.H Z h t % o o o o % % o o X % M D { Y - < > X X X o o   o % u N & * * + + + + @ + + + 6 l b X X   X X   o o ",
". o . X + + + N w.g.c k w b $ o o o o X o o o o @ - m d.c - 8 % O O   . X o o $ q N 7 ; * + + + + @ + + @ 2 _ G.$ X     . X . o ",
"o X X X o @ @ k t.q.v t m l ; + + . . + X o o o @ $ t >.v , 7 % O O   O . . + o 4 N 4 ; * # + + + o + @ @ q ~ @.@ @   o     X . ",
"o o X X o X o m &.u.p k t Y 5 + o + + + . o o @ X % 4 x v ; > %   O   O @ + + @ < B < 9 ; @ + + + + o % ; 5 } m o   o     X   . ",
"o X X X o o X q H v t R [ u.M @ @ @ # # o o o @ o % 5 x N = ; % + O O O + + + @ e N 4 y * @ @ @ o o o ; 3 4 p 2 @ X @ . . o X o ",
"o o o o o @ @ a k e q L q._ d @ X @ + o # o @ % $ & q L } , ; @ @ O @ @ + + @ + t v ) k < $ $ @ $ o X $ 4 p.k = @ o + o . o o o ",
"X + o @ @ @ $ k t e e v / } 4 @ @ o X @ X = 5 @.X.q b D T l p & $ X @ $ $ - ; 3 p P v H Y T F x H F M N P ( z t $ % o % X $ X @ ",
"e q u b b p m j e 5 q 4 P l u 6 6 6 e b Z >.f.w.2.x w h j v H P x D Y m e F m k H ~ K L L J H K { ' >.~ ) L Q | Y o. .O.h.i.P k ",
"b w t w t g l i 0 1 5 q k k l j w v J :.j.f.>.x _ T.:.:.] v r j D P P R P P p l v Z i c H G H ( | i.E Y s.) P T ( <.{ ~ } D.~.D.",
"3 u u t m t k l h 1 1 q c c R Z G { <.Y 1 - m e C Q.2.h q 0 5 p t q 0 k Z g P w 1 4 3 6 p l R H t < $ @ $ @ % % = - 4 Y D ) X.I ",
".   X @ $ - r H D w 1 1 D t 3 ; ; $ % $ % o y t :.N.w < $ < a 3 3 - y t p k g.<.U $ # @ @ $ m w t 7 X X # # # # @ @ , ) Y t < @ ",
"          $ k 1.Q 5.t < , $ o # + @ o o @ % 8 b ~ F.4 $ @ @ @ @ @ @ ; 6 2 B f.,.E * @ @ @ @ m w m 5 @ X # # # # # o , O.h < 7 o ",
"      . o $ R q.~ } Z b 3 o o o + o o o % 7 5 u K I.4 ; @ + @ @ O @ ; M = 4 a.k p 3 @ @ @ @ d w N 9 @ X o # # # @ @ < X.w 3 8 o ",
"          $ R <.z Z K v w o o @ o @ % o @ y u y K M.q $ % @ O @ @ O * 3 ; 2 R t e * @ @ O @ 6 q u 6 @ @ # o # o # # 8 I h 6 > o ",
"  . X X X $ k Z K j S >.k @ + + o o @ X @ 2 F 5 >.W.p @ @ O @ @ O @ @ $ ; 5 N p 5 * @ @ O @ - q y 8 @ o o + o @ @ o 9 B N < % o ",
"o X X X X @ e Z K h C <.m @ o o # @ o + + , d 5 K I.e @ @ @ O @ O O @ @ * 6 4 6 & * @ @ @ @ = e 5 & @ o + + o + o % , m b , * o ",
"  o X X X @ b z x g K :.t @ X X o # @ + $ 6 p 5 i ] 2 @ @ O + + @ O @ $ = 9 < 5 $ * O @ @ % , b d $ X o . + + + o % - d 3 % % o ",
"  X X X @ $ m C k k :.>.q @ @ @ o + @ ; 6 d N y l F , @ @ @ o o @ @ @ @ < d - 9 ; * X @ % 3 m Z m 5 2 - $ $ $ @ % $ 4 N 5 % # o ",
"q d - $ = q Z K } k._ x = @ @ @ @ $ = D [ Z y.i P G  .* @ $ % % $ X X @ 6 y - < , 3 ; 3 = 2 F R ~ w.v.4.:.{ @. .t e v _ e = % o ",
"R L K H L :.( g Z g.<.C 0 = - = 3 M P <.{ x R K L &.L p t q Y a.u - = - k P ) Y P K { / R H H H ] / { &.=.q.K.Y.V.k.{ Z t N q & ",
"Z z c v z C C g j z W c.1.K K ] z j v x c c x G L G C r x L ( C Z P E _ <.S B.A.t.Q ! C Z C c j j z z G ~ ` $.6.$.^ W Q u.w.Q.C.",
"x r j v v k c v x x A 2.(.,.J L S ( r t k c v k { } R G P C C K ( x k N v x ( w.7.K z Z G K c v j l m x Z Q %.6.D.L g C c Z W &.",
"e j 1 , < 3 < - 3 p l j <.B.7.j x 4 $ $ $ $ $ = $ $ @ = r Y t e , = - , 3 e 4 q x x _ ( 4 , 5 u e e & & 5 r &.g.i.r l +.e e t g ",
"5 4 % @ @ o @ o + @ @ 4 Y w.` &.<.= $ @ @ @ @ + @ @ @ @ 5 O.2 = $ % @ @ % $ $ 7 , m f.P 5 % @ @ # @ @ @ @ , 7.%.[ m q t d t 5 , ",
"q 1 * o o # o # # @ @ 6 w ] ~ E.~.= $ o # @ @ @ @ @ @ @ e E - & > @ # @ @ # % < < t I w 5 * # @ # @ # @ $ 5 ] ~ 5.q 4 6 , & $ $ ",
"e 3 7 o # o # o O @ @ a l H G t.g., $ X @ @ @ @ @ @ @ @ F P , 6 < @ # # @ + % = < e P t y ; @ @ + @ @ @ @ 4 Q L i.4 e F $ @ @ @ ",
"e 1 7 o o + + + @ @ @ ; N k ! T.L - * @ @ @ # # @ @ @ % D D 4 f ; + # # # # % $ 3 q D y 1 * @ # @ @ @ @ @ 2 K } 5.1 d u X @ @ @ ",
"q < % # # + o : @ @ @ 7 q 0 6.).' 4 * @ # @ # @ @ @ @ @ h m q u ; + @ @ @ % % = 8 5 b 8 8 > @ # # @ @ @ @ 2 Q H <.- t 3 @ X @ X ",
", , * o o o o o @ # @ 3 p i !.).K.6 ; # @ @ % @ @ @ @ @ t m e e ; @ @ o # # % * 8 , 5 3 7 ; o @ @ @ + @ @ 5 { c [ , 4 ; @ @ @ @ ",
"- ; $ o o o + o @ O O < i x ^.[.].4 ; # @ @ @ @ @ @ + $ l t 5 - % @ @ + @ % % $ < < 3 < * * @ @ @ @ @ @ $ w 6.| ( , 1 - @ X @ @ ",
"1 q < o X @ o + @ @ @ < t Z j.'.k.2 & @ $ @ % = $ $ $ 4 K k y - $ @ @ @ @ $ - N x 0 t < $ $ @ @ @ @ @ @ $ 0 t.~ ) 2 3 & @ % @ @ ",
"x w q u < - $ $ @ @ @ = k k g ,.j.H c Z Y R L Q ( L Z ( / Q t 4 5 , - - 2 4 c { w.~ { j e < & = < 3 5 2 , 1 :.' v 5 & @ @ @ @ @ ",
"k t h h x m k p m t e g l k x 7.C C K C k Z 2./ ! K K J G ~ w.~ { 1.q.1.' q.w.` q.K b.n.q.2./ ( 6.' ] ~ :.{ ~ Q k 2 & @ @ @ @ % ",
"t q 4 1 0 x Z x Z R g z Z Z Q 1.z z Q Q Q / %.r.x.&.q.x.K H R :.! { Q ` ` ;.e.q.C z r.8.;.K.g.%.&.J G J $.*.^ W Z k t , - < 4 6 ",
"u 6 2 3 q t e w 0 K j k z k r v c z K ] r.N.c.6.7.' J v.n.Z r G Z v c c A J ! J c c ! %.A C %.{ H c G J $.*.$.W W / ! J S K / Q ",
"@ @ @ @ $ , e q 4 _ w 4 q u l { [ r p z ,.n.6.r r N x Z U.z v K z j p i x Y Q J H z %.{ C Y L P F k l K ! ! ! J C A ` ^ ! / S.g.",
"X X X   @ @ 3 5 m [ 2 - - , e P ( b 4 r ] { ( 4 , 4 q j u.4 p [ t 2 & $ = , 5 e q w &.%.x 0 4 - & & $ $ & , 2 0 v Q $.$.~._.P.e.",
"X X   X   ; 9 2 ..O.& = - - 5 k v k 4 e l 0 , 3 < , 4 e r $ @ @ @ @ @ @ @ @ $ $ & 4 t.q.Y = $ * $ @ @ @ @ @ $ $ = G 9.T.[.x.-.8.",
"X +   O @ > 3 - B o.& & - < 6 e q 4 4 e p q , - - - 2 i p * @ + @ @ @ @ @ @ @ @ ; 0 6.q.@.= $ % @ @ @ @ @ @ @ $ & { M.M.0.*./.`.",
"  . o   @ ; 9 5 e I - & & 3 , , 2 3 - 2 e 4 & & & & , w e * @ @ @ @ @ @ @ @ @ @ & 0 N.=.4 $ $ % # @ # @ % @ @ $ & ~ m.m.v.k #.V ",
"o       O = 3 3 , m - = ; & = & - - $ & 2 < - ; & $ - 6 6 ; @ @ O @ @ @ @ @ @ * ; w L.-.r & $ @ # # + @ @ @ @ $ & ] z.M.q.1 $ @ ",
"X O @ O O ; , = - y - = = ; & - - & - & < 2 , = - - & 5 e < @ @ @ @ @ # @ @ @ @ & w b.3.z & $ + # # @ @ @ @ @ % - Z m.W.$.= $ @ ",
"O X o o @ ; 5 3 = 5 , = ; $ $ = = - - 6 k i v H L L v l i * @ @ @ @ @ @ @ @ @ > & 0 z.q.H ; @ % # + % + @ O # @ $ H M.J.' , $ @ ",
"@ @ X @ @ 3 5 q 1 t k i e 4 5 5 e t k k Z ! Q J ! ^ ! / H < O @ @ O # # @ @ @ @ & 4 =.H.{ ; * @ @ @ + + @ @ @ @ $ x m.H.q.q @ @ ",
"m p q 6 2 0 k k i z c i K J C K ~ Q _ G J 0.9.3.r.U.Z.1.c 2 @ O + @ @ @ @ @ # > & w &.I.7.& & @ @ + @ @ @ # @ @ $ k M.R.` 5 $ @ ",
"G K C v l k v Y w.,.C x Q W W ! J C { K { t.q.%.g.'.C.` L w @ @ @ @ @ @ @ @ & < 6 G v.4.G 2 & @ % @ + @ @ @ @ @ = 4 8.Q.z 2 @ @ "
};
