/* XPM */
static char *_e3554fd02df4ba29ec9b21854a58c9ek9K65xz00AamvIJc[] = {
/* columns rows colors chars-per-pixel */
"60 60 253 2 ",
"   c None",
".  c #3A1905",
"X  c #2A1A19",
"o  c #392317",
"O  c #322713",
"+  c #251B2E",
"@  c #282826",
"#  c #392626",
"$  c #38383B",
"%  c #352E31",
"&  c #51150F",
"*  c #691718",
"=  c #7A1A15",
"-  c #70110E",
";  c #4A2A18",
":  c #582918",
">  c #5A351B",
",  c #502F0F",
"<  c #773A17",
"1  c #6C3015",
"2  c #521C28",
"3  c #492C26",
"4  c #562928",
"5  c #463528",
"6  c #583727",
"7  c #452C37",
"8  c #493938",
"9  c #543435",
"0  c #642924",
"q  c #683624",
"w  c #793629",
"e  c #6D3234",
"r  c #6C182B",
"t  c #744515",
"y  c #49433B",
"u  c #584637",
"i  c #53452A",
"p  c #69432A",
"a  c #774C2B",
"s  c #764C36",
"d  c #5E491E",
"f  c #1D1842",
"g  c #2A2745",
"h  c #3A3C45",
"j  c #312A54",
"k  c #1C247D",
"l  c #1E2460",
"z  c #262576",
"x  c #30326C",
"c  c #211E55",
"v  c #791C4F",
"b  c #483D49",
"n  c #51354F",
"m  c #732E50",
"M  c #571E7E",
"N  c #691B6D",
"B  c #502C71",
"V  c #64256B",
"C  c #632876",
"Z  c #742B67",
"A  c #3C4349",
"S  c #364759",
"D  c #3C4569",
"F  c #474447",
"G  c #544947",
"H  c #474755",
"J  c #57555A",
"K  c #4F5152",
"L  c #675C57",
"P  c #6E4F4A",
"I  c #726559",
"U  c #575A65",
"Y  c #4E5867",
"T  c #645569",
"R  c #5C6576",
"E  c #57636A",
"W  c #6B6566",
"Q  c #796C6B",
"!  c #646A78",
"~  c #69717A",
"^  c #7F6070",
"/  c #5E6156",
"(  c #8F1613",
")  c #BA0C0D",
"_  c #AA1917",
"`  c #B81416",
"'  c #AF130F",
"]  c #873909",
"[  c #873915",
"{  c #912713",
"}  c #AA2715",
"|  c #931A35",
" . c #A6162C",
".. c #AE172C",
"X. c #8E2D2E",
"o. c #A62628",
"O. c #B32C2D",
"+. c #C70B0C",
"@. c #C81518",
"#. c #D61418",
"$. c #CA0F16",
"%. c #E5171D",
"&. c #FB181D",
"*. c #D42819",
"=. c #ED231B",
"-. c #D91D27",
";. c #C31C22",
":. c #EC1A23",
">. c #FE1B24",
",. c #FC1B2B",
"<. c #F41C27",
"1. c #FF1D30",
"2. c #C72527",
"3. c #D82627",
"4. c #DA2831",
"5. c #C5302E",
"6. c #EB2226",
"7. c #F62127",
"8. c #E72532",
"9. c #F12D35",
"0. c #86420C",
"q. c #954A18",
"w. c #99561B",
"e. c #8F4612",
"r. c #A35518",
"t. c #8A552A",
"y. c #94572A",
"u. c #88583A",
"i. c #8E4C2E",
"p. c #A55B27",
"a. c #B04B32",
"s. c #946833",
"d. c #A6652C",
"f. c #B06C34",
"g. c #D65636",
"h. c #CD6D36",
"j. c #DB6026",
"k. c #861B57",
"l. c #8C1A47",
"z. c #822C5C",
"x. c #BB2D42",
"c. c #961D64",
"v. c #CF3A46",
"b. c #C01B45",
"n. c #8B5D4A",
"m. c #B1504D",
"M. c #8E694A",
"N. c #B16D52",
"B. c #8A736E",
"V. c #A17471",
"C. c #CA4A4C",
"Z. c #E94C48",
"A. c #CE6F53",
"S. c #E86E4F",
"D. c #D86968",
"F. c #B38436",
"G. c #D48532",
"H. c #BB8852",
"J. c #B48E6F",
"K. c #9D906E",
"L. c #D68F57",
"P. c #EB904D",
"I. c #F1A558",
"U. c #CD9469",
"Y. c #D8A976",
"T. c #E7A568",
"R. c #FEB768",
"E. c #FBBA78",
"W. c #EFAF71",
"Q. c #F8C378",
"!. c #1D2D9A",
"~. c #1C2986",
"^. c #302F95",
"/. c #182EB6",
"(. c #1B35B9",
"). c #1B2FAC",
"_. c #252CB8",
"`. c #2C30AB",
"'. c #542188",
"]. c #442694",
"[. c #4B2E8B",
"{. c #563491",
"}. c #3149B4",
"|. c #384A8C",
" X c #78548C",
".X c #5C7088",
"XX c #65758A",
"oX c #6D6E88",
"OX c #586CB2",
"+X c #6F73B3",
"@X c #5B53A8",
"#X c #192ECA",
"$X c #1835C9",
"%X c #1B39D9",
"&X c #172ED1",
"*X c #233DD2",
"=X c #1A49DA",
"-X c #2F4FD4",
";X c #2B56E6",
":X c #345AE5",
">X c #2F55ED",
",X c #3C76EB",
"<X c #3B69F7",
"1X c #3E73FD",
"2X c #3975F5",
"3X c #2F64E8",
"4X c #516FD2",
"5X c #6D77CA",
"6X c #4774E6",
"7X c #4276F9",
"8X c #4D6DEC",
"9X c #414AC3",
"0X c #9A6B9A",
"qX c #C1658A",
"wX c #708199",
"eX c #758AA6",
"rX c #7C82DA",
"tX c #948A85",
"yX c #989195",
"uX c #AC9691",
"iX c #B9A48E",
"pX c #A88DA8",
"aX c #B8AEB4",
"sX c #898DB3",
"dX c #CB908A",
"fX c #F28E8D",
"gX c #D4B694",
"hX c #F2AC92",
"jX c #CDB0AD",
"kX c #F3B4A8",
"lX c #FBC68A",
"zX c #FBC997",
"xX c #FDD298",
"cX c #F5D191",
"vX c #D9C4B6",
"bX c #FACDA6",
"nX c #FDD6A7",
"mX c #EFD1B4",
"MX c #9985C2",
"NX c #C6BDC2",
"BX c #D5B8C2",
"VX c #FEB4C5",
"CX c #D4CBD1",
"ZX c #F1D1CE",
"AX c #FFE8C8",
"SX c #EDE2DE",
"DX c #F8DCE5",
"FX c #EAE8EB",
"GX c #F8E7E5",
"HX c #FDFBFD",
"JX c #F9F3F6",
"KX c #F9EAF0",
"LX c #DCDBE0",
/* pixels */
"                                                      P 0 q q 1 q q q 0 6 G T                                           ",
"                                                    n 0 * = = = { - = w n.L b .X                                        ",
"                                                  7 & = _ 2.3.4.-.4.4.C.kXuX7 b R                                       ",
"                                                b 4 = _ 3.6.<.,.1.,.6.Z.kXvXuXL h                                       ",
"                                                3 * _ *.=.>.,.,.<.7.6.Z.fXZXGXtX# oX                                    ",
"                                              J & ( 3.=.&.&.>.,.,.9.#.2.m.D.ZXV.& J                                     ",
"                                            U 4 - _ 6.&.&.&.,.,.1.:.#.@._ C.fXm.* 6 J                                   ",
"                                          U 4 * ( @.7.&.>.>.,.,.,.<.#.) ` 2.C.v.o.= 3 U                                 ",
"                                        U 4 * ( ` -.7.>.&.>.,.,.:.%.#.+.$.#.8.8.4...= e oX                              ",
"                                      J 3 & ( ` 3.6.7.>.>.>.>.<.%.#.+.+.6.<.<.8.8.5.X.4 T                               ",
"                                    U 3 = _ @.:.7.<.<.7.7.<.%.%.@.) $.%.<.:.#.#.;.o.e 7 E                               ",
"                                  Y 8 & o.3.7.>.>.<.<.:.:.%.%.+.+.@.-.8.9.4.@.' ( - 3 J                                 ",
"                                  8 4 ( @.6.>.>.>.7.:.%.#.#.#.+.$.3.;.v.fXfXg.} - 4 H wX                                ",
"                                  # * o.3.:.&.&.:.:.%.$.+.+.) ) *.4.C.D.fXhXL.q.& u !                                   ",
"                                  # * ( ` $.$.$.$.$.$.$.) ) ` ` *.S.hXhXn.y.L.w.. 5 !                                   ",
"                                  8 0 ( ' ` ` ` ` ' ) ` ` _ O.g.j.P.mXvXa t T.d., 5 J wX                                ",
"                                  U 5 & ( ' ' _ _ ' ' ' _ } a.P.P.T.mXvXp u.lXH.1 , 5 H                                 ",
"                                    K . ( } _ O.D.S.S.O.} { f.R.E.E.AXvXp u.bXgXJ.J.B.G J                               ",
"                                    oX; 1 { o.A.kXbXhXf.] ] f.E.zXnXAXmXs M.bXbXnXAXvXL 5 K                             ",
"                                    oX8 : < A.hXnXzXW.d.0.w.d.f.Y.nXAXmXY.Y.xXnXnXAXmXiXM.%                             ",
"                                      ! 5 d T.lXlXR.I.f.w.p.d.s.U.nXmXcXcXxXxXnXnXxXxXxXJ.o .X                          ",
"                                      sXK i H.I.I.R.Q.I.h.w.f.Y.cXnXgXY.Y.Q.lXxXxXxXxXW.M.o XX                          ",
"                                        wX/ s.F.G.I.R.R.I.H.U.bXbXgXK.K.K.J.W.E.E.E.W.H.t.5                             ",
"                                          yXd t G.P.I.Q.cXlXxXnXhXJ.I P s n.H.L.I.T.L.> , G                             ",
"                                        eXL q < p.p.h.L.R.R.R.R.T.U.M.u 6 p M.u.y.t.s i K                               ",
"                                        Y # 0 w w e X.m.A.P.P.P.I.L.M.u ; ; 6 6 . . # K                                 ",
"                                      ~ 8 & 2 2 V B V z.a.a.g.S.S.P.N.n.p 6 3 5 F !                                     ",
"                                    ~ 9 0 * * r V '.'.C | ( O.g.j.h.N.V.n.: & 5 K                                       ",
"                    XXY h F h h $ 8 3 * o.O.2.O.l.N ].].V v  .2.;.O.Z Z m * & 6                                         ",
"                    $ L Q Q Q W I B.s - O.8.6.-.b.c.'.].[.C l.....| N M v | = * 9                                       ",
"                  A @ tXGXKXGXCXCXDXfXx.3.=.6.8.-.b.k.M ^.].N |  .| M '.k.l.O.{ & n oX                                  ",
"                Y J tXvXHXHXKXGXFXDXVXfXZ.=.#.#.#...l.V ^.^.C k.| l.'.].N l.5._ ( e H XX                                ",
"                A W FXHXHXHXHXHXFXCXDXDXS.*.@.` `  .v C [.[.C Z Z Z ].^.[.Z  .2.O.w 4 b XX                              ",
"                h L CXFXJXHXHXHXFXCXFXGXD.` .. .| l.Z  XpXpX0X0X X@X9X4XMXqX ...o.N.V.G F XX                            ",
"                F / aXLXJXHXHXHXJXCXDXDXD. .k.v N V {.0XgXkXaX+X4X8X8XrXBXfXo.O.m.dXjXW y A                             ",
"                h G yXNXLXFXHXHXFXCXGXKXqXv N '.].{.+XpXT.W.pX+X6X7X8X5XdXA.o.C.kXjXBXaXB.$ XX                          ",
"                J G I yXjXSXJXJXLXjXaXpX0X'.]._._.9X5XpXU.L.yXOX6X7X8X5XuXA.a.U.ZXCXCXNXK.@ .X                          ",
"                R b # L iXZXGXLXNXyXL $ x ^._.#X$X-X4XsXJ.J.sX4X6X,X8X5XyXU.J.jXCXCXNXaXQ @ XX                          ",
"                  ! h G L B.tXB.Q B.u + z _.#X%X;X3X4X5X+X+X5X6X,X,X7X4X@XoXoXyXaXaXuXQ G $                             ",
"                    E H @ @ $ @ 7 G 5 + ~.(.$X;X1X,X6X4X4X4X6X,X7X2X2X3X}.^.|.XXyXyXB.% $ Y                             ",
"                                ~   $ f !.$X;X3X2X2X6X6X,X,X7X7X2X2X1X<X%X/.^.D G u y A E                               ",
"                                  H j l !.$X;X<X1X1X7X7X2X1X1X7X1X7X<X;X%X%X}.l X O % Y                                 ",
"                                  j x ~.).$X%X>X1X1X1X1X7X1X1X1X<X7X-X$X$X=X-X|.+ $ E                                   ",
"                                  + z `.(.#X&X%X:X:X;X;X:X:X:X:X:X:X*X*X=X;X6X}.x h                                     ",
"                                H g ~.).(.#X&X%X$X(.(.(.(._.(.(.).(./.=X3X1X7X6XOXx S                                   ",
"                                g x !./.$X#X&X#X/.!.~.k k k k k k ~.).$X=X3X6X4XOXx h                                   ",
"                              D l ^._.#X$X$X$X#X`.z g + g g g + + f !.(.$X-X4X+XoXb # b                                 ",
"                            R g c ~.`._.).).).!.z j F           ; X z `.`.^.{.! B.P 4 3 H                               ",
"                            8 # b n B B x ^.x j g H           K 5 # j B B n e u.n.i.< : 3 F                             ",
"                          8 ; > e m I ^ T n 7 % F             % , q n m m e < 0.e.[ [ 1 : #                             ",
"                        h 3 , < X.w i.u.s q 4 3 8             O , t.w w w w [ < ] ] ] q.q . ~                           ",
"                        @ > < ] [ [ [ [ [ < < : # .X          @ a d.q.] ] < [ ] ] ] e.p.a o ~                           ",
"                      oXX p y.] < ] ] ] ] ] y.q # .X          A > t q.r.r.r.r.w.r.r.q.0.q 8                             ",
"                      ~ # a y.e.] e.] ] 0.e.y.s @ .X          R 8 , t.p.d.d.d.d.d.d.w., 3 Y                             ",
"                        8 6 < y.w.r.r.p.p.q.< 6 b               ! 8 6 > > > > > , > 6 8 U                               ",
"                        W 8 > a y.y.y.y.y.t.: 8 R                   K 8 G y y y y y F R                                 ",
"                          ! F # ; ; ; ; ; ; u W                                                                         ",
"                              R U U U U U E                                                                             ",
"                                                                                                                        ",
"                                                                                                                        "
};
